<svg width="863" height="779" viewBox="0 0 863 779" fill="none" xmlns="http://www.w3.org/2000/svg">
<rect width="863" height="779" fill="none"/>
<path d="M298.296 485.295C299.364 472.706 310.435 463.366 323.023 464.434L796.62 504.602C809.208 505.669 818.548 516.74 817.48 529.328C815.112 557.245 801.472 582.992 779.705 600.631L688.086 674.875C681.567 680.158 678.308 682.799 675.073 685.278C622.698 725.413 558.552 747.161 492.568 747.155C488.492 747.154 484.298 747.04 475.911 746.811L380.832 744.218C354.178 743.491 328.958 731.987 310.937 712.335C292.329 692.044 283.064 664.888 285.391 637.454L298.296 485.295Z" fill="#104F6A"/>
<path d="M121.044 571.646C98.9092 547.509 87.9383 535.542 79.1362 523.809C13.787 436.701 1.15566 320.883 46.1912 221.736C52.2573 208.382 60.3907 194.331 76.802 165.99C98.5462 128.44 109.331 109.823 120.297 95.309C202.774 -13.8567 348.992 -52.8337 474.865 0.792288C491.6 7.92214 510.221 18.7004 547.771 40.4446L732.653 147.504C831.35 204.656 886.722 314.927 873.615 428.221C865.011 502.6 827.616 570.65 769.443 617.791L707.765 667.772C681.281 689.234 668.154 699.868 654.343 708.736C613.361 735.051 566.553 750.921 518.017 754.956C501.661 756.316 484.773 755.858 450.697 754.928C411.811 753.868 392.538 753.338 374.178 750.527C319.633 742.173 268.478 718.839 226.414 683.124C212.255 671.102 199.221 656.895 172.929 628.225L121.044 571.646Z" stroke="#3098C5" stroke-width="4"/>
<path d="M112.06 605.037C89.1003 581.684 77.7204 570.106 68.5159 558.686C0.179759 473.9 -16.4678 358.591 25.0959 257.939C30.6943 244.382 38.3346 230.058 53.7514 201.164C74.1779 162.881 84.3094 143.9 94.7643 129.014C173.399 17.0486 318.174 -26.9849 445.834 22.2355C462.807 28.7796 481.791 38.9045 520.074 59.3309L708.565 159.903C809.187 213.591 868.357 321.871 859.194 435.552C853.179 510.185 818.171 579.493 761.671 628.627L701.767 680.721C676.045 703.09 663.295 714.174 649.8 723.516C609.757 751.239 563.529 768.726 515.163 774.445C498.864 776.372 481.97 776.501 447.882 776.756C408.983 777.047 389.703 777.188 371.256 775.015C316.454 768.562 264.519 747.019 221.24 712.788C206.671 701.265 193.152 687.519 165.88 659.779L112.06 605.037Z" stroke="#3098C5" stroke-opacity="0.31" stroke-width="4"/>
</svg>
