<svg width="428" height="428" viewBox="0 0 428 428" fill="none" xmlns="http://www.w3.org/2000/svg">
<path d="M214 12.7025C214 5.68709 208.306 -0.0393046 201.303 0.376639C149.178 3.47262 99.8089 25.5494 62.6792 62.6791C22.5464 102.812 4.9618e-06 157.244 0 214C-4.9618e-06 270.756 22.5464 325.188 62.6791 365.321C99.8089 402.451 149.178 424.527 201.303 427.623C208.306 428.039 214 422.313 214 415.298C214 408.282 208.305 402.64 201.306 402.168C155.924 399.108 113.008 379.721 80.6431 347.357C45.2747 311.988 25.4049 264.018 25.4049 214C25.4049 163.981 45.2747 116.012 80.6432 80.6431C113.008 48.2787 155.924 28.892 201.306 25.8323C208.305 25.3603 214 19.7178 214 12.7025Z" fill="url(#paint0_linear_2056_37)"/>
<path d="M214 415.298C214 422.313 219.694 428.039 226.697 427.623C278.822 424.527 328.191 402.451 365.321 365.321C405.454 325.188 428 270.756 428 214C428 157.244 405.454 102.812 365.321 62.6791C328.191 25.5494 278.822 3.47261 226.697 0.376635C219.694 -0.0393189 214 5.68706 214 12.7024C214 19.7178 219.695 25.3603 226.694 25.8323C272.076 28.892 314.992 48.2787 347.357 80.6431C382.725 116.012 402.595 163.981 402.595 214C402.595 264.019 382.725 311.988 347.357 347.357C314.992 379.721 272.076 399.108 226.694 402.168C219.695 402.64 214 408.282 214 415.298Z" fill="url(#paint1_linear_2056_37)"/>
<g clip-path="url(#clip0_2056_37)">
<path d="M303.472 327.925C302.201 333.299 300.506 338.673 298.246 343.765C296.552 347.725 294.574 354.231 289.349 354.373C277.204 354.938 242.039 323.257 233.989 315.903C233.424 315.337 227.634 309.397 226.787 309.962C226.08 310.387 225.516 310.67 224.668 311.094C211.252 317.6 188.373 312.508 179.9 299.921C172.697 289.172 174.251 272.766 187.244 267.108C202.778 260.461 226.08 267.957 233 284.08C233.424 284.222 233.707 284.363 233.707 284.363C263.646 297.658 278.051 301.901 300.647 311.518C306.72 314.347 304.884 321.701 303.472 327.925Z" fill="#C05E46"/>
<path opacity="0.25" d="M304.319 323.399C303.472 323.964 302.766 328.49 302.483 329.622C301.495 333.016 297.117 345.886 295.987 349.281C294.292 354.231 288.502 356.494 283.983 353.807C256.867 337.683 242.039 323.116 226.787 310.104C226.08 310.528 225.516 310.811 224.668 311.235C227.634 309.962 228.34 306.992 236.249 307.417C250.512 308.265 268.024 323.681 279.04 327.076C287.372 329.622 296.975 328.207 304.319 323.399Z" fill="#0A1640"/>
<path opacity="0.5" d="M236.814 292.708C248.676 296.385 269.295 305.012 280.593 311.094C281.582 311.66 280.876 313.074 279.887 312.65C268.024 308.972 247.547 300.345 236.107 294.122C235.401 293.698 235.966 292.425 236.814 292.708Z" fill="white"/>
<path d="M289.067 355.08C280.734 355.08 262.093 342.209 233.707 316.751L233.424 316.468C233.283 316.327 233.142 316.186 232.718 315.761C228.905 312.084 227.493 310.952 226.928 310.67C226.222 311.094 225.657 311.377 224.951 311.66C210.687 318.448 187.526 312.65 179.194 300.204C175.098 293.981 173.686 285.919 175.663 278.989C177.358 273.19 181.312 268.664 186.679 266.401C194.87 262.865 205.32 263.148 214.924 266.967C223.538 270.503 230.035 276.301 233.283 283.656C233.565 283.797 233.707 283.797 233.707 283.797C251.218 291.576 263.364 296.243 275.085 300.769C283.418 304.022 291.326 306.992 300.647 310.952C307.426 313.781 305.59 321.56 304.037 327.783V328.066C302.766 333.44 300.93 338.815 298.811 344.048C298.67 344.472 298.388 344.897 298.246 345.462C296.693 349.422 294.433 354.938 289.208 355.08H289.067ZM226.928 309.255C227.775 309.255 229.47 310.387 233.848 314.771C234.13 315.054 234.413 315.337 234.554 315.337L234.836 315.62C270.284 347.442 284.124 353.807 289.49 353.665C293.727 353.524 295.563 348.715 297.117 344.896C297.258 344.331 297.54 343.906 297.681 343.482C299.8 338.391 301.636 333.158 302.766 327.783V327.5C304.178 321.56 305.731 314.771 300.223 312.367C290.903 308.407 282.994 305.437 274.803 302.184C263.081 297.658 250.936 292.99 233.424 285.212C233.283 285.212 233.142 285.07 232.859 284.929C232.718 284.787 232.577 284.646 232.436 284.504C229.47 277.574 223.256 271.775 214.782 268.381C205.603 264.704 195.435 264.421 187.667 267.815C181.171 270.644 178.488 275.736 177.499 279.413C175.663 285.919 176.793 293.556 180.747 299.355C188.797 311.377 210.969 316.893 224.668 310.245C225.374 309.962 225.939 309.538 226.645 309.114C226.504 309.255 226.645 309.255 226.928 309.255Z" fill="#0A1640"/>
<path d="M222.691 255.511C222.691 255.369 222.691 255.369 222.691 255.511L219.867 232.316L217.748 214.919C217.748 214.636 217.607 214.495 217.466 214.354C214.076 212.091 206.874 207.848 196.988 206.575C194.729 206.292 192.469 206.15 190.209 206.15C188.232 206.15 186.396 206.292 184.419 206.433C168.037 208.413 157.869 218.172 154.197 222.274C154.056 222.415 153.915 222.698 154.056 222.84L154.197 224.395L156.88 245.752L159.281 264.845C159.281 265.27 159.705 265.552 159.987 265.552C159.987 265.552 159.987 265.552 160.128 265.552L161.682 265.411L174.251 263.855L196 261.168L198.118 260.885H198.259L222.409 257.915C222.55 257.915 222.832 257.774 222.973 257.632C223.115 257.491 223.115 257.208 223.115 257.066L222.691 255.511Z" fill="#D811AD"/>
<path d="M158.999 258.481C158.575 258.481 158.293 258.198 158.293 257.774L154.903 229.628C154.903 229.487 154.903 229.204 155.044 229.063C155.186 228.921 155.327 228.78 155.609 228.78L218.031 221.142C218.031 221.142 218.031 221.142 218.172 221.142C218.596 221.142 218.878 221.425 218.878 221.85L222.267 249.995C222.267 250.136 222.267 250.419 222.126 250.56C221.985 250.702 221.844 250.843 221.561 250.843L158.999 258.481Z" fill="#FFCE00"/>
<path d="M208.145 337.683L198.683 260.744L197.977 260.885L184.278 262.582L183.572 262.724L193.034 339.663C193.457 343.482 196.847 346.452 200.66 346.452C200.942 346.452 201.225 346.452 201.649 346.452C203.626 346.169 205.462 345.179 206.733 343.482C207.862 341.785 208.427 339.663 208.145 337.683Z" fill="#6B7FFF"/>
<path d="M204.332 183.663C202.92 171.924 193.457 162.73 182.301 162.306C182.018 162.306 181.736 162.306 181.453 162.306C180.606 162.306 179.759 162.306 178.911 162.448C172.839 163.155 167.613 166.408 163.8 171.499C160.128 176.591 158.575 182.814 159.281 189.178C160.411 198.372 166.484 206.15 174.675 209.262C177.075 210.111 179.617 210.535 182.018 210.535C182.866 210.535 183.713 210.535 184.702 210.393C197.271 208.979 206.027 196.957 204.332 183.663Z" fill="#6B7FFF"/>
<path d="M198.683 246.318C196.706 244.62 197.835 241.933 200.095 240.802C203.626 238.963 207.439 239.529 209.275 241.085C213.794 244.903 203.626 250.419 198.683 246.318Z" fill="#D811AD"/>
<path d="M180.041 248.581C181.595 246.459 179.759 244.196 177.358 243.63C173.404 242.782 169.873 244.196 168.602 246.035C164.93 250.985 176.228 253.814 180.041 248.581Z" fill="#D811AD"/>
<path opacity="0.5" d="M217.889 221.991L221.279 250.136L158.857 257.774L158.716 256.642C160.411 254.803 162.67 253.389 164.93 252.541C167.613 251.551 182.724 249.853 184.984 249.57C190.633 249.005 196.141 248.156 201.79 247.308C204.897 246.883 208.569 246.742 210.404 243.772C213.935 237.832 208.851 230.053 210.122 222.84L217.889 221.991Z" fill="#E38921"/>
<path opacity="0.5" d="M169.308 177.722C168.037 179.844 167.19 182.107 167.331 181.965C167.048 182.814 165.636 182.673 165.636 181.682C165.071 174.469 172.415 167.115 179.617 167.681C180.465 167.681 180.747 168.953 179.9 169.378C178.911 169.802 173.545 171.216 169.308 177.722Z" fill="white"/>
<g opacity="0.25">
<path d="M184.137 262.582L189.927 309.68C194.729 304.73 198.683 299.072 201.79 292.849L197.835 260.885L184.137 262.582Z" fill="#0A1640"/>
<path d="M190.351 215.768C189.503 216.475 188.656 217.182 187.809 217.889L215.489 214.495C215.63 214.495 215.63 214.495 215.771 214.495C216.053 214.495 216.336 214.495 216.477 214.637C213.653 212.798 206.591 208.696 196.988 207.282C195.152 210.535 192.893 213.364 190.351 215.768Z" fill="#0A1640"/>
<path d="M174.957 208.555C178.064 209.686 181.312 210.111 184.702 209.686C196.706 208.272 205.179 196.674 203.626 183.804C202.213 172.207 193.034 163.579 182.301 163.155C183.007 164.569 183.713 166.125 184.137 167.681C185.831 172.914 185.973 178.712 185.408 184.228C184.278 193.139 180.888 201.908 174.957 208.555Z" fill="#0A1640"/>
<path d="M215.065 215.344C212.099 217.748 210.687 220.294 210.263 222.981L217.889 221.991L217.183 216.617C217.042 215.768 216.195 215.061 215.347 215.202L215.065 215.344Z" fill="#0A1640"/>
<path d="M221.279 250.136L158.857 257.774L159.564 263.148C159.705 263.997 160.411 264.704 161.399 264.562L220.573 257.349C221.42 257.208 222.126 256.501 221.985 255.511L221.279 250.136Z" fill="#0A1640"/>
</g>
<path d="M170.297 194.129C166.342 194.129 162.388 193.846 158.434 193.422C156.457 193.139 154.903 191.3 155.186 189.32C155.468 187.481 157.021 186.067 158.857 186.067C158.999 186.067 159.14 186.067 159.281 186.067C162.953 186.491 166.625 186.774 170.297 186.774C174.11 186.774 178.064 186.491 181.877 186.067C189.362 185.077 196.706 183.38 203.767 180.693C204.191 180.551 204.614 180.41 205.038 180.41C206.591 180.41 208.004 181.4 208.569 182.814C209.275 184.794 208.286 186.916 206.45 187.623C198.824 190.451 190.915 192.432 182.866 193.422C178.629 193.846 174.392 194.129 170.297 194.129Z" fill="#332FBA"/>
<path d="M223.397 255.369L222.832 250.136V249.995L219.443 221.85C219.443 221.85 219.443 221.85 219.443 221.708L218.737 216.475L218.596 214.919C218.596 214.495 218.313 214.071 217.889 213.788C214.359 211.383 207.015 207.282 197.129 205.868H196.988C198.259 204.736 199.53 203.463 200.66 201.907C203.484 198.089 205.179 193.421 205.462 188.613C205.885 188.471 206.45 188.33 206.874 188.188C209.133 187.34 210.404 184.794 209.416 182.39C208.71 180.692 207.015 179.42 205.179 179.42C204.897 179.42 204.755 179.42 204.473 179.42C201.507 169.378 192.751 161.882 182.583 161.458C182.301 161.458 182.018 161.458 181.736 161.458C180.888 161.458 180.041 161.458 179.194 161.599C167.331 163.155 158.857 173.338 158.434 185.218C156.315 185.36 154.621 187.057 154.338 189.178C154.056 191.583 155.75 193.846 158.292 194.129C158.716 194.129 159.281 194.27 159.705 194.27C161.823 200.635 166.201 205.868 171.991 208.838C162.529 212.656 156.315 218.738 153.632 221.708C153.35 221.991 153.208 222.415 153.208 222.84L153.35 224.395L153.915 229.628V229.77L157.304 257.915L158.01 263.29L158.151 264.845C158.292 265.552 158.857 266.118 159.705 266.118H159.846L161.399 265.977L182.583 263.431L191.904 339.664C192.469 343.907 196 347.018 200.236 347.018C200.519 347.018 200.942 347.018 201.225 347.018C205.885 346.452 209.133 342.209 208.569 337.542L199.248 261.309L220.431 258.764L222.126 258.622C222.55 258.622 222.832 258.339 223.115 258.056C223.397 257.774 223.397 257.349 223.397 256.925V255.369ZM159.281 192.714C158.999 192.714 158.716 192.714 158.434 192.573C156.88 192.431 155.609 190.876 155.892 189.32C156.033 187.906 157.163 186.916 158.434 186.774C158.575 186.774 158.716 186.774 158.716 186.774C158.857 186.774 158.999 186.774 158.999 186.774C159.281 186.774 159.564 186.774 159.846 186.916C163.235 187.34 166.766 187.481 170.155 187.481C174.11 187.481 177.923 187.198 181.736 186.774V185.218C177.923 185.643 174.11 185.925 170.297 185.925C166.907 185.925 163.377 185.784 159.987 185.36C160.27 174.187 168.178 164.71 179.053 163.296C179.9 163.155 180.747 163.155 181.453 163.155C181.736 163.155 182.018 163.155 182.301 163.155C191.763 163.438 200.095 170.368 202.778 179.985C196 182.531 188.938 184.228 181.736 185.077L181.877 186.633C181.877 186.633 181.877 186.633 182.018 186.633C189.221 185.784 196.423 183.945 203.202 181.4C203.484 181.258 203.767 181.258 203.908 181.117C204.191 180.975 204.332 180.975 204.614 180.975C204.755 180.975 204.897 180.975 205.038 180.975C206.309 180.975 207.439 181.682 207.862 182.814C208.427 184.37 207.721 186.067 206.168 186.633C205.885 186.774 205.603 186.774 205.462 186.916C204.897 187.057 204.473 187.34 203.908 187.481C197.129 189.886 190.068 191.583 182.866 192.431H182.724C178.629 192.997 174.533 193.139 170.297 193.139C167.19 193.139 164.083 192.997 160.976 192.714C160.27 192.856 159.846 192.714 159.281 192.714ZM161.399 194.411C164.365 194.694 167.331 194.836 170.297 194.836C174.533 194.836 178.77 194.553 182.866 194.129H183.007C190.068 193.28 197.129 191.583 203.767 189.32C203.202 195.967 199.813 201.907 194.87 205.726C194.164 206.15 193.599 206.716 192.893 207.14C190.492 208.555 187.808 209.545 184.843 209.969C183.995 210.111 183.148 210.111 182.301 210.111C180.324 210.111 178.205 209.828 176.369 209.262C175.946 209.121 175.522 208.979 175.239 208.838C174.816 208.696 174.533 208.555 174.11 208.413C168.178 205.726 163.518 200.776 161.399 194.411ZM173.827 209.686C173.968 209.828 174.251 209.828 174.392 209.969C176.934 210.818 179.476 211.383 182.018 211.383C183.007 211.383 183.854 211.383 184.702 211.242C188.515 210.818 192.045 209.403 195.011 207.14C195.576 207.14 196.141 207.282 196.564 207.282C205.038 208.413 211.393 211.666 214.782 213.788L156.033 221.001C159.281 218.031 165.213 212.939 173.827 209.686ZM154.903 224.395C154.762 223.547 155.468 222.698 156.315 222.557L215.489 215.344C215.63 215.344 215.63 215.344 215.771 215.344C216.618 215.344 217.324 215.909 217.324 216.758L217.748 220.577L155.327 228.214L154.903 224.395ZM155.468 229.628L217.889 221.991L221.279 250.136L198.4 252.965L196.988 253.106L183.289 254.804L181.736 254.945L158.999 257.774L155.468 229.628ZM207.439 337.825C207.862 341.644 205.179 345.038 201.366 345.604C201.084 345.604 200.801 345.604 200.519 345.604C197.129 345.604 194.022 343.058 193.599 339.522L184.278 263.29L197.977 261.592L207.439 337.825ZM199.389 259.895L197.835 260.037L184.137 261.734L182.583 261.875L161.399 264.421C161.258 264.421 161.258 264.421 161.258 264.421C160.411 264.421 159.705 263.855 159.705 263.007L159.281 259.188L182.018 256.359L183.572 256.218L197.271 254.521L198.824 254.379L221.702 251.551L222.126 255.369V255.511C222.126 256.359 221.561 257.066 220.714 257.208L199.389 259.895Z" fill="#0A1640"/>
<path d="M174.675 239.67C176.793 239.387 178.346 237.549 177.923 235.286C177.64 233.164 175.804 231.75 173.545 232.033C171.426 232.316 169.873 234.154 170.155 236.417C170.438 238.397 172.556 240.094 174.675 239.67Z" fill="#0A1640"/>
<path d="M201.649 236.417C207.015 235.569 205.744 227.931 200.801 228.638C198.259 229.063 197.271 231.184 197.412 233.023C197.553 235.003 199.671 236.7 201.649 236.417Z" fill="#0A1640"/>
<path d="M182.442 238.397C183.289 241.509 184.702 243.63 186.679 244.479C187.244 244.762 187.808 244.762 188.373 244.762C189.362 244.762 190.492 244.337 191.339 243.63C193.034 242.216 193.881 239.812 193.74 236.983C193.74 236.276 193.599 235.569 193.599 234.861C193.599 234.578 193.457 234.154 193.457 233.871C193.316 233.447 192.893 233.164 192.61 233.306C192.186 233.447 191.904 233.73 192.045 234.154C192.045 234.154 192.045 234.154 192.045 234.296C192.186 234.861 192.328 235.427 192.328 235.993C192.751 239.246 191.763 241.509 190.492 242.499C189.503 243.347 188.515 243.489 187.385 243.064C185.69 242.357 184.419 240.236 183.854 236.983C183.713 236.417 183.713 235.851 183.572 235.286C183.572 234.861 183.148 234.578 182.724 234.578C182.301 234.578 182.018 235.003 182.018 235.427C182.018 235.71 182.018 236.134 182.16 236.417C182.16 237.124 182.301 237.831 182.442 238.397Z" fill="#0A1640"/>
<path d="M216.053 265.977C205.038 259.188 189.503 259.471 177.923 264.563C174.392 266.118 168.037 269.513 171.991 273.897C172.415 274.321 172.839 274.746 173.404 275.029C171.144 276.726 170.155 278.989 170.72 281.252C171.144 282.807 172.133 284.08 173.686 284.929C172.98 285.636 172.556 286.343 172.274 287.192C171.709 288.606 171.85 290.303 172.697 291.718C173.262 292.708 174.11 293.556 175.239 294.264C175.098 294.405 174.957 294.546 174.957 294.688C173.827 296.385 173.545 298.365 174.251 300.345C175.098 302.325 176.934 303.881 179.053 304.305C179.194 304.305 179.476 304.305 179.759 304.447C179.053 305.437 178.77 306.427 178.911 307.558C179.053 309.255 180.041 310.528 181.595 311.377C184.843 313.216 190.068 312.508 193.175 311.094C195.717 309.821 197.129 308.124 197.129 306.003C197.129 304.447 196.423 303.032 195.011 302.184C194.87 302.042 194.587 302.042 194.446 301.901C197.694 299.921 198.118 297.517 197.835 295.678C197.553 293.556 196.282 292.001 194.022 291.293C194.305 291.011 194.729 290.728 194.87 290.445C195.858 289.313 196.141 287.616 195.858 286.06C195.576 284.646 194.587 283.373 193.316 282.666C192.61 282.383 191.904 282.1 191.057 281.817C192.328 280.262 192.893 278.564 192.469 276.726C192.328 276.443 192.328 276.16 192.186 275.877C194.87 275.311 195.293 275.311 195.435 276.16C197.271 282.666 206.168 292.142 212.805 293.415L232.294 282.242C228.058 275.453 222.55 269.937 216.053 265.977Z" fill="#C05E46"/>
<path d="M232.436 281.676C228.622 275.029 223.115 269.371 216.477 265.27C205.885 258.764 190.351 258.198 177.64 263.714C173.121 265.694 170.579 267.815 170.155 270.078C169.873 271.493 170.297 272.907 171.426 274.18C171.568 274.463 171.85 274.604 171.991 274.746C170.014 276.584 169.167 278.989 169.732 281.393C170.014 282.666 170.862 283.939 171.991 284.787L172.274 285.07L172.133 285.353C171.85 285.777 171.568 286.202 171.426 286.768C170.72 288.465 170.862 290.303 171.85 292.001C172.274 292.849 172.839 293.415 173.545 294.122L173.827 294.263L173.686 294.546C172.697 296.385 172.556 298.365 173.262 300.345C174.11 302.325 175.663 303.881 177.64 304.588L178.064 304.73L177.923 305.154C177.64 305.861 177.64 306.568 177.64 307.275C177.923 309.255 178.911 310.811 180.747 311.801C184.278 313.781 189.786 313.074 193.175 311.518C196 310.104 197.694 308.124 197.694 305.72C197.694 304.164 197.129 302.749 196 301.759L195.717 301.477L196 301.194C198.259 299.214 198.542 296.809 198.259 295.254C197.977 293.273 196.988 291.859 195.435 290.869L195.011 290.586L195.293 290.303C196.282 289.03 196.706 287.192 196.282 285.495C195.858 283.797 194.87 282.383 193.175 281.534C192.893 281.393 192.751 281.252 192.469 281.252L192.045 281.11L192.328 280.686C193.034 279.272 193.316 277.716 192.893 276.301C192.893 276.301 192.893 276.301 192.893 276.16C193.599 276.019 194.164 275.877 194.164 276.019C194.164 276.019 194.164 276.019 194.305 276.16C196.282 282.807 205.32 292.566 212.24 293.839H212.382C212.664 293.839 213.088 293.556 213.088 293.273C213.229 292.849 212.947 292.425 212.523 292.425C206.168 291.152 197.553 281.817 195.717 275.736C195.293 274.321 194.587 274.321 192.186 274.746C191.904 274.887 191.48 274.887 191.057 275.029C190.774 275.029 190.492 275.17 190.209 275.17C189.644 275.311 188.938 275.453 188.232 275.594C183.854 276.443 178.488 276.867 174.816 275.029C174.251 274.746 173.686 274.463 173.262 274.039C172.98 273.897 172.839 273.614 172.556 273.331C171.709 272.341 171.426 271.493 171.568 270.503C171.991 268.805 174.251 266.825 178.205 265.128C190.492 259.754 205.462 260.319 215.771 266.543C222.267 270.503 227.634 275.877 231.165 282.383C231.447 282.666 231.871 282.807 232.153 282.666C232.577 282.524 232.718 281.959 232.436 281.676ZM195.858 305.72C195.858 307.417 194.587 308.831 192.328 309.963C190.633 310.811 188.232 311.377 186.114 311.377C184.419 311.377 182.866 311.094 181.595 310.387C180.324 309.68 179.476 308.548 179.335 307.275C179.335 307.134 179.335 306.992 179.335 306.992C179.335 306.427 179.476 306.002 179.759 305.578C180.182 304.588 181.171 303.74 182.583 303.032C182.724 302.891 182.866 302.891 183.007 302.891C184.984 302.042 187.667 301.618 190.068 301.759C191.763 301.901 193.175 302.325 194.164 303.032C195.293 303.457 195.858 304.447 195.858 305.72ZM196.564 295.536C196.847 297.375 196 299.072 194.164 300.487L194.022 300.628L193.74 300.487C190.068 299.072 184.843 299.779 181.877 301.194C180.747 301.759 179.9 302.325 179.194 303.032L179.053 303.174H178.77C177.075 302.749 175.663 301.618 174.816 300.062C174.11 298.648 174.251 296.951 174.957 295.678C175.098 295.536 175.098 295.395 175.239 295.112C175.663 294.546 176.369 293.839 177.217 293.415C177.358 293.273 177.499 293.273 177.64 293.132C179.759 292.142 182.442 291.718 184.419 291.576H184.56C185.973 291.435 187.95 291.152 189.927 291.293H190.068C191.48 291.435 192.751 291.718 193.74 292.142C195.435 292.849 196.282 293.981 196.564 295.536ZM192.469 283.09C193.599 283.656 194.305 284.646 194.587 285.777C194.87 287.05 194.446 288.465 193.74 289.455C193.599 289.596 193.457 289.738 193.316 289.879L193.175 290.02H193.034C190.774 289.455 187.95 289.313 184.419 289.879C182.442 290.162 179.476 290.586 177.075 291.718C176.369 292.001 175.663 292.425 175.098 292.991L174.816 293.273L174.533 292.991C172.839 291.576 172.133 289.455 172.839 287.616C172.98 287.192 173.262 286.768 173.545 286.343C174.11 285.495 174.816 284.787 175.804 284.222C176.228 283.939 176.652 283.797 176.934 283.515C179.9 282.1 183.995 281.534 187.667 281.959C188.938 282.1 190.068 282.383 190.915 282.666C191.763 282.807 192.186 282.949 192.469 283.09ZM188.656 277.009C189.644 276.867 190.492 276.726 191.198 276.443C191.622 277.574 191.48 278.989 190.633 280.262L190.492 280.544H190.209C185.69 279.554 180.324 280.12 176.511 281.959C175.522 282.383 174.675 283.09 173.827 283.656L173.545 283.797L173.262 283.656C171.991 282.666 171.285 281.252 171.426 279.696C171.568 278.423 172.274 277.15 173.545 276.019C177.64 278.423 183.713 277.999 188.656 277.009Z" fill="#0A1640"/>
<path d="M146.43 177.157C145.017 172.065 143.323 162.73 145.865 152.123C146.006 151.557 146.288 151.133 146.712 150.85C153.067 146.607 158.434 140.95 162.247 134.444C175.381 111.249 157.869 81.4063 122.845 88.1951C84.1494 95.9739 70.3094 137.98 97.2834 154.103C106.322 159.478 116.914 160.75 127.082 158.912C128.07 158.77 129.059 159.336 129.483 160.326C131.319 165.983 135.273 172.772 144.17 178.854C145.159 179.702 146.853 178.571 146.43 177.157Z" fill="#00D4FC"/>
<path opacity="0.25" d="M119.456 159.902C121.574 159.902 123.269 160.185 123.834 157.922C124.399 155.942 123.41 153.254 122.139 151.699C118.467 146.89 110.276 148.587 101.661 144.061C91.0695 138.545 89.6572 128.362 95.3062 118.179C100.532 108.844 111.83 99.6512 108.016 93.4281C107.31 92.4381 95.8711 102.197 94.8825 103.187C91.3519 106.864 88.3862 111.107 86.409 115.775C75.8172 140.101 93.0466 159.619 119.456 159.902Z" fill="#332FBA"/>
<path opacity="0.75" d="M140.074 100.076C143.04 100.783 148.689 104.036 148.689 103.894C148.83 103.894 152.644 106.299 152.502 106.299C153.773 107.006 155.044 105.45 154.056 104.319C143.323 91.1653 127.788 91.8725 119.456 98.6613C118.467 99.5099 119.314 101.207 120.585 100.783C127.505 98.5198 133.437 98.237 140.074 100.076Z" fill="white"/>
<path d="M161.399 100.075C153.491 89.0436 139.086 84.3763 122.704 87.4878C98.8368 92.1551 85.5617 109.269 83.0196 124.119C80.76 136.848 85.9854 148.163 96.8597 154.669C105.474 159.902 116.207 161.599 127.082 159.619C127.788 159.477 128.353 159.902 128.635 160.609C131.036 167.963 135.979 174.328 143.605 179.561C144.029 179.844 144.452 179.985 144.876 179.985C145.3 179.985 145.865 179.844 146.288 179.561C147.136 178.995 147.418 178.005 147.136 177.015C145.865 172.348 144.029 163.013 146.571 152.406C146.712 152.123 146.853 151.84 147.136 151.557C153.773 147.173 159.14 141.374 162.812 134.868C169.308 123.553 168.743 110.259 161.399 100.075ZM161.541 134.161C158.01 140.384 152.785 146.041 146.288 150.284C145.723 150.709 145.3 151.274 145.017 151.981C142.334 163.013 144.17 172.631 145.582 177.439C145.723 178.005 145.441 178.288 145.3 178.288C145.159 178.429 144.735 178.571 144.311 178.288C136.968 173.338 132.166 167.256 129.906 160.185C129.483 158.912 128.353 158.204 127.223 158.204C127.082 158.204 126.941 158.204 126.658 158.204C115.925 160.185 105.898 158.487 97.4246 153.537C86.9739 147.314 82.1723 136.707 84.2907 124.543C86.8327 110.259 99.6842 93.7109 122.845 89.185C138.803 86.0735 152.361 90.4579 160.128 101.207C167.19 110.541 167.613 123.27 161.541 134.161Z" fill="#0A1640"/>
<path d="M108.581 123.695C106.039 124.402 104.486 126.948 105.192 129.635C105.898 132.181 108.44 133.736 111.123 133.029C113.665 132.322 115.219 129.776 114.513 127.089C113.665 124.543 111.123 122.987 108.581 123.695Z" fill="#0A1640"/>
<path d="M124.963 129.211C127.615 129.211 129.765 127.058 129.765 124.402C129.765 121.746 127.615 119.593 124.963 119.593C122.312 119.593 120.162 121.746 120.162 124.402C120.162 127.058 122.312 129.211 124.963 129.211Z" fill="#0A1640"/>
<path d="M138.803 115.774C136.261 116.482 134.708 119.027 135.414 121.715C136.12 124.26 138.662 125.816 141.346 125.109C143.888 124.402 145.441 121.856 144.735 119.169C144.029 116.623 141.487 115.067 138.803 115.774Z" fill="#0A1640"/>
<path d="M327.197 194.412C326.915 196.25 326.35 197.947 325.644 199.786C324.09 204.17 321.69 208.272 318.583 211.808C318.583 211.808 318.583 211.808 318.441 211.949C309.968 221.567 296.128 227.648 279.746 226.234C279.04 226.234 278.475 226.093 277.769 226.093C277.063 226.093 276.498 225.951 275.933 225.81C275.368 225.668 274.662 225.668 274.097 225.527C273.532 225.385 272.967 225.385 272.402 225.244C272.402 225.244 272.261 225.244 272.12 225.244C269.719 224.82 267.459 224.254 265.2 223.405C264.635 223.264 264.211 222.981 263.646 222.84C263.505 222.84 263.505 222.84 263.364 222.698C262.94 222.557 262.375 222.274 261.952 222.132C261.528 221.991 261.104 221.708 260.681 221.567C260.257 221.425 259.833 221.142 259.551 221.001C259.127 220.86 258.845 220.577 258.421 220.435C258.138 220.294 257.997 220.152 257.715 220.011C257.574 220.011 257.432 219.87 257.291 219.728C256.867 219.587 256.585 219.304 256.161 219.021C256.02 219.021 256.02 218.88 255.879 218.88C255.596 218.738 255.455 218.597 255.173 218.455C255.032 218.314 254.89 218.314 254.749 218.172C254.608 218.172 254.608 218.031 254.467 218.031C254.184 217.748 253.761 217.607 253.478 217.324C252.772 216.758 252.207 216.334 251.501 215.627C251.218 215.344 250.795 215.061 250.512 214.778C250.371 214.637 250.089 214.354 249.947 214.212C249.806 214.071 249.524 213.788 249.383 213.646C245.005 208.696 242.745 203.18 241.756 198.655C241.615 198.23 241.615 197.947 241.474 197.523C241.474 197.382 241.474 197.24 241.333 196.957C241.191 196.533 241.191 196.109 241.05 195.543C241.05 195.26 240.909 194.836 240.909 194.553C240.909 194.27 240.909 193.846 240.768 193.563C240.485 190.593 240.627 188.613 240.485 188.471C238.932 185.501 228.199 190.734 226.222 191.583C225.233 192.007 223.962 191.159 223.962 189.461C223.821 183.804 233.989 174.045 244.722 171.641C245.146 171.499 245.569 171.358 245.711 170.934C249.806 160.892 262.658 154.669 272.543 152.972C293.021 149.436 311.663 156.083 321.125 168.388C323.667 171.782 325.503 175.459 326.633 179.702C328.186 184.228 328.327 189.179 327.197 194.412Z" fill="#00D4FC"/>
<path opacity="0.25" d="M327.197 194.412C326.209 201.2 323.102 206.999 318.583 211.808C318.583 211.808 318.583 211.808 318.441 211.949C308.979 222.132 293.586 227.365 279.746 226.234C279.04 226.234 278.475 226.093 277.769 226.093C277.063 226.093 276.498 225.951 275.933 225.81C275.368 225.668 274.662 225.668 274.097 225.527C273.532 225.385 272.967 225.385 272.402 225.244C272.402 225.244 272.261 225.244 272.12 225.244C269.719 224.82 267.459 224.112 265.2 223.405C264.635 223.264 264.211 222.981 263.646 222.84C263.505 222.84 263.505 222.84 263.364 222.698C262.94 222.557 262.375 222.274 261.952 222.132C261.528 221.991 261.104 221.708 260.681 221.567C260.257 221.425 259.833 221.142 259.551 221.001C259.127 220.86 258.845 220.577 258.421 220.435C258.138 220.294 257.997 220.152 257.715 220.011C257.574 220.011 257.432 219.869 257.291 219.728C256.867 219.587 256.585 219.304 256.161 219.021C256.02 219.021 256.02 218.879 255.879 218.879C255.455 218.597 255.173 218.455 254.749 218.172C254.608 218.172 254.608 218.031 254.467 218.031C254.184 217.748 253.761 217.607 253.478 217.324C252.772 216.758 252.207 216.334 251.501 215.626C251.218 215.344 250.795 215.061 250.512 214.778C250.371 214.636 250.089 214.354 249.947 214.212C249.806 214.071 249.524 213.788 249.383 213.646C246.134 210.111 243.592 205.726 242.18 200.352C242.039 199.786 241.898 199.22 241.756 198.513C241.615 198.089 241.615 197.806 241.474 197.382C241.474 197.24 241.474 197.099 241.333 196.816C241.191 196.392 241.191 195.967 241.05 195.402C241.05 195.119 240.909 194.694 240.909 194.412C240.909 194.129 240.909 193.704 240.768 193.421C243.169 196.392 247.97 200.917 256.726 207.848C273.25 221.001 312.51 220.577 315.899 193.846C316.747 187.057 313.64 178.288 318.3 171.358C318.583 171.075 319.995 169.378 321.266 168.246C323.808 171.641 325.644 175.318 326.774 179.561C326.915 182.107 327.056 184.653 327.197 186.633C327.762 189.461 327.621 192.007 327.197 194.412Z" fill="#332FBA"/>
<path opacity="0.75" d="M265.2 161.599C269.154 160.326 273.25 159.478 277.345 159.195C281.441 158.77 285.677 158.912 289.773 159.336C293.868 159.902 298.105 160.892 301.918 162.589C305.731 164.286 309.403 166.691 312.228 169.661C312.51 169.944 312.51 170.509 312.228 170.934C311.945 171.217 311.38 171.217 311.098 171.075C307.85 168.812 304.46 166.832 300.788 165.559C297.117 164.286 293.303 163.296 289.349 162.872C285.395 162.306 281.441 162.165 277.486 162.306C273.532 162.448 269.436 162.731 265.482 163.296C265.058 163.296 264.635 163.013 264.494 162.589C264.635 162.165 264.917 161.74 265.2 161.599Z" fill="white"/>
<path d="M327.762 179.561C326.774 175.459 324.797 171.499 322.255 167.963C312.369 154.952 293.021 148.729 272.967 152.123C258.138 154.669 248.535 163.296 245.569 170.651C245.569 170.792 245.428 170.934 245.146 170.934C235.684 173.055 223.538 182.531 223.68 189.603C223.68 190.734 224.245 191.724 224.951 192.149C225.516 192.573 226.363 192.573 226.928 192.29L227.493 192.007C237.802 187.34 239.779 188.188 240.203 188.754C240.203 188.896 240.203 189.037 240.203 189.32C240.203 190.169 240.203 191.724 240.344 193.563C240.344 193.846 240.344 194.27 240.485 194.553L240.627 195.543C240.768 195.967 240.768 196.533 240.909 196.957C240.909 197.099 240.909 197.382 241.05 197.523C241.191 197.947 241.191 198.23 241.333 198.655C242.604 204.595 245.287 209.828 249.1 214.071C249.241 214.212 249.383 214.354 249.524 214.636C249.665 214.919 249.947 215.061 250.089 215.202C250.371 215.485 250.654 215.768 251.077 216.192C251.783 216.758 252.348 217.324 253.054 217.889C253.337 218.172 253.619 218.314 253.902 218.597L254.043 218.738C254.043 218.738 254.184 218.738 254.184 218.879H254.325C254.467 219.021 254.608 219.162 254.749 219.162C254.89 219.304 255.173 219.445 255.455 219.587L255.738 219.728C256.161 220.011 256.444 220.152 256.867 220.435C257.009 220.577 257.15 220.577 257.291 220.718C257.574 220.86 257.715 221.001 257.997 221.142C258.421 221.284 258.703 221.567 259.127 221.708L259.268 221.85C259.692 221.991 259.974 222.274 260.398 222.415C260.822 222.557 261.245 222.84 261.669 222.981C262.093 223.122 262.658 223.405 263.081 223.547H263.223H263.364C263.929 223.688 264.352 223.971 264.917 224.113C267.177 224.82 269.578 225.527 271.979 225.951H272.12C272.685 226.093 273.25 226.234 273.814 226.234C274.379 226.375 275.085 226.375 275.792 226.517C276.498 226.658 277.063 226.658 277.769 226.8C278.475 226.941 279.04 226.941 279.746 226.941C281.299 227.083 282.853 227.083 284.406 227.083C298.246 227.083 310.815 221.85 319.148 212.374L319.289 212.232C322.537 208.555 324.938 204.453 326.491 199.927C327.197 198.089 327.621 196.25 328.045 194.412C329.033 189.32 329.033 184.228 327.762 179.561ZM326.491 194.27C326.209 195.967 325.644 197.806 325.079 199.645C323.526 203.888 321.266 207.848 318.159 211.384L318.018 211.525C308.979 221.708 295.139 226.8 279.887 225.527C279.181 225.527 278.616 225.385 277.91 225.385C277.204 225.385 276.639 225.244 276.074 225.103C275.509 224.961 274.803 224.961 274.238 224.82C273.673 224.678 273.108 224.678 272.543 224.537H272.261C269.86 224.113 267.601 223.547 265.482 222.698C264.917 222.557 264.494 222.274 263.929 222.132L263.646 221.991C263.223 221.85 262.658 221.567 262.234 221.425C261.81 221.284 261.387 221.001 260.963 220.86C260.539 220.718 260.116 220.435 259.833 220.294L259.692 220.152C259.409 220.011 258.986 219.87 258.703 219.587C258.562 219.445 258.28 219.445 257.997 219.162C257.856 219.162 257.715 219.021 257.574 218.879C257.15 218.738 256.867 218.455 256.444 218.172L256.161 218.031C256.02 217.889 255.738 217.748 255.596 217.607C255.455 217.465 255.314 217.465 255.173 217.324H255.032C254.89 217.324 254.89 217.182 254.89 217.182L254.749 217.041C254.467 216.899 254.184 216.617 253.902 216.334C253.196 215.768 252.631 215.344 252.066 214.778C251.783 214.495 251.501 214.212 251.077 213.929C250.936 213.788 250.654 213.646 250.512 213.364C250.371 213.222 250.23 212.939 249.947 212.798C246.276 208.838 243.734 203.888 242.604 198.089C242.463 197.664 242.463 197.382 242.321 196.957C242.321 196.816 242.321 196.674 242.18 196.533C242.039 196.109 242.039 195.684 241.898 195.119L241.756 194.129C241.756 193.846 241.756 193.421 241.615 193.139C241.474 191.3 241.474 189.886 241.474 188.896C241.474 188.188 241.474 187.906 241.333 187.764C239.779 184.794 232.577 187.481 226.645 190.31L226.08 190.593C225.798 190.734 225.657 190.593 225.516 190.451C225.092 190.169 224.951 189.744 224.951 189.178C224.809 183.804 234.836 174.469 245.146 172.065C245.852 171.924 246.417 171.499 246.699 170.792C250.654 161.175 263.081 154.952 272.967 153.254C292.456 149.86 311.239 155.8 320.842 168.388C323.384 171.782 325.22 175.459 326.209 179.42C327.48 184.511 327.48 189.32 326.491 194.27Z" fill="#0A1640"/>
<path d="M309.121 174.894H257.432C257.009 174.894 256.726 175.177 256.726 175.601C256.726 176.025 257.009 176.308 257.432 176.308H309.121C309.544 176.308 309.827 176.025 309.827 175.601C309.827 175.177 309.544 174.894 309.121 174.894Z" fill="#0A1640"/>
<path d="M309.121 184.37H257.432C257.009 184.37 256.726 184.653 256.726 185.077C256.726 185.501 257.009 185.784 257.432 185.784H309.121C309.544 185.784 309.827 185.501 309.827 185.077C309.827 184.794 309.544 184.37 309.121 184.37Z" fill="#0A1640"/>
<path d="M309.121 193.987H257.432C257.009 193.987 256.726 194.27 256.726 194.694C256.726 195.119 257.009 195.402 257.432 195.402H309.121C309.544 195.402 309.827 195.119 309.827 194.694C309.827 194.27 309.544 193.987 309.121 193.987Z" fill="#0A1640"/>
<path d="M309.121 203.463H257.432C257.009 203.463 256.726 203.746 256.726 204.17C256.726 204.595 257.009 204.877 257.432 204.877H309.121C309.544 204.877 309.827 204.595 309.827 204.17C309.827 203.887 309.544 203.463 309.121 203.463Z" fill="#0A1640"/>
<path d="M302.059 213.081H264.494C264.07 213.081 263.787 213.364 263.787 213.788C263.787 214.212 264.07 214.495 264.494 214.495H302.059C302.483 214.495 302.766 214.212 302.766 213.788C302.766 213.364 302.483 213.081 302.059 213.081Z" fill="#0A1640"/>
<path d="M212.664 171.924C212.523 171.924 212.24 171.924 212.099 171.782C211.817 171.499 211.817 171.216 211.958 170.934C215.065 165.135 217.466 159.053 219.302 152.83C220.29 149.294 221.138 145.476 221.561 141.657V141.374L211.958 147.314C211.675 147.456 211.393 147.597 211.111 147.597C210.404 147.597 209.698 147.031 209.557 146.324L206.733 135.292C206.733 135.292 206.733 135.151 206.591 135.151L195.293 136.707C195.152 136.707 195.152 136.707 195.011 136.707C194.587 136.707 194.022 136.424 193.74 136.141C193.457 135.717 193.316 135.292 193.457 134.727L195.717 123.553C195.717 123.553 195.717 123.412 195.576 123.412L184.843 119.735C184.278 119.593 183.995 119.169 183.854 118.603C183.713 118.038 183.854 117.472 184.137 117.189L191.48 108.561V108.42L184.278 99.7926C183.995 99.3683 183.854 98.8026 183.995 98.3783C184.137 97.8126 184.56 97.3883 184.984 97.2468L195.717 93.5696L195.858 93.4281L193.599 82.2549C193.457 81.8306 193.599 81.2649 193.881 80.8406C194.164 80.4163 194.587 80.2748 195.152 80.2748C195.293 80.2748 195.293 80.2748 195.435 80.2748L206.733 81.8306C206.874 81.8306 206.874 81.8306 206.874 81.6892L209.698 70.6574C209.84 69.9502 210.546 69.3845 211.252 69.3845C211.534 69.3845 211.817 69.5259 212.099 69.6673L221.844 75.749H221.985L228.764 66.5558C229.046 66.1315 229.611 65.8486 230.035 65.8486C230.6 65.8486 231.023 66.1315 231.306 66.5558L238.085 75.749H238.226L247.97 69.6673C248.253 69.5259 248.535 69.3845 248.818 69.3845C249.524 69.3845 250.23 69.9502 250.371 70.6574L253.196 81.6892C253.196 81.6892 253.196 81.8306 253.337 81.8306L264.635 80.2748C264.776 80.2748 264.776 80.2748 264.917 80.2748C265.341 80.2748 265.906 80.5577 266.188 80.8406C266.471 81.2649 266.612 81.6892 266.471 82.1135L264.211 93.2867V93.4281L274.944 97.1054C275.509 97.2468 275.792 97.6711 275.933 98.2369C276.074 98.8026 275.933 99.3683 275.65 99.6512L268.307 108.279V108.42L275.65 117.047C275.933 117.472 276.074 118.038 275.933 118.462C275.792 119.028 275.368 119.452 274.944 119.593L264.211 123.271C264.211 123.271 264.07 123.271 264.07 123.412L266.33 134.585C266.471 135.01 266.33 135.575 266.047 136C265.765 136.424 265.341 136.565 264.776 136.565C264.635 136.565 264.635 136.565 264.494 136.565L253.196 135.01C253.196 135.01 253.054 135.01 253.054 135.151L250.23 146.183C250.089 146.89 249.383 147.456 248.676 147.456C248.394 147.456 248.112 147.314 247.829 147.173L238.085 141.091C238.085 141.091 238.085 141.091 237.943 141.091C237.52 142.081 232.718 150.991 228.905 156.507C224.809 162.165 219.584 167.256 212.947 171.641C212.947 171.924 212.805 171.924 212.664 171.924Z" fill="#FFCE00"/>
<path opacity="0.5" d="M275.085 117.613C275.509 118.038 275.227 118.745 274.662 119.028L263.929 122.705C263.505 122.846 263.223 123.271 263.364 123.695L265.623 134.868C265.765 135.434 265.2 136 264.635 135.858L253.337 134.302C252.913 134.302 252.489 134.585 252.348 135.01L249.524 146.041C249.383 146.607 248.676 146.89 248.253 146.607L238.508 140.525C238.367 140.384 238.226 140.384 238.085 140.384C237.802 140.384 237.52 140.525 237.378 140.808C237.378 140.808 232.436 150.426 228.34 156.225C225.516 160.326 220.714 165.842 212.664 171.075C215.206 166.266 218.031 160.185 220.008 152.83C221.138 148.87 221.844 145.051 222.409 141.657C231.165 131.898 238.226 133.737 245.287 130.059C248.818 128.221 251.925 125.392 253.619 121.715C257.009 115.067 252.348 106.157 256.585 98.0954C258.138 95.2667 260.539 93.5695 263.505 92.7209V93.0038C263.364 93.4281 263.646 93.8524 264.07 93.9938L274.803 97.6711C275.368 97.8125 275.509 98.6611 275.227 99.0854L267.883 107.713C267.601 107.996 267.601 108.561 267.883 108.844L275.085 117.613Z" fill="#E38921"/>
<path d="M230.035 66.5558C230.317 66.5558 230.6 66.6972 230.741 66.9801L237.52 76.1732C237.661 76.4561 237.943 76.4561 238.226 76.4561C238.367 76.4561 238.508 76.4561 238.649 76.3147L248.394 70.233C248.535 70.0916 248.676 70.0916 248.818 70.0916C249.241 70.0916 249.524 70.3745 249.665 70.7988L252.489 81.8306C252.631 82.2549 252.913 82.5377 253.337 82.5377H253.478L264.776 80.982H264.917C265.482 80.982 265.906 81.5477 265.765 81.972L263.646 92.8624V93.1452C263.505 93.5695 263.787 93.9938 264.211 94.1353L274.944 97.8125C275.509 97.954 275.65 98.8026 275.368 99.2269L268.024 107.854C267.742 108.137 267.742 108.703 268.024 108.986L275.368 117.613C275.792 118.037 275.509 118.745 274.944 119.028L264.211 122.705C263.787 122.846 263.505 123.271 263.646 123.695L265.906 134.868C266.047 135.434 265.623 135.858 265.059 135.858H264.917L253.619 134.302H253.478C253.054 134.302 252.772 134.585 252.631 135.009L249.806 146.041C249.665 146.466 249.383 146.748 248.959 146.748C248.818 146.748 248.676 146.748 248.535 146.607L238.791 140.525C238.649 140.384 238.508 140.384 238.367 140.384C238.085 140.384 237.802 140.525 237.661 140.808C237.661 140.808 232.718 150.426 228.622 156.224C225.798 160.326 220.996 165.842 212.947 171.075C215.489 166.266 218.313 160.185 220.29 152.83C221.42 148.87 222.126 145.051 222.691 141.657C222.691 141.374 222.832 141.091 222.832 140.808C222.691 140.525 222.409 140.384 222.126 140.384C221.985 140.384 221.844 140.384 221.702 140.525L211.958 146.607C211.817 146.748 211.676 146.748 211.534 146.748C211.111 146.748 210.828 146.466 210.687 146.041L207.862 135.009C207.721 134.585 207.439 134.302 207.015 134.302H206.874L195.576 135.858H195.435C194.87 135.858 194.446 135.292 194.587 134.868L196.847 123.695C196.988 123.271 196.706 122.846 196.282 122.705L185.549 119.028C184.984 118.886 184.702 118.037 185.125 117.613L192.469 108.986C192.751 108.703 192.751 108.137 192.469 107.854L185.125 99.2269C184.702 98.8026 184.984 98.0954 185.549 97.8125L196.282 94.1353C196.706 93.9938 196.988 93.5695 196.847 93.1452L194.305 81.972C194.164 81.4063 194.587 80.982 195.152 80.982H195.293L206.591 82.5377H206.733C207.156 82.5377 207.439 82.2549 207.58 81.8306L210.404 70.7988C210.546 70.3745 210.828 70.0916 211.252 70.0916C211.393 70.0916 211.534 70.0916 211.676 70.233L221.42 76.3147C221.561 76.4561 221.702 76.4561 221.844 76.4561C222.126 76.4561 222.409 76.3147 222.55 76.1732L229.329 66.9801C229.47 66.5558 229.752 66.5558 230.035 66.5558ZM230.035 65C229.329 65 228.622 65.4243 228.058 65.99L221.561 74.7589L212.382 69.1016C211.958 68.8187 211.534 68.6773 211.111 68.6773C209.981 68.6773 209.133 69.3844 208.851 70.5159L206.168 81.1234L195.576 79.4262C195.435 79.4262 195.293 79.4262 195.293 79.4262C194.587 79.4262 193.881 79.7091 193.457 80.2748C193.034 80.8405 192.751 81.5477 192.893 82.2549L195.011 92.8624L184.843 96.3982C184.137 96.6811 183.572 97.2468 183.289 98.0954C183.148 98.8026 183.289 99.6512 183.713 100.217L190.774 108.42L183.713 116.623C183.148 117.189 183.007 118.037 183.289 118.745C183.431 119.452 183.995 120.159 184.843 120.442L195.011 123.978L192.893 134.585C192.751 135.292 192.893 136 193.457 136.565C193.881 137.131 194.587 137.414 195.293 137.414C195.435 137.414 195.576 137.414 195.717 137.414L206.45 135.858L209.133 146.324C209.416 147.456 210.404 148.163 211.393 148.163C211.817 148.163 212.24 148.021 212.664 147.88L220.996 142.788C220.431 146.041 219.725 149.294 218.878 152.547C217.183 158.77 214.782 164.852 211.676 170.509C211.393 171.075 211.534 171.924 211.958 172.348C212.24 172.631 212.664 172.772 212.947 172.772C213.229 172.772 213.511 172.631 213.794 172.489C220.431 168.105 225.798 163.013 229.894 157.215C233.424 152.264 237.52 144.768 238.649 142.364L247.829 148.021C248.253 148.304 248.676 148.446 249.1 148.446C250.23 148.446 251.077 147.738 251.36 146.607L254.043 136L264.776 137.555C264.917 137.555 265.059 137.555 265.059 137.555C265.765 137.555 266.471 137.272 266.894 136.707C267.318 136.141 267.459 135.434 267.318 134.727L265.2 124.119L275.368 120.583C276.074 120.3 276.639 119.735 276.921 118.886C277.063 118.179 276.921 117.33 276.356 116.765L269.295 108.561L276.356 100.358C276.921 99.7926 277.063 98.944 276.78 98.2368C276.639 97.5297 276.074 96.8225 275.227 96.5396L265.059 93.0038L267.177 82.3963C267.318 81.6891 267.177 80.982 266.753 80.4162C266.33 79.8505 265.623 79.5676 264.917 79.5676C264.776 79.5676 264.776 79.5676 264.635 79.5676L253.902 81.1234L251.218 70.6573C250.936 69.6673 249.947 68.8187 248.959 68.8187C248.535 68.8187 248.112 68.9601 247.688 69.243L238.508 74.9003L232.012 66.1315C231.447 65.4243 230.741 65 230.035 65Z" fill="#0A1640"/>
<path d="M247.123 129.918C243.592 132.888 239.356 135.009 234.695 135.858C219.584 138.828 204.897 129.069 201.931 113.936C199.954 103.753 203.626 93.711 210.969 87.3465C214.5 84.2349 218.878 82.1134 223.68 81.1234C238.791 78.1533 253.478 87.9122 256.444 103.046C258.562 113.37 254.608 123.553 247.123 129.918Z" fill="#6B7FFF"/>
<path d="M254.184 101.207C255.173 100.5 255.738 99.2268 254.89 98.2368C254.608 97.8125 254.467 97.8125 254.184 97.671C254.043 97.5296 254.043 96.9639 254.467 96.5396C253.054 93.5695 251.218 91.0237 248.959 88.7607C248.959 88.9022 248.959 88.9022 248.959 89.0436C248.959 89.185 248.818 89.185 248.676 89.185C248.394 88.9022 248.394 88.4779 247.547 88.6193C246.417 88.7607 246.134 89.4679 245.711 89.6093C245.287 89.6093 245.428 89.3265 245.569 89.0436C245.993 88.3364 247.123 87.9121 246.841 87.0635C246.699 86.9221 246.417 86.7807 246.276 86.6392C245.569 86.4978 245.428 86.9221 245.287 87.0635C245.146 87.205 245.428 86.2149 244.581 86.0735C244.016 86.0735 243.592 86.3564 243.592 87.0635C243.592 87.6293 243.592 87.6293 242.745 87.7707C242.18 87.9121 241.756 87.9121 241.05 88.4779C240.485 88.9022 240.485 89.3265 240.485 90.0336C240.485 90.1751 240.344 90.1751 239.92 90.3165C239.214 90.5994 239.638 91.1651 239.779 91.5894C239.92 91.7308 239.638 91.7308 239.497 91.7308C239.214 91.5894 238.932 91.1651 238.508 91.448C238.226 91.7308 238.226 92.0137 238.226 92.2966C238.226 93.428 238.649 93.428 238.508 94.5595C238.508 94.7009 238.367 94.9838 238.226 95.1252C237.943 95.4081 237.661 95.1252 237.802 94.4181C237.943 93.5695 238.226 92.0137 237.661 91.3065C237.378 91.0237 236.955 91.1651 236.814 91.5894C236.531 92.0137 236.531 92.438 236.531 93.0037C236.531 93.8523 236.814 93.8523 236.955 94.2766C236.955 94.2766 236.955 94.4181 236.814 94.4181C236.531 94.4181 236.531 94.1352 235.543 93.7109C234.978 93.428 234.554 93.7109 234.836 94.2766C234.978 94.5595 235.119 94.7009 234.978 94.8424C234.695 95.1252 234.413 95.4081 234.13 95.1252C233.848 94.8424 233.707 94.8424 233.424 95.2667C232.294 96.2567 231.023 96.5396 230.6 97.2467C230.317 97.671 230.317 97.8125 229.894 97.9539C229.046 98.0953 228.481 97.2467 229.47 97.1053C229.752 97.1053 230.035 96.9639 230.317 96.8224C231.023 96.681 230.882 95.8324 230.317 95.691C229.894 95.5495 229.752 95.691 229.329 95.691C229.046 95.691 228.764 95.5495 228.34 95.2667C227.069 94.4181 225.516 95.4081 224.668 96.5396C223.962 97.8125 224.386 98.9439 223.821 99.3682C223.397 99.6511 223.115 99.7925 222.974 100.217C222.832 100.641 222.974 101.207 223.68 101.348C223.962 101.49 224.103 101.207 224.527 100.924C224.668 100.783 224.668 101.065 224.809 101.348C225.374 102.48 226.645 101.49 226.222 100.217C226.222 100.075 226.08 99.934 226.222 99.7925C226.504 99.3682 226.645 99.3682 226.645 99.0854C226.787 98.3782 226.504 98.0953 226.787 97.8125C227.493 97.2467 227.634 97.5296 227.634 97.671C227.21 98.2368 226.645 99.3682 227.493 99.7925C227.916 100.075 228.481 99.7925 229.046 99.934V100.075C227.634 100.5 227.634 101.065 227.634 102.055C227.634 102.763 226.363 102.338 225.374 103.045C225.092 103.187 224.809 103.328 224.386 103.328C223.821 103.328 223.397 103.894 223.256 104.318C222.973 105.026 223.538 105.167 222.832 105.45C222.409 105.591 222.126 105.733 221.985 106.157C221.844 106.44 221.985 106.581 222.267 107.006C222.409 107.147 222.267 107.288 221.985 107.43C220.573 107.854 220.996 109.41 222.267 109.269C222.691 109.269 223.115 108.986 223.397 108.561C223.68 107.996 223.538 107.854 223.962 107.43C224.103 107.147 224.386 107.006 224.668 107.147C225.798 107.854 225.657 106.581 225.939 106.581C225.939 106.581 226.08 107.147 226.504 107.571C226.928 107.854 227.21 107.43 227.069 107.147C226.928 106.864 227.069 106.723 227.069 106.44C227.069 106.157 227.351 106.016 227.351 106.157C227.493 106.581 227.634 107.43 228.199 107.854C228.34 107.996 228.764 107.996 228.905 107.571C228.905 107.43 229.046 107.147 229.046 106.864C229.046 106.723 229.187 106.723 229.329 106.864C229.47 107.006 229.47 107.288 229.611 107.571C230.317 108.703 232.153 107.147 231.871 108.42C231.871 108.561 231.729 108.703 231.447 108.844C230.317 109.269 230.035 108.986 229.187 108.986C228.622 108.986 228.058 109.834 227.493 109.834C226.645 109.834 226.504 109.269 226.222 108.986C225.374 107.854 222.832 109.127 222.55 110.259C222.409 110.824 222.409 111.107 221.985 111.39C221.561 111.531 221.138 111.673 220.855 112.239C220.149 113.794 220.573 117.33 223.962 116.765C224.668 116.623 225.798 116.199 226.08 116.199C226.363 116.057 226.363 116.199 226.504 116.623C226.645 117.896 227.775 117.896 227.775 119.027C227.775 119.876 227.493 120.442 228.199 121.29C229.752 123.129 229.611 123.412 230.458 123.978C231.588 124.685 233.424 123.978 233.424 121.998C233.424 121.432 234.836 121.573 234.13 120.3C233.989 120.017 233.707 119.735 233.989 119.452C234.413 119.027 235.26 119.31 235.119 118.32C234.978 117.189 234.13 117.189 234.413 116.34C234.695 115.209 235.684 114.784 236.39 113.794C236.814 113.087 236.39 112.522 235.825 112.663C234.836 112.663 233.848 113.653 233 113.087C232.012 112.38 232.436 110.966 231.871 110.117C232.294 109.976 233.142 111.956 233.989 112.522C234.554 112.804 235.119 112.663 235.543 112.522C236.107 112.097 237.237 111.814 237.661 111.39C238.367 110.541 237.378 110.117 236.672 109.976C236.249 109.976 235.825 110.117 235.401 109.834C234.978 109.551 234.836 108.986 235.26 108.561C236.249 107.713 239.497 109.834 240.203 110.541C240.909 111.249 241.05 112.239 242.039 112.804C242.463 113.087 243.169 112.946 243.31 112.38C243.592 111.531 242.745 111.107 243.875 110.4C244.157 110.259 244.44 109.976 244.44 109.551C244.44 109.269 244.581 109.269 244.722 109.41C245.005 109.551 245.287 109.41 245.569 109.551C245.852 109.693 245.852 109.976 245.993 110.117C246.558 111.531 247.123 110.541 248.112 111.249C248.676 111.673 249.1 111.673 249.665 111.249C250.512 110.541 249.241 109.41 249.1 108.986C248.959 108.844 249.1 108.561 249.383 108.561C249.947 108.703 250.371 108.844 251.077 108.42C251.925 107.854 252.066 107.147 251.642 106.298C251.218 105.45 250.795 105.026 250.936 104.036C250.936 103.894 251.218 103.47 251.36 103.611C251.783 103.894 252.066 104.884 252.772 105.026C253.196 105.167 253.478 104.601 253.478 104.177C253.337 103.47 253.196 103.328 253.478 102.904C253.337 101.49 253.619 101.631 254.184 101.207Z" fill="#00D4FC"/>
<path d="M220.431 117.047C218.878 116.482 218.878 116.765 217.748 116.482C215.206 115.774 216.477 116.482 214.076 115.35C213.653 115.209 213.229 115.067 212.805 115.209C211.534 115.774 211.393 116.34 210.828 115.774C210.404 115.35 209.981 115.35 209.557 115.209C209.416 115.209 209.416 115.067 209.416 114.36C209.416 113.794 208.851 113.37 208.427 113.653C208.286 113.653 208.004 113.794 207.862 113.936C207.58 113.936 207.439 113.794 207.439 113.512C207.439 111.956 209.133 111.814 210.687 111.249C212.664 110.541 211.534 108.137 212.805 107.43C213.088 107.288 215.489 106.581 214.641 105.308C214.076 104.601 213.935 105.167 213.511 103.753C213.088 101.49 209.275 101.348 209.133 103.187C209.133 103.753 209.133 103.753 209.275 104.46C209.416 105.167 209.557 105.591 209.416 105.591C209.275 105.591 209.133 104.46 208.004 104.177C207.721 104.177 207.58 104.036 207.298 104.036C206.591 104.177 206.168 103.753 206.168 103.328C206.168 101.207 207.439 101.207 207.298 100.075C207.298 100.075 207.298 99.9339 207.156 99.9339C207.862 101.207 210.404 100.641 209.981 98.661C209.698 97.3881 208.851 96.1152 207.58 95.8324C207.015 95.6909 206.591 95.6909 206.45 95.2666C206.45 95.1252 206.309 94.9838 206.309 94.9838C205.744 93.9937 204.755 94.7009 204.332 95.5495C204.049 96.2567 204.614 96.9638 205.32 97.1053C205.885 97.2467 206.733 97.1053 206.874 97.8124C207.015 98.661 206.733 99.2268 207.015 99.7925C206.874 99.6511 206.874 99.5096 206.874 99.3682C205.885 98.2367 203.626 99.2268 202.496 99.9339C202.355 99.9339 202.355 100.075 202.213 100.075C200.942 104.177 200.66 108.703 201.507 113.37C201.931 113.936 201.649 113.794 202.496 115.209C203.061 115.916 203.908 115.774 203.767 114.784C203.767 114.502 204.049 115.067 204.332 115.209C205.603 116.482 207.58 115.067 208.851 116.34C209.416 116.906 209.557 117.047 209.698 117.189C210.687 117.896 211.393 116.765 211.111 117.755C210.969 118.32 210.969 118.886 210.969 119.31C210.969 119.452 211.111 119.593 211.111 119.735C211.393 120.583 211.958 121.29 212.664 121.715C212.947 121.856 212.947 122.139 212.947 122.422C212.947 125.958 214.924 125.251 214.359 128.221C214.218 128.928 214.076 130.059 214.5 130.766C214.782 131.191 215.347 131.332 215.63 131.049C216.053 130.766 216.053 130.484 216.336 129.918C217.183 128.362 216.477 127.089 218.031 125.675C218.313 125.392 218.596 124.968 218.878 124.543C219.584 123.27 219.867 122.988 220.008 121.856C220.149 120.3 219.725 119.876 220.29 119.169C220.573 118.745 220.996 118.462 221.138 118.179C221.844 118.179 221.138 117.33 220.431 117.047Z" fill="#00D4FC"/>
<path d="M211.958 92.5794C212.24 92.8623 212.382 93.1452 212.382 93.428C212.382 93.7109 212.523 93.9938 212.382 94.1352C212.382 95.4081 212.947 95.4081 213.653 95.9738C214.359 96.681 213.088 97.671 214.218 99.5097C215.206 101.207 216.618 101.065 216.76 100.075C216.901 99.2268 216.76 99.5097 217.042 98.3782C217.324 96.8224 219.725 97.1053 220.431 94.2766C220.714 93.0037 220.431 92.5794 220.431 91.1651C220.29 89.4679 221.702 89.6093 221.561 86.9221C221.561 86.0735 221.138 85.2249 220.29 85.2249C220.149 85.2249 220.008 85.2249 219.725 85.2249C219.16 85.2249 219.443 83.8106 219.16 82.962C219.019 82.8205 219.019 82.5377 218.878 82.3962C215.63 83.6691 212.664 85.6492 210.122 88.0536C210.263 89.0436 209.981 88.9022 209.275 89.6093C208.851 90.1751 208.851 91.0237 209.416 91.5894C210.404 92.7209 210.969 91.7308 211.958 92.5794Z" fill="#00D4FC"/>
<path d="M245.993 120.583C245.711 121.149 245.852 121.432 245.569 121.432C245.146 121.29 245.005 120.583 244.581 120.3C244.157 120.017 243.451 120.017 243.169 120.725C243.027 121.007 242.886 121.29 242.463 121.432C241.898 121.573 240.909 122.422 240.485 122.846C239.214 124.26 240.203 126.665 242.039 126.241C242.604 126.099 242.886 125.816 243.734 125.392C244.157 125.25 244.863 125.25 245.005 125.533C245.428 126.948 247.405 127.655 249.1 126.665C251.925 124.543 247.547 117.896 245.993 120.583Z" fill="#00D4FC"/>
<path d="M223.397 91.1652C223.962 91.3066 224.245 90.7409 224.245 90.1751C224.245 89.8923 224.245 89.7508 224.386 89.6094C224.668 89.468 224.809 89.468 224.951 89.1851C225.092 88.6194 224.668 88.6194 225.092 88.1951C225.798 87.7708 225.939 86.9222 225.092 86.6393C224.527 86.4979 224.386 86.9222 224.245 87.0636C224.245 87.205 224.103 87.0636 223.821 86.9222C223.68 86.9222 223.538 86.7807 223.397 86.9222C222.409 87.205 221.702 88.6194 222.126 89.468C222.267 90.0337 222.832 91.0237 223.397 91.1652Z" fill="#00D4FC"/>
<path d="M255.455 110.683C255.032 110.541 254.467 110.683 254.184 110.966C253.902 111.249 253.761 111.814 254.184 112.097C254.608 112.38 254.749 112.239 255.032 112.663C255.314 113.087 256.02 113.229 256.444 113.087C256.585 113.087 256.585 112.946 256.726 112.946C256.867 112.38 256.867 111.814 257.009 111.249C256.303 111.107 256.02 110.824 255.455 110.683Z" fill="#00D4FC"/>
<path d="M233.142 93.428C233.565 93.5694 233.848 93.1451 233.989 92.7208C234.413 91.1651 234.13 91.3065 235.26 90.3165C235.966 89.7507 236.672 89.3264 236.249 88.4778C236.107 88.3364 235.966 88.195 235.825 88.3364C235.401 88.7607 235.401 89.0436 235.119 89.0436C234.978 89.0436 234.836 89.0436 234.836 89.0436C234.13 89.185 233.707 89.6093 233.424 90.175C232.859 91.3065 232.577 93.0037 233.142 93.428Z" fill="#00D4FC"/>
<path d="M237.802 86.2148C237.943 86.2148 238.085 86.2148 238.085 86.3563C238.085 87.0634 238.932 87.6292 239.638 87.0634C240.203 86.7806 240.344 86.0734 240.203 85.6491C240.062 85.0834 239.779 84.9419 239.356 84.8005C239.214 84.8005 239.214 84.6591 238.932 84.0933C238.791 83.5276 238.226 83.1033 237.661 83.5276C237.096 83.9519 237.661 84.5176 237.237 84.8005C236.672 85.5077 237.096 86.2148 237.802 86.2148Z" fill="#00D4FC"/>
<path d="M244.157 113.512C244.581 113.653 244.581 114.219 244.722 114.502C245.146 115.492 246.558 115.492 246.84 114.643C247.123 113.936 246.417 113.653 245.993 113.512C245.852 113.512 245.852 113.37 245.569 113.087C245.146 112.522 244.157 112.239 243.592 112.522C243.169 112.663 243.451 113.229 244.157 113.512Z" fill="#00D4FC"/>
<path d="M237.237 115.067C237.237 115.35 237.096 115.35 236.814 115.492C236.531 115.633 236.531 116.057 236.672 116.34C236.814 116.482 236.814 116.623 236.814 116.765C236.672 116.906 236.531 117.189 236.672 117.613C237.237 119.31 238.932 116.199 237.943 114.926C237.661 114.36 237.237 114.643 237.237 115.067Z" fill="#00D4FC"/>
<path d="M249.665 112.946C249.665 112.097 248.676 112.097 248.394 112.663C248.394 112.663 248.394 112.805 248.394 112.946C248.253 113.37 247.97 113.087 247.547 113.512C247.264 113.795 247.123 114.36 247.688 114.643C248.535 115.067 249.806 114.36 249.665 112.946Z" fill="#00D4FC"/>
<path d="M228.622 84.6593C237.52 83.5278 247.688 89.6094 249.383 98.944C249.383 99.2269 249.241 99.6512 248.818 99.6512C246.982 99.9341 246.699 91.0238 228.622 85.7907C227.916 85.6493 228.058 84.6593 228.622 84.6593Z" fill="white"/>
<path opacity="0.25" d="M247.123 129.918C243.592 132.888 239.356 135.009 234.695 135.858C219.584 138.828 204.897 129.069 201.931 113.936C199.954 103.753 203.626 93.7109 210.969 87.3464C208.427 93.0038 207.721 99.3683 208.992 105.874C212.523 123.978 230.458 134.161 247.123 129.918Z" fill="#0A1640"/>
<path d="M229.187 137.131C215.771 137.131 203.767 127.655 201.084 114.077C199.106 104.036 202.637 93.4281 210.404 86.7807C214.076 83.5277 218.596 81.2648 223.538 80.4162C239.073 77.3047 254.184 87.3464 257.291 102.904C259.41 113.229 255.596 123.695 247.688 130.484C244.016 133.595 239.638 135.717 234.836 136.707C233 136.99 231.023 137.131 229.187 137.131ZM229.187 81.2648C227.493 81.2648 225.657 81.4062 223.821 81.8305C219.16 82.8206 214.924 84.8006 211.393 87.9122C204.049 94.2767 200.66 104.177 202.496 113.794C205.462 128.504 219.725 138.121 234.413 135.151C238.932 134.302 243.027 132.181 246.558 129.352C254.184 122.988 257.715 112.946 255.738 103.187C253.196 90.1751 241.898 81.2648 229.187 81.2648Z" fill="#0A1640"/>
<path d="M102.085 278.14C101.661 278.14 101.096 277.857 100.814 277.574L94.7413 269.371L85.9854 274.746C85.7029 274.887 85.4205 275.029 85.138 275.029C84.4319 275.029 83.867 274.604 83.5845 273.897L81.0425 263.997L70.8743 265.411C70.7331 265.411 70.7331 265.411 70.5919 265.411C70.1682 265.411 69.7445 265.27 69.4621 264.845C69.1796 264.421 69.0384 263.997 69.1796 263.572L71.1568 253.531L61.5535 250.136C61.1298 249.995 60.7061 249.571 60.5649 249.005C60.4237 248.581 60.5649 248.015 60.8473 247.591L67.0612 240.377C64.9429 237.69 62.9657 234.862 60.8473 232.174C60.5649 231.891 60.4237 231.326 60.5649 230.76C60.7061 230.194 60.9886 229.911 61.5535 229.629L71.1568 226.234L69.7445 219.162L69.1796 216.334C69.0384 215.909 69.1796 215.344 69.4621 215.061C69.7445 214.778 70.1682 214.495 70.5919 214.495C70.7331 214.495 70.7331 214.495 70.8743 214.495L80.9013 215.909L83.4433 206.009C83.5845 205.302 84.1494 204.878 84.8556 204.878C85.138 204.878 85.4205 205.019 85.7029 205.161L94.3176 210.535L100.39 202.332C100.673 201.908 101.096 201.766 101.661 201.766C102.085 201.766 102.65 202.049 102.932 202.332L109.005 210.535L117.761 205.161C118.043 205.019 118.326 204.878 118.608 204.878C119.314 204.878 119.879 205.302 120.162 206.009C121.15 209.545 121.715 211.949 121.998 213.505C122.139 214.354 122.421 215.202 122.563 215.627C125.811 211.525 131.319 206.292 139.368 203.039C142.617 201.766 146.006 200.776 149.537 200.352C149.537 200.352 149.537 200.352 149.678 200.352C149.819 200.352 150.101 200.352 150.243 200.493C150.384 200.635 150.525 200.918 150.525 201.059C150.525 201.625 150.101 202.049 148.548 203.746C145.017 207.423 137.815 214.919 132.59 226.234C132.872 226.376 133.861 226.658 134.849 227.083C136.403 227.648 138.803 228.356 142.193 229.629C142.617 229.77 143.04 230.194 143.181 230.619C143.323 231.043 143.181 231.609 142.899 232.033L136.261 239.812L142.899 247.591C143.181 248.015 143.323 248.439 143.181 249.005C143.04 249.429 142.758 249.853 142.193 249.995L132.59 253.389L134.567 263.431C134.708 263.855 134.567 264.28 134.284 264.704C134.002 265.128 133.578 265.27 133.154 265.27H133.013L122.986 263.855L120.444 273.756C120.303 274.463 119.597 274.887 119.032 274.887C118.75 274.887 118.467 274.746 118.185 274.604L109.57 269.23L103.497 277.433C102.932 277.999 102.509 278.14 102.085 278.14Z" fill="#332FBA"/>
<path opacity="0.25" d="M133.861 263.573C134.002 264.138 133.578 264.563 133.013 264.563L122.986 263.148C122.563 263.148 122.28 263.29 122.139 263.714L119.597 273.614C119.456 274.18 118.891 274.322 118.467 274.039L109.852 268.664C109.57 268.523 109.005 268.523 108.864 268.806L102.791 277.009C102.509 277.433 101.803 277.433 101.52 277.009L95.4474 268.806C95.165 268.523 94.7413 268.381 94.4589 268.664L85.8441 274.039C85.4205 274.322 84.8556 274.039 84.7143 273.614L82.1723 263.714C82.0311 263.29 81.7486 263.007 81.325 263.148L71.298 264.563C70.7331 264.563 70.3094 264.138 70.4506 263.573L72.4278 253.531C72.569 253.107 72.2866 252.824 71.8629 252.682L62.2596 249.288C61.6947 249.146 61.5535 248.439 61.9771 248.015L68.6147 240.236C66.3551 237.266 64.2367 234.437 61.9771 231.467C61.5535 231.043 61.8359 230.336 62.2596 230.194L71.8629 226.8C72.2866 226.658 72.4278 226.234 72.4278 225.951L71.0155 218.88C74.2637 219.587 77.2294 221.991 78.7829 224.961C81.1837 229.77 80.9013 235.427 81.1837 240.802C81.4662 246.176 82.4548 251.975 86.5503 255.511C91.3519 259.612 98.5544 258.764 104.486 256.642C110.417 254.521 116.066 251.268 122.421 250.985C125.811 250.844 129.2 251.551 132.166 253.106C132.166 253.248 132.166 253.248 132.166 253.389L133.861 263.573Z" fill="#0A1640"/>
<path opacity="0.5" d="M104.768 212.232C105.192 211.808 105.757 211.949 106.039 212.232C107.169 213.364 103.921 216.758 102.65 217.748C95.0238 223.971 84.4319 218.455 86.1266 216.475C87.1152 215.344 95.3062 221.142 104.768 212.232Z" fill="white"/>
<path d="M87.1152 231.326C86.2678 231.467 85.9854 232.74 86.6915 233.306L97.5658 242.923L100.673 257.491C100.814 258.481 101.944 258.764 102.65 257.915L130.33 222.133L87.1152 231.326Z" fill="#FFCE00"/>
<path opacity="0.5" d="M100.532 257.632L97.4246 243.065L130.189 222.274L102.509 258.057C101.944 258.764 100.814 258.481 100.532 257.632Z" fill="#E38921"/>
<path d="M151.372 201.2C151.372 200.776 151.231 200.352 150.808 200.069C150.525 199.786 150.101 199.645 149.819 199.645H149.678C146.006 200.069 142.617 201.059 139.227 202.332C133.013 204.878 127.505 208.838 122.986 214.071C122.986 213.788 122.845 213.646 122.845 213.364C122.421 211.808 121.998 209.262 121.009 205.726C120.727 204.736 119.879 204.029 118.75 204.029C118.326 204.029 117.902 204.17 117.479 204.312L109.429 209.262L103.78 201.625C103.356 201.059 102.65 200.635 101.944 200.635C101.238 200.635 100.532 200.917 100.108 201.625L94.4589 209.262L86.409 204.17C85.9854 203.888 85.5617 203.888 85.138 203.888C84.0082 203.888 83.1609 204.595 82.8784 205.585L80.6188 214.778L71.1568 213.364C71.0155 213.364 70.8743 213.364 70.8743 213.364C70.1682 213.364 69.6033 213.646 69.1796 214.212C68.7559 214.778 68.6147 215.485 68.7559 216.051L69.3208 219.021L70.5919 225.527L61.5535 229.063C60.8473 229.346 60.2824 229.911 60.1412 230.618C60 231.326 60.1412 232.033 60.5649 232.598C62.542 235.144 64.378 237.832 66.3551 240.377L60.5649 247.166C60.1412 247.732 59.8588 248.439 60.1412 249.146C60.2824 249.853 60.8473 250.419 61.5535 250.702L70.5919 253.813L68.7559 263.148C68.6147 263.855 68.7559 264.562 69.1796 264.987C69.6033 265.552 70.3094 265.835 70.8743 265.835C71.0155 265.835 71.0155 265.835 71.1568 265.835L80.6188 264.421L82.8784 273.756C83.1609 274.746 84.0082 275.453 85.138 275.453C85.5617 275.453 85.9854 275.311 86.409 275.17L94.4589 270.078L100.108 277.716C100.532 278.281 101.238 278.706 101.944 278.706C102.65 278.706 103.356 278.423 103.78 277.716L109.429 270.078L117.479 275.17C117.902 275.453 118.326 275.453 118.75 275.453C119.738 275.453 120.727 274.746 121.009 273.756L123.269 264.421L132.731 265.835C132.872 265.835 133.013 265.835 133.013 265.835C133.719 265.835 134.284 265.552 134.708 264.987C135.132 264.421 135.273 263.714 135.132 263.148L133.296 253.813L142.334 250.702C143.04 250.419 143.605 249.853 143.746 249.146C143.888 248.439 143.746 247.59 143.323 247.025L137.109 239.812L143.323 232.598C143.746 232.033 144.029 231.326 143.746 230.477C143.605 229.77 143.04 229.204 142.334 228.921C138.945 227.648 136.544 226.8 134.99 226.375C134.425 226.234 134.002 226.093 133.578 225.951C138.803 215.202 145.723 207.848 149.113 204.312C151.09 202.473 151.514 202.049 151.372 201.2ZM142.052 230.477C142.617 230.618 142.758 231.326 142.334 231.75L135.697 239.529C135.414 239.812 135.414 240.236 135.697 240.519L142.334 248.298C142.758 248.722 142.475 249.288 142.052 249.57L132.448 252.965C132.166 253.106 132.025 253.248 131.883 253.672C131.883 253.813 131.883 253.814 131.883 253.955L133.861 263.997C134.002 264.421 133.578 264.987 133.154 264.987C133.154 264.987 133.154 264.987 133.013 264.987L122.986 263.572H122.845C122.421 263.572 122.139 263.855 122.139 264.138L119.597 274.038C119.456 274.463 119.173 274.604 118.891 274.604C118.75 274.604 118.608 274.604 118.467 274.463L109.852 269.088C109.711 268.947 109.57 268.947 109.429 268.947C109.146 268.947 109.005 269.088 108.864 269.23L102.791 277.433C102.65 277.574 102.367 277.716 102.226 277.716C101.944 277.716 101.803 277.574 101.661 277.433L95.5887 269.23C95.4474 269.088 95.165 268.947 95.0238 268.947C94.8825 268.947 94.7413 268.947 94.6001 269.088L85.9854 274.463C85.8441 274.604 85.7029 274.604 85.5617 274.604C85.2792 274.604 84.8556 274.321 84.8556 274.038L82.3135 264.138C82.1723 263.855 81.8899 263.572 81.6074 263.572H81.4662L71.4392 264.987H71.298C70.8743 264.987 70.4506 264.562 70.5919 263.997L72.569 253.955C72.7102 253.531 72.4278 253.248 72.0041 253.106L62.4008 249.712C61.8359 249.571 61.6947 248.863 62.1184 248.439L68.7559 240.66C66.4963 237.69 64.378 234.861 62.1184 231.891C61.6947 231.467 61.9771 230.76 62.4008 230.618L72.0041 227.224C72.4278 227.083 72.569 226.658 72.569 226.375L71.1568 219.304L70.5919 216.475C70.4506 216.051 70.8743 215.485 71.298 215.485H71.4392L81.4662 216.899C81.4662 216.899 81.4662 216.899 81.6074 216.899C82.0311 216.899 82.3135 216.617 82.3135 216.334L84.8556 206.433C84.9968 206.009 85.2792 205.868 85.5617 205.868C85.7029 205.868 85.8441 205.868 85.9854 206.009L94.6001 211.384C94.7413 211.525 94.8825 211.525 95.0238 211.525C95.3062 211.525 95.4474 211.384 95.5887 211.242L101.661 203.039C101.803 202.897 102.085 202.756 102.226 202.756C102.509 202.756 102.65 202.897 102.791 203.039L108.864 211.242C109.005 211.384 109.287 211.525 109.429 211.525C109.57 211.525 109.711 211.525 109.852 211.384L118.467 206.009C118.608 205.868 118.75 205.868 118.891 205.868C119.173 205.868 119.597 206.15 119.597 206.433C121.998 215.061 121.715 216.899 122.704 216.899H122.845C125.528 213.505 131.036 207.565 139.792 204.029C143.464 202.473 146.995 201.766 149.819 201.342C150.384 201.766 139.227 210.676 131.883 226.375C131.742 227.365 133.013 227.083 142.052 230.477Z" fill="#0A1640"/>
<path d="M130.895 221.991C130.754 221.85 130.754 221.708 130.612 221.567H130.471C130.33 221.567 130.33 221.567 130.189 221.567L86.8327 230.618C86.1266 230.76 85.5617 231.326 85.4205 232.033C85.2792 232.74 85.4205 233.447 85.9854 234.013L96.7185 243.489L99.8254 257.774C99.9666 258.481 100.532 259.046 101.238 259.188C101.379 259.188 101.52 259.188 101.661 259.188C102.226 259.188 102.791 258.905 103.074 258.481L130.754 222.698C130.754 222.698 130.895 222.557 130.895 222.415V222.274C130.895 222.274 130.895 222.274 130.895 222.132V221.991ZM86.9739 232.316C86.9739 232.316 87.1152 232.033 87.2564 232.033L126.234 223.83L97.5658 242.074L87.1152 232.74C86.8327 232.598 86.9739 232.457 86.9739 232.316ZM101.944 257.632C101.803 257.774 101.661 257.774 101.661 257.774C101.661 257.774 101.379 257.632 101.379 257.491L98.4132 243.489L127.082 225.244L101.944 257.632Z" fill="#0A1640"/>
<path d="M92.4817 247.307L73.2751 257.491C72.8515 257.632 72.7102 258.198 72.9927 258.481C73.1339 258.764 73.4164 258.905 73.6988 258.905C73.84 258.905 73.9813 258.905 73.9813 258.764L93.1878 248.58C93.6115 248.439 93.7527 247.873 93.4703 247.59C93.3291 247.307 92.9054 247.166 92.4817 247.307Z" fill="#0A1640"/>
<path d="M76.8058 251.126C76.947 251.126 77.0882 251.126 77.0882 250.985L90.2221 244.055C90.6458 243.913 90.787 243.347 90.5046 243.065C90.3633 242.64 89.7984 242.499 89.516 242.782L76.3821 249.712C75.9584 249.853 75.8172 250.419 76.0996 250.702C76.2409 250.985 76.5233 251.126 76.8058 251.126Z" fill="#0A1640"/>
<path d="M264.07 262.582C261.104 262.016 257.715 262.016 254.749 261.875C254.608 263.289 254.467 265.128 254.608 265.411C254.89 265.552 256.585 265.411 257.291 265.835C257.15 274.038 256.726 277.291 256.726 277.574C257.856 277.433 259.268 277.716 260.398 277.574C260.822 267.957 260.822 266.259 260.963 265.835C262.375 265.835 263.081 265.835 263.646 265.977C264.07 264.987 264.07 263.572 264.07 262.582Z" fill="#0A1640"/>
<path d="M272.826 264.704C271.272 263.148 268.589 262.865 266.612 263.431C266.471 263.572 266.188 263.572 266.047 263.714C265.058 264.562 264.635 265.977 264.352 267.25C263.929 269.513 263.787 271.917 263.646 274.18C263.505 275.028 263.505 275.877 263.929 276.726C264.352 277.999 265.482 278.423 266.612 278.564C267.459 278.706 268.307 278.847 269.154 278.706C270.143 278.564 270.99 278.281 271.555 277.716C272.12 276.867 272.543 275.877 272.826 274.887L272.967 274.18C273.25 272.624 273.391 271.21 273.673 269.654C273.814 268.947 273.814 268.24 273.956 267.533C273.956 267.108 273.956 266.542 273.814 266.118C273.532 265.552 273.25 265.128 272.826 264.704ZM270.707 269.654L270.566 271.21L270.425 272.2C270.425 272.2 270.284 272.766 270.284 273.331C270.001 274.604 270.284 274.604 269.578 275.311C268.589 276.16 266.753 275.877 266.33 274.604C266.188 273.614 266.33 272.483 266.33 271.493C266.471 270.22 266.612 268.947 267.036 267.957C267.318 267.391 267.742 266.967 268.307 266.542C268.872 266.26 269.436 266.118 270.001 266.401C270.566 266.825 270.99 267.533 270.849 268.381C270.707 268.947 270.707 269.654 270.707 269.654Z" fill="#0A1640"/>
<path d="M283.277 276.443C283.841 275.17 284.124 273.755 284.406 272.483C284.406 272.058 284.548 271.634 284.548 271.068C284.548 269.937 284.265 268.664 283.841 267.674C283.559 266.684 282.712 265.835 281.864 265.411C280.17 265.128 278.334 264.562 276.639 264.562C276.639 264.562 276.639 264.562 276.498 264.704C275.65 269.795 274.097 274.887 273.814 279.696C275.65 280.12 277.627 280.403 279.463 280.827C280.876 279.271 282.288 277.998 283.277 276.443ZM280.17 275.028C279.887 275.311 279.605 275.453 279.322 275.594C279.181 275.594 279.04 275.735 278.899 275.594C278.334 275.594 277.769 275.453 277.486 275.17C277.769 273.19 278.334 271.068 278.616 269.512V269.371C279.181 269.371 279.746 269.512 280.311 269.654C281.158 270.22 281.299 271.351 281.299 272.2C281.299 273.473 280.876 274.321 280.17 275.028Z" fill="#0A1640"/>
<path d="M282.288 281.11C284.265 281.676 285.112 281.959 285.254 281.959C285.96 281.11 286.525 279.413 287.09 278.706C287.796 278.847 287.654 278.847 288.361 279.13C288.502 280.12 288.361 281.817 288.502 282.807C289.349 283.232 290.479 283.656 291.326 283.656L291.75 275.736C291.75 274.18 292.032 268.947 292.032 267.674C290.055 267.391 289.773 267.108 289.349 267.108C285.677 273.331 282.57 280.544 282.288 281.11ZM289.349 276.443C288.784 276.301 288.219 276.16 287.796 276.018C289.49 271.775 290.479 268.805 289.349 276.443Z" fill="#0A1640"/>
<path d="M306.296 272.341C306.155 272.2 305.872 272.2 305.449 272.058C304.743 271.775 303.754 271.493 303.189 271.493C302.342 272.483 300.93 274.604 299.941 275.453C299.8 274.18 299.8 271.634 299.941 270.361C299.659 270.078 299.376 269.937 298.952 269.795C298.388 269.654 297.681 269.513 297.117 269.371C296.834 271.917 297.54 274.887 297.258 277.433C295.422 279.554 293.586 281.676 292.032 283.797C292.174 283.939 292.315 283.939 292.456 283.939C293.162 284.222 293.868 284.363 294.433 284.504C294.574 284.504 294.857 284.646 294.998 284.646C298.529 280.403 303.048 276.867 306.296 272.341Z" fill="#0A1640"/>
<path d="M304.037 287.899L306.437 288.889C306.579 288.464 307.567 286.626 307.567 286.484C307.285 286.202 305.59 285.494 305.025 285.494C304.884 285.919 304.178 287.333 304.037 287.899Z" fill="#0A1640"/>
<path d="M311.38 274.18C308.979 273.331 306.579 274.745 305.59 276.726C306.437 277.15 307.143 277.574 307.991 277.857C308.838 277.857 309.403 276.443 310.392 277.574C312.086 279.13 308.838 280.261 307.708 281.11C306.861 281.676 306.437 282.383 305.872 283.231L305.449 283.939C305.449 284.08 305.308 284.221 305.308 284.363C306.155 284.646 307.002 285.07 307.85 285.353C307.85 285.07 308.132 284.929 308.273 284.646C308.838 283.797 309.403 283.09 310.25 282.524C310.957 282.1 311.38 282.1 312.086 281.676C312.792 281.251 313.499 280.686 313.922 279.978C315.476 277.716 314.064 275.028 311.38 274.18Z" fill="#0A1640"/>
<path d="M248.818 237.831C248.253 237.831 247.829 237.973 247.264 238.114C247.264 240.66 247.688 244.903 247.688 247.449C247.264 246.6 246.417 243.489 246.134 243.206C246.134 243.206 246.134 243.206 246.134 243.347C245.852 244.762 245.711 246.035 245.428 247.307C244.581 244.762 244.581 240.802 244.157 238.114C243.592 238.114 243.027 238.114 242.463 238.256C241.898 238.256 241.474 238.397 241.05 238.539C241.615 243.63 242.886 248.58 244.016 253.531C244.298 253.531 244.581 253.531 244.863 253.531C245.287 253.531 245.569 253.389 245.993 253.389C246.417 252.54 246.417 250.136 246.84 249.57C247.405 250.278 247.829 252.54 248.394 253.248H248.676H249.524C249.806 253.248 250.089 253.248 250.23 253.106C250.23 248.015 250.371 242.923 250.371 237.831C249.806 237.69 249.241 237.831 248.818 237.831Z" fill="#0A1640"/>
<path d="M255.879 252.965C256.161 251.126 255.879 249.146 256.02 247.025C256.867 246.883 257.715 246.883 258.562 247.025C258.845 248.863 258.562 251.126 258.845 253.106C259.551 253.106 260.963 253.106 261.952 252.965L261.528 237.549C260.681 237.407 259.268 237.549 258.562 237.69C258.562 239.812 258.562 241.367 258.421 243.489C257.715 243.489 256.726 243.63 256.02 243.489C255.738 241.65 255.879 239.67 255.596 237.69C254.749 237.407 253.619 237.831 252.772 237.549C252.631 242.074 252.772 250.419 252.913 252.965C253.478 252.823 255.173 253.389 255.879 252.965Z" fill="#0A1640"/>
<path d="M265.765 253.531C266.471 252.541 266.612 250.843 267.177 249.995C267.883 249.995 267.742 249.995 268.589 250.136C268.872 250.985 269.013 252.823 269.295 253.814C270.284 254.096 271.272 254.238 272.261 254.238L271.272 246.318C270.99 244.762 270.425 239.529 270.143 238.397C268.165 238.397 267.883 238.256 267.459 238.256C264.635 245.045 262.94 252.682 262.658 253.248C264.776 253.389 265.623 253.531 265.765 253.531ZM268.872 247.449C268.307 247.449 267.742 247.308 267.177 247.308C268.307 242.923 268.73 239.812 268.872 247.449Z" fill="#0A1640"/>
<path d="M277.345 254.803C278.616 245.186 278.899 243.63 279.04 243.206C280.452 243.347 281.158 243.489 281.723 243.63C282.005 242.64 282.288 241.226 282.288 240.236C279.322 239.387 276.074 239.104 273.108 238.68C272.826 240.094 272.543 241.933 272.685 242.074C272.967 242.216 274.662 242.216 275.227 242.781C274.379 250.985 273.532 254.238 273.673 254.379C274.803 254.379 276.215 254.803 277.345 254.803Z" fill="#0A1640"/>
<path d="M284.971 246.035C285.112 245.893 285.112 245.893 284.971 246.035C286.101 244.196 286.242 243.489 287.513 241.084C286.948 240.943 284.971 240.66 285.112 240.66C284.971 241.084 283.135 244.762 282.712 245.752C282.712 245.752 284.83 245.893 284.971 246.035Z" fill="#0A1640"/>
<path d="M295.563 256.642C296.693 255.369 297.117 253.53 296.41 251.975C295.845 250.56 294.716 249.287 293.303 248.722C292.739 248.439 292.174 248.156 292.174 247.449C292.174 247.307 292.174 247.025 292.315 246.883C293.021 245.327 295.563 246.6 294.857 248.156C295.846 248.722 296.975 248.863 298.105 249.005C299.094 247.025 298.529 245.327 297.399 244.337C296.128 243.347 294.292 242.64 292.739 242.923C289.773 243.347 287.372 246.883 289.349 250.136C289.632 250.56 290.055 250.985 290.62 251.268C291.75 251.833 293.445 252.399 293.162 253.813C293.021 255.935 289.914 255.086 290.197 253.248C289.208 252.965 287.937 252.54 286.948 252.399C286.101 255.086 288.361 257.349 290.903 258.056C292.597 258.481 294.433 258.198 295.563 256.642Z" fill="#0A1640"/>
<path d="M304.601 262.158C304.743 261.734 305.025 261.027 305.166 260.461C306.014 258.198 307.144 255.228 307.285 255.228C307.285 255.228 307.285 255.652 307.285 255.935V256.642C307.285 258.622 307.426 260.885 307.567 263.289C308.132 263.431 308.838 263.855 309.403 264.138C309.827 264.28 310.109 264.28 310.109 264.28L310.25 263.855C310.392 263.289 310.674 262.724 310.815 262.158C311.098 261.451 311.38 260.744 311.663 259.895C312.086 258.764 312.51 257.491 312.934 256.359L315.476 249.712C315.052 249.429 314.628 249.288 314.205 249.005C313.64 248.863 313.216 248.722 312.651 248.58C312.369 249.288 312.086 249.853 311.945 250.419C311.521 251.409 311.239 252.399 310.815 253.389C310.674 253.813 310.392 254.379 310.25 254.521C310.25 254.521 309.827 250.843 309.827 250.419C309.827 249.146 309.686 248.863 309.686 247.732C309.686 247.59 308.415 247.025 307.991 246.883C307.708 246.742 307.285 246.6 307.002 246.6C306.155 248.298 305.449 250.136 304.743 252.116C303.754 254.662 303.048 256.925 301.918 259.612L301.353 261.027C302.059 261.309 302.624 261.592 303.33 261.875C303.895 262.017 304.178 262.158 304.601 262.158Z" fill="#0A1640"/>
<path d="M315.899 263.431C316.182 262.724 316.606 261.592 317.029 260.885C317.453 260.744 318.583 261.592 319.571 261.734C319.995 260.744 320.56 259.895 320.842 258.905C319.995 258.481 319.148 258.198 318.441 257.632C318.583 256.783 319.148 256.076 319.571 255.228C321.407 255.935 323.102 257.066 324.938 257.491C325.362 256.501 325.926 255.652 326.209 254.662C326.209 254.521 321.125 252.258 317.877 250.843C315.476 255.369 313.64 259.895 311.521 264.562C314.064 265.977 317.029 267.108 319.712 268.381C320.277 267.674 320.701 266.684 321.125 265.835C319.148 265.128 317.594 264.279 315.899 263.431Z" fill="#0A1640"/>
<path d="M336.377 260.461C335.953 260.178 335.53 259.895 335.106 259.612C334.682 259.329 334.117 259.047 333.694 258.905C332.14 261.027 330.163 264.704 328.61 266.825C328.751 265.835 329.881 262.724 329.739 262.441C329.739 262.441 329.739 262.441 329.598 262.582C328.61 263.572 327.762 264.562 326.774 265.411C327.48 262.865 329.881 259.612 331.01 257.208C330.587 256.925 330.022 256.642 329.598 256.218C329.175 255.935 328.751 255.794 328.327 255.652C325.785 260.178 323.949 264.987 322.113 269.654C322.396 269.795 322.537 270.078 322.819 270.078C323.243 270.22 323.384 270.361 323.808 270.503C324.514 270.078 325.926 268.098 326.633 267.957C326.633 268.947 325.785 271.068 325.926 271.917L326.209 272.058L326.915 272.483C327.197 272.624 327.339 272.766 327.621 272.766C330.446 268.805 333.411 264.704 336.377 260.461Z" fill="#0A1640"/>
<path d="M367.447 150.567C361.233 151.274 359.538 151.982 361.091 150.143C362.504 148.587 363.775 147.314 364.34 146.041C364.904 144.768 363.351 143.637 362.362 144.344C360.668 145.617 358.832 148.587 358.408 148.304C357.843 148.163 358.126 147.456 358.126 146.89C358.126 144.203 358.267 142.647 357.984 140.95C357.702 139.677 355.584 139.818 355.301 140.95C355.019 142.081 355.16 143.213 355.16 149.011C355.16 150.85 353.606 149.436 351.629 148.163C350.5 147.456 348.664 146.89 348.099 148.163C347.675 149.153 348.522 149.86 349.511 150.567C354.454 154.103 354.595 153.113 347.534 155.093C346.263 155.517 344.709 156.083 345.133 157.356C345.557 158.77 347.11 158.205 350.217 157.497C350.641 157.356 351.064 157.215 351.347 157.073C352.194 156.932 353.042 156.507 354.03 156.649C354.171 157.78 353.183 158.346 352.9 159.195C352.335 160.609 351.064 161.175 351.488 162.872C351.629 163.438 352.194 163.862 352.759 163.579C355.584 162.448 356.149 157.78 357.42 160.326C358.973 163.579 359.114 164.428 360.103 165.701C360.95 166.832 362.645 166.125 362.362 164.711C361.939 162.306 359.538 158.346 360.103 157.922C360.527 157.497 364.763 161.175 366.317 161.175C367.447 161.175 368.011 160.185 367.447 159.336C366.599 158.063 365.893 157.78 362.645 155.517C362.362 155.376 362.08 155.093 362.221 154.81C362.362 154.527 362.786 154.386 363.069 154.386C364.622 154.103 368.294 153.679 368.576 153.679C369.424 152.83 369.282 150.284 367.447 150.567Z" fill="#E38921"/>
<path d="M354.595 211.101C349.511 211.808 348.099 212.515 349.37 210.818C350.782 209.121 352.9 207.141 351.629 206.15C350.641 205.443 350.076 206.292 349.229 207.282C348.805 207.848 347.534 209.545 347.251 209.403C346.828 209.262 347.11 208.979 346.969 205.019C346.969 203.888 346.828 202.473 345.698 202.756C344.144 203.039 344.568 203.605 344.709 210.111C344.709 211.666 343.438 210.535 341.744 209.403C340.755 208.838 339.343 208.413 338.919 209.403C338.495 210.252 339.343 210.818 340.049 211.242C344.144 213.929 344.286 213.222 338.495 214.919C337.507 215.202 336.236 215.768 336.518 216.758C337.224 218.597 342.167 215.768 343.862 215.909C344.003 216.758 343.297 217.324 343.015 218.031C342.591 219.162 341.602 219.728 341.885 221.001C342.167 222.274 343.721 221.425 344.568 220.294C346.545 217.324 345.839 217.465 348.24 221.991C348.664 222.84 349.37 223.971 350.217 223.547C351.206 222.981 350.641 221.85 350.217 220.86C348.099 215.909 347.393 215.909 352.618 219.021C354.878 220.435 356.29 218.455 353.324 216.617C348.946 213.929 349.229 214.212 354.454 213.364C354.878 213.222 356.572 213.222 356.29 211.666C355.584 211.384 355.16 210.959 354.595 211.101Z" fill="#E38921"/>
<path d="M315.052 121.008C313.216 120.866 310.392 121.715 310.109 121.29C309.827 120.866 310.392 120.583 310.674 120.3C312.228 118.462 313.216 117.613 314.064 116.199C314.628 115.209 313.075 114.077 312.228 114.643C311.38 115.209 310.815 116.057 307.426 119.876C306.296 121.149 306.155 119.31 305.59 117.189C305.308 116.057 304.319 114.643 303.33 115.067C302.483 115.492 302.624 116.482 302.907 117.472C304.178 122.705 304.884 121.998 298.952 119.31C297.823 118.745 296.552 118.32 295.987 119.452C295.563 120.583 296.975 121.149 299.235 122.422C299.517 122.563 299.941 122.705 300.223 122.846C300.93 123.27 301.777 123.412 302.201 124.119C301.636 124.968 300.647 124.826 299.941 125.109C298.67 125.675 297.54 125.392 296.834 126.665C296.552 127.089 296.693 127.796 297.258 127.938C299.8 128.786 302.766 126.099 302.201 128.504C301.071 132.181 300.082 134.444 301.636 134.727C302.766 135.009 303.189 133.737 303.613 132.605C305.59 127.231 305.025 126.665 306.72 132.888C307.426 135.575 310.109 135.151 309.121 131.474C307.708 126.099 307.708 126.665 312.369 129.776C312.651 129.918 312.934 130.201 313.357 130.342C314.628 130.908 316.041 129.211 314.628 128.221C310.109 124.968 308.556 124.543 310.674 124.261C312.51 124.119 314.064 123.978 315.193 123.412C316.464 122.705 316.182 121.149 315.052 121.008Z" fill="#E38921"/>
<path d="M121.574 305.578C120.444 305.437 119.314 305.578 113.524 306.002C111.688 306.144 112.959 304.447 114.089 302.325C114.795 301.052 115.219 299.214 113.807 298.789C112.677 298.365 112.112 299.355 111.547 300.345C108.44 305.578 109.429 305.578 106.887 298.648C106.463 297.375 105.757 295.819 104.486 296.385C103.215 296.951 103.921 298.365 104.768 301.477C104.909 301.901 105.192 302.184 105.192 302.608C105.333 303.457 105.898 304.305 105.898 305.295C104.768 305.578 104.203 304.588 103.215 304.305C101.803 303.74 101.096 302.749 99.543 303.174C98.9781 303.315 98.5544 304.022 98.8368 304.588C100.249 307.275 104.768 307.558 102.367 308.973C99.1193 310.811 98.4132 311.094 97.2834 312.084C96.1536 313.074 97.1421 314.63 98.4132 314.206C100.673 313.64 104.486 310.953 104.909 311.377C105.333 311.801 101.944 316.327 102.085 317.883C102.085 319.014 103.215 319.439 104.062 318.873C105.333 317.883 105.474 317.176 107.593 313.781C107.734 313.498 107.875 313.074 108.299 313.216C108.723 313.357 108.723 313.64 108.723 314.064C109.146 315.62 109.852 319.297 109.852 319.439C110.417 320.994 112.959 320.57 112.677 318.731C111.547 312.508 110.558 310.953 112.677 312.367C114.23 313.64 115.643 314.913 116.914 315.337C118.185 315.761 119.314 314.206 118.467 313.216C117.055 311.66 114.089 310.104 114.23 309.538C114.372 308.973 115.078 309.255 115.501 309.114C118.185 308.831 119.738 308.973 121.433 308.548C123.128 307.841 122.704 305.72 121.574 305.578Z" fill="#E38921"/>
<path d="M153.208 348.15C151.655 348.291 152.644 346.877 153.632 345.179C154.197 344.189 154.479 342.634 153.35 342.351C152.502 342.068 152.079 342.917 151.514 343.624C149.113 348.008 149.96 348.008 147.701 342.351C147.277 341.361 146.712 340.088 145.723 340.512C143.888 341.361 147.136 346.028 147.136 347.725C146.288 348.008 145.723 347.159 145.017 347.018C143.888 346.594 143.181 345.745 141.91 346.169C140.639 346.594 141.628 348.008 142.899 348.715C146.006 350.554 145.865 349.847 141.487 352.534C140.639 353.1 139.651 353.807 140.074 354.655C140.639 355.646 141.769 354.938 142.758 354.514C147.418 352.11 147.418 351.403 144.735 356.636C143.605 359.04 145.582 360.313 147.277 357.201C149.678 352.675 149.254 352.958 150.525 358.05C150.666 358.474 150.808 360.171 152.361 359.747C152.926 359.606 153.208 359.181 153.067 358.474C151.937 353.383 151.231 352.11 152.926 353.241C154.621 354.514 156.88 356.494 157.728 355.08C158.434 354.09 157.445 353.524 156.457 352.675C155.892 352.251 154.056 351.12 154.056 350.837C154.197 350.412 154.479 350.695 158.434 350.13C159.564 349.988 160.976 349.847 160.693 348.715C160.27 347.16 159.705 347.584 153.208 348.15Z" fill="#E38921"/>
<path d="M238.367 353.665C236.955 352.534 238.932 352.251 241.05 351.544C242.321 351.12 243.734 349.988 243.027 348.857C242.463 347.867 241.474 348.291 240.485 348.574C235.119 350.412 235.825 350.978 238.226 344.614C238.649 343.482 239.214 341.926 237.943 341.502C236.672 341.078 236.249 342.634 235.119 345.179C234.978 345.604 234.978 345.887 234.695 346.311C234.271 347.018 234.13 348.008 233.565 348.574C232.718 348.008 232.718 347.018 232.294 346.311C231.588 345.038 231.729 343.906 230.458 343.199C229.893 342.916 229.329 343.199 229.187 343.765C228.481 346.452 231.588 349.564 229.046 348.998C225.092 348.149 222.691 347.301 222.409 348.857C222.126 350.13 223.538 350.412 224.809 350.837C230.741 352.392 231.165 351.827 224.809 354.231C222.126 355.221 222.691 358.05 226.504 356.635C232.012 354.655 231.447 354.655 228.622 359.888C228.481 360.171 228.199 360.596 228.058 360.878C227.493 362.293 229.47 363.566 230.458 362.151C233.424 357.06 233.848 355.363 234.413 357.625C234.695 359.606 234.978 361.161 235.684 362.293C236.39 363.424 238.085 362.859 238.085 361.727C238.085 359.747 236.955 356.777 237.378 356.494C237.802 356.211 238.226 356.777 238.508 357.06C240.485 358.474 241.615 359.606 243.027 360.313C244.157 360.878 245.146 359.181 244.44 358.333C243.451 357.484 242.463 356.918 238.367 353.665Z" fill="#E38921"/>
</g>
<defs>
<linearGradient id="paint0_linear_2056_37" x1="214" y1="0" x2="214" y2="428" gradientUnits="userSpaceOnUse">
<stop stop-color="#3098C5"/>
<stop offset="1" stop-color="#F2F2F2"/>
</linearGradient>
<linearGradient id="paint1_linear_2056_37" x1="214" y1="428" x2="214" y2="-1.18091e-05" gradientUnits="userSpaceOnUse">
<stop stop-color="#3098C5"/>
<stop offset="1" stop-color="#F2F2F2"/>
</linearGradient>
<clipPath id="clip0_2056_37">
<rect width="309" height="298" fill="white" transform="translate(60 65)"/>
</clipPath>
</defs>
</svg>
