<svg xmlns="http://www.w3.org/2000/svg" width="204" height="159" viewBox="0 0 204 159" fill="none">
  <path d="M105.634 0.000117881C90.2344 -0.0295103 70.9419 5.52579 51.9089 16.8339C32.9061 28.142 17.8441 42.9561 9.00237 57.4246C0.156338 71.8436 -2.23577 85.2751 2.11588 94.8549C6.47184 104.385 17.485 109.867 32.9234 109.867C48.3618 109.916 67.6544 104.336 86.6441 93.0772C105.677 81.7691 120.731 66.9056 129.555 52.4865C138.423 38.0675 140.758 24.636 136.433 15.0562C132.064 5.52578 121.077 0.000117881 105.634 0.000117881ZM145.387 34.7096C143.873 42.2648 140.585 50.0175 135.957 57.5727C126.181 73.5226 110.219 89.0774 90.2344 100.929C70.2498 112.829 49.9623 118.804 32.9191 118.804C24.8733 118.804 17.4158 117.422 11.1306 114.508L15.7115 124.582C20.0718 134.162 31.0547 139.643 46.5017 139.643C61.9445 139.643 81.237 134.112 100.227 122.804C119.26 111.545 134.313 96.682 143.138 82.2135C151.962 67.7944 154.384 54.363 150.015 44.8326L145.387 34.7096ZM157.845 43.0055C162.69 56.19 158.797 72.2387 149.54 87.2997C141.364 100.682 128.863 113.669 113.377 124.532C118.178 125.125 123.196 125.421 128.3 125.421C149.713 125.421 169.092 120.187 182.761 112.039C196.473 103.891 204 93.2253 204 82.4604C204 71.6955 196.473 61.0293 182.761 52.8816C175.797 48.7336 167.318 45.3264 157.845 43.0055ZM204 104.632C199.588 110.508 193.532 115.693 186.394 119.94C171.255 128.927 150.837 134.31 128.3 134.31C119.13 134.31 110.306 133.421 102.044 131.742C92.008 137.52 81.9291 141.816 72.2396 144.63C72.7587 144.976 73.2777 145.272 73.8401 145.618C87.5093 153.766 106.888 159 128.3 159C149.713 159 169.092 153.766 182.761 145.618C196.473 137.47 204 126.804 204 116.039V104.632Z" fill="#4B93D8"/>
</svg>