<svg width="15" height="20" viewBox="0 0 15 20" fill="none" xmlns="http://www.w3.org/2000/svg">
<path d="M14.1502 5.735L14.8552 9.815C14.8965 10.0541 14.8852 10.2994 14.8218 10.5337C14.7585 10.768 14.6448 10.9856 14.4886 11.1713C14.3324 11.3571 14.1375 11.5064 13.9175 11.609C13.6976 11.7115 13.4578 11.7648 13.2152 11.765H8.03417C7.91325 11.765 7.79378 11.7913 7.68406 11.8421C7.57433 11.8929 7.47698 11.9669 7.39876 12.0591C7.32054 12.1513 7.26333 12.2595 7.23111 12.376C7.19889 12.4926 7.19242 12.6147 7.21216 12.734L7.87516 16.779C7.98299 17.4361 7.95233 18.1085 7.78516 18.753C7.64616 19.286 7.23516 19.715 6.69316 19.889L6.54817 19.936C6.22017 20.041 5.86316 20.016 5.55416 19.868C5.38819 19.7893 5.24136 19.6753 5.12393 19.534C5.00649 19.3927 4.92126 19.2276 4.87417 19.05L4.39816 17.216C4.24664 16.6324 4.02643 16.0688 3.74217 15.537C3.32717 14.76 2.68516 14.137 2.01716 13.562L0.578165 12.322C0.378407 12.1496 0.222402 11.9323 0.122966 11.6878C0.0235296 11.4434 -0.0165002 11.1789 0.00616483 10.916L0.818165 1.523C0.853954 1.10759 1.04421 0.720699 1.35135 0.43873C1.6585 0.156762 2.06022 0.000213109 2.47716 0H7.12516C10.6072 0 13.5782 2.426 14.1502 5.735Z" fill="#0A1640"/>
</svg>
