<svg width="1839" height="1221" viewBox="0 0 1839 1221" fill="none" xmlns="http://www.w3.org/2000/svg">
<rect width="1839" height="1221" fill="none"/>
<path d="M1 93.0609C43.1717 59.2387 175.085 11.8877 365.364 93.0609C555.642 174.234 717.919 126.883 775.273 93.0609C844.434 62.621 1014.13 20.005 1139.64 93.0609C1265.14 166.117 1438.21 123.501 1509.06 93.0609C1549.55 57.5476 1672.01 7.82905 1838 93.0609V1265H1V93.0609Z" fill="url(#paint0_linear_0_1)"/>
<path d="M1 48.0609C43.1717 14.2387 175.085 -33.1123 365.364 48.0609C555.642 129.234 717.919 81.8831 775.273 48.0609C844.434 17.621 1014.13 -24.995 1139.64 48.0609C1265.14 121.117 1438.21 78.5009 1509.06 48.0609C1549.55 12.5476 1672.01 -37.171 1838 48.0609V1220H1V48.0609Z" stroke="#4B93D8" stroke-width="2"/>
<path d="M-104 48.0609C-58.5455 14.2387 83.6364 -33.1123 288.727 48.0609C493.818 129.234 668.727 81.8831 730.545 48.0609C805.091 17.621 988 -24.995 1123.27 48.0609C1258.55 121.117 1445.09 78.5009 1521.45 48.0609C1565.09 12.5476 1697.09 -37.171 1876 48.0609V1220H-104V48.0609Z" stroke="#332FBA" stroke-width="2"/>
<defs>
<linearGradient id="paint0_linear_0_1" x1="919.5" y1="46" x2="919.5" y2="1265" gradientUnits="userSpaceOnUse">
<stop offset="0.0253079" stop-color="#061E28"/>
<stop offset="1" stop-color="#0166A4"/>
</linearGradient>
</defs>
</svg>
