<svg xmlns="http://www.w3.org/2000/svg" width="212" height="212" viewBox="0 0 212 212" fill="none">
  <g clip-path="url(#clip0_65_618)">
    <path d="M86.6 39.5999L121.8 151.9C122.3 153.4 121.4 155 120 155.4L39.5 180.6C39 180.8 38.4 180.8 37.9 180.6C37 180.3 36.3 179.7 36 178.7L0.699988 66.4999C0.199988 64.9999 0.999988 63.4999 2.49999 62.9999L83 37.7999C84.5 37.2999 86.1 38.0999 86.6 39.5999Z" fill="white"/>
    <path opacity="0.18" d="M86.6 39.6L121.8 151.9C122.3 153.4 121.4 155 120 155.4L39.5 180.6C39 180.8 38.4 180.8 37.9 180.6C37.6 175.9 40.6 171.4 45.4 169.9L103.4 151.7C107.7 150.4 110 145.8 108.7 141.6L79.1 47.6C78.1 44.5 78.7 41.2 80.3 38.6L83.1 37.7C84.5 37.3 86.1 38.1 86.6 39.6Z" fill="#0A1640"/>
    <path d="M111.1 135.6L101.4 104.8C101.3 104.4 100.9 104.1 100.5 104.1C100.4 104.1 100.2 104.1 100.1 104.1L67.6 114.3C67 114.5 66.7 115.1 66.9 115.7L76.6 146.5C76.6 146.6 76.7 146.8 76.8 146.9C77.1 147.2 77.5 147.4 78 147.2L110.5 137C111 136.8 111.3 136.2 111.1 135.6Z" fill="#FFCE00"/>
    <path d="M20.7 75L17.1 75.6C16.9 75.6 16.8 75.6 16.7 75.5L14.2 72.8C13.9 72.5 13.5 72.7 13.4 73.1L12.8 76.7C12.8 76.9 12.7 77 12.5 77.1L9.19999 78.7C8.79999 78.9 8.79999 79.4 9.19999 79.5L12.5 81.2C12.6 81.3 12.7 81.4 12.8 81.6L13.3 85.2C13.4 85.6 13.8 85.7 14.1 85.5L16.7 82.9C16.8 82.8 17 82.7 17.1 82.8L20.7 83.5C21.1 83.6 21.4 83.2 21.2 82.8L19.5 79.5C19.4 79.4 19.4 79.2 19.5 79.1L21.2 75.9C21.4 75.3 21.1 74.9 20.7 75Z" fill="#FFCE00"/>
    <path d="M78.2 60.5C78.3 60.6 78.4 60.7 78.5 60.9L79 64.5C79.1 64.9 79.5 65 79.8 64.8L82.4 62.2C82.5 62.1 82.7 62 82.8 62.1L86.4 62.8C86.8 62.9 87.1 62.5 86.9 62.1L85.2 58.8C85.1 58.7 85.1 58.5 85.2 58.4L86.9 55.2C87.1 54.9 86.8 54.5 86.4 54.5L82.8 55C82.6 55 82.5 55 82.4 54.9L79.9 52.2C79.6 51.9 79.2 52.1 79.1 52.5L78.5 56.1C78.5 56.3 78.4 56.4 78.2 56.5L74.9 58C74.5 58.2 74.5 58.7 74.9 58.8L78.2 60.5Z" fill="#FFCE00"/>
    <path d="M4.89998 67.9C4.69998 67.9 4.39998 67.8 4.39998 67.5C4.29998 67.2 4.49998 66.9 4.69998 66.8L83.4 42.1C83.7 42 84 42.2 84.1 42.4C84.2 42.7 84 43 83.8 43.1L4.99998 67.9H4.89998Z" fill="#D811AD"/>
    <path d="M13.2 94.3C13 94.3 12.7 94.2 12.7 93.9C12.6 93.6 12.8 93.3 13 93.2L91.7 68.5C92 68.4 92.3 68.6 92.4 68.8C92.5 69.1 92.3 69.4 92.1 69.5L13.3 94.3H13.2Z" fill="#D811AD"/>
    <path d="M80.7 121.1C81.8 124.6 85.5 126.5 88.9 125.4C92.4 124.3 94.3 120.6 93.2 117.2C92.1 113.7 88.4 111.8 85 112.9C81.5 113.9 79.6 117.6 80.7 121.1Z" fill="#D811AD"/>
    <path d="M104.7 138.8L83.6 145.4C83.3 144 83.2 142.6 83.1 141.2C82.9 134.9 85.4 129.6 89.8 128.3C94 127 98.8 129.6 102.2 134.5C103.2 135.7 104 137.2 104.7 138.8Z" fill="#D811AD"/>
    <path d="M52.4 95.9L19.5 106.2C19 106.3 18.5 106.1 18.4 105.6L17.1 101.4C17 100.9 17.2 100.4 17.7 100.3L50.6 90C51.1 89.9 51.6 90.1 51.7 90.6L53 94.8C53.1 95.3 52.9 95.8 52.4 95.9Z" fill="#00D4FC"/>
    <g opacity="0.5">
      <path d="M110.4 137L104.7 138.8C104 137.2 103.2 135.7 102.3 134.5C104 132.9 104.7 130.5 104 128.1L98.3 109.8C97.6 107.6 98.6 105.2 100.7 104.2C101.1 104.2 101.5 104.5 101.6 104.9L111.3 135.7C111.3 136.2 111 136.8 110.4 137Z" fill="#E38921"/>
      <path d="M83.6 145.4L77.9 147.2C77.5 147.3 77 147.2 76.7 146.9C76.5 144.9 77.7 142.9 79.8 142.3L83.2 141.3C83.2 142.5 83.3 143.9 83.6 145.4Z" fill="#E38921"/>
    </g>
    <path opacity="0.25" d="M104.7 138.8L83.6 145.4C83.3 144 83.2 142.6 83.1 141.2L99.6 136C100.6 135.7 101.5 135.1 102.2 134.5C103.2 135.7 104 137.2 104.7 138.8Z" fill="#0A1640"/>
    <path opacity="0.75" d="M72.1 117.5C74.4 121.9 77.1 130.4 77.8 135.5C77.9 136.2 76.9 136.5 76.6 135.9C74.3 131.3 71.7 122.9 71 117.8C70.9 117.2 71.8 116.9 72.1 117.5Z" fill="white"/>
    <path d="M122.2 151.7L87.1 39.4C86.5 37.6 84.7 36.7 82.9 37.2L2.3 62.5C1.4 62.8 0.800001 63.3 0.300001 64.1C-0.099999 64.9 -0.199999 65.8 0.100001 66.6L35.3 179C35.6 180.1 36.5 180.9 37.6 181.2C38 181.3 38.3 181.3 38.7 181.3C39 181.3 39.2 181.2 39.5 181.2L120 156C121.8 155.4 122.8 153.5 122.2 151.7ZM119.7 154.9L39.2 180.1C38.8 180.2 38.3 180.2 37.9 180.1C37.2 179.9 36.6 179.3 36.4 178.6L1.2 66.3C1 65.8 1 65.2 1.3 64.6C1.6 64.1 2.1 63.7 2.6 63.5L83.1 38.3C83.3 38.2 83.5 38.2 83.6 38.2C84.6 38.1 85.6 38.8 85.9 39.8L121.1 152.1C121.6 153.3 120.9 154.5 119.7 154.9Z" fill="#0A1640"/>
    <path d="M28.5 82.4L29 84C29.7 83.8 30.5 83.7 31.3 83.4C31.6 83.3 32 83.2 32.3 83C32.1 82.5 31.9 81.8 31.7 81.1C30.9 78.5 29.9 75.2 30 75.2C30.1 75.2 30.3 75.5 30.5 75.8L30.9 76.4C32.2 78.1 34 79.9 35.7 81.9C36.3 81.7 37.2 81.5 37.9 81.4C38.4 81.2 38.6 81.1 38.6 81L38.5 80.5C38.3 79.9 38.1 79.3 37.9 78.7C37.6 77.8 37.4 77 37.1 76.1C36.7 74.8 36.3 73.5 35.8 72.2L33.5 64.8C33 64.8 32.5 65 31.9 65.1C31.3 65.3 30.8 65.5 30.3 65.8C30.5 66.6 30.7 67.2 30.9 67.9C31.2 69 31.6 70 32 71.2C32.2 71.7 32.3 72.4 32.2 72.5C32.1 72.5 29.4 69.6 29.1 69.3C28.1 68.2 27.9 68.1 27.1 67.1C27.1 67 25.5 67.3 25.1 67.5C24.7 67.6 24.4 67.8 24.1 67.9C24.6 69.9 25.2 72 25.8 74.1C26.7 77 27.5 79.5 28.5 82.4Z" fill="#0A1640"/>
    <path d="M49.6 77.5C49.6 76.5 49.2 75.4 48.8 74.4C46.7 75.1 44.8 75.5 42.7 76.2C42.4 75.5 41.9 74.3 41.8 73.3C42 72.9 43.6 72.7 44.5 72.2C44.1 71.1 43.9 70 43.5 69C42.5 69.3 41.6 69.6 40.6 69.8C40.1 69 40 68 39.7 67.1H39.8C41.8 66.3 43.9 66 45.7 64.9C45.4 63.8 45.2 62.7 44.7 61.6C44.7 61.5 38.7 63.4 35.2 64.7C36.6 70.1 38.4 75.1 40.1 80.5C43.2 79.7 46.5 78.4 49.6 77.5Z" fill="#0A1640"/>
    <path d="M52.8 76.4C53.2 76.3 53.5 76.3 53.7 76.2C54.1 76.1 54.4 75.9 54.8 75.7C55 74.8 54.5 72.2 54.8 71.5C55.6 72.2 56.6 74.4 57.4 75L57.7 74.9L58.5 74.6C58.8 74.5 59.1 74.4 59.3 74.3C58.1 68.9 57 63.5 55.8 58C55.3 58.1 54.8 58.2 54.2 58.4C53.6 58.6 53.1 58.8 52.6 59.1C53.2 61.9 54.7 66.3 55.3 69C54.6 68.2 53 65 52.6 64.9V65C52.7 66.5 52.8 67.9 52.8 69.4C51.3 67 50.4 62.6 49.3 59.9C48.7 60.1 48.1 60.2 47.5 60.4C47 60.6 46.5 60.8 46 61C47.9 66.4 50.4 71.4 52.8 76.4Z" fill="#0A1640"/>
    <path d="M62.2 65.3C62.8 65.5 63.4 65.7 64 65.6C65.4 65.4 67.3 65.1 67.9 66.5C68.9 68.5 65.6 69.5 64.8 67.6C63.8 67.9 62.3 68.2 61.3 68.7V68.8V68.9C62 71.9 65.5 72.7 68.2 71.9C70.1 71.4 71.7 70 71.8 67.9C72 66.1 71.4 64.1 69.9 63.1C68.6 62.1 66.9 61.6 65.2 61.9C64.5 62 63.9 62 63.4 61.4C63.3 61.2 63.2 61 63.2 60.8C62.9 59 66.1 58.7 66.3 60.5C67.5 60.5 68.7 60 69.8 59.4C69.5 57 68.1 55.8 66.4 55.5C64.7 55.3 62.5 55.8 61.2 56.8C58.6 58.8 58.5 63.4 62.2 65.3Z" fill="#0A1640"/>
    <path d="M52.6 96.5C53.3 96.3 53.8 95.5 53.5 94.7L52.2 90.5C52 89.8 51.2 89.3 50.4 89.6L17.5 99.9001C16.8 100.1 16.3 100.9 16.6 101.7L17.9 105.9C18 106.3 18.3 106.6 18.6 106.7C18.8 106.8 19.1 106.9 19.3 106.9C19.4 106.9 19.5 106.9 19.6 106.8L52.6 96.5ZM52.2 95.4001L19.3 105.7C19.1 105.8 18.9 105.7 18.9 105.5L17.6 101.3C17.5 101.1 17.6 100.9 17.8 100.9L50.7 90.6H50.8C51 90.6 51.1 90.7001 51.1 90.8001L52.4 95C52.5 95.2 52.4 95.4001 52.2 95.4001Z" fill="#0A1640"/>
    <path d="M54.9 100.2C54.8 99.9 54.5 99.8 54.2 99.9L20.2 110.5C19.9 110.6 19.8 110.9 19.9 111.2C20 111.4 20.2 111.6 20.4 111.6H20.5L54.5 101C54.8 100.8 55 100.5 54.9 100.2Z" fill="#0A1640"/>
    <path d="M56.6 105.7C56.5 105.4 56.2 105.3 55.9 105.4L22 116C21.7 116.1 21.6 116.4 21.7 116.7C21.8 116.9 22 117.1 22.2 117.1H22.3L56.2 106.5C56.5 106.3 56.7 106 56.6 105.7Z" fill="#0A1640"/>
    <path d="M58.3 111.2C58.2 110.9 57.9 110.8 57.6 110.9L23.7 121.5C23.4 121.6 23.3 121.9 23.4 122.2C23.5 122.4 23.7 122.6 23.9 122.6H24L58 111.8C58.3 111.7 58.4 111.4 58.3 111.2Z" fill="#0A1640"/>
    <path d="M60 116.6C59.9 116.3 59.6 116.2 59.3 116.3L25.4 126.9C25.1 127 25 127.3 25.1 127.6C25.2 127.8 25.4 128 25.6 128H25.7L59.6 117.4C60 117.2 60.1 116.9 60 116.6Z" fill="#0A1640"/>
    <path d="M61.8 122.1C61.7 121.8 61.4 121.7 61.1 121.8L27.2 132.4C26.9 132.5 26.8 132.8 26.9 133.1C27 133.3 27.2 133.5 27.4 133.5H27.5L61.4 122.9C61.7 122.7 61.9 122.4 61.8 122.1Z" fill="#0A1640"/>
    <path d="M63.5 127.6C63.4 127.3 63.1 127.2 62.8 127.3L28.8 137.9C28.5 138 28.4 138.3 28.5 138.6C28.6 138.8 28.8 139 29 139H29.1L63.1 128.4C63.4 128.2 63.6 127.9 63.5 127.6Z" fill="#0A1640"/>
    <path d="M65.2 133.1C65.1 132.8 64.8 132.7 64.5 132.8L30.5 143.4C30.2 143.5 30.1 143.8 30.2 144.1C30.3 144.3 30.5 144.5 30.7 144.5H30.8L64.8 133.9C65.1 133.7 65.3 133.4 65.2 133.1Z" fill="#0A1640"/>
    <path d="M66.9 138.6C66.8 138.3 66.5 138.2 66.2 138.3L32.3 148.9C32 149 31.9 149.3 32 149.6C32.1 149.8 32.3 150 32.5 150H32.6L66.5 139.4C66.8 139.1 67 138.8 66.9 138.6Z" fill="#0A1640"/>
    <path d="M68.6 144C68.5 143.7 68.2 143.6 67.9 143.7L34 154.3C33.7 154.4 33.6 154.7 33.7 155C33.8 155.2 34 155.4 34.2 155.4H34.3L68.2 144.8C68.6 144.6 68.7 144.3 68.6 144Z" fill="#0A1640"/>
    <path d="M70.4 149.5C70.3 149.2 70 149.1 69.7 149.2L35.8 159.8C35.5 159.9 35.4 160.2 35.5 160.5C35.6 160.7 35.8 160.9 36 160.9H36.1L70 150.2C70.3 150.1 70.4 149.8 70.4 149.5Z" fill="#0A1640"/>
    <path d="M72.1 155C72 154.7 71.7 154.6 71.4 154.7L37.5 165.3C37.2 165.4 37.1 165.7 37.2 166C37.3 166.2 37.5 166.4 37.7 166.4H37.8L71.7 155.8C72 155.6 72.2 155.3 72.1 155Z" fill="#0A1640"/>
    <path d="M73.1 160.1L39.1 170.7C38.8 170.8 38.7 171.1 38.8 171.4C38.9 171.6 39.1 171.8 39.3 171.8H39.4L73.4 161.2C73.7 161.1 73.8 160.8 73.7 160.5C73.7 160.2 73.4 160 73.1 160.1Z" fill="#0A1640"/>
    <path d="M111.5 136.7C111.7 136.3 111.7 135.9 111.6 135.5L101.9 104.7C101.7 104.1 101.2 103.6 100.5 103.6C100.3 103.6 100.1 103.6 99.9 103.7L67.4 113.9C66.6 114.2 66.1 115.1 66.3 115.9L76 146.7C76.1 146.9 76.2 147.1 76.3 147.2C76.6 147.6 77.1 147.8 77.6 147.8C77.7 147.8 77.9 147.8 78 147.7L110.5 137.5C111 137.4 111.3 137.1 111.5 136.7ZM89.9 128.7C90.4 128.5 91 128.4 91.5 128.4C96 128.1 101 132.1 103.9 138.4L84 144.7C82.7 137 85.1 130.2 89.9 128.7ZM110.2 136.5L104.9 138.2C101.4 130.5 95 126.1 89.6 127.8C84.2 129.5 81.4 136.7 83 145.1L77.7 146.8C77.5 146.9 77.3 146.8 77.1 146.6C77.1 146.5 77 146.5 77 146.4L67.3 115.6C67.3 115.5 67.3 115.3 67.3 115.2C67.4 115.1 67.5 115 67.6 114.9L100.1 104.7H100.2H100.3C100.5 104.7 100.7 104.9 100.8 105.1L110.5 135.9C110.5 136 110.5 136.2 110.5 136.3C110.5 136.3 110.4 136.4 110.2 136.5Z" fill="#0A1640"/>
    <path d="M61.2 98.2C61.3 98.4 61.5 98.6 61.7 98.6H61.8L95.8 88C96.1 87.9 96.2 87.6 96.1 87.3C96 87 95.7 86.9 95.4 87L61.4 97.6C61.3 97.6 61.2 97.9 61.2 98.2Z" fill="#0A1640"/>
    <path d="M63 103.7C63.1 103.9 63.3 104.1 63.5 104.1H63.6L97.6 93.5C97.9 93.4 98 93.1 97.9 92.8C97.8 92.5 97.5 92.4 97.2 92.5L63.2 103.1C63 103.1 62.9 103.4 63 103.7Z" fill="#0A1640"/>
    <path d="M59.5 92.7C59.6 92.9 59.8 93.1 60 93.1H60.1L94.1 82.5C94.4 82.4 94.5 82.1 94.4 81.8C94.3 81.5 94 81.4 93.7 81.5L59.7 92.1C59.6 92.2 59.4 92.5 59.5 92.7Z" fill="#0A1640"/>
    <path d="M57.8 87.3C57.9 87.5 58.1 87.7 58.3 87.7H58.4L92.4 77C92.7 76.9 92.8 76.6 92.7 76.3C92.6 76 92.3 75.9 92 76L58.2 86.6C57.9 86.7 57.7 87 57.8 87.3Z" fill="#0A1640"/>
    <path d="M64.7 109.2C64.8 109.4 65 109.6 65.2 109.6H65.3L99.2 99C99.5 98.9 99.6 98.6 99.5 98.3C99.4 98 99.1 97.9 98.8 98L65 108.5C64.7 108.6 64.6 108.9 64.7 109.2Z" fill="#0A1640"/>
    <path d="M113.4 142.1C113.3 141.8 113 141.7 112.7 141.8L78.8 152.4C78.5 152.5 78.4 152.8 78.5 153.1C78.6 153.3 78.8 153.5 79 153.5H79.1L113 142.9C113.3 142.6 113.5 142.3 113.4 142.1Z" fill="#0A1640"/>
    <path d="M114.4 147.2L80.4 157.8C80.1 157.9 80 158.2 80.1 158.5C80.2 158.7 80.4 158.9 80.6 158.9H80.7L114.7 148.3C115 148.2 115.1 147.9 115 147.6C115 147.3 114.7 147.1 114.4 147.2Z" fill="#0A1640"/>
    <path d="M84.8 112.4C81.1 113.6 79 117.6 80.1 121.3C81.1 124.5 84.1 126.5 87.3 126.3C87.9 126.3 88.4 126.2 89 126C92.7 124.8 94.8 120.8 93.7 117.1C92.5 113.3 88.6 111.2 84.8 112.4ZM88.7 124.9C85.5 125.9 82.1 124.1 81.1 120.9C80.1 117.7 81.9 114.3 85.1 113.3C88.3 112.3 91.7 114.1 92.7 117.3C93.7 120.5 91.9 123.9 88.7 124.9Z" fill="#0A1640"/>
    <path d="M20.5 83.8C20.9 83.9 21.3 83.7 21.5 83.4C21.7 83.1 21.8 82.7 21.6 82.3L19.9 79.1L21.6 75.9C21.8 75.6 21.8 75.2 21.5 74.8C21.3 74.5 20.9 74.3 20.5 74.4L16.9 75L14.4 72.3C14.1 72 13.7 71.9 13.4 72C13 72.1 12.8 72.4 12.7 72.8L12.2 76.4L8.89999 78C8.59999 78.2 8.29999 78.5 8.29999 78.9C8.29999 79.3 8.49999 79.6 8.79999 79.8L12.1 81.4L12.6 85.1C12.7 85.5 12.9 85.8 13.3 85.9C13.4 85.9 13.6 86 13.7 86C13.9 86 14.2 85.9 14.3 85.7L16.8 83.1L20.5 83.8ZM13.7 84.9L13.2 81.4C13.2 81.1 13 80.8 12.7 80.6L9.49999 79L12.7 77.5C13 77.4 13.2 77.1 13.3 76.8L13.8 73.3L16.3 75.9C16.5 76.1 16.9 76.3 17.2 76.2L20.7 75.6L19 78.7C18.8 79 18.8 79.3 19 79.6L20.6 82.8L17.1 82.2C16.8 82.1 16.4 82.2 16.2 82.5L13.7 84.9Z" fill="#0A1640"/>
    <path d="M74.7 59.3L78 60.9L78.5 64.5C78.6 64.9 78.8 65.2001 79.2 65.3001C79.3 65.3001 79.5 65.4 79.6 65.4C79.8 65.4 80.1 65.3 80.2 65.1L82.7 62.5L86.3 63.2C86.7 63.3 87.1 63.1 87.3 62.8C87.5 62.5 87.6 62.1 87.4 61.7L85.7 58.5L87.4 55.3C87.6 55 87.6 54.6 87.3 54.2C87.1 53.9 86.7 53.7 86.3 53.8L82.7 54.4L80.2 51.7C79.9 51.4 79.5 51.3 79.2 51.4C78.8 51.5 78.6 51.8 78.5 52.2L78 55.9L74.7 57.5C74.4 57.7 74.1 58 74.1 58.4C74.1 58.8 74.3 59.2 74.7 59.3ZM78.5 56.9C78.8 56.8 79 56.5 79.1 56.2L79.6 52.7L82.1 55.3C82.3 55.5 82.7 55.6 83 55.6L86.5 55L84.8 58.1C84.6 58.4 84.6 58.7 84.8 59L86.4 62.2L82.9 61.6C82.6 61.5 82.2 61.6 82 61.9L79.5 64.4L79 60.8C79 60.5 78.8 60.2 78.5 60L75.3 58.4L78.5 56.9Z" fill="#0A1640"/>
    <path d="M98.6 28.5001L126.8 142.8C127.2 144.3 126.3 145.8 124.7 146.2L42.8 166.4C42.2 166.5 41.7 166.5 41.2 166.3C40.3 166 39.7 165.3 39.4 164.3L11.2 50.0001C10.8 48.5001 11.7 47.0001 13.3 46.6001L95.2 26.4001C96.7 26.0001 98.3 27.0001 98.6 28.5001Z" fill="white"/>
    <path opacity="0.18" d="M98.6 28.5001L126.8 142.8C127.2 144.3 126.3 145.8 124.7 146.2L42.8 166.4C42.2 166.5 41.7 166.5 41.2 166.3C41.2 161.5 44.5 157.2 49.3 156.1L108.4 141.5C112.7 140.4 115.4 136.1 114.3 131.7L90.7 36.0001C89.9 32.8001 90.7 29.6001 92.5 27.1001L95.3 26.4001C96.7 26.0001 98.3 27.0001 98.6 28.5001Z" fill="#0A1640"/>
    <path d="M117.2 125.8L109.5 94.4001C109.4 94.0001 109 93.7001 108.6 93.6001C108.5 93.6001 108.3 93.6001 108.2 93.6001L75 101.8C74.4 101.9 74.1 102.5 74.2 103.1L81.9 134.5C81.9 134.6 82 134.8 82.1 134.9C82.3 135.2 82.8 135.4 83.2 135.3L116.3 127.1C117 127 117.3 126.4 117.2 125.8Z" fill="#FFCE00"/>
    <path d="M30.7 59.7001L27 60.1001C26.8 60.1001 26.7 60.1001 26.6 59.9001L24.2 57.1001C23.9 56.8001 23.5 56.9001 23.4 57.3001L22.6 60.9001C22.6 61.1001 22.5 61.2001 22.3 61.2001L19 62.6001C18.6 62.7001 18.6 63.2001 18.9 63.4001L22.1 65.3001C22.2 65.4001 22.3 65.5001 22.3 65.7001L22.6 69.4001C22.6 69.8001 23.1 70.0001 23.4 69.7001L26.2 67.3001C26.3 67.2001 26.5 67.2001 26.6 67.2001L30.2 68.1001C30.6 68.2001 30.9 67.8001 30.7 67.5001L29.2 64.0001C29.1 63.9001 29.1 63.7001 29.2 63.6001L31.1 60.5001C31.4 60.1001 31.1 59.7001 30.7 59.7001Z" fill="#FFCE00"/>
    <path d="M89 48.8001C89.1 48.9001 89.2 49.0001 89.2 49.2001L89.5 52.9001C89.5 53.3001 90 53.5001 90.3 53.2001L93.1 50.8001C93.2 50.7001 93.4 50.7001 93.5 50.7001L97.1 51.6001C97.5 51.7001 97.8 51.3001 97.6 51.0001L96.1 47.6001C96 47.5001 96.1 47.3001 96.1 47.2001L98 44.1001C98.2 43.8001 97.9 43.3001 97.6 43.4001L94 43.6001C93.8 43.6001 93.7 43.6001 93.6 43.4001L91.2 40.6001C90.9 40.3001 90.5 40.4001 90.4 40.8001L89.6 44.4001C89.6 44.6001 89.5 44.7001 89.3 44.7001L85.9 46.1001C85.5 46.2001 85.5 46.7001 85.8 46.9001L89 48.8001Z" fill="#FFCE00"/>
    <path d="M15.4 51.6C15.2 51.6 14.9 51.4 14.9 51.2C14.8 50.9 15 50.6 15.3 50.6L95.4 30.9C95.7 30.8 96 31 96 31.3C96.1 31.6 95.9 31.9 95.6 31.9L15.5 51.6H15.4Z" fill="#D811AD"/>
    <path d="M22 78.5001C21.8 78.5001 21.5 78.3001 21.5 78.1001C21.4 77.8001 21.6 77.5001 21.9 77.5001L102 57.7001C102.3 57.6001 102.6 57.8001 102.6 58.1001C102.7 58.4001 102.5 58.7001 102.2 58.7001L22.1 78.5001H22Z" fill="#D811AD"/>
    <path d="M94.1 114.5C97.7451 114.5 100.7 111.545 100.7 107.9C100.7 104.255 97.7451 101.3 94.1 101.3C90.4549 101.3 87.5 104.255 87.5 107.9C87.5 111.545 90.4549 114.5 94.1 114.5Z" fill="#D811AD"/>
    <path d="M110.5 128.6L89.1 133.9C88.9 132.5 88.8 131 88.9 129.7C89.1 123.4 91.9 118.3 96.4 117.2C100.7 116.1 105.3 119 108.4 124.1C109.2 125.4 110 126.9 110.5 128.6Z" fill="#D811AD"/>
    <path d="M61 82.6L27.5 90.9001C27 91.0001 26.6 90.7001 26.4 90.3001L25.4 86.1C25.3 85.6 25.6 85.2 26 85L59.5 76.7C60 76.6 60.4 76.9001 60.6 77.3001L61.6 81.5C61.8 82 61.5 82.5 61 82.6Z" fill="#00D4FC"/>
    <g opacity="0.5">
      <path d="M116.4 127.1L110.6 128.5C110 126.9 109.3 125.4 108.5 124C110.3 122.5 111.1 120.1 110.6 117.7L106 99C105.4 96.7 106.6 94.5 108.7 93.5C109.1 93.6 109.5 93.9 109.6 94.3L117.3 125.7C117.3 126.4 117 127 116.4 127.1Z" fill="#E38921"/>
      <path d="M89.1 133.8L83.3 135.2C82.9 135.3 82.4 135.1 82.2 134.8C82.1 132.8 83.5 130.9 85.6 130.4L89 129.6C88.9 131 88.9 132.4 89.1 133.8Z" fill="#E38921"/>
    </g>
    <path opacity="0.25" d="M110.5 128.6L89.1 133.9C88.9 132.5 88.8 131 88.9 129.7L105.7 125.5C106.7 125.3 107.6 124.8 108.4 124.1C109.2 125.4 110 126.9 110.5 128.6Z" fill="#0A1640"/>
    <path opacity="0.75" d="M79.4 105.3C81.4 109.9 83.6 118.4 84 123.7C84.1 124.4 83.1 124.7 82.8 124C80.8 119.3 78.7 110.7 78.3 105.6C78.2 104.9 79.1 104.7 79.4 105.3Z" fill="white"/>
    <path d="M127.3 142.6L99.1 28.3C98.7 26.5 96.8 25.4 95.1 25.9L13.2 46.1C12.3 46.3 11.6 46.9 11.1 47.6C10.6 48.4 10.5 49.3 10.7 50.1L38.9 164.4C39.2 165.5 40 166.4 41 166.7C41.4 166.8 41.7 166.9 42.1 166.9C42.4 166.9 42.6 166.9 42.9 166.8L124.8 146.6C126.6 146.2 127.7 144.4 127.3 142.6ZM124.6 145.6L42.7 165.8C42.3 165.9 41.8 165.9 41.4 165.7C40.7 165.4 40.1 164.8 40 164.1L11.8 49.9C11.7 49.3 11.7 48.7 12.1 48.2C12.4 47.7 12.9 47.3 13.5 47.2L95.4 27C95.6 27 95.8 26.9 95.9 26.9C96.9 26.9 97.9 27.6 98.1 28.6L126.3 142.9C126.6 144.1 125.8 145.3 124.6 145.6Z" fill="#0A1640"/>
    <path d="M38 67.6L38.4 69.2C39.1 69 39.9 69.0001 40.7 68.8001C41.1 68.7001 41.4 68.6001 41.7 68.4001C41.5 67.9001 41.4 67.2001 41.2 66.5C40.6 63.9 39.8 60.5 39.9 60.5C40 60.5 40.2 60.8 40.4 61.1L40.8 61.7001C42 63.5001 43.6 65.4 45.2 67.5C45.8 67.3 46.8 67.2 47.4 67.1C47.9 67 48.1 66.8001 48.1 66.8001L48 66.4001C47.8 65.8001 47.7 65.2 47.5 64.5C47.3 63.6 47.1 62.8001 46.9 61.9001C46.6 60.6001 46.2 59.2001 45.9 57.9001L44 50.3C43.5 50.3 43 50.4 42.4 50.5C41.8 50.6 41.3 50.8 40.7 51.1C40.9 51.9 41 52.5001 41.2 53.2001C41.5 54.3001 41.8 55.3 42.1 56.6C42.2 57.1 42.3 57.8001 42.3 57.9001C42.2 57.9001 39.7 54.9 39.4 54.5C38.5 53.3 38.3 53.2001 37.5 52.2001C37.5 52.1001 35.9 52.3001 35.5 52.4001C35.1 52.5001 34.8 52.6 34.5 52.8C34.8 54.8 35.3 57 35.8 59.1C36.6 62 37.3 64.6 38 67.6Z" fill="#0A1640"/>
    <path d="M59.4 64C59.4 63 59.1 61.9 58.8 60.9C56.7 61.5 54.7 61.8 52.6 62.3C52.3 61.6 51.9 60.3 51.9 59.4C52.2 59.1 53.8 58.9 54.7 58.4C54.4 57.3 54.3 56.2 53.9 55.2C52.9 55.4 52 55.7 51 55.8C50.6 55 50.5 54 50.3 53.1H50.4C52.4 52.4 54.6 52.2 56.5 51.3C56.2 50.2 56.1 49 55.7 48C55.7 47.9 49.6 49.4 46 50.5C47 55.9 48.6 61.1 49.9 66.5C52.9 65.8 56.2 64.7 59.4 64Z" fill="#0A1640"/>
    <path d="M62.6 63.1C63 63.1 63.3 63.0001 63.5 62.9001C63.9 62.8001 64.2 62.7001 64.6 62.5C64.9 61.6 64.5 59 64.9 58.3C65.7 59 66.5 61.4001 67.3 61.9001L67.6 61.8L68.4 61.6C68.7 61.5 69 61.5001 69.2 61.4001C68.3 55.9001 67.6 50.4 66.8 44.8C66.3 44.9 65.8 45 65.2 45.1C64.6 45.2 64.1 45.4001 63.6 45.7001C64 48.5001 65.2 53 65.6 55.8C65 55 63.5 51.7 63.2 51.5V51.6C63.2 53.1 63.2 54.5 63.2 56C61.9 53.5 61.2 49.1 60.3 46.3C59.7 46.4 59.1 46.5001 58.5 46.7001C58 46.8001 57.5 47.0001 57 47.2001C58.3 52.8001 60.5 58 62.6 63.1Z" fill="#0A1640"/>
    <path d="M72.7 52.6C73.2 52.9 73.8 53 74.5 53C75.9 52.9 77.8 52.7 78.3 54.1C79.2 56.2 75.8 57 75.2 55C74.2 55.3 72.7 55.5 71.6 55.9V56V56.1C72.1 59.1 75.6 60.1 78.3 59.5C80.2 59.1 81.9 57.8 82.2 55.7C82.6 53.9 82 51.9 80.6 50.8C79.4 49.7 77.6 49.1 75.9 49.3C75.2 49.4 74.6 49.4 74.1 48.7C74.1 48.5 74 48.3 74 48C73.8 46.2 77 46.1 77.1 47.9C78.3 47.9 79.6 47.5 80.6 47.1C80.5 44.6 79.1 43.4 77.4 43C75.7 42.7 73.5 43 72.1 44C69.5 45.9 69.1 50.5 72.7 52.6Z" fill="#0A1640"/>
    <path d="M61.2 83.1C62 82.9 62.4 82.2 62.2 81.4L61.2 77.2C61 76.4 60.2 76 59.5 76.2L26 84.4C25.2 84.6 24.8 85.3 25 86.1L26 90.3C26.1 90.7 26.3 91 26.6 91.2C26.8 91.3 27.1 91.4 27.3 91.4C27.4 91.4 27.5 91.4 27.6 91.4L61.2 83.1ZM60.9 82.1L27.4 90.4C27.2 90.4 27 90.3 27 90.2L26 86C26 85.8 26.1 85.6 26.2 85.6L59.7 77.3H59.8C60 77.3 60.1 77.4 60.1 77.6L61.1 81.8C61.2 81.8 61.1 82 60.9 82.1Z" fill="#0A1640"/>
    <path d="M63.3 87C63.2 86.7 62.9 86.5 62.7 86.6L28.2 95.1C27.9 95.2 27.7 95.5 27.8 95.7C27.9 95.9 28.1 96.1 28.3 96.1H28.4L62.9 87.6C63.2 87.6 63.3 87.3 63.3 87Z" fill="#0A1640"/>
    <path d="M64.6 92.6001C64.5 92.3001 64.2 92.1001 64 92.2001L29.5 100.7C29.2 100.8 29 101.1 29.1 101.3C29.2 101.5 29.4 101.7 29.6 101.7H29.7L64.2 93.2001C64.5 93.1001 64.7 92.8001 64.6 92.6001Z" fill="#0A1640"/>
    <path d="M66 98.1001C65.9 97.8001 65.6 97.6001 65.4 97.7001L30.9 106.2C30.6 106.3 30.4 106.6 30.5 106.8C30.6 107 30.8 107.2 31 107.2H31.1L65.6 98.7001C65.9 98.7001 66.1 98.4001 66 98.1001Z" fill="#0A1640"/>
    <path d="M67.4 103.7C67.3 103.4 67 103.2 66.8 103.3L32.3 111.8C32 111.9 31.8 112.2 31.9 112.4C32 112.6 32.2 112.8 32.4 112.8H32.5L67 104.3C67.3 104.3 67.5 104 67.4 103.7Z" fill="#0A1640"/>
    <path d="M68.8 109.3C68.7 109 68.4 108.8 68.2 108.9L33.7 117.4C33.4 117.5 33.2 117.8 33.3 118C33.4 118.2 33.6 118.4 33.8 118.4H33.9L68.4 109.9C68.7 109.9 68.8 109.6 68.8 109.3Z" fill="#0A1640"/>
    <path d="M70.1 114.9C70 114.6 69.7 114.4 69.5 114.5L35 123C34.7 123.1 34.5 123.4 34.6 123.6C34.7 123.8 34.9 124 35.1 124H35.2L69.7 115.5C70 115.4 70.2 115.1 70.1 114.9Z" fill="#0A1640"/>
    <path d="M71.5 120.4C71.4 120.1 71.1 119.9 70.9 120L36.4 128.5C36.1 128.6 35.9 128.9 36 129.1C36.1 129.3 36.3 129.5 36.5 129.5H36.6L71.1 121C71.4 121 71.6 120.7 71.5 120.4Z" fill="#0A1640"/>
    <path d="M72.9 126C72.8 125.7 72.5 125.5 72.3 125.6L37.8 134.1C37.5 134.2 37.3 134.5 37.4 134.7C37.5 134.9 37.7 135.1 37.9 135.1H38L72.5 126.6C72.8 126.6 73 126.3 72.9 126Z" fill="#0A1640"/>
    <path d="M74.3 131.6C74.2 131.3 73.9 131.1 73.7 131.2L39.2 139.7C38.9 139.8 38.7 140.1 38.8 140.3C38.9 140.5 39.1 140.7 39.3 140.7H39.4L73.9 132.2C74.2 132.2 74.3 131.9 74.3 131.6Z" fill="#0A1640"/>
    <path d="M75.6 137.2C75.5 136.9 75.2 136.7 75 136.8L40.5 145.3C40.2 145.4 40 145.7 40.1 145.9C40.2 146.1 40.4 146.3 40.6 146.3H40.7L75.2 137.8C75.5 137.7 75.7 137.4 75.6 137.2Z" fill="#0A1640"/>
    <path d="M77 142.7C76.9 142.4 76.6 142.2 76.4 142.3L41.9 150.8C41.6 150.9 41.4 151.2 41.5 151.4C41.6 151.6 41.8 151.8 42 151.8H42.1L76.6 143.3C76.9 143.3 77.1 143 77 142.7Z" fill="#0A1640"/>
    <path d="M77.7 147.9L43.2 156.4C42.9 156.5 42.7 156.8 42.8 157C42.9 157.2 43.1 157.4 43.3 157.4H43.4L78 149C78.3 148.9 78.5 148.6 78.4 148.4C78.3 148 78 147.9 77.7 147.9Z" fill="#0A1640"/>
    <path d="M117.5 126.9C117.7 126.5 117.8 126.1 117.7 125.7L110 94.3001C109.8 93.7001 109.3 93.2001 108.7 93.1001C108.5 93.1001 108.3 93.1001 108.1 93.1001L75 101.3C74.1 101.5 73.6 102.4 73.8 103.2L81.5 134.6C81.5 134.8 81.6 135 81.7 135.1C82 135.5 82.5 135.8 83 135.8C83.1 135.8 83.3 135.8 83.4 135.8L116.5 127.6C116.9 127.5 117.3 127.3 117.5 126.9ZM96.5 117.6C97 117.5 97.6 117.4 98.1 117.4C102.6 117.4 107.3 121.7 109.8 128.1L89.5 133.1C88.7 125.5 91.6 118.8 96.5 117.6ZM116.3 126.6L110.9 127.9C107.9 120 101.8 115.2 96.3 116.6C90.8 118 87.6 125 88.6 133.4L83.2 134.7C83 134.8 82.8 134.7 82.6 134.5C82.6 134.4 82.5 134.4 82.5 134.3L74.8 103C74.8 102.9 74.8 102.7 74.9 102.6C75 102.5 75.1 102.4 75.2 102.4L108.3 94.2001H108.4H108.5C108.7 94.2001 108.9 94.4001 108.9 94.6001L116.6 126C116.6 126.1 116.6 126.3 116.5 126.4C116.5 126.5 116.4 126.6 116.3 126.6Z" fill="#0A1640"/>
    <path d="M69.7 85.4001C69.8 85.6001 70 85.8001 70.2 85.8001H70.3L104.8 77.3001C105.1 77.2001 105.3 76.9001 105.2 76.7001C105.1 76.4001 104.8 76.2001 104.6 76.3001L70.1 84.8001C69.8 84.8001 69.7 85.1001 69.7 85.4001Z" fill="#0A1640"/>
    <path d="M71.1 91C71.2 91.2 71.4 91.4 71.6 91.4H71.7L106.2 82.9C106.5 82.8 106.7 82.5 106.6 82.3C106.5 82 106.2 81.8 106 81.9L71.5 90.4C71.2 90.4 71 90.7 71.1 91Z" fill="#0A1640"/>
    <path d="M68.4 79.8001C68.5 80.0001 68.7 80.2001 68.9 80.2001H69L103.5 71.7001C103.8 71.6001 104 71.3001 103.9 71.1001C103.8 70.8001 103.5 70.6001 103.3 70.7001L68.8 79.2001C68.5 79.2001 68.3 79.5001 68.4 79.8001Z" fill="#0A1640"/>
    <path d="M67 74.2C67.1 74.4 67.3 74.6 67.5 74.6H67.6L102.1 66.1C102.4 66 102.6 65.7 102.5 65.5C102.4 65.2 102.1 65 101.9 65.1L67.4 73.6C67.1 73.7 66.9 74 67 74.2Z" fill="#0A1640"/>
    <path d="M72.5 96.5C72.6 96.7 72.8 96.9 73 96.9H73.1L107.6 88.4C107.9 88.3 108.1 88 108 87.8C107.9 87.5 107.6 87.3 107.4 87.4L72.9 95.9C72.6 96 72.4 96.3 72.5 96.5Z" fill="#0A1640"/>
    <path d="M119 132.4C118.9 132.1 118.6 131.9 118.4 132L83.9 140.5C83.6 140.6 83.4 140.9 83.5 141.1C83.6 141.3 83.8 141.5 84 141.5H84.1L118.6 133C118.9 133 119.1 132.7 119 132.4Z" fill="#0A1640"/>
    <path d="M119.8 137.6L85.3 146.1C85 146.2 84.8 146.5 84.9 146.7C85 146.9 85.2 147.1 85.4 147.1H85.5L120 138.6C120.3 138.5 120.5 138.2 120.4 138C120.3 137.7 120.1 137.5 119.8 137.6Z" fill="#0A1640"/>
    <path d="M92.4 101C88.6 101.9 86.3 105.8 87.2 109.6C88 112.8 90.9 115 94.1 115C94.7 115 95.2 114.9 95.8 114.8C99.6 113.9 101.9 110 101 106.2C100 102.4 96.2 100 92.4 101ZM95.5 113.7C92.3 114.5 89 112.5 88.2 109.3C87.4 106.1 89.4 102.8 92.6 102C95.8 101.2 99.1 103.2 99.9 106.4C100.7 109.6 98.8 112.9 95.5 113.7Z" fill="#0A1640"/>
    <path d="M30 68.5C30.4 68.6 30.8 68.5 31 68.2C31.2 67.9 31.3 67.5 31.2 67.2L29.7 63.9L31.6 60.8C31.8 60.5 31.8 60.1 31.6 59.7C31.4 59.3 31 59.2 30.7 59.2L27.1 59.6L24.7 56.8C24.5 56.5 24.1 56.4 23.7 56.5C23.3 56.6 23 56.9 23 57.3L22.2 60.9L18.8 62.3C18.4 62.4 18.2 62.8 18.2 63.2C18.2 63.6 18.4 63.9 18.7 64.1L21.8 65.9L22.1 69.6C22.1 70 22.4 70.3 22.7 70.5C22.8 70.6 23 70.6 23.1 70.6C23.3 70.6 23.6 70.5 23.8 70.3L26.5 67.9L30 68.5ZM23.1 69.2L22.8 65.7C22.8 65.4 22.6 65.1 22.3 64.9L19.3 63L22.6 61.7C22.9 61.6 23.1 61.3 23.2 61L23.9 57.5L26.2 60.3C26.4 60.6 26.7 60.7 27.1 60.7L30.6 60.4L28.7 63.4C28.5 63.7 28.5 64 28.6 64.3L30 67.6L26.5 66.7C26.2 66.6 25.8 66.7 25.6 66.9L23.1 69.2Z" fill="#0A1640"/>
    <path d="M85.5 47.4L88.6 49.2L88.9 52.9C88.9 53.3 89.2 53.6 89.5 53.8C89.6 53.9 89.8 53.9 89.9 53.9C90.1 53.9 90.4 53.8 90.6 53.6L93.3 51.2L96.9 52.1C97.3 52.2 97.7 52.1 97.9 51.8C98.1 51.5 98.2 51.1 98.1 50.8L96.6 47.5L98.5 44.4C98.7 44.1 98.7 43.7 98.5 43.3C98.3 43 97.9 42.8 97.6 42.8L94 43.1L91.6 40.3C91.4 40 91 39.9 90.6 40C90.2 40.1 89.9 40.4 89.9 40.8L89.1 44.4L85.7 45.8C85.3 45.9 85.1 46.3 85.1 46.7C85 46.9 85.2 47.2 85.5 47.4ZM89.5 45.2C89.8 45.1 90 44.8 90.1 44.5L90.8 41L93.1 43.8C93.3 44.1 93.6 44.2 94 44.2L97.5 43.9L95.6 46.9C95.4 47.2 95.4 47.5 95.5 47.8L97 51L93.5 50.1C93.2 50 92.8 50.1 92.6 50.3L90 52.7L89.7 49.2C89.7 48.9 89.5 48.6 89.2 48.4L86.1 46.6L89.5 45.2Z" fill="#0A1640"/>
    <path d="M87.5 186L168.8 207.1C170.3 207.5 171.8 206.6 172.2 205.1L206.1 74.5001C206.5 73.0001 205.6 71.5001 204.1 71.1001L122.8 50.0001C121.3 49.6001 119.8 50.5001 119.4 52.0001L85.5 182.7C85.1 184.1 86 185.7 87.5 186Z" fill="#332FBA"/>
    <path d="M199.4 74.4001L125.3 55.1001C124.2 54.8001 123 55.5001 122.7 56.6001L93 171C92.7 172.1 93.4 173.3 94.5 173.6L168.6 192.9C169.7 193.2 170.9 192.5 171.2 191.4L200.9 77.0001C201.2 75.9001 200.5 74.7001 199.4 74.4001Z" fill="#6B7FFF"/>
    <path d="M132.3 186.1C131.9 185.9 131.5 185.7 131 185.6C128.5 185 126 186.4 125.4 188.9C124.9 190.7 125.6 192.6 127 193.7C127.5 194.1 128 194.4 128.7 194.5C131.2 195.1 133.7 193.7 134.3 191.2C134.8 189.2 133.9 187.1 132.3 186.1Z" fill="#6B7FFF"/>
    <g opacity="0.25">
      <path d="M200.9 77L172.9 184.9L94.7 164.6C96.2 158.7 102.2 155.2 108.1 156.7L154.1 168.6C160.8 170.3 167.6 166.3 169.4 159.6L189.8 81.1C190.8 77.3 193.8 74.6 197.4 73.8L199.4 74.3C200.5 74.7 201.2 75.9 200.9 77Z" fill="#0A1640"/>
      <path d="M134.3 191.2C133.7 193.7 131.1 195.1 128.7 194.5C128.1 194.3 127.5 194.1 127 193.7C127.1 193.7 127.1 193.6 127.2 193.6C130 192.1 131.8 189.2 132.2 186.2C133.9 187.1 134.8 189.2 134.3 191.2Z" fill="#0A1640"/>
    </g>
    <path d="M173.1 184L171.2 191.3C170.9 192.4 169.7 193.1 168.6 192.8L94.5 173.5C93.4 173.2 92.7 172 93 170.9L94.9 163.6L173.1 184Z" fill="white"/>
    <path d="M166.1 187.2C166 187.7 165.4 188.1 164.9 187.9L105.6 172.5C105.1 172.4 104.7 171.8 104.9 171.3C105 170.8 105.6 170.4 106.1 170.6L165.4 186C165.9 186.1 166.2 186.7 166.1 187.2Z" fill="#D811AD"/>
    <path d="M166.1 187.2C166 187.7 165.4 188.1 164.9 187.9L148.6 183.7L149.1 181.8L165.4 186C165.9 186.1 166.2 186.7 166.1 187.2Z" fill="#332FBA"/>
    <path d="M146.2 182C145.9 183.3 146.6 184.5 147.9 184.9C149.2 185.2 150.4 184.5 150.8 183.2C151.1 181.9 150.4 180.7 149.1 180.3C147.8 180 146.5 180.8 146.2 182Z" fill="#FFCE00"/>
    <path d="M204.2 70.7L123 49.6C121.2 49.1 119.4 50.2 119 52L85 182.5C84.8 183.4 84.9 184.2 85.3 185C85.7 185.8 86.5 186.3 87.3 186.5L168.6 207.6C168.9 207.7 169.2 207.7 169.4 207.7C170 207.7 170.5 207.5 171.1 207.2C171.9 206.8 172.4 206 172.6 205.2L206.5 74.6C207.1 72.9 206 71.1 204.2 70.7ZM205.6 74.4L171.6 205C171.4 205.6 171.1 206.1 170.6 206.4C170.1 206.7 169.5 206.8 168.9 206.6L87.6 185.5C87 185.4 86.5 185 86.2 184.5C85.9 184 85.8 183.4 86 182.8L120 52.2C120.1 51.6 120.5 51.1 121 50.8C121.3 50.6 121.7 50.5 122.1 50.5C122.3 50.5 122.5 50.5 122.7 50.6L204 71.7C204.6 71.9 205.1 72.2 205.4 72.7C205.6 73.3 205.7 73.9 205.6 74.4Z" fill="#0A1640"/>
    <path d="M199.6 73.9L125.5 54.7C124.8 54.5 124.1 54.6 123.5 55C122.9 55.4 122.5 55.9 122.3 56.6L94.5 163.6L92.6 170.9C92.2 172.3 93.1 173.8 94.5 174.1L168.6 193.3C168.8 193.4 169 193.4 169.3 193.4C169.8 193.4 170.2 193.3 170.6 193C171.2 192.6 171.6 192.1 171.8 191.4L173.7 184.1L201.5 77.1C201.7 76.4 201.6 75.7 201.2 75.1C200.8 74.5 200.2 74.1 199.6 73.9ZM170.7 191.2C170.6 191.6 170.3 192 170 192.2C169.6 192.4 169.2 192.5 168.8 192.4L94.7 173.2C93.9 173 93.3 172.1 93.6 171.3L95.4 164.5L172.6 184.6L170.7 191.2ZM200.4 76.9L172.7 183.4L95.5 163.3L123.2 56.8C123.3 56.4 123.6 56 123.9 55.8C124.1 55.7 124.4 55.6 124.7 55.6C124.8 55.6 125 55.6 125.1 55.7L199.3 75C199.7 75.1 200.1 75.4 200.3 75.7C200.5 76.1 200.5 76.5 200.4 76.9Z" fill="#0A1640"/>
    <path d="M132.6 185.6C132.5 185.6 132.5 185.6 132.6 185.6C132.1 185.3 131.7 185.1 131.2 185C129.9 184.6 128.5 184.8 127.3 185.5C126.1 186.2 125.3 187.3 124.9 188.6C124.4 190.6 125.1 192.7 126.7 193.9C127.3 194.3 127.9 194.6 128.6 194.8C129 194.9 129.5 195 129.9 195C130.8 195 131.7 194.8 132.5 194.3C133.7 193.6 134.5 192.5 134.9 191.2C135.4 189.1 134.5 186.8 132.6 185.6ZM133.8 191C133.5 192.1 132.9 192.9 131.9 193.5C131 194.1 129.9 194.2 128.8 193.9C128.3 193.8 127.8 193.5 127.3 193.2C126 192.2 125.5 190.5 125.9 189C126.2 188 126.8 187.1 127.8 186.5C128.4 186.1 129.1 185.9 129.9 185.9C130.2 185.9 130.6 185.9 130.9 186C131.3 186.1 131.7 186.3 132 186.5C133.2 187.3 133.9 188.5 133.9 189.9C133.9 190.3 133.9 190.7 133.8 191Z" fill="#0A1640"/>
    <path d="M98.9 172.5H99C99.2 172.5 99.5 172.3 99.5 172.1L100.6 167.8C100.7 167.5 100.5 167.2 100.2 167.2C99.9 167.1 99.6 167.3 99.6 167.6L98.5 171.9C98.4 172.2 98.6 172.5 98.9 172.5Z" fill="#0A1640"/>
    <path d="M101.6 173.3H101.7C101.9 173.3 102.2 173.1 102.2 172.9L103.3 168.6C103.4 168.3 103.2 168 102.9 168C102.6 167.9 102.3 168.1 102.3 168.4L101.2 172.7C101.1 172.9 101.3 173.2 101.6 173.3Z" fill="#0A1640"/>
    <path d="M105.4 173L145.7 183.5C145.8 183.7 145.8 183.9 145.9 184.1C146.3 184.8 146.9 185.2 147.7 185.4C147.9 185.5 148.2 185.5 148.4 185.5C148.9 185.5 149.4 185.4 149.8 185.1C150 185 150.2 184.9 150.3 184.7L164.6 188.4C164.7 188.4 164.9 188.4 165 188.4C165.3 188.4 165.5 188.3 165.8 188.2C166.2 188 166.4 187.7 166.5 187.3C166.7 186.5 166.2 185.6 165.4 185.4L151.1 181.7C150.8 180.8 150.1 180.1 149.1 179.8C148.9 179.7 148.6 179.7 148.4 179.7C147.7 179.7 147 180 146.5 180.5L106.2 170C105.8 169.9 105.4 169.9 105 170.2C104.7 170.4 104.4 170.7 104.3 171.1C104.1 172 104.6 172.8 105.4 173ZM165.6 186.9V187C165.6 187.1 165.5 187.2 165.4 187.3C165.3 187.4 165.2 187.4 165 187.4L151.1 183.8C151.2 183.7 151.2 183.5 151.3 183.4C151.3 183.2 151.4 183.1 151.4 182.9L165.3 186.5C165.4 186.5 165.6 186.7 165.6 186.9ZM148.5 180.8C148.6 180.8 148.8 180.8 148.9 180.9C149.2 181 149.5 181.2 149.8 181.4C150.1 181.7 150.3 182.2 150.3 182.6C150.3 182.8 150.3 182.9 150.2 183.1C150.2 183.3 150.1 183.4 150 183.5C149.9 183.8 149.6 184 149.3 184.2C149.2 184.3 149.1 184.3 148.9 184.4C148.6 184.5 148.2 184.5 147.9 184.4C147.6 184.3 147.3 184.1 147.1 183.9C147 183.8 146.9 183.7 146.8 183.6C146.6 183.3 146.6 183 146.6 182.7C146.6 182.6 146.6 182.4 146.7 182.3C146.7 182.1 146.8 182 146.9 181.9C147.1 181.5 147.5 181.2 147.9 181.1C148.1 180.8 148.3 180.8 148.5 180.8ZM105.4 171.4C105.4 171.3 105.5 171.2 105.6 171.1C105.7 171 105.8 171 105.8 171H105.9L145.8 181.4C145.7 181.5 145.7 181.7 145.6 181.9C145.6 182 145.5 182.2 145.5 182.4L105.7 172C105.5 171.9 105.3 171.7 105.4 171.4Z" fill="#0A1640"/>
    <path d="M176.1 113.7C175.9 109.7 175.2 105.6 173.3 102C173.3 101.9 173.3 101.9 173.2 101.8C171.3 99.7 169.1 97.9 166.7 96.3C165.4 95.4 164 94.6 162.7 93.9C162.2 93 161.5 92.3 160.7 91.6C157.6 88.9 153.1 88.5 149.3 90.4C149.2 90.4 149.1 90.4 148.9 90.4C143.9 90.3 139.1 91.0999 136.2 92.1999C133.3 94.0999 131.1 96.8 129.1 99.5C127.4 101.7 125.6 104.1 124.1 106.6C116.2 120.1 126 120 129.7 117.3C131.3 116.1 132.3 115.2 133.1 114.1C132.2 119.4 130.9 125 129.4 130.1C129.4 130.1 129.4 130.2 129.4 130.3C129.3 130.6 129.1 131 129.1 131.4V131.5C128.9 131.8 128.9 132.1 128.8 132.4C128.6 132.7 128.8 132.8 131.4 133.8C141 137.5 155.5 140.6 160.3 140.9C161.1 141 160.1 137.8 166.7 119.5C166.7 122.3 166.8 124.9 167.1 127C167.4 129.1 169.5 130.4 171.5 130.5C175.1 130.7 175.7 127.3 176.1 124.5C176.3 120.8 176.2 117.2 176.1 113.7Z" fill="#332FBA"/>
    <path d="M161.3 97.2C161.3 97.3 161.2 97.4 161.2 97.4C148.1 121.5 149 120.3 148.8 120.2C148.7 120.2 149 102.1 149 100.8C149.1 97.2 149.1 95.1 149.1 93.8C153.8 94.1 155.9 94.3 160.6 96.6C160.6 96.9 161 97 161.3 97.2Z" fill="#CBD2FF"/>
    <path d="M161.4 92.6C159.9 90.4 157.5 89.1 154.9 89.1C151.9 89.1 149.3 90.8 148 93.7C146.9 95.9 147.1 97.7 148.5 98.6C148.5 99.3 148.5 100 148.5 100.9C148.2 120.6 148.2 120.6 148.7 120.8C148.8 120.8 148.8 120.8 148.9 120.8C149.4 120.8 149.4 120.8 156.2 108.1C157.4 105.8 158.7 103.5 159.8 101.5C160.7 101.5 161.6 100.9 162 100C162.8 97.7 162.7 94.6 161.4 92.6Z" fill="white"/>
    <path d="M157.2 98C157.4 97.6 157.3 97.2 157 96.9C155.4 94.8 152.2 95.3 152.1 96.7C152 97.7 152.1 98.7 152.5 99.5C150.2 101.9 148.3 105.6 148.3 106.5C148.3 106.8 148.2 111.6 148.2 111.6C148.1 120.1 148.1 120.1 148.1 120.2C148.2 120.5 148.4 120.7 148.7 120.7C148.8 120.7 149 120.7 149.2 120.5C149.3 120.4 149.3 120.3 149.4 120.2C149.6 119.8 150.3 118.5 152.2 115L153.9 111.9C156 108 156 108 156 107.4C156.1 105.4 156.1 103.2 155.6 101.1C155.5 100.8 155.5 100.5 155.4 100.3C156.2 99.8 156.9 98.9 157.2 98Z" fill="#D811AD"/>
    <path d="M153.6 95.9001C152.4 95.4001 151.3 94.3001 151 93.0001C150.9 92.4001 151.1 91.8001 151.3 91.3001C151.7 90.5001 152.2 89.7001 152.2 88.9001C152.1 85.5001 155.6 84.6001 158.3 86.0001C159 86.4001 159.6 86.9001 160.1 87.6001C160.8 88.5001 160.5 89.7001 160.7 90.8001C161.5 94.5001 156.9 97.3001 153.6 95.9001Z" fill="#C05E46"/>
    <g opacity="0.25">
      <path d="M159 119.9C157.2 123.4 155.1 129.1 150.7 129.1C148 129.1 143.6 126.9 138.1 128C133.7 128.9 130.5 130.7 128.7 132.2C128.6 132.5 128.7 132.6 131.3 133.6C140.9 137.3 155.4 140.4 160.2 140.7C161 140.7 160 137.6 166.6 119.3C166.6 116.5 166.8 113.5 167.1 110.4C164.4 112.1 161.2 115.5 159 119.9Z" fill="#0A1640"/>
      <path d="M148.9 120.2C148.9 120.2 148.7 120.6 151.8 114.8C155.5 107.9 155.5 108.1 155.5 107.5C155.6 105.3 155.6 103.3 155.2 101.3C153.9 102.4 153 104 152.7 105C152.1 107.3 151.2 111.2 148.8 111.2C148.7 115.1 148.7 120.2 148.7 120.2C148.7 120.3 148.8 120.3 148.9 120.2Z" fill="#0A1640"/>
      <path d="M158.6 89.4L158.4 86C155.7 84.5 152.2 85.4 152.3 88.9C152.3 89.8 151.8 90.6 151.4 91.3C157.1 94.5 158.6 89.4 158.6 89.4Z" fill="#0A1640"/>
    </g>
    <path d="M176.6 113.6C176.5 111.3 176.2 109 175.6 106.8C174.5 102.6 173.9 100.6 167 95.9C165.8 95.1 164.4 94.3 163.1 93.6C162.6 92.8 162 92.1 161.3 91.5C161.3 91.2 161.3 90.9 161.2 90.7C161.1 90.4 161.1 90 161.1 89.7C161.1 88.9 161 88.1 160.5 87.4C160 86.7 159.3 86.1 158.5 85.6C156.8 84.7 154.8 84.6 153.4 85.4C152.2 86.1 151.6 87.3 151.6 88.9C151.6 88.9 151.6 89 151.6 89.1C150.8 89.3 149.9 89.6 149.2 90C149.1 90 149 90 149 90C146.6 89.9 144.2 90 141.8 90.4C136.3 91.2 134.9 91.9 131.5 95.8C130.5 96.9 129.6 98.1 128.7 99.3C127 101.5 125.2 103.9 123.7 106.4C119.4 113.7 120.4 116.8 121.9 118.2C122.8 119 123.9 119.3 125.2 119.3C126.9 119.3 128.7 118.7 130 117.8C130.9 117.2 131.6 116.6 132.2 116C131.3 120.7 130.2 125.5 128.9 130V130.1L128.8 130.3C128.7 130.6 128.6 130.8 128.6 131.1C128.5 131.3 128.4 131.5 128.4 131.7C128.4 131.8 128.3 131.9 128.3 132.1C128.3 132.2 128.1 132.4 128.2 132.7C128.4 133.1 128.8 133.3 131.1 134.2C140.7 137.9 155.1 141 160.2 141.4H160.3C161 141.4 161.1 140.8 161.3 139.4C161.7 137.3 162.6 132.6 166.1 122.5C166.2 124.2 166.3 125.7 166.4 127.1C166.7 129.5 169.2 130.9 171.3 131C171.4 131 171.5 131 171.6 131C175.5 131 176.1 127 176.4 124.5C176.9 120.9 176.8 117.1 176.6 113.6ZM159.1 106.8C159.2 107 159.3 107.4 159.4 108C159.6 108.8 159.8 110.9 159.2 112.1C158.4 113.6 153.7 117.6 150.5 119.3C150.6 119.2 150.6 119.1 150.6 119C150.7 118.9 150.7 118.8 150.8 118.6C150.9 118.4 151 118.2 151.2 117.9C151.3 117.7 151.4 117.5 151.6 117.2C151.7 117.1 151.7 116.9 151.8 116.8C152 116.5 152.1 116.2 152.3 115.9C152.4 115.7 152.5 115.5 152.7 115.2C153.4 114 153.9 113 154.4 112.1C155 111 155.5 110.2 155.8 109.6C155.9 109.5 155.9 109.4 155.9 109.4C156 109.2 156.1 109.1 156.1 109C156.2 108.8 156.4 108.5 156.5 108.3C157.7 106.1 158.9 103.9 159.9 101.9C160.9 101.7 161.8 101.1 162.2 100.1C162.9 98.7 163.1 97 162.9 95.4C163.9 97.6 164.2 100.2 163.6 102.7C163.4 103.5 163.2 103.8 162.4 104.3C161.6 104.9 160.5 105.3 159.4 105.6C159.2 105.6 159.1 105.8 159 105.9C158.9 106.4 159 106.6 159.1 106.8ZM146.4 102.3C145.3 101.4 143.8 99.2 144.1 98.4C144.7 95.9 146 93.8 147.8 92.3C148.1 92 148.5 91.8 148.8 91.5C148.3 92.1 147.9 92.7 147.6 93.5C146.5 95.9 146.6 97.9 148 98.9C148 99.5 148 100.2 148 100.9C148 101.3 148 103.7 147.9 106.5C147.9 106.7 147.9 107.2 147.9 107.9C147.9 108.3 147.9 108.7 147.9 109.2C147.9 109.5 147.9 109.8 147.9 110.1C147.9 110.3 147.9 110.5 147.9 110.8V111.1V111.7C147.9 115.3 147.8 117.4 147.8 118.6C146.9 117.2 146.2 115.5 145.6 114.2L145.5 114C144.7 112.2 143.9 110.2 143.9 108.4C143.9 107.5 144.1 106.6 144.6 105.8C145.4 104.5 146 103.9 146.4 103.6C146.6 103.4 146.9 103.2 146.9 102.9C146.6 102.7 146.6 102.5 146.4 102.3ZM150.9 91.1C150.6 91.7 150.4 92.3 150.5 93C150.5 93.1 150.5 93.1 150.5 93.2C150.6 93.5 150.7 93.8 150.8 94.1C151.1 94.7 151.6 95.3 152.1 95.7C151.8 96 151.6 96.3 151.5 96.7C151.5 97.1 151.5 97.6 151.5 98C150.7 98.3 150 98.5 149.4 98.5C149.2 98.5 149 98.5 148.8 98.4C148.2 98.1 147.9 97.7 147.8 97.2C147.6 96.7 147.7 96.1 147.8 95.5C147.9 95 148.1 94.5 148.3 94C148.5 93.6 148.7 93.3 148.9 92.9C149.4 92.2 149.9 91.6 150.5 91.1C150.6 91 150.7 90.9 150.9 90.8C151 90.9 150.9 91 150.9 91.1ZM153.4 96.4C153.6 96.5 153.9 96.6 154.2 96.6C154.6 96.7 155 96.8 155.4 96.8C155.6 96.8 155.9 96.8 156.2 96.8C156.4 96.9 156.5 97.1 156.7 97.3C156.8 97.5 156.9 97.7 156.8 97.9C156.7 98.1 156.6 98.3 156.5 98.5C156.3 98.8 156.1 99.1 155.8 99.4C155.5 99.7 155.2 100 154.9 100.1C154.7 100.2 154.5 100.3 154.3 100.3C154 100.4 153.7 100.3 153.5 100C153.4 99.9 153.3 99.8 153.2 99.6C153 99.3 152.9 98.9 152.8 98.6C152.7 98.3 152.7 97.9 152.7 97.5C152.7 97.3 152.7 97 152.7 96.8C152.7 96.6 152.9 96.4 153.2 96.3C153.2 96.3 153.3 96.4 153.4 96.4ZM158.7 95.9C158.9 95.8 159.2 95.6 159.4 95.4C159.5 95.3 159.6 95.2 159.7 95.2C160.2 94.8 160.6 94.3 160.8 93.7C160.9 93.5 161 93.3 161 93.1C161.2 93.4 161.3 93.7 161.4 94C161.7 94.8 161.9 95.6 161.9 96.4C161.9 97.2 161.8 98 161.6 98.8C161.5 99.2 161.4 99.5 161.2 99.8C161.1 100.1 160.9 100.3 160.6 100.5C160.2 100.8 159.8 101 159.4 101C159.3 101 159.3 101 159.2 101C159 101 158.7 100.9 158.5 100.8C158 100.5 157.5 100 157.1 99.5C157.3 99.1 157.5 98.8 157.7 98.4C157.8 98.2 157.8 98 157.8 97.7C157.8 97.4 157.7 97 157.4 96.7L157.3 96.6C157.9 96.3 158.3 96.1 158.7 95.9ZM148.9 100.9C148.9 100.4 148.9 99.9 148.9 99.4C149.1 99.5 149.3 99.5 149.5 99.5C150.1 99.5 150.9 99.3 151.7 99C151.7 99.1 151.8 99.3 151.8 99.4C150.6 100.7 149.5 102.3 148.7 103.7C148.9 102.3 148.9 101.2 148.9 100.9ZM149.8 118.4C149.3 119.2 149 119.8 148.8 120.1C148.7 120.1 148.7 120.1 148.6 120C148.6 119.4 148.6 117.5 148.6 115.2C148.6 114.2 148.6 113.2 148.6 112.2C148.6 111.8 148.6 111.5 148.6 111.2C148.6 109.8 148.6 108.6 148.6 107.8C148.6 107.6 148.6 107.4 148.6 107.2C148.6 106.9 148.6 106.8 148.6 106.7C148.6 106.1 150.2 102.9 152.2 100.6C152.3 100.7 152.4 100.8 152.5 100.9C152.9 101.3 153.4 101.5 153.9 101.5C154 101.5 154.1 101.5 154.3 101.5C154.5 101.5 154.7 101.4 155 101.3V101.4C155.4 103.4 155.4 105.4 155.3 107.6C155.3 107.9 155.3 108 155 108.6C155 108.6 155 108.6 155 108.7C155 108.8 154.9 108.8 154.9 108.9C154.8 109.2 154.6 109.5 154.3 109.9C154.1 110.2 153.9 110.6 153.7 111.1C153.2 112.1 152.5 113.3 151.6 115C151.5 115.2 151.4 115.3 151.4 115.5C151 116.3 150.6 116.9 150.3 117.5C150.2 117.7 150 118.1 149.8 118.4ZM156.2 101C156.2 100.8 156.1 100.7 156.1 100.5C156.2 100.4 156.3 100.3 156.4 100.2C156.9 100.7 157.4 101.3 158 101.6C158.2 101.7 158.5 101.8 158.7 101.9C158.1 103.1 157.3 104.4 156.6 105.8C156.7 104.3 156.6 102.7 156.2 101ZM152.8 88.8C152.8 87.7 153.2 86.8 154.1 86.3C155.2 85.6 156.8 85.7 158.2 86.5C158.8 86.9 159.4 87.4 159.8 87.9C160.1 88.4 160.1 89 160.2 89.6C160.2 89.8 160.2 90.1 160.3 90.4V90.5C160.3 90.6 160.3 90.7 160.3 90.8C160.4 91.2 160.4 91.5 160.4 91.9C160.4 91.9 160.4 91.9 160.4 92C160.4 92.1 160.4 92.2 160.3 92.2C160.2 92.5 160.1 92.9 159.9 93.2C159.7 93.7 159.3 94.1 158.8 94.5C158.7 94.5 158.7 94.6 158.6 94.6C158.2 94.9 157.8 95.1 157.4 95.3C157.1 95.4 156.8 95.5 156.5 95.6C155.6 95.8 154.6 95.7 153.8 95.4C153.6 95.3 153.4 95.2 153.2 95.1C152.8 94.9 152.5 94.6 152.2 94.2C151.9 93.8 151.7 93.4 151.6 93C151.6 93 151.6 92.9 151.5 92.8C151.4 92.3 151.6 91.9 151.8 91.4C151.9 91.3 151.9 91.2 152 91.1L152.1 91C152.2 90.7 152.4 90.4 152.5 90.1C152.5 90 152.6 90 152.6 89.9V89.8C152.7 89.6 152.8 89.3 152.8 88.8ZM175.3 124.3C174.9 127.4 174.3 130 171.3 129.8C169.6 129.7 167.7 128.6 167.4 126.8C166.9 122.7 166.9 117 167.6 110.2C167.6 109.9 167.4 109.6 167.1 109.6C166.8 109.6 166.5 109.8 166.5 110.1C166.2 113.4 166 116.4 166 119.2C161.7 131.3 160.6 136.8 160.2 139.1C160.1 139.5 160 139.9 160 140.2C154.9 139.8 140.7 136.7 131.5 133.1C130.7 132.8 129.7 132.4 129.3 132.2C129.3 132.1 129.4 132 129.4 131.9C129.4 131.7 129.5 131.6 129.5 131.5C129.5 131.4 129.6 131.4 129.6 131.3C129.6 131.1 129.7 130.8 129.8 130.6L129.9 130.4C129.9 130.3 130 130.3 130 130.2C131.6 125.1 132.8 119.5 133.7 114.2C135.1 112.1 135.6 109.3 136.7 103.2C136.9 102 137.2 100.6 137.5 99.1C137.6 98.8 137.4 98.5 137.1 98.5C136.8 98.4 136.5 98.6 136.5 98.9C136.2 100.4 136 101.8 135.7 103C134 112.5 133.8 113.7 129.5 116.8C127.6 118.2 124.3 118.7 122.7 117.3C120.9 115.7 121.6 112 124.7 106.8C126.1 104.4 127.8 102.1 129.6 99.8C135.5 92.2 136.9 92.3 141.1 91.5C143.2 91.1 145.4 90.9 147.6 90.9C147.4 91 147.2 91.2 147.1 91.3C145.2 93 143.8 95.3 143.1 98C142.7 99.5 144.5 101.8 145.5 102.7C145.1 103.1 144.4 103.7 143.6 105.1C141.8 108.1 143.3 111.5 144.5 114.2L144.6 114.4C145.4 116.2 146.4 118.5 147.8 120.2C147.8 120.4 147.9 120.5 148 120.6C148 120.7 148.1 120.7 148.1 120.8L148.2 120.9C148.3 121 148.5 121.1 148.7 121.1C148.8 121.1 148.8 121.1 148.9 121.1H149C149.1 121.1 149.1 121.1 149.2 121.1C149.3 121.1 149.3 121.1 149.4 121H149.5C149.6 120.9 149.7 120.9 149.8 120.8C153 119.6 159.4 114.4 160.4 112.4C161.1 110.9 160.9 108.8 160.7 107.6C160.6 107.1 160.5 106.7 160.4 106.5C161.5 106.2 162.5 105.7 163.3 105.2C164.3 104.5 164.7 104 164.9 102.9C165.5 100.2 165.2 97.4 164.2 95.1C165 95.6 165.9 96.1 166.7 96.6C168.5 97.8 170.2 99.2 171.8 100.7C174.7 103.5 175.6 109.5 175.8 113.5C175.7 117.1 175.8 120.8 175.3 124.3Z" fill="#0A1640"/>
    <path d="M161.6 87.5L158.3 89.3C156.3 90 154 90.2 151.9 89.3C149.2 88.2 148.5 85.5 148.8 82.6C148.9 81.7 149.1 80.8 149.4 79.9C149.4 79.8 149.5 79.7 149.5 79.6C150.5 76.8 152.3 74.2 154.9 72.7C157.3 71.3 160.3 70.8 162.8 72.3C168.9 76 166.6 83.6 161.6 87.5Z" fill="#C05E46"/>
    <g opacity="0.25">
      <path d="M155.2 83.8C156 82.1 159.2 83.3 158.6 85.2C158.1 86.5 156 86.1 155.3 85.1C155.1 84.5 155.1 84.1 155.2 83.8Z" fill="#0A1640"/>
      <path d="M151.3 82.1C151 83 149.8 83.1 148.9 82.7C149 81.8 149.2 80.9 149.5 80C150.5 80 151.7 80.9 151.3 82.1Z" fill="#0A1640"/>
    </g>
    <path d="M154.2 77.4C154.9 76.3 152.1 75.4 151.9 76.5C151.8 77.3 153.7 78.1 154.2 77.4Z" fill="#0A1640"/>
    <path d="M157 78.7999C156.8 79.5999 158.7 80.3999 159.2 79.7999C159.9 78.8999 157.3 77.4999 157 78.7999Z" fill="#0A1640"/>
    <path d="M150.9 83.4C150.8 84.1 151.1 84.7 151.7 85.1C152 85.3 152.4 85.4 152.8 85.4C153.2 85.4 153.7 85.3 154 85C154.2 84.8 154.3 84.5 154.1 84.3C153.9 84.1 153.6 84 153.4 84.2C152.8 84.6 152.3 84.3 152.2 84.2C151.9 84 151.8 83.8 151.8 83.5C151.8 83.2 151.7 82.9 151.4 82.9C151.2 82.9 151 83.1 150.9 83.4Z" fill="#0A1640"/>
    <path d="M155 80.4C155.2 80.2 155.3 79.9 155.1 79.6C154.9 79.4 154.6 79.3 154.4 79.5C154.3 79.6 153.1 80.6 152.7 81C152.4 81.3 152.4 81.7 152.4 81.9C152.5 82.6 153.2 83 153.7 83.3C153.8 83.3 153.9 83.4 154 83.4C154.2 83.4 154.4 83.3 154.5 83.1C154.6 82.8 154.6 82.5 154.3 82.4C153.6 82 153.5 81.8 153.6 81.7C153.7 81.5 154.6 80.7 155 80.4Z" fill="#0A1640"/>
    <path d="M161 85.8C161.1 85.8 161.1 85.8 161.2 85.8L162.2 85.5C162.5 85.4 162.6 85.1 162.5 84.8C162.4 84.5 162.1 84.4 161.8 84.5L160.8 84.8C160.5 84.9 160.4 85.2 160.5 85.5C160.6 85.7 160.8 85.8 161 85.8Z" fill="#0A1640"/>
    <path d="M151.5 78.9C151.4 79.3 151.5 79.7 151.9 79.8C152.3 79.9 152.7 79.8 152.8 79.4C152.9 79 152.8 78.6 152.4 78.5C152.1 78.3 151.7 78.5 151.5 78.9Z" fill="#0A1640"/>
    <path d="M156.3 80.9999C156.2 81.3999 156.3 81.7999 156.7 81.8999C157.1 81.9999 157.5 81.8999 157.6 81.4999C157.7 81.0999 157.6 80.6999 157.2 80.5999C156.9 80.3999 156.5 80.5999 156.3 80.9999Z" fill="#0A1640"/>
    <path d="M169 78.9C168.7 78.2 167.9 77.7 167.7 77C167.5 76.3 167.9 75.6 168 74.9C168 73.8 167.6 72.9 166.8 72.2C164.9 70.5 163.3 71.6 162.3 69.6C161.2 67.2 158 66.2 155.7 67.6C155 68 154.3 68.8 153.8 69.6C151.2 69.7 148.8 71.6 148.3 74.3C148 75.8 148.6 76.9 148 78.3C147.6 79.3 146.6 79.8 146.1 80.7C145 82.9 146.5 85 148.3 85.2C148.6 87.3 149.5 89 151.7 89.9C152.7 90.3 153.8 90.5 154.9 90.5C156.1 90.5 157.3 90.3 158.5 89.9C158.8 89.8 158.9 89.5 158.8 89.2C158.7 88.9 158.4 88.8 158.1 88.9C156 89.7 153.8 89.7 152 88.9C150.2 88.1 149.4 86.6 149.2 85C149 82.9 149.6 80.8 149.9 79.8C150.8 77.3 152.2 75.3 154 73.9C154.5 74.3 155.2 74.4 155.8 74.5C157.5 74.8 156.8 76.2 157.5 76.8C158.9 78.1 160 77.6 160.1 79C160.1 79.9 159.6 80.6 159.8 81.5C160.2 83.3 162.7 83.5 162.8 84.9C162.8 85.1 162.8 85.2 162.8 85.4C162.4 85.9 162 86.3 161.5 86.7C161.1 86.9 160.7 87.1 160.4 87.4C158.3 89.5 159.5 92.9 162.4 93.1C165.7 93.3 167.4 90.2 166.9 87.8C166.6 86.3 167.1 85 168.1 83.9C169.5 82.5 169.7 80.5 169 78.9Z" fill="#0A1640"/>
    <path d="M166.5 77.7C166 76.4 166.3 75.9 166.2 75.6C166.2 75.4 165.9 75.3 165.8 75.5C165 78 167.5 80.1 166.8 82C166.6 82.6 166.1 83.2 165.7 83.8C164.5 85.5 164.9 87.4 164.8 88.4C164.7 89.5 163.7 90.8 162.1 91.3C162.1 91.3 161.9 91.3 161.9 91.5C161.9 91.6 162 91.7 162.1 91.7C162.9 91.6 163.6 91.2 164.3 90.7C166.6 88.7 164.8 86.7 166.4 84.3C166.8 83.6 167.7 82.7 167.7 81.6C167.9 80.2 166.9 78.8 166.5 77.7Z" fill="#332FBA"/>
    <path d="M153.6 69.9C153.1 69.4 151.8 71.9 153.3 73.4C153.5 73.6 153.7 73.4 153.7 73.2C153.5 72.3 153.5 72.4 153.5 72.4C153.3 70.6 153.9 70.1 153.6 69.9Z" fill="#332FBA"/>
    <path d="M170.4 169L164 175.2L107.2 160.5L104.7 152.2L104.6 151.9L170.4 169Z" fill="#FF8CDB"/>
    <path opacity="0.5" d="M170.4 169L164 175.2L162.6 174.8C148.3 165.7 115.1 155.3 104.7 152.2L104.6 151.9L170.4 169Z" fill="#D811AD"/>
    <path d="M170.4 169L104.6 151.9L104.7 151.6L108.2 142.7L110.4 137.3L112.6 131.9L114.8 126.5L117.5 119.7C118.1 118.3 119.6 117.5 121.1 117.9L172.8 131.3C173.3 131.4 173.8 131.7 174.1 132.1C174.8 132.7 175.1 133.7 175 134.6L174.1 141.8L173.3 147.6L172.5 153.4L171.7 159.2L170.4 169Z" fill="#D811AD"/>
    <path d="M164 175.2L163.9 175.6L162.3 180.7C162.1 180.7 162 180.6 161.8 180.6C157.5 179.5 154.1 178.6 151.4 177.9C151.3 177.9 151.2 177.8 151.1 177.8H151C151 177.8 150.9 177.8 150.8 177.8H150.7C150.6 177.8 150.4 177.7 150.3 177.7H150.2C149.9 177.6 149.7 177.6 149.4 177.5H149.3C149.2 177.5 149.1 177.4 149 177.4C148.9 177.4 148.7 177.3 148.6 177.3H148.5C148.4 177.3 148.3 177.2 148.1 177.2C148 177.2 147.8 177.1 147.7 177.1H147.6C147.5 177.1 147.5 177.1 147.4 177H147.3C147.2 177 147 176.9 146.8 176.9C146.7 176.9 146.5 176.8 146.4 176.8C146.3 176.8 146.2 176.7 146.1 176.7C146 176.7 145.9 176.7 145.8 176.6C145.4 176.5 145.1 176.4 144.7 176.3C144.6 176.3 144.5 176.2 144.4 176.2C144.3 176.2 144.2 176.1 144.1 176.1C144 176.1 143.9 176.1 143.8 176C143.7 176 143.6 176 143.5 175.9H143.4C143.3 175.9 143.2 175.8 143.1 175.8C143 175.8 143 175.8 142.9 175.7C136.3 174 125.1 171.1 107 166.4C106.8 166.4 106.7 166.3 106.5 166.3L107.6 160.7L164 175.2Z" fill="#D811AD"/>
    <path d="M174 141.8L173.2 147.6L161.8 144.6L156.7 143.3C156.7 144.3 156.5 145.2 156.3 146.2C156.1 147.1 155.7 148.1 155.3 148.9C154.4 150.8 153 152.5 151.3 153.8C148.8 155.8 145.6 157 142.2 157C141 157 139.7 156.8 138.6 156.5C134.8 155.5 131.7 153.1 129.7 149.8C129.3 149.2 129 148.6 128.8 147.9C128 145.9 127.6 143.8 127.7 141.7C127.8 140.7 127.9 139.8 128.1 138.8C128.3 137.8 128.7 136.9 129.1 136.1L112.5 131.8L114.7 126.4L133.1 131.2C135.6 129.2 138.8 128 142.2 128C143.4 128 144.7 128.2 145.9 128.5C150.5 129.7 154 133 155.7 137.1L164.2 139.3L174 141.8Z" fill="white"/>
    <path d="M127.7 141.7L110.4 137.2L108.2 142.6L128.7 147.9C127.9 146 127.6 143.9 127.7 141.7Z" fill="#FFCE00"/>
    <path d="M172.5 153.4L171.7 159.2L155 154.9L151.2 153.9C152.8 152.6 154.2 150.9 155.2 149L159.4 150.1L172.5 153.4Z" fill="#FFCE00"/>
    <path d="M152.3 136.6C150.7 133.9 148.2 132 145.1 131.2C144.1 130.9 143.1 130.8 142.1 130.8C136.8 130.8 132.1 134.4 130.7 139.6C129.1 145.9 132.8 152.3 139.1 153.9C140.1 154.2 141.1 154.3 142.1 154.3C147.4 154.3 152.1 150.7 153.5 145.5C154.4 142.4 153.9 139.3 152.3 136.6Z" fill="#FFCE00"/>
    <path d="M110.4 137.2L127.7 141.7C127.8 140.7 127.9 139.8 128.1 138.8C128.3 137.8 128.7 136.9 129.1 136.1L112.5 131.8L110.4 137.2Z" fill="#332FBA"/>
    <path d="M173.2 147.6L172.4 153.4L159.3 150L155.1 148.9C155.5 148 155.9 147.1 156.1 146.2C156.3 145.2 156.5 144.3 156.5 143.3L161.6 144.6L173.2 147.6Z" fill="#332FBA"/>
    <path d="M149.3 142.4L145.3 140.7C145.2 140.7 145.1 140.6 145.1 140.4L144.2 136.1C144.1 135.8 143.8 135.7 143.6 135.9L140.8 139.2C140.7 139.3 140.6 139.3 140.5 139.3L136 139C135.7 139 135.5 139.3 135.6 139.5L137.8 143.2C137.9 143.3 137.9 143.4 137.8 143.5L136 147.5C135.9 147.8 136.1 148.1 136.4 148L140.6 147C140.7 147 140.8 147 140.9 147.1L144.1 150C144.3 150.2 144.7 150.1 144.7 149.8L145.1 145.5C145.1 145.4 145.2 145.3 145.3 145.2L149.1 143C149.6 142.9 149.5 142.5 149.3 142.4Z" fill="#332FBA"/>
    <path d="M149.8 138.1C150 137.4 149.5 136.6 148.8 136.4C148.1 136.2 147.3 136.7 147.1 137.4C146.9 138.1 147.4 138.9 148.1 139.1C148.8 139.3 149.6 138.9 149.8 138.1Z" fill="#D811AD"/>
    <path d="M149.4 146.4C148.7 146.2 147.9 146.7 147.7 147.4C147.5 148.1 148 148.9 148.7 149.1C149.4 149.3 150.2 148.8 150.4 148.1C150.6 147.3 150.2 146.5 149.4 146.4Z" fill="#D811AD"/>
    <path d="M140.4 135.7C140.6 135 140.1 134.2 139.4 134C138.7 133.8 137.9 134.3 137.7 135C137.5 135.7 138 136.5 138.7 136.7C139.4 136.9 140.2 136.4 140.4 135.7Z" fill="#D811AD"/>
    <path d="M134 142.3C133.3 142.1 132.5 142.6 132.3 143.3C132.1 144 132.6 144.8 133.3 145C134 145.2 134.8 144.7 135 144C135.2 143.3 134.8 142.5 134 142.3Z" fill="#D811AD"/>
    <path d="M140.4 149.4C139.7 149.2 138.9 149.7 138.7 150.4C138.5 151.1 139 151.9 139.7 152.1C140.4 152.3 141.2 151.8 141.4 151.1C141.6 150.3 141.1 149.6 140.4 149.4Z" fill="#D811AD"/>
    <path opacity="0.18" d="M174 141.8L173.2 147.6L161.8 144.6C161.9 144.4 162 144.2 162 143.9C162.4 142.8 162.9 141.1 164.1 139.2L174 141.8Z" fill="#0A1640"/>
    <path opacity="0.5" d="M172.5 153.4L171.7 159.2L155 154.9C156.8 153.6 158.2 152 159.3 150L172.5 153.4Z" fill="#E38921"/>
    <g opacity="0.25">
      <path d="M174 132C170 133.1 166.8 135.3 165 137.9C164.7 138.3 164.4 138.8 164.1 139.2L174 141.8L173.2 147.6L174.9 134.6C175 133.6 174.7 132.7 174 132Z" fill="#0A1640"/>
      <path d="M159.4 150L172.5 153.4L171.7 159.2L173.2 147.6L161.8 144.6C161 146.6 160.3 148.4 159.4 150Z" fill="#0A1640"/>
      <path d="M104.7 151.6L104.6 151.9L170.4 169L171.7 159.2L155 154.9C148.4 159.4 135.6 159.1 104.7 151.6Z" fill="#0A1640"/>
      <path d="M151.3 177.8C154 178.5 157.4 179.4 161.7 180.5C161.9 180.5 162 180.6 162.2 180.6L163.8 175.5C163.4 175.4 162.9 175.4 162.4 175.3C159.6 175.1 155.7 175.4 151.3 177.8Z" fill="#0A1640"/>
    </g>
    <path d="M174.4 131.7C174 131.3 173.4 131 172.8 130.8L121.1 117.4C119.4 117 117.6 117.9 116.9 119.5L114.2 126.2L112 131.6L110 137L107.8 142.4V142.5L104.3 151.3L104.2 151.6C104.2 151.7 104.2 151.7 104.2 151.8V151.9C104.2 151.9 104.2 151.9 104.2 152L106.7 160.4L105.6 165.8C105.8 165.8 106 165.9 106.1 165.9C106.3 165.9 106.4 166 106.6 166L107.6 160.9L162.6 175.2L163.4 175.4L161.8 180.3C162 180.3 162.1 180.4 162.3 180.4C162.5 180.4 162.6 180.5 162.8 180.5L164.5 175.2L170.8 169.1L170.9 169C170.9 168.9 171 168.9 171 168.8C171 168.8 171 168.8 171 168.7L172.3 158.9L173.1 153.1V153L173.8 147.3L174.6 141.5V141.4L175.5 134.3C175.6 133.6 175.2 132.4 174.4 131.7ZM115.1 127.1L132 131.5C130.7 132.7 129.7 134 128.9 135.6L113.3 131.5L115.1 127.1ZM133.3 131.8C133.7 131.5 134 131.2 134.4 131C136.7 129.4 139.4 128.6 142.2 128.6C143.4 128.6 144.5 128.7 145.7 129C149.7 130.1 152.9 132.8 154.7 136.2C154.9 136.6 155.1 137 155.3 137.4C155.9 139 156.2 140.7 156.2 142.5C156.2 142.9 156.2 143.2 156.1 143.6C156 144.4 155.9 145.2 155.7 145.9C155.5 146.6 155.2 147.4 154.9 148.1C154.8 148.4 154.6 148.8 154.4 149.1C153.6 150.7 152.4 152 151.1 153.1C150.7 153.4 150.4 153.7 150 153.9C147.7 155.4 145 156.3 142.2 156.3C141 156.3 139.9 156.2 138.7 155.9C134.7 154.8 131.5 152.1 129.7 148.7C129.5 148.3 129.3 147.9 129.1 147.5C128.5 145.9 128.2 144.2 128.2 142.4C128.2 142 128.2 141.7 128.3 141.3C128.4 140.5 128.5 139.7 128.7 139C128.9 138.3 129.2 137.5 129.5 136.8C129.7 136.5 129.8 136.1 130 135.8C130.8 134.2 131.9 132.9 133.3 131.8ZM112.9 132.5L128.4 136.5C128.1 137.2 127.8 138 127.6 138.7C127.4 139.5 127.3 140.3 127.2 141L111.1 136.8L112.9 132.5ZM110.8 137.9L127.2 142.2C127.2 144 127.4 145.7 128 147.3L109.1 142.4L110.8 137.9ZM163.9 174.6L135.8 167.3L107.6 160L105.4 152.7L169.4 169.3L163.9 174.6ZM170 168.3L105.4 151.5L108.7 143.3L128.5 148.4C130.3 152.5 133.8 155.8 138.5 157C139.7 157.3 141 157.5 142.3 157.5C145.7 157.5 148.9 156.3 151.5 154.4L171.3 159.5L170 168.3ZM171.3 158.5L152.4 153.6C153.6 152.4 154.7 151.1 155.5 149.5L171.9 153.8L171.3 158.5ZM172 152.7L155.9 148.5C156.2 147.8 156.5 147 156.7 146.3C156.9 145.5 157 144.7 157.1 144L172.6 148L172 152.7ZM172.8 146.9L157.2 142.8C157.2 141 157 139.3 156.4 137.7L173.3 142.1L172.8 146.9ZM174.4 134.5L173.5 141.1L156 136.5C154.2 132.4 150.7 129.1 146 127.9C144.8 127.6 143.5 127.4 142.2 127.4C138.8 127.4 135.6 128.6 133 130.5L115.5 125.9L118 119.7C118.5 118.5 119.7 117.9 120.9 118.2L172.6 131.6C173 131.7 173.4 131.9 173.7 132.2C174.2 133 174.5 133.8 174.4 134.5Z" fill="#0A1640"/>
    <path d="M132 149.4C133.6 151.8 136.1 153.6 139.1 154.4C140.1 154.7 141.2 154.8 142.2 154.8C144.2 154.8 146.1 154.3 147.7 153.5C148.2 153.3 148.6 153 149 152.7C150.5 151.7 151.8 150.4 152.7 148.8C152.9 148.5 153.1 148.2 153.2 147.8C153.5 147.1 153.8 146.4 154 145.6C154.2 144.8 154.3 144 154.4 143.3C154.4 142.9 154.4 142.6 154.4 142.2C154.3 140.4 153.9 138.6 153.1 137C152.9 136.6 152.6 136.1 152.3 135.7C150.7 133.3 148.2 131.5 145.2 130.7C144.2 130.4 143.1 130.3 142.1 130.3C140.1 130.3 138.2 130.8 136.5 131.6C136.1 131.8 135.6 132.1 135.2 132.4C133.7 133.4 132.4 134.7 131.5 136.3C131.3 136.6 131.1 136.9 131 137.3C130.7 138 130.4 138.7 130.2 139.5C130 140.3 129.9 141.1 129.8 141.8C129.8 142.2 129.8 142.5 129.8 142.9C129.8 144.7 130.3 146.5 131.1 148.1C131.5 148.5 131.7 148.9 132 149.4ZM131 142C131 141.2 131.1 140.4 131.4 139.6C131.6 138.8 131.9 138.1 132.2 137.4C132.4 137.1 132.5 136.8 132.7 136.4C133.7 134.8 135.1 133.5 136.8 132.6C137.3 132.3 137.8 132.1 138.3 131.9C139.5 131.4 140.9 131.2 142.2 131.2C143.1 131.2 144.1 131.3 145 131.6C147.3 132.2 149.3 133.5 150.7 135.2C151.1 135.6 151.4 136.1 151.7 136.6C152.7 138.2 153.3 140 153.4 141.9C153.4 142.3 153.4 142.6 153.4 143C153.4 143.8 153.3 144.6 153.1 145.3C152.9 146.1 152.6 146.8 152.3 147.5C152.2 147.8 152 148.1 151.8 148.5C150.8 150.1 149.4 151.4 147.7 152.3C147.2 152.6 146.7 152.8 146.2 153C145 153.5 143.7 153.7 142.3 153.7C141.4 153.7 140.4 153.6 139.5 153.3C137.2 152.7 135.2 151.4 133.8 149.7C133.4 149.3 133.1 148.8 132.8 148.3C131.8 146.7 131.2 144.9 131.1 143C131 142.8 131 142.4 131 142Z" fill="#0A1640"/>
    <path d="M137.4 143.4L137.3 143.6L136.9 144.6L135.7 147.3C135.6 147.6 135.6 148 135.8 148.2C136 148.5 136.4 148.6 136.7 148.5L140.8 147.5L144 150.4C144.2 150.6 144.4 150.6 144.6 150.6C144.7 150.6 144.8 150.6 144.9 150.5C145.2 150.4 145.4 150.1 145.5 149.7L145.7 146.8L145.8 145.7V145.4L149.5 143.3C149.8 143.1 150 142.8 150 142.5C150 142.2 149.8 141.9 149.6 141.8L149.5 141.7L145.6 140L145.5 139.6L144.7 135.9C144.6 135.6 144.4 135.3 144 135.2C143.7 135.1 143.3 135.2 143.1 135.5L140.6 138.4L140.3 138.7L136.1 138.2C136 138.2 136 138.2 135.9 138.2C135.6 138.2 135.4 138.4 135.2 138.6C135 138.9 135 139.2 135.2 139.5L137.4 143.4ZM140.3 140C140.5 140 140.8 140 141 139.8C141 139.8 141.1 139.8 141.1 139.7L141.8 138.9L143.7 136.7L144.3 139.6L144.5 140.7V140.8C144.6 141 144.7 141.2 145 141.3L148.7 142.8L145.2 144.8C144.9 145 144.8 145.2 144.7 145.5V145.7L144.6 146.8L144.4 149.5L141.4 146.8C141.2 146.7 141 146.6 140.8 146.6C140.7 146.6 140.7 146.6 140.6 146.6L136.7 147.5L137.8 145L138.2 144L138.3 143.8C138.4 143.5 138.4 143.2 138.3 143L136.2 139.6L140.3 140Z" fill="#0A1640"/>
    <path d="M148 139.6C148.2 139.6 148.3 139.7 148.5 139.7C149.4 139.7 150.1 139.1 150.4 138.3C150.7 137.3 150 136.2 149 135.9C148 135.6 146.9 136.3 146.6 137.3C146.3 138.3 146.9 139.4 148 139.6ZM147.6 137.6C147.7 137.2 148.1 136.9 148.4 136.9C148.5 136.9 148.6 136.9 148.6 136.9C149.1 137 149.3 137.5 149.2 138C149.1 138.5 148.6 138.7 148.1 138.6C147.8 138.5 147.5 138 147.6 137.6Z" fill="#0A1640"/>
    <path d="M148.1 146C147.9 146.1 147.8 146.2 147.7 146.3C147.5 146.5 147.3 146.8 147.2 147.2V147.3C147.1 147.8 147.2 148.2 147.4 148.6C147.7 149 148.1 149.4 148.6 149.5C148.8 149.5 148.9 149.6 149.1 149.6C149.4 149.6 149.8 149.5 150.1 149.3C150.5 149.1 150.8 148.7 151 148.2V148.1C151.1 147.8 151.1 147.4 151 147.1C151 146.9 150.9 146.8 150.8 146.6C150.5 146.2 150.1 145.8 149.6 145.7C149 145.7 148.5 145.8 148.1 146ZM149.8 147.3C149.9 147.4 149.9 147.6 149.9 147.7C149.9 147.8 149.9 147.8 149.9 147.9V148C149.8 148.2 149.7 148.3 149.6 148.4C149.4 148.5 149.2 148.6 148.9 148.5C148.7 148.4 148.5 148.3 148.4 148.1C148.3 148 148.3 147.8 148.3 147.6V147.5C148.4 147.3 148.5 147.1 148.7 147C148.8 146.9 149 146.9 149.1 146.9C149.2 146.9 149.2 146.9 149.3 146.9C149.5 146.9 149.7 147.1 149.8 147.3Z" fill="#0A1640"/>
    <path d="M138.5 137.2C138.7 137.2 138.8 137.3 139 137.3C139.3 137.3 139.7 137.2 140 137C140.4 136.7 140.8 136.3 140.9 135.8C141.2 134.8 140.6 133.7 139.5 133.5C139 133.4 138.5 133.4 138 133.7C137.6 134 137.2 134.4 137.1 134.9C137 135.4 137 135.9 137.3 136.4C137.6 136.7 138 137.1 138.5 137.2ZM138.2 135.1C138.3 134.9 138.4 134.7 138.6 134.6C138.7 134.5 138.9 134.5 139 134.5C139.1 134.5 139.2 134.5 139.2 134.5C139.7 134.6 139.9 135.1 139.8 135.6C139.7 135.8 139.6 136 139.4 136.1C139.2 136.2 139 136.2 138.8 136.2C138.3 136 138.1 135.6 138.2 135.1Z" fill="#0A1640"/>
    <path d="M133.7 145.6C134 145.6 134.4 145.5 134.7 145.3C135.1 145.1 135.4 144.7 135.5 144.2V144.1C135.6 143.8 135.6 143.4 135.5 143.1C135.3 142.4 134.8 141.9 134.1 141.7C133.6 141.6 133.1 141.6 132.6 141.9C132.5 142 132.3 142.1 132.2 142.2C132 142.4 131.8 142.7 131.7 143.1V143.2C131.6 143.7 131.7 144.1 131.9 144.5C132.2 144.9 132.6 145.3 133.1 145.4C133.3 145.6 133.5 145.6 133.7 145.6ZM132.9 144.1C132.8 144 132.8 143.8 132.8 143.7V143.6V143.5C132.9 143.3 133 143.1 133.2 143C133.3 142.9 133.5 142.9 133.6 142.9C133.7 142.9 133.7 142.9 133.8 142.9C134.3 143 134.5 143.5 134.4 144V144.1C134.3 144.3 134.2 144.4 134 144.5C133.8 144.6 133.6 144.7 133.3 144.6C133.2 144.5 133 144.3 132.9 144.1Z" fill="#0A1640"/>
    <path d="M140.5 148.9C139.6 148.7 138.7 149.1 138.3 150C138.2 150.1 138.2 150.2 138.2 150.3C138.1 150.5 138.1 150.8 138.2 151C138.3 151.8 138.8 152.4 139.6 152.6C139.8 152.6 139.9 152.7 140.1 152.7C140.7 152.7 141.3 152.4 141.6 151.9C141.8 151.7 141.9 151.5 141.9 151.2C141.9 151.1 142 151 142 150.9C142 150 141.4 149.1 140.5 148.9ZM140.9 150.9C140.8 151.2 140.6 151.4 140.4 151.5C140.2 151.6 140.1 151.6 139.9 151.5C139.7 151.5 139.6 151.4 139.5 151.2C139.3 151 139.2 150.7 139.3 150.4C139.3 150.3 139.4 150.2 139.5 150.1C139.6 149.9 139.9 149.8 140.2 149.8C140.3 149.8 140.3 149.8 140.4 149.8C140.7 149.9 141 150.2 141 150.5C140.9 150.7 140.9 150.8 140.9 150.9Z" fill="#0A1640"/>
    <path d="M154 99.0999C153.6 99.1999 153.2 99.3999 152.9 99.6999C153.7 98.8999 154.1 98.0999 153.6 97.6999C153.3 97.4999 152.8 97.4999 152.4 97.8999C152 98.1999 151.6 98.5999 151.3 98.8999C151.9 98.2999 152.3 97.5999 152 97.1999C151.3 96.1999 149.8 98.4999 147.3 100.2C146.8 100.5 146.1 101 145.6 100.8C144.9 100.3 146.7 98.3999 146.2 97.7999C145.5 96.8999 143.3 99.4999 142.9 99.9999C141.9 101.3 141.4 102.4 141.2 103.5C134.9 105.7 129.4 109.2 125.7 110.1C126.8 112.5 127.3 113.9 128.6 116.2C134.2 113.9 140.6 109.9 144 107.5C146.1 108 148.2 107.2 150.1 106.1C150.8 105.7 154 103.6 153.9 102.8C153.9 102.3 153.3 102.2 153 102.4C152.5 102.6 152 102.9 151.6 103.2C152.4 102.5 154.1 101 154.5 99.9999C154.8 99.3999 154.6 98.9999 154 99.0999Z" fill="#C05E46"/>
    <path d="M121.2 115.2C121.3 117.3 123.7 120.1 128 119C131.3 118.1 139.8 112.2 142.8 109.8C143.6 109.2 143.7 109.1 143.6 108.5C143.3 107 142 103.7 141 102C140.7 101.6 140.6 101.4 140.1 101.6C135.6 103.6 127.1 108.3 125 109.5" fill="#332FBA"/>
    <path d="M155 98.8999C154.8 98.6999 154.6 98.5999 154.4 98.5999C154.5 98.3999 154.5 98.2999 154.5 98.0999C154.5 97.7999 154.4 97.4999 154.1 97.2999C153.7 96.9999 153.2 96.8999 152.7 97.0999C152.7 96.9999 152.6 96.8999 152.5 96.7999C152.3 96.4999 152 96.3999 151.7 96.2999C151 96.1999 150.4 96.7999 149.4 97.6999C148.7 98.2999 148 98.9999 147 99.5999C146.8 99.6999 146.3 100.1 146.1 100.1C146.2 99.8999 146.3 99.4999 146.5 99.2999C146.9 98.5999 147.2 97.7999 146.8 97.1999C146.6 96.8999 146.3 96.7999 146 96.7999C144.8 96.7999 143.2 98.7999 142.7 99.3999C142.2 100.1 141.8 100.7 141.5 101.4C141.3 101 140.9 100.7 140.1 101C135.5 103 127 107.7 125 109C124.8 109.1 124.7 109.5 124.8 109.7C124.9 109.9 125.2 110 125.4 109.9H125.5C125.8 109.7 126.4 109.4 127 109C129.2 107.7 133 105.7 136.3 104C136.3 104.1 136.3 104.2 136.4 104.3C136.5 104.4 136.5 104.5 136.6 104.7C136.7 104.9 136.9 105.3 137.1 105.7C137.7 107 138.5 108.9 138.9 110.3C139 110.6 139.1 111 139.1 111.2C139.1 111.3 139.1 111.3 139.2 111.4C139.3 111.5 139.4 111.6 139.6 111.6C135.7 114.4 130.3 117.9 128 118.5C125.7 119.1 124.2 118.5 123.4 117.9C122.3 117.1 121.9 116 121.9 115.3C121.9 115 121.7 114.8 121.4 114.8C121.1 114.8 120.9 115 120.9 115.4C120.9 116.7 121.7 118 122.8 118.8C123.8 119.5 125 119.9 126.3 119.9C127 119.9 127.6 119.8 128.4 119.6C131.9 118.7 140.6 112.5 143.4 110.4C144.2 109.8 144.6 109.5 144.4 108.5C144.4 108.4 144.4 108.3 144.3 108.2C144.4 108.2 144.4 108.1 144.5 108.1C146.3 108.4 148.4 107.9 150.7 106.6C150.9 106.5 154.9 104.1 154.8 102.8C154.8 102.5 154.6 102.2 154.4 102C154.3 102 154.3 101.9 154.2 101.9C154.9 101.2 155.3 100.7 155.4 100.2C155.3 99.5999 155.2 99.1999 155 98.8999ZM142.4 109.4C141.8 109.9 140.9 110.5 140 111.2C140 111.1 140 111 140 111C140 110.9 140 110.9 140 110.8C139.9 110.5 139.8 110.1 139.7 109.7C139.2 108.3 138.5 106.6 137.9 105.3C137.7 104.9 137.6 104.6 137.4 104.3C137.3 104.1 137.2 103.9 137.1 103.8C137.1 103.7 137 103.7 136.9 103.6C138.1 103 139.3 102.4 140.2 102H140.3C140.3 102 140.4 102.1 140.4 102.2C140.5 102.4 140.6 102.6 140.7 102.8C140.9 103.1 141.1 103.5 141.2 103.8C141.8 105 142.3 106.5 142.6 107.5C142.7 107.9 142.8 108.2 142.8 108.4C142.8 108.5 142.8 108.5 142.8 108.6C143.1 108.9 143 109 142.4 109.4ZM154.1 99.6999C153.9 100.1 153.4 100.9 151.4 102.6C150.5 103.4 149.7 103.6 149.6 103.6C149.3 103.7 149.2 104 149.2 104.3C149.3 104.5 149.5 104.7 149.7 104.7H149.8C149.8 104.7 150.8 104.4 151.9 103.5C152.3 103.2 152.7 103 153 102.8C153.1 102.8 153.2 102.8 153.2 102.7C153 103.2 151 104.8 149.6 105.5C147.4 106.8 145.5 107.2 143.9 106.8C143.8 106.8 143.6 106.8 143.5 106.9C143.1 105.6 142.4 103.9 141.8 102.6C142.1 101.8 142.5 100.9 143.2 100.1C144.1 98.8999 145.3 97.8999 145.6 97.8999C145.6 98.0999 145.4 98.5999 145.2 98.8999C144.8 99.5999 144.4 100.6 145.1 101.1C145.8 101.6 146.7 101 147.4 100.5C148.4 99.7999 149.2 99.0999 149.9 98.4999C150.4 97.9999 151.2 97.2999 151.4 97.3999C151.4 97.3999 151.5 97.5999 150.8 98.3999C150.8 98.3999 150.7 98.3999 150.7 98.4999C150.7 98.4999 148.7 100.8 146.8 101.6C146.5 101.7 146.4 102 146.5 102.3C146.6 102.5 146.8 102.6 147 102.6C147.1 102.6 147.1 102.6 147.2 102.6C149.3 101.8 151.2 99.5999 151.5 99.2999C151.5 99.2999 151.5 99.2999 151.6 99.1999C152 98.8999 152.3 98.5999 152.7 98.1999C152.9 97.9999 153.1 97.9999 153.2 97.9999C153.2 97.9999 153.3 98.2999 152.4 99.1999C152.2 99.3999 150.3 101.5 148.5 102.2C148.2 102.3 148.1 102.6 148.2 102.9C148.3 103.1 148.5 103.2 148.7 103.2C148.8 103.2 148.8 103.2 148.9 103.2C151.1 102.4 153.2 99.8999 153.3 99.7999C153.7 99.7999 153.9 99.6999 154.1 99.6999Z" fill="#0A1640"/>
    <path d="M139.8 118.6C140.2 118.6 140.6 118.7 141 118.9C140.1 118.3 139.4 117.7 139.8 117.1C140 116.8 140.5 116.7 141 117C141.4 117.2 141.9 117.5 142.4 117.7C141.7 117.2 141.1 116.7 141.3 116.2C141.7 115 143.8 116.9 146.6 117.9C147.1 118.1 148 118.4 148.3 118C148.9 117.4 146.6 116 147 115.2C147.5 114.1 150.3 116.1 150.7 116.5C152 117.5 152.8 118.5 153.2 119.4C159.9 120 165.2 121.8 169 121.8C168.5 124.4 169.2 126 168.7 128.6C162.7 127.8 155.5 125.6 151.6 124.1C149.7 125.1 147.4 124.9 145.4 124.3C144.6 124.1 141 122.9 140.9 122.1C140.8 121.6 141.3 121.4 141.7 121.4C142.2 121.4 142.8 121.6 143.2 121.8C142.3 121.3 140.2 120.3 139.6 119.4C139.2 119.1 139.3 118.6 139.8 118.6Z" fill="#C05E46"/>
    <path d="M175.2 127.5C174.4 129.8 172.4 131.1 170 130.8C166.6 130.4 156.1 127.4 153.4 126.1C152.5 125.7 152.3 125.6 152.3 125C152.2 123.5 152.6 119.9 153.1 118.1C153.2 117.6 153.3 117.4 153.8 117.5C158.6 118.5 169 120.2 169 120.2" fill="#332FBA"/>
    <path d="M175.4 127C175.1 126.9 174.8 127 174.7 127.3C173.9 129.4 172.2 130.5 170.1 130.2C167.7 129.9 161.4 128.2 157.2 126.8C157.3 126.7 157.4 126.6 157.4 126.5C157.4 126.4 157.4 126.4 157.4 126.3C157.4 126 157.4 125.7 157.4 125.4C157.5 124 157.8 122 158 120.5C158.1 120.1 158.1 119.7 158.2 119.5C158.2 119.3 158.3 119.2 158.3 119.1C158.3 119 158.3 118.9 158.3 118.8C163.2 119.7 168.9 120.6 169 120.6C169.3 120.7 169.6 120.5 169.6 120.2C169.6 119.9 169.5 119.6 169.2 119.6C169.1 119.6 158.7 117.8 154 116.9C153.1 116.7 152.8 117.2 152.7 117.7C152.3 117.1 151.7 116.6 151 116.1C150.4 115.6 148.3 114.1 147.2 114.4C146.9 114.5 146.6 114.7 146.5 115C146.2 115.7 146.8 116.3 147.3 116.9C147.5 117.1 147.7 117.4 147.9 117.6C147.6 117.6 147.1 117.4 146.8 117.3C145.8 116.9 144.9 116.5 144 116.1C142.8 115.5 142 115.1 141.4 115.3C141.2 115.4 140.9 115.5 140.8 116C140.7 116.1 140.7 116.2 140.7 116.3C140.2 116.2 139.7 116.4 139.4 116.8C139.2 117 139.2 117.3 139.2 117.6C139.2 117.8 139.3 117.9 139.4 118.1C139.2 118.2 139 118.4 138.9 118.6C138.7 119 138.8 119.4 139.1 119.8C139.4 120.2 139.9 120.6 140.7 121.1C140.6 121.2 140.6 121.2 140.5 121.3C140.3 121.5 140.2 121.8 140.3 122.2C140.5 123.5 145 124.8 145.2 124.8C147.8 125.5 149.9 125.5 151.6 124.7C151.7 124.7 151.7 124.7 151.8 124.8C151.8 124.9 151.8 125 151.8 125.1C151.9 126 152.3 126.2 153 126.5L153.2 126.6C156 127.9 166.5 130.9 169.9 131.4C170.1 131.4 170.4 131.5 170.6 131.5C172.9 131.5 174.7 130.1 175.6 127.8C175.8 127.4 175.7 127.1 175.4 127ZM151.6 123.5C151.5 123.5 151.4 123.5 151.4 123.6C149.9 124.4 148 124.4 145.5 123.8C144 123.4 141.6 122.4 141.4 122.1C141.4 122.1 141.5 122 141.6 122C142 122 142.5 122.2 143 122.4H143.1C144.3 122.9 145.3 122.9 145.3 122.9C145.6 122.9 145.8 122.7 145.8 122.4C145.8 122.1 145.6 121.9 145.3 121.9C145.3 121.9 144.4 121.9 143.3 121.4C141 120.2 140.2 119.6 140 119.2C140 119.2 140 119.2 140 119.1C140.2 119.1 140.5 119.2 140.8 119.3C140.9 119.4 143.6 121.2 145.9 121.4C145.9 121.4 145.9 121.4 146 121.4C146.3 121.4 146.5 121.2 146.5 120.9C146.5 120.6 146.3 120.3 146 120.3C144 120.1 141.6 118.5 141.4 118.4C140.4 117.7 140.3 117.4 140.3 117.4C140.3 117.4 140.5 117.3 140.8 117.4C141.2 117.6 141.7 117.8 142.1 118C142.3 118.2 144.9 119.9 147.2 120.1C147.2 120.1 147.2 120.1 147.3 120.1C147.6 120.1 147.8 119.9 147.8 119.6C147.8 119.3 147.6 119 147.3 119C145.4 118.8 143.1 117.3 142.7 117.1C142.7 117.1 142.7 117.1 142.6 117.1C141.7 116.5 141.7 116.2 141.7 116.2C141.9 116.1 142.8 116.6 143.5 116.9C144.3 117.3 145.3 117.8 146.4 118.2C147.1 118.4 148.1 118.8 148.7 118.1C149.3 117.4 148.6 116.6 148.1 116C147.9 115.8 147.5 115.3 147.5 115.2C147.8 115 149.3 115.8 150.4 116.7C151.3 117.4 151.9 118.1 152.4 118.8C152.1 120.2 151.9 122 151.8 123.4C151.7 123.5 151.6 123.5 151.6 123.5ZM153.7 125.6L153.5 125.5C153.1 125.3 152.9 125.2 152.9 125.1C152.9 125.1 152.9 125 152.9 124.9C152.9 124.6 152.9 124.3 152.9 123.9C152.9 122.8 153.1 121.3 153.3 119.9C153.4 119.5 153.4 119.1 153.5 118.7C153.5 118.5 153.6 118.3 153.7 118.1C153.7 118 153.8 117.9 153.8 117.9C153.8 117.9 153.8 117.9 153.9 117.9C154.9 118.1 156.1 118.3 157.5 118.6C157.4 118.6 157.4 118.7 157.4 118.8C157.4 118.9 157.3 119.1 157.3 119.3C157.2 119.6 157.2 119.9 157.1 120.3C156.9 121.7 156.6 123.6 156.5 125C156.5 125.4 156.5 125.8 156.5 126.1C156.5 126.2 156.5 126.2 156.5 126.3C156.5 126.4 156.5 126.4 156.5 126.5C155.3 126.2 154.3 125.9 153.7 125.6Z" fill="#0A1640"/>
    <path d="M198.5 75.1L193.3 95C192.9 96.4 191.5 97.2 190.1 96.9L175.7 93.2C174.6 92.9 173.8 91.9 173.7 90.8C173.7 90.5 173.7 90.2 173.8 90L174 89.3C174.1 89.1 173.9 88.8 173.7 88.8C169.6 87.9 168.1 86.5 168.1 86.5C171.1 86.2 173.1 85.1 174.4 84.1C175.2 83.5 175.7 82.6 176 81.7L179 70.2C179.4 68.8 180.8 68 182.2 68.3L196.6 72C197.1 72.1 197.5 72.4 197.8 72.7C198.4 73.3 198.7 74.2 198.5 75.1Z" fill="#00D4FC"/>
    <path opacity="0.25" d="M198.5 75.1L193.3 95C192.9 96.4 191.5 97.2 190.1 96.9L175.7 93.2C174.6 92.9 173.8 91.9 173.7 90.8C174.4 90.3 175.4 90.1 176.3 90.3L187.4 93.2C189.1 93.6 190.8 92.6 191.2 91L195.4 75C195.7 73.8 196.6 73 197.7 72.7C198.4 73.3 198.7 74.2 198.5 75.1Z" fill="#332FBA"/>
    <path opacity="0.75" d="M182 70.3C183.5 70.5 185 70.8 186.4 71.2C187.8 71.6 189.3 72 190.7 72.6C190.8 72.7 190.9 72.8 190.8 73C190.8 73.1 190.6 73.2 190.5 73.2C189 73 187.5 72.7 186.1 72.3C184.7 71.9 183.2 71.5 181.8 70.9C181.7 70.8 181.6 70.7 181.7 70.6C181.8 70.3 181.9 70.3 182 70.3Z" fill="white"/>
    <path d="M198.1 72.2C197.7 71.8 197.2 71.5 196.7 71.4L182.3 67.7C181.5 67.5 180.6 67.6 179.9 68C179.2 68.4 178.7 69.1 178.4 69.9L175.4 81.4C175.2 82.3 174.7 83 174 83.6C172.4 84.8 170.4 85.6 168 85.9C167.8 85.9 167.6 86.1 167.6 86.3C167.5 86.5 167.6 86.7 167.7 86.9C167.8 87 169.3 88.4 173.4 89.3L173.2 89.9C173.1 90.2 173.1 90.6 173.1 90.9C173.2 92.3 174.1 93.4 175.5 93.7L189.9 97.4C190.2 97.5 190.4 97.5 190.7 97.5C192.1 97.5 193.4 96.6 193.8 95.1L199 75.3C199.2 74.2 198.9 73 198.1 72.2ZM197.9 75L192.7 94.8C192.4 95.9 191.3 96.6 190.1 96.3L175.7 92.6C174.8 92.4 174.2 91.6 174.1 90.7C174.1 90.5 174.1 90.3 174.2 90L174.4 89.3C174.5 89 174.4 88.8 174.3 88.6C174.2 88.4 173.9 88.2 173.7 88.2C171.7 87.8 170.3 87.2 169.5 86.7C171.5 86.3 173.3 85.5 174.7 84.4C175.5 83.7 176.2 82.8 176.5 81.7L179.5 70.2C179.6 69.7 180 69.2 180.5 68.9C181 68.6 181.5 68.5 182.1 68.7L196.5 72.4C196.9 72.5 197.2 72.7 197.4 72.9C197.9 73.5 198.1 74.3 197.9 75Z" fill="#0A1640"/>
    <path d="M181.2 75.7999C181.2 75.6999 181.3 75.5999 181.3 75.3999C181.4 74.8999 181.6 74.1999 181.6 74.1999C181.6 74.1999 181.6 74.2999 181.6 74.3999V74.5999C181.6 74.9999 181.7 75.4999 181.8 75.9999C181.9 75.9999 182.1 76.0999 182.2 76.0999C182.3 76.0999 182.3 76.0999 182.4 76.0999V75.9999C182.4 75.8999 182.5 75.7999 182.5 75.5999C182.5 75.3999 182.6 75.2999 182.6 75.0999C182.7 74.7999 182.7 74.5999 182.8 74.2999L183.2 72.7999C183.1 72.7999 183 72.6999 182.9 72.6999C182.8 72.6999 182.7 72.6999 182.6 72.5999C182.6 72.7999 182.5 72.8999 182.5 72.9999C182.4 73.1999 182.4 73.3999 182.3 73.6999C182.3 73.7999 182.2 73.8999 182.2 73.8999C182.2 73.8999 182 73.0999 182 72.9999C182 72.6999 181.9 72.6999 181.9 72.3999C181.9 72.3999 181.6 72.2999 181.5 72.2999C181.4 72.2999 181.4 72.2999 181.3 72.2999C181.2 72.6999 181 73.0999 180.9 73.4999C180.7 74.0999 180.6 74.5999 180.5 75.1999L180.4 75.4999C180.5 75.4999 180.7 75.5999 180.8 75.5999C181 75.7999 181.1 75.7999 181.2 75.7999Z" fill="#0A1640"/>
    <path d="M184.7 76.7C184.8 76.5 184.9 76.3 184.9 76.1C184.5 76 184.1 75.9 183.7 75.8C183.7 75.6 183.8 75.4 183.9 75.2C184 75.2 184.3 75.3 184.5 75.3C184.6 75.1 184.6 74.9 184.7 74.7C184.5 74.6 184.3 74.6 184.1 74.5C184.1 74.3 184.2 74.1 184.2 74C184.6 74.1 185 74.2 185.4 74.3C185.5 74.1 185.5 73.9 185.6 73.6C185.6 73.6 184.4 73.3 183.7 73.1C183.4 74.1 183.1 75.2 182.9 76.3C183.4 76.4 184.1 76.5 184.7 76.7Z" fill="#0A1640"/>
    <path d="M185.3 76.8C185.4 76.8 185.4 76.8 185.5 76.9C185.6 76.9 185.7 76.9 185.7 76.9C185.8 76.8 186 76.3 186.2 76.2C186.3 76.4 186.2 76.9 186.3 77.1H186.4H186.6C186.7 77.1 186.7 77.1 186.8 77.1C187.2 76 187.6 75 187.9 74C187.8 74 187.7 73.9 187.6 73.9C187.5 73.9 187.4 73.8 187.3 73.8C187.1 74.3 186.9 75.2 186.7 75.8C186.7 75.6 186.7 74.9 186.7 74.8C186.6 75.1 186.4 75.3 186.3 75.6C186.3 75 186.6 74.2 186.7 73.6C186.6 73.6 186.5 73.5 186.3 73.5C186.2 73.5 186.1 73.5 186 73.4C185.6 74.6 185.5 75.7 185.3 76.8Z" fill="#0A1640"/>
    <path d="M190.4 77.7C190.4 77.6 190.4 77.6 190.5 77.5V77.4C190.3 77.4 189.4 77.1 189.3 77.1C189.5 76.3 189.7 75.4 189.9 74.6C189.7 74.5 189.3 74.4 189.2 74.4C188.9 75.7 188.8 76.2 188.4 77.6V77.7C189.9 78.1 190.1 78.1 190.2 78.2C190.3 78.1 190.3 78.2 190.4 77.7Z" fill="#0A1640"/>
    <path d="M190.4 78.1999C190.8 78.2999 191 78.3999 191 78.3999C191.2 78.1999 191.3 77.8999 191.4 77.6999C191.5 77.6999 191.5 77.6999 191.7 77.7999C191.7 77.9999 191.7 78.3999 191.7 78.5999C191.9 78.6999 192.1 78.7999 192.3 78.7999L192.4 77.0999C192.4 76.7999 192.4 75.5999 192.4 75.3999C192 75.2999 191.9 75.2999 191.8 75.2999C191.1 76.4999 190.5 77.9999 190.4 78.1999ZM191.9 77.0999C191.8 77.0999 191.7 76.9999 191.6 76.9999C192 76.0999 192.2 75.4999 191.9 77.0999Z" fill="#0A1640"/>
    <path d="M194.8 75.7999C194.7 75.7999 194.6 75.6999 194.5 75.6999C194.3 76.1999 194.1 77.0999 193.9 77.6999C193.9 77.4999 193.9 76.7999 193.9 76.6999C193.8 76.9999 193.6 77.1999 193.5 77.4999C193.5 76.8999 193.8 76.0999 193.9 75.4999C193.8 75.4999 193.7 75.3999 193.5 75.3999C193.4 75.3999 193.3 75.3999 193.2 75.2999C192.9 76.3999 192.8 77.4999 192.7 78.5999C192.8 78.5999 192.8 78.5999 192.9 78.6999C193 78.6999 193.1 78.6999 193.1 78.6999C193.2 78.5999 193.4 78.0999 193.6 77.9999C193.7 78.1999 193.6 78.6999 193.7 78.8999H193.8H194C194.1 78.8999 194.1 78.8999 194.2 78.8999C194.6 77.7999 195 76.7999 195.3 75.7999C195 75.8999 194.9 75.8999 194.8 75.7999Z" fill="#0A1640"/>
    <path d="M193.9 80.2L180.2 76.6C179.9 76.5 179.6 76.7 179.6 77C179.5 77.3 179.7 77.6 180 77.6L193.7 81.2H193.8C194 81.2 194.3 81 194.3 80.8C194.4 80.6 194.2 80.3 193.9 80.2Z" fill="#0A1640"/>
    <path d="M193.4 82.3L179.7 78.7C179.4 78.6 179.1 78.8 179.1 79.1C179 79.4 179.2 79.7 179.5 79.7L193.2 83.3H193.3C193.5 83.3 193.8 83.1 193.8 82.9C193.9 82.7 193.7 82.4 193.4 82.3Z" fill="#0A1640"/>
    <path d="M192.9 84.3999L179.2 80.7999C178.9 80.6999 178.6 80.8999 178.6 81.1999C178.5 81.4999 178.7 81.7999 179 81.7999L192.7 85.3999H192.8C193 85.3999 193.3 85.1999 193.3 84.9999C193.3 84.6999 193.2 84.3999 192.9 84.3999Z" fill="#0A1640"/>
    <path d="M192.3 86.3999L178.6 82.7999C178.3 82.6999 178 82.8999 178 83.1999C177.9 83.4999 178.1 83.7999 178.4 83.7999L192.1 87.3999H192.2C192.4 87.3999 192.7 87.1999 192.7 86.9999C192.8 86.7999 192.6 86.4999 192.3 86.3999Z" fill="#0A1640"/>
    <path d="M191.8 88.5L178.1 84.9C177.8 84.8 177.5 85 177.5 85.3C177.4 85.6 177.6 85.9 177.9 85.9L191.6 89.5H191.7C191.9 89.5 192.2 89.3 192.2 89.1C192.3 88.9 192.1 88.6 191.8 88.5Z" fill="#0A1640"/>
    <path d="M191.3 90.6L177.6 87C177.3 86.9 177 87.1 177 87.4C176.9 87.7 177.1 88 177.4 88L191.1 91.6H191.2C191.4 91.6 191.7 91.4 191.7 91.2C191.7 90.9 191.5 90.6 191.3 90.6Z" fill="#0A1640"/>
    <path d="M189.5 92.3L178.2 89.4C177.9 89.3 177.6 89.5 177.6 89.8C177.5 90.1 177.7 90.4 178 90.4L189.3 93.3H189.4C189.6 93.3 189.9 93.1 189.9 92.9C190 92.7 189.8 92.4 189.5 92.3Z" fill="#0A1640"/>
    <path d="M143 82.5C143 82.5 140 83.5999 136.7 82.1999C136.3 81.9999 135.8 82.2999 135.7 82.6999L135 85.1999C135 85.2999 134.9 85.4999 134.8 85.5999C134.5 85.9999 134 86.1999 133.5 86.0999L116 81.5C115.3 81.2999 114.9 80.5999 115.1 79.9999L118.9 65.3C119 64.9 119.3 64.5 119.7 64.4C119.9 64.3 120.2 64.3 120.4 64.4L138 68.9999C138.7 69.1999 139.1 69.8999 138.9 70.4999L137.3 76.8C137.1 77.4 137.3 78.0999 137.7 78.6999C138.8 79.9999 140.5 81.6 143 82.5Z" fill="#00D4FC"/>
    <path d="M132.4 71.9C132.1 71.3 131.6 70.7 131.2 70.3C130.7 69.8 130.2 69.4 129.6 69.1C128.4 68.5 127 68.2 125.5 68.4C120 69.1 117.6 75.4 120.9 79.6C123.9 83.5 129.9 83.2 132.4 78.8C133.6 76.6 133.6 74.1 132.4 71.9ZM132 72.6C132 72.7 133 74.3 132.5 76.5V76.6L130.2 76V75.9C130.5 74.4 130.5 73.5 130.5 73.1C130.6 73.1 131.1 73 131.8 72.6H132ZM125.9 75.6L125.4 77.5C125.2 77.5 124.4 77.2 123 77.4H122.9V77.3C122.9 76 123.2 75 123.2 74.9L125.9 75.6ZM123.4 74.1V74C123.8 72.8 124.4 71.8 124.4 71.8C124.5 71.9 125.2 72.5 126.5 73H126.6L126.1 74.9L123.4 74.1ZM127.3 73.2H127.4C128.7 73.5 129.7 73.3 129.8 73.3C129.8 73.4 129.8 74.3 129.5 75.7V75.8L126.8 75.1L127.3 73.2ZM129.3 76.5C129.3 76.6 129 77.6 128.4 78.7L128.3 78.8L128.2 78.7C127.2 77.9 126.1 77.6 126.1 77.6L126.6 75.7L129.3 76.5ZM131.5 71.8L131.6 71.9C130.5 72.4 131.1 72.1 130.5 72.4V72.2C130.4 71 130 70.3 129.9 70.1C129.9 70.1 130.8 70.8 131.5 71.8ZM129.8 72.4V72.5H129.7C128.5 72.7 127.6 72.4 127.5 72.4L128.3 69.3C128.4 69.4 129.5 69.9 129.8 72.4ZM127.5 69.2H127.7L126.9 72.3C125.4 71.7 125.1 71.3 124.9 71.2C124.8 71.2 126 69.3 127.5 69.2ZM125.5 69.1L125.9 69L125.6 69.3C124.9 69.8 124.3 70.6 124.3 70.7L124.2 70.6C123.8 70.2 123.6 69.8 123.5 69.7C123.5 69.7 124.3 69.3 125.5 69.1ZM122.8 70.2H123C123.5 70.9 123.9 71.3 123.9 71.3C123.9 71.4 123.2 72.3 122.8 73.8V73.9L120.5 73.3C120.4 73.2 120.9 71.4 122.8 70.2ZM120.7 78.1C120.7 78 119.7 76.4 120.2 74.2V74.1L122.5 74.7C122.5 74.8 122.2 76 122.2 77.5V77.6C122.2 77.6 121.6 77.7 120.9 78.1H120.7ZM121.1 78.8L121 78.7C121.2 78.6 121.1 78.6 122.1 78.2V78.3C122.2 79.5 122.6 80.1 122.7 80.4C122.8 80.5 121.9 79.9 121.1 78.8ZM122.9 78.2V78.1H123C124.2 77.9 125.2 78.2 125.2 78.2L124.4 81.3C124.3 81.2 123.1 80.7 122.9 78.2ZM125.2 81.4H125L125.8 78.3H125.9C127 78.7 127.8 79.3 127.8 79.4C127.9 79.4 126.7 81.3 125.2 81.4ZM127.2 81.5L126.8 81.6L127.1 81.3C127.8 80.8 128.4 79.9 128.4 79.9C129.2 80.8 129 80.7 129.2 80.9C128.7 81.1 128.2 81.4 127.2 81.5ZM129.9 80.4H129.7C129.3 79.7 128.8 79.3 128.8 79.3V79.2C129.5 77.9 129.9 76.7 129.9 76.6L132.2 77.2C132.2 77.3 131.8 79.2 129.9 80.4Z" fill="#332FBA"/>
    <path opacity="0.25" d="M134.9 85.5999C134.6 85.9999 134.1 86.1999 133.6 86.0999L116 81.4999C115.3 81.2999 114.9 80.5999 115.1 79.9999L118.9 65.2999C119 64.8999 119.3 64.4999 119.7 64.3999C120.7 65.1999 121.2 66.5999 120.9 67.9999L118.7 76.4999C118.3 77.9999 119.2 79.5999 120.7 79.9999L132.3 82.9999C133.2 83.1999 134 83.7999 134.4 84.5999C134.7 84.8999 134.8 85.1999 134.9 85.5999Z" fill="#332FBA"/>
    <path opacity="0.75" d="M136.5 71.1C136.4 72.4 136.2 73.7 135.9 74.9C135.6 76.2 135.3 77.4 134.8 78.6C134.7 78.7 134.6 78.8 134.4 78.7C134.3 78.7 134.2 78.5 134.2 78.4C134.3 77.1 134.5 75.8 134.8 74.6C135.1 73.3 135.4 72.1 135.9 70.9C136 70.8 136.1 70.7 136.2 70.8C136.4 70.9 136.5 71 136.5 71.1Z" fill="white"/>
    <path d="M133.9 86.6C133.8 86.6 133.6 86.6 133.5 86.5L115.8 82C114.8 81.8 114.3 80.8 114.5 79.8L118.3 65.1C118.5 64.5 118.9 64 119.5 63.8C119.8 63.7 120.2 63.7 120.5 63.8L138.1 68.4C138.6 68.5 139 68.8 139.2 69.2C139.4 69.6 139.5 70.1 139.4 70.6L137.8 76.9C137.7 77.4 137.8 77.9 138.1 78.3C139.4 80 141.2 81.3 143.2 82C143.4 82.1 143.6 82.3 143.6 82.5C143.6 82.7 143.5 82.9 143.3 83C143.2 83 140.1 84.2 136.6 82.7C136.5 82.7 136.5 82.7 136.4 82.7C136.4 82.7 136.3 82.7 136.3 82.8L135.6 85.3C135.5 85.5 135.5 85.7 135.3 85.9C135 86.4 134.5 86.6 133.9 86.6ZM120.1 64.8C120 64.8 119.9 64.8 119.9 64.8C119.7 64.9 119.5 65.1 119.4 65.3L115.6 80C115.5 80.4 115.7 80.8 116.1 80.9L133.7 85.5C134 85.6 134.3 85.5 134.5 85.2C134.6 85.1 134.6 85.1 134.6 85L135.3 82.5C135.4 82.1 135.6 81.8 136 81.7C136.3 81.5 136.7 81.5 137 81.7C138.7 82.4 140.3 82.5 141.4 82.3C139.8 81.5 138.4 80.4 137.3 78.9C136.8 78.2 136.6 77.4 136.8 76.6L138.4 70.3C138.4 70.1 138.4 69.9 138.3 69.8C138.2 69.6 138 69.5 137.9 69.5L120.3 64.9C120.2 64.9 120.2 64.8 120.1 64.8Z" fill="#0A1640"/>
    <path d="M143.6 33C143.5 35.4 143.6 38.1 143.5 40.6C143.3 41.6 141.9 41.7 141.6 40.7C141.4 38.1 141.3 35.5 141.5 33C140.9 32.8 139.9 32.9 139.3 32.9C139.3 35.6 139.2 38.5 139.2 41.2C139.3 43.1 141.4 43.9 143.2 43.7C144.7 43.6 145.6 42.5 145.8 41.1C146.1 38.4 146.1 35.7 146 33C145.4 32.8 144.2 33 143.6 33Z" fill="#0A1640"/>
    <path d="M147.6 32.8C147.4 36.3 146.9 40.5 146.8 43.5C147.5 43.6 148.8 43.8 149.4 43.7C149.6 40.7 149.7 40.4 149.7 39.8C151.6 40.3 153.8 39 154.2 37C154.2 36.9 154.2 36.7 154.2 36.6C154.4 33 150.2 32.3 147.6 32.8ZM151.8 37.2C151.3 37.7 150.4 37.5 149.7 37.5C149.5 36.9 149.7 35.9 149.8 35.2C150.5 35.1 151.2 35.3 151.7 35.7C152.1 36 152.2 36.8 151.8 37.2Z" fill="#0A1640"/>
    <path d="M161 41.9C161.3 41 161.5 40 161.7 39C161.7 38.7 161.8 38.3 161.7 38C161.6 37.2 161.5 36.4 161.1 35.6C160.8 34.9 160.3 34.3 159.6 34C158.4 33.9 157.1 33.5 155.9 33.6C155.9 33.6 155.9 33.6 155.8 33.7C155.3 37.3 154.4 41 154.3 44.3C155.6 44.5 157 44.7 158.4 44.9C159.5 44 160.4 43.1 161 41.9ZM158.8 41C158.6 41.2 158.5 41.3 158.2 41.4C158.1 41.4 158 41.5 157.9 41.4C157.5 41.4 157.1 41.4 156.9 41.1C157 39.7 157.4 38.2 157.5 37.1V37C157.9 37 158.3 37.1 158.7 37.2C159.4 37.6 159.4 38.4 159.4 39C159.6 39.9 159.3 40.5 158.8 41Z" fill="#0A1640"/>
    <path d="M165.2 35.1001C162.6 39.6001 160.7 44.8001 160.5 45.2001C161.9 45.5001 162.5 45.7001 162.6 45.7001C163.1 45.1001 163.4 43.9001 163.8 43.3001C164.3 43.4001 164.2 43.3001 164.7 43.5001C164.8 44.2001 164.8 45.4001 164.9 46.1001C165.5 46.4001 166.3 46.6001 166.9 46.6001L167 41.0001C167 39.9001 167 36.2001 167 35.3001C165.7 35.3001 165.5 35.1001 165.2 35.1001ZM165.3 41.8001C164.9 41.7001 164.5 41.6001 164.2 41.5001C165.3 38.5001 165.9 36.4001 165.3 41.8001Z" fill="#0A1640"/>
    <path d="M175.5 37.9C173.5 37.1 171.2 36.5 169.2 36C168.9 36.9 168.6 38.2 168.6 38.4C168.8 38.5 170 38.7 170.4 39.1C169.1 44.8 168.3 47 168.2 47.1C169 47.2 169.9 47.6 170.7 47.7C172.4 41.1 172.7 40 172.9 39.7C173.9 39.9 174.4 40 174.7 40.2C175 39.5 175.3 38.5 175.5 37.9Z" fill="#0A1640"/>
    <path d="M176.2 47.3C176.3 46.8 176.5 46 176.9 45.5C177.2 45.4 178.1 45.9 178.7 46C178.9 45.3 179.3 44.6 179.4 43.9C178.8 43.7 178.2 43.5 177.6 43.2C177.7 42.6 178 42.1 178.2 41.5C179.5 41.8 180.8 42.5 182.1 42.7C182.3 42 182.7 41.3 182.8 40.6C182.8 40.5 179 39.2 176.7 38.5C175.3 41.8 174.3 45.1 173.1 48.6C174.9 49.4 177.1 50.1 179.1 50.8C179.5 50.3 179.7 49.6 179.9 48.9C178.7 48.3 177.5 47.7 176.2 47.3Z" fill="#0A1640"/>
    <path d="M187.4 50.5001C188 49.7001 188.3 48.8001 188.8 47.9001C188.9 47.6001 189 47.3001 189.1 46.9001C189.3 46.1001 189.3 45.2001 189.2 44.4001C189.1 43.7001 188.7 42.9001 188.2 42.5001C187.1 42.1001 185.9 41.3001 184.7 41.1001C184.7 41.1001 184.7 41.1001 184.6 41.1001C183.2 44.4001 181.4 47.8001 180.5 51.0001C181.7 51.5001 183 52.1001 184.3 52.6001C185.4 52.2001 186.5 51.5001 187.4 50.5001ZM186.7 47.5001C186.5 48.3001 186.1 48.8001 185.6 49.1001C185.4 49.2001 185.2 49.3001 185 49.4001C184.9 49.4001 184.8 49.4001 184.7 49.4001C184.3 49.3001 183.9 49.2001 183.8 48.9001C184.3 47.6001 185 46.2001 185.4 45.2001V45.1001C185.8 45.2001 186.2 45.4001 186.5 45.6001C187 46.0001 186.8 46.8001 186.7 47.5001Z" fill="#0A1640"/>
    <path d="M187.8 52.5C187.5 53 186.8 54 186.9 54.1L187.9 54.6C188.1 54.7 188.2 54.8 188.4 54.9L188.5 55C188.8 54.5 189.1 53.9 189.4 53.4C188.9 53.1 188.3 52.5 187.8 52.5Z" fill="#0A1640"/>
    <path d="M191.9 44.4C190.4 46.8 189.4 49.3 188.1 51.8C188.6 52.1 189.4 52.5 189.9 52.7C191 50.3 192.4 47.7 193.7 45.3C193.2 44.8 192.4 44.6 191.9 44.4Z" fill="#0A1640"/>
    <path d="M138.8 26.5001C137.9 19.7001 137.7 18.6001 137.8 18.3001C138.8 18.1001 139.3 18.0001 139.7 18.1001C139.7 17.3001 139.6 16.4001 139.5 15.7001C137.3 15.7001 135 16.1001 132.9 16.3001C132.9 17.3001 133.2 18.6001 133.2 18.7001C133.5 18.7001 134.6 18.5001 135.1 18.7001C136 24.5001 136.1 26.8001 136.2 27.0001C137 26.7001 138 26.7001 138.8 26.5001Z" fill="#0A1640"/>
    <path d="M141.4 26.5C141.8 26.4 143.9 26.6 144.2 26.2C143.9 22.7 143.9 18.9 143.8 15.4V15.3H143.4C142.5 15.4 142.1 15.3 141.7 15.3C141.6 15.3 141.2 15.3 141.1 15.3C140.9 18.9 141.6 22.7 141.4 26.5Z" fill="#0A1640"/>
    <path d="M147.4 20.4001C147.4 20.4001 148 22.6001 148.3 22.6001C148.5 22.6001 149.1 20.8001 149.4 20.3001C149.5 22.1001 149.4 24.6001 149.4 26.4001C149.9 26.4001 150.8 26.4001 151.5 26.5001L151.7 21.5001C151.9 19.5001 151.8 17.6001 151.9 15.6001C151.2 15.6001 149.9 15.6001 149.6 15.6001C149.2 16.1001 148.7 18.1001 148.6 18.0001H148.5C148.2 17.5001 147.9 16.1001 147.5 15.6001C146.8 15.6001 145.9 15.5001 145.4 15.6001C145.1 24.1001 145 26.0001 145.1 26.3001C145.8 26.3001 146.6 26.4001 147.3 26.3001C147.2 24.3001 147.2 22.3001 147.4 20.4001Z" fill="#0A1640"/>
    <path d="M159.3 25.2C157.9 25.1 156.6 24.8 155.2 24.6C155.2 24.1 155.2 23.3 155.4 22.7C155.6 22.6 156.6 22.8 157.3 22.7C157.4 21.9 157.5 21.2 157.5 20.5C156.9 20.4 156.2 20.4 155.6 20.2C155.5 19.6 155.7 19 155.8 18.4C157.2 18.4 158.5 18.8 159.9 18.7C160 18 160.2 17.2 160.1 16.5C160.1 16.4 156.1 16 153.7 15.9C153.1 19.4 152.9 22.9 152.5 26.5C154.5 26.9 156.8 27 158.9 27.2C159.1 26.6 159.2 25.9 159.3 25.2Z" fill="#0A1640"/>
    <path d="M169.4 20.7001C170.4 20.9001 170.9 21.0001 171.3 21.1001C171.6 20.4001 171.8 19.4001 171.9 18.7001C169.9 18.0001 167.6 17.6001 165.5 17.1001C165.2 18.0001 165 19.3001 165 19.5001C165.2 19.6001 166.4 19.7001 166.8 20.1001C165.8 25.8001 165.1 28.1001 165.1 28.3001C165.9 28.3001 166.9 28.7001 167.6 28.7001C169.1 22.1001 169.3 21.0001 169.4 20.7001Z" fill="#0A1640"/>
    <path d="M170.3 26.9C170.1 27.5 170 28.1 170.2 28.7C170.3 29.6 171.1 30 171.9 30.3C172.5 30.5 173.1 30.6 173.7 30.6C174.4 30.6 175 30.5 175.5 30.1C176 29.6 176.4 28.9 176.6 28.2L176.8 27.7C177.2 26.7 177.4 25.7 177.7 24.6C177.9 24.1 178 23.6 178.1 23.1C178.1 22.8 178.2 22.4 178.1 22.1C178.1 21.7 178 21.3 177.7 21C176.8 19.8 174.9 19.2 173.4 19.5C173.2 19.5 173.1 19.6 173 19.7C172.2 20.2 171.7 21.1 171.5 22C171 23.7 170.7 25.3 170.3 26.9ZM172.5 25.1C172.7 24.2 173 23.4 173.3 22.7C173.5 22.3 173.9 22 174.3 21.9C174.7 21.7 175.2 21.7 175.5 22C175.9 22.4 176 22.9 175.9 23.5C175.8 23.9 175.7 24.4 175.7 24.4L175.4 25.4L175.2 26.1C175.2 26.1 175.1 26.5 174.9 26.9C174.6 27.8 174.7 27.8 174.2 28.2C173.4 28.7 172.2 28.3 172 27.4C172.2 26.6 172.4 25.9 172.5 25.1Z" fill="#0A1640"/>
    <path d="M184.8 34.4C185.7 34.4 186.4 34.2 186.9 33.2C187.5 32.2 187.9 31 188.2 29.9C187.8 29.7 185.8 28.7 185.2 28.8C185 29.5 184.8 29.7 184.6 30.3C184.8 30.4 185.4 30.6 185.7 30.8C185.8 30.9 185.4 31.5 185.3 31.7C185.1 31.9 184.9 32 184.6 32C184.3 32 183.9 31.9 183.6 31.8C183.5 31.7 183.4 31.6 183.3 31.5C183.1 31.1 183.2 30.5 183.3 30C183.8 28.5 184.5 26.7 185.2 25.9C185.3 25.8 185.5 25.6 185.5 25.6C185.8 25.5 186.1 25.6 186.4 25.8C187 26 186.9 27 186.9 27.4C187.5 27.7 187.7 27.8 188.2 28C188.5 28.1 188.6 28.2 188.7 28.1V28C189.9 25.7 188.5 23.9 186.3 23.3C185.7 23.2 185.2 23.1 184.7 23.3C184 23.5 183.5 24 183.2 24.6C182.8 25.2 182.6 25.8 182.3 26.4C181.7 27.8 181.5 28.5 181.1 29.8C181 30.2 180.9 30.6 180.9 30.9C180.8 31.8 180.9 32.5 181.6 33.2C182.4 34 183.7 34.3 184.8 34.4Z" fill="#0A1640"/>
    <path d="M190.2 34.5C190.4 34 190.7 33.2 191.1 32.8C191.4 32.7 192.2 33.4 192.9 33.5C193.2 32.8 193.6 32.2 193.8 31.5C193.2 31.2 192.6 30.9 192.1 30.6C192.2 30 192.6 29.5 192.9 29C194.2 29.5 195.3 30.3 196.6 30.7C196.9 30 197.4 29.4 197.6 28.7C197.6 28.6 194 26.9 191.8 25.9C190 29 188.6 32.2 187 35.5C188.7 36.6 190.8 37.4 192.7 38.4C193.1 37.9 193.5 37.2 193.7 36.6C192.5 35.8 191.4 35.1 190.2 34.5Z" fill="#0A1640"/>
    <path d="M199.1 29.2001C198.5 30.0001 197.9 31.2001 197.9 31.4001C198.1 31.6001 199.1 32.1001 199.4 32.5001C196.6 37.6001 195.2 39.5001 195.1 39.6001C195.8 39.9001 196.6 40.6001 197.3 40.9001C200.8 35.0001 201.4 34.0001 201.6 33.8001C202.5 34.3001 202.9 34.5001 203.2 34.8001C203.7 34.2001 204.2 33.4001 204.5 32.8001C203 31.5001 200.9 30.3001 199.1 29.2001Z" fill="#0A1640"/>
    <path d="M16.1 33.0999C14.4 32.2999 12.5 31.9 11.1 31.7C10.9 29.3 10.4 27.3 9.7 25.7C9.5 25.4 9.2 25.2 8.9 25.2C8.5 25.2 8.2 25.4 8.1 25.7C7.4 27.3 6.9 29.3 6.7 31.7C5.3 31.8 3.3 32.2 1.7 33C1.3 33.2 1 33.5 1 33.9C1 34.3 1.2 34.5999 1.5 34.7999C2.8 35.4999 4.6 35.8999 6.5 36.0999C6.7 37.7999 7.3 42.0999 8.3 42.5999C8.4 42.6999 8.6 42.7 8.7 42.7C8.8 42.7 8.9 42.6999 9 42.5999C9.2 42.4999 9.4 42.2999 9.5 42.0999C10.2 40.4999 10.7 38.4999 10.8 36.0999C12.2 35.8999 14.2 35.5999 15.8 34.7999C16 34.6999 16.1 34.6 16.2 34.4C16.3 34.2 16.3 33.9 16.3 33.7C16.4 33.4 16.3 33.1999 16.1 33.0999Z" fill="#E38921"/>
    <path d="M68.6 27.1C68.7 27.2 68.9 27.2 69 27.2C69.1 27.2 69.2 27.2 69.3 27.1C69.5 27 69.7 26.8 69.8 26.6C70.5 25 71 23 71.1 20.6C72.5 20.4 74.5 20.1 76.1 19.3C76.3 19.2 76.4 19.1 76.5 18.9C76.7 18.4 76.5 17.9 76.1 17.6C74.4 16.8 72.5 16.4 71.1 16.2C70.9 13.8 70.4 11.8 69.7 10.2C69.5 9.89995 69.2 9.69995 68.9 9.69995C68.5 9.69995 68.2 9.89995 68.1 10.2C67.4 11.8 66.9 13.8 66.7 16.2C65.3 16.3 63.3 16.7 61.7 17.5C61.4 17.7 61.2 18 61.2 18.4C61.2 18.8 61.4 19.1 61.7 19.3C63 20 64.8 20.4 66.7 20.6C66.9 22.3 67.6 26.6 68.6 27.1Z" fill="#E38921"/>
    <path d="M77.5 189.7C75.8 188.9 73.9 188.5 72.5 188.3C72.3 185.9 71.8 183.9 71.1 182.3C70.9 182 70.6 181.8 70.3 181.8C69.9 181.8 69.6 182 69.5 182.3C68.8 183.9 68.3 185.9 68.1 188.3C66.7 188.4 64.7 188.8 63.1 189.6C62.8 189.8 62.6 190.1 62.6 190.5C62.6 190.9 62.8 191.2 63.1 191.4C64.4 192.1 66.2 192.5 68.1 192.7C68.3 194.4 68.9 198.7 69.9 199.2C70 199.3 70.2 199.3 70.3 199.3C70.4 199.3 70.5 199.3 70.6 199.2C70.8 199.1 71 198.9 71.1 198.7C71.8 197.1 72.3 195.1 72.4 192.7C73.8 192.5 75.8 192.2 77.4 191.4C77.6 191.3 77.7 191.2 77.8 191C78.1 190.5 77.9 189.9 77.5 189.7Z" fill="#E38921"/>
    <path d="M211.5 165.1C209.8 164.3 207.9 163.9 206.5 163.7C206.3 161.3 205.8 159.3 205.1 157.7C204.9 157.4 204.6 157.2 204.3 157.2C203.9 157.2 203.6 157.4 203.5 157.7C202.8 159.3 202.3 161.3 202.1 163.7C200.7 163.8 198.7 164.2 197.1 165C196.8 165.2 196.6 165.5 196.6 165.9C196.6 166.3 196.8 166.6 197.1 166.8C198.4 167.5 200.2 167.9 202.1 168.1C202.3 169.8 202.9 174.1 203.9 174.6C204 174.7 204.2 174.7 204.3 174.7C204.4 174.7 204.5 174.7 204.6 174.6C204.8 174.5 205 174.3 205.1 174.1C205.8 172.5 206.3 170.5 206.4 168.1C207.8 167.9 209.8 167.6 211.4 166.8C211.6 166.7 211.7 166.6 211.8 166.4C212.2 165.9 212 165.3 211.5 165.1Z" fill="#E38921"/>
    <path d="M198.8 203.2C197.4 202.5 195.9 202.2 194.7 202.1C194.5 200.2 194.2 198.5 193.6 197.2C193.5 196.9 193.2 196.7 192.8 196.7C192.5 196.7 192.2 196.9 192 197.2C191.4 198.5 191 200.2 190.9 202.1C189.7 202.2 188.1 202.5 186.8 203.2C186.5 203.3 186.3 203.6 186.3 204C186.3 204.3 186.5 204.6 186.8 204.8C187.9 205.4 189.3 205.7 190.9 205.9C191 207.2 191.5 210.9 192.5 211.3C192.6 211.4 192.7 211.4 192.8 211.4C193.1 211.4 193.4 211.2 193.6 210.9C194.2 209.6 194.6 207.9 194.7 206C195.9 205.9 197.5 205.6 198.8 204.9C199 204.8 199.1 204.7 199.2 204.5C199.3 203.9 199.2 203.4 198.8 203.2Z" fill="#E38921"/>
    <path d="M38.8 6.6C37.4 5.9 35.9 5.6 34.7 5.5C34.5 3.5 34.2 1.9 33.6 0.6C33.4 0.2 33.1 0 32.8 0C32.5 0 32.2 0.2 32 0.5C31.4 1.8 31 3.5 30.9 5.4C29.7 5.5 28.1 5.8 26.8 6.5C26.5 6.6 26.3 6.9 26.3 7.3C26.3 7.6 26.5 7.9 26.8 8.1C27.9 8.7 29.3 9 30.9 9.2C31 10.5 31.5 14.2 32.5 14.6C32.6 14.6 32.7 14.7 32.8 14.7C32.9 14.7 33 14.7 33.1 14.6C33.3 14.5 33.5 14.4 33.6 14.1C34.2 12.8 34.6 11.1 34.7 9.2C35.9 9.1 37.5 8.8 38.8 8.1C39 8 39.1 7.9 39.2 7.7C39.4 7.3 39.2 6.8 38.8 6.6Z" fill="#E38921"/>
  </g>
  <defs>
    <clipPath id="clip0_65_618">
      <rect width="212" height="211.2" fill="white"/>
    </clipPath>
  </defs>
</svg>