<svg xmlns="http://www.w3.org/2000/svg" width="221" height="214" viewBox="0 0 221 214" fill="none">
  <g clip-path="url(#clip0_65_346)">
    <path d="M200.8 34L219.5 162.9C219.9 165.5 218.1 168 215.4 168.4L24.7 195.9C22.1 196.3 19.6 194.5 19.2 191.8L0.599997 63C0.199997 60.4 2 57.9 4.7 57.5L195.3 29.9C196.2 29.8 197 29.9 197.8 30.2C199.3 30.8 200.5 32.2 200.8 34Z" fill="#332FBA"/>
    <path d="M180.9 43.3L197.8 159.6C198.2 162 196.5 164.3 194 164.6L30.7 188.3C28.3 188.7 26 187 25.7 184.5L8.80002 68.2C8.40002 65.8 10.1 63.5 12.6 63.2L175.9 39.5C176.7 39.4 177.5 39.5 178.2 39.8C179.6 40.3 180.7 41.6 180.9 43.3Z" fill="#00D4FC"/>
    <path opacity="0.25" d="M180.9 43.3L195.8 146.3L23.7 171.3C22.7 164.7 27.4 158.6 34 157.6L167.5 138.2C174.7 137.2 179.8 130.5 178.7 123.3L169 56.3C168 49.2 171.9 42.6 178.2 39.8C179.6 40.3 180.7 41.6 180.9 43.3Z" fill="#332FBA"/>
    <path opacity="0.75" d="M19.2 67.9001C21.9 78.6001 25.1 99.2001 25.6 111.9C25.6 113 24.1 113.2 23.8 112.2C21 100.8 18 80.2001 17.5 68.2001C17.5 67.2001 19 67.0001 19.2 67.9001Z" fill="white"/>
    <path d="M205.9 99C206.4 102.5 204 105.7 200.5 106.2C198.2 106.5 196 105.6 194.6 103.9C193.9 103 193.4 102 193.2 100.8C192.7 97.3 195.1 94.1 198.6 93.6C200.3 93.4 201.9 93.8 203.2 94.7C204.6 95.7 205.6 97.2 205.9 99Z" fill="#6B7FFF"/>
    <path opacity="0.25" d="M205.9 99.0001C206.4 102.5 204 105.7 200.5 106.2C198.2 106.5 196 105.6 194.6 103.9C196.2 103.7 197.6 103.2 198.8 102.4C201.6 100.5 202.9 97.7001 203.2 94.7001C204.6 95.7001 205.6 97.2001 205.9 99.0001Z" fill="#0A1640"/>
    <path d="M220 162.7L201.3 33.9001C201 32.0001 199.8 30.4001 198 29.7001C197.1 29.4001 196.2 29.2001 195.2 29.4001L4.59999 57.0001C1.69999 57.4001 -0.400015 60.2001 0.0999853 63.1001L18.8 192C19.2 194.7 21.5 196.6 24.1 196.6C24.4 196.6 24.6 196.6 24.9 196.5L215.5 168.9C216.9 168.7 218.2 167.9 219 166.8C219.8 165.6 220.2 164.1 220 162.7ZM218.1 166.1C217.4 167 216.4 167.6 215.3 167.8L24.7 195.4C22.3 195.7 20.2 194.1 19.8 191.8L1.09999 62.9001C0.799985 60.6001 2.39999 58.4001 4.69999 58.0001L195.3 30.4001C195.5 30.4001 195.7 30.4001 195.9 30.4001C196.4 30.4001 197 30.5001 197.5 30.7001C198.9 31.3001 199.9 32.6001 200.2 34.1001L218.9 163C219.1 164 218.8 165.2 218.1 166.1Z" fill="#0A1640"/>
    <path d="M181.5 43.2001C181.2 41.4001 180.1 39.9001 178.4 39.3001C177.6 39.0001 176.7 38.9001 175.8 39.0001L12.5 62.6001C9.79997 63.0001 7.89997 65.5001 8.29997 68.2001L25.2 184.5C25.4 185.8 26.1 187 27.2 187.8C28.1 188.5 29.1 188.8 30.2 188.8C30.4 188.8 30.7 188.8 30.9 188.7L194.2 165C195.5 164.8 196.7 164.1 197.5 163C198.3 161.9 198.6 160.6 198.4 159.3L181.5 43.2001ZM196.5 162.5C195.9 163.3 195 163.9 193.9 164L30.6 187.7C29.6 187.8 28.5 187.6 27.7 187C26.9 186.4 26.3 185.5 26.2 184.4L9.29997 68.1001C8.99997 66.0001 10.5 64.0001 12.7 63.7001L176 40.0001C176.2 40.0001 176.4 40.0001 176.6 40.0001C177.1 40.0001 177.6 40.1001 178.1 40.3001C179.4 40.8001 180.3 42.0001 180.5 43.4001L197.4 159.7C197.4 160.6 197.1 161.7 196.5 162.5Z" fill="#0A1640"/>
    <path d="M203.5 94.3001C202.1 93.3001 200.3 92.9 198.5 93.1C194.7 93.6 192.1 97.2001 192.6 100.9C192.8 102.1 193.3 103.3 194.1 104.3C195.4 105.9 197.4 106.9 199.5 106.9C199.8 106.9 200.2 106.9 200.5 106.8C202.3 106.5 203.9 105.6 205.1 104.1C206.2 102.6 206.7 100.8 206.4 99.0001C206.1 97.0001 205.1 95.3001 203.5 94.3001ZM204.3 103.4C203.4 104.7 202 105.5 200.4 105.7C198.3 106 196.3 105.2 195 103.6C194.3 102.8 193.9 101.8 193.7 100.7C193.2 97.5 195.5 94.5 198.7 94.1C199 94.1 199.3 94.0001 199.6 94.0001C200.8 94.0001 202 94.4 203 95.1C204.3 96 205.2 97.5 205.4 99.1C205.6 100.6 205.2 102.2 204.3 103.4Z" fill="#0A1640"/>
    <path d="M147.4 135.2C145.9 133.5 122.3 110.6 122.3 110.6C123.6 106.2 120.4 100.6 116.2 99.0999C112.6 97.7999 109.3 100.8 108.7 104.3C108 109 112.8 115.1 117.2 115.1C119.5 119.8 129.3 134.5 133.9 140.7C135.9 143.3 137.9 146.7 141 148C144.2 149.4 148 147.8 149.6 144.8C151.7 141.4 149.8 137.9 147.4 135.2Z" fill="#C05E46"/>
    <path d="M143.6 149.1C142.7 149.1 141.8 148.9 140.9 148.6C138.1 147.4 136.1 144.7 134.4 142.2C134.1 141.8 133.8 141.4 133.6 141.1C128.8 134.6 119.5 120.6 117 115.7C115 115.6 112.8 114.3 111.1 112.3C109 109.9 107.9 106.8 108.3 104.4C108.6 102.3 109.9 100.3 111.7 99.3C113.2 98.4 114.9 98.2 116.5 98.8C121.1 100.4 124.2 106.1 123 110.6C125.6 113.1 146.4 133.3 147.9 135C151.2 138.7 152 142.1 150.3 145.2C148.9 147.6 146.3 149.1 143.6 149.1ZM117.3 114.6C117.5 114.6 117.7 114.7 117.8 114.9C120 119.4 129.7 134 134.5 140.4C134.8 140.8 135.1 141.2 135.3 141.6C137 143.9 138.8 146.5 141.4 147.6C144.3 148.8 147.8 147.5 149.3 144.6C150.7 141.9 150 138.9 147.1 135.6C145.6 133.9 122.3 111.3 122.1 111.1C122 111 121.9 110.8 122 110.6C123.2 106.6 120.3 101.2 116.2 99.8C114.5 99.2 113.1 99.7 112.3 100.2C110.8 101.1 109.7 102.8 109.4 104.6C109.1 106.8 110 109.5 111.9 111.7C113.5 113.5 115.5 114.6 117.3 114.6Z" fill="#0A1640"/>
    <path d="M122.1 103.1L120.2 105.4L113.5 113.2L112.4 114.5L110.1 117.2C109.4 118 108.3 118.1 107.4 117.5L106.2 116.5C105.4 115.9 105.2 114.7 105.8 113.9L107.9 111L108.9 109.6L111.6 105.9L116.7 98.8L122.1 103.1Z" fill="white"/>
    <path opacity="0.18" d="M122.1 103.1L120.2 105.4C117.7 106.4 115 107.3 112.1 106.2C111.9 106.1 111.7 106 111.5 105.9L116.6 98.8L122.1 103.1Z" fill="#0A1640"/>
    <path d="M134.6 91.3C132.5 93.9 128.7 94.4 126.1 92.3C124.8 91.3 124.1 89.9 123.8 88.5C123.5 86.9 123.9 85.2 125 83.8C127.1 81.2 130.9 80.7 133.5 82.8C134.1 83.3 134.6 83.9 135 84.6C136.3 86.6 136.2 89.2 134.6 91.3Z" fill="#6B7FFF"/>
    <path d="M134.5 92.6C134.2 92.6 133.9 92.5 133.7 92.3L124.3 84.9C123.7 84.4 123.6 83.6 124.1 83C124.4 82.7 124.8 82.5 125.2 82.5C125.5 82.5 125.8 82.6 126 82.8L135.4 90.2C136 90.7 136.1 91.5 135.6 92.1C135.3 92.4 134.9 92.6 134.5 92.6Z" fill="#332FBA"/>
    <path d="M131.9 98L126.8 104.6C126.2 105.4 125.2 105.5 124.4 104.9L122.1 103.1L116.5 98.8L114.3 97.1C113.7 96.6 113.5 95.8 113.7 95.1C113.8 95 113.8 94.8 113.9 94.7L119 88.1C119.6 87.3 120.6 87.2 121.4 87.8L131.5 95.6C131.6 95.7 131.6 95.7 131.7 95.8C132.3 96.4 132.4 97.3 131.9 98Z" fill="#332FBA"/>
    <g opacity="0.25">
      <path d="M135.1 84.5C132.6 86.9 129.9 88.9 126.2 88.8C125.5 88.8 124.6 88.7 123.8 88.5C124 90 124.8 91.3 126.1 92.3C128.3 94 131.4 94 133.5 92.4C133.9 92.1 135.4 92.3 135.8 91.9C136.1 91.5 135.2 90.5 135.4 90C136.2 88.2 136 86.1 135.1 84.5Z" fill="#0A1640"/>
      <path d="M123.8 99C121.4 97.2 117 92.6 113.8 95.2C113.5 95.9 113.7 96.7 114.4 97.2L124.5 105C125.2 105.6 126.3 105.4 126.9 104.7L132 98.1C132.5 97.4 132.4 96.5 131.9 95.9C127.6 96.1 127.7 102 123.8 99Z" fill="#0A1640"/>
    </g>
    <path d="M105.7 113.9C105.1 114.7 105.3 115.9 106.1 116.5L107.3 117.5C108.1 118.1 109.3 118 109.9 117.2L112.2 114.5L107.7 110.9L105.7 113.9Z" fill="#D811AD"/>
    <path d="M125.2 93.5001C123.6 92.3001 121.3 92.6001 120.1 94.2001C118.9 95.8001 119.2 98.1001 120.8 99.3001C122.4 100.5 124.7 100.2 125.9 98.6001C127.1 97.0001 126.8 94.7001 125.2 93.5001Z" fill="#D811AD"/>
    <path d="M135.5 84.2001C135.1 83.5001 134.5 82.8001 133.8 82.3001C131.4 80.5001 128.2 80.5001 125.9 82.1001C125.6 82.0001 125.3 81.9001 125.1 81.9001C124.5 81.9001 124 82.2001 123.6 82.6001C123.3 83.0001 123.1 83.5001 123.2 84.0001C123.2 84.4001 123.4 84.7001 123.6 85.0001C123.2 86.1001 123 87.3001 123.2 88.5001L121.6 87.3001C121.1 86.9001 120.5 86.8001 119.9 86.9001C119.3 87.0001 118.8 87.3001 118.4 87.8001L113.3 94.4001C113.2 94.6001 113.1 94.8001 113 94.9001C112.6 95.8001 112.9 96.9001 113.7 97.5001L115.5 98.9001L110.7 105.6L107.1 110.6L107 110.7L104.9 113.6C104.1 114.7 104.3 116.2 105.4 117L106.6 118C106.8 118.2 107.1 118.3 107.3 118.4C107.5 118.5 107.8 118.5 108.1 118.5C108.7 118.5 109.3 118.3 109.8 117.8C109.9 117.7 109.9 117.7 110 117.6L112.3 114.9V114.8L121.7 103.8L123.6 105.3C124 105.6 124.5 105.8 124.9 105.8C125 105.8 125.1 105.8 125.2 105.8C125.8 105.7 126.3 105.4 126.7 104.9L131.7 98.3001C132.4 97.4001 132.3 96.2001 131.6 95.4001C131.5 95.3001 131.4 95.2001 131.3 95.1001L129.9 94.0001C130 94.0001 130 94.0001 130 94.0001C131.1 93.9001 132.2 93.4001 133.1 92.8001C133.4 92.9001 133.7 93.0001 133.9 93.0001C134.5 93.0001 135 92.7001 135.4 92.3001C136 91.6001 135.9 90.5001 135.3 89.9001C136.7 88.1001 136.6 86.0001 135.5 84.2001ZM129.8 82.0001C131 82.0001 132.2 82.4001 133.2 83.2001C133.8 83.6001 134.2 84.2001 134.6 84.8001C135.1 85.7001 135.3 86.6001 135.3 87.6001C135.3 88.2001 135.2 88.8001 135 89.3001L126.8 82.9001C127.8 82.2001 128.8 82.0001 129.8 82.0001ZM109.6 116.9C109.2 117.3 108.6 117.5 108.1 117.3C107.9 117.2 107.8 117.2 107.7 117.1L106.5 116.1L106.4 116L106.3 115.9C105.9 115.4 105.9 114.7 106.2 114.2L108 111.8L111.7 114.7L109.6 116.9ZM113.1 112.9L112.3 113.8L108.6 110.9L116.7 99.6001L121.4 103.2L113.1 112.9ZM131.2 96.0001L131.3 96.1001C131.7 96.5001 131.7 97.2001 131.4 97.6001L126.3 104.2C126.1 104.4 125.8 104.6 125.5 104.6C125.2 104.6 124.9 104.5 124.6 104.4L122.7 103L121.9 102.4L117.1 98.7001L116.3 98.0001L114.5 96.7001C114.1 96.4001 113.9 95.8001 114.1 95.4001C114.1 95.3001 114.2 95.2001 114.3 95.1001L119.4 88.5001C119.6 88.3001 119.9 88.1001 120.2 88.1001C120.3 88.1001 120.3 88.1001 120.4 88.1001C120.7 88.1001 120.9 88.2001 121.1 88.3001L123.9 90.4001L128.7 94.0001L131.2 96.0001ZM130.5 93.0001C130 93.1001 129.5 93.1001 129.1 93.0001L124.8 89.7001C124.6 89.3001 124.5 88.9001 124.4 88.4001C124.3 87.5001 124.3 86.6001 124.6 85.8001L132.8 92.2001C132.1 92.6 131.3 92.9001 130.5 93.0001ZM135.2 91.7001C135.1 91.9001 134.9 92.0001 134.7 92.0001H134.6C134.4 92.0001 134.2 91.9001 134.1 91.8001L133.7 91.5001L125.1 84.8001L124.7 84.5001C124.5 84.3001 124.4 84.1001 124.4 83.9001C124.4 83.7001 124.4 83.5001 124.6 83.3001C124.7 83.1001 124.9 83.0001 125.1 83.0001H125.2C125.4 83.0001 125.6 83.1001 125.7 83.2001L126.1 83.5001L134.7 90.3001L135.1 90.6001C135.3 90.8001 135.4 91.0001 135.4 91.2001C135.4 91.3001 135.3 91.5001 135.2 91.7001Z" fill="#0A1640"/>
    <path d="M125.5 93.0001C124.6 92.3001 123.5 92.0001 122.4 92.2001C121.9 92.3001 121.3 92.4001 120.9 92.7001C120.4 93.0001 120 93.3001 119.7 93.8001C119.1 94.6001 118.8 95.6001 118.9 96.6001C118.9 96.7001 118.9 96.8001 118.9 96.9001C119.1 98.0001 119.6 99.0001 120.5 99.7001C121.2 100.3 122.1 100.6 123 100.6C123.2 100.6 123.4 100.6 123.6 100.6C123.7 100.6 123.8 100.6 123.8 100.6C124.8 100.4 125.7 99.9001 126.3 99.0001C126.6 98.6001 126.9 98.1001 127 97.6001C127.2 97.1001 127.2 96.5001 127.1 95.9001C126.9 94.7001 126.4 93.7001 125.5 93.0001ZM125.9 97.4001C125.8 97.7001 125.6 98.0001 125.4 98.3001C124.9 99.0001 124.2 99.4001 123.3 99.5001C122.5 99.6001 121.6 99.4001 121 98.9001C120.3 98.4001 119.9 97.7001 119.8 96.8001C119.7 95.9001 119.9 95.1001 120.4 94.5001C120.6 94.2001 120.9 93.9001 121.2 93.7001C121.6 93.5001 122 93.3001 122.4 93.2001C122.5 93.2001 122.7 93.2001 122.8 93.2001C122.9 93.2001 123 93.2001 123 93.2001C123.6 93.2001 124.2 93.5001 124.6 93.8001C125.1 94.2001 125.5 94.7001 125.7 95.3001C125.8 95.5001 125.8 95.7001 125.8 95.9001C126.1 96.4001 126.1 96.9001 125.9 97.4001Z" fill="#0A1640"/>
    <path d="M122.3 104.3C121.3 100.9 118.2 98.1 114.9 97C113.9 96.7 112 96.2 112 97.8C112 98 112 98.1 112.1 98.3C111.3 98.2 110.7 98.5 110.4 99.1C110.2 99.5 110.2 99.9 110.3 100.4C110 100.4 109.8 100.5 109.6 100.6C109.2 100.8 108.9 101.1 108.8 101.6C108.7 101.9 108.7 102.2 108.8 102.6H108.7C108.2 102.7 107.7 103.1 107.5 103.6C107.3 104.1 107.4 104.8 107.7 105.3L107.8 105.4C107.5 105.5 107.2 105.6 107.1 105.8C106.8 106.2 106.8 106.6 106.9 107.1C107.2 108.1 108.4 108.9 109.3 109.2C110 109.4 110.6 109.3 111 108.9C111.3 108.6 111.4 108.2 111.3 107.7C111.3 107.6 111.3 107.6 111.2 107.5C112.2 107.7 112.7 107.3 113 106.9C113.3 106.4 113.4 105.9 113 105.3C113.1 105.3 113.2 105.3 113.3 105.3C113.7 105.2 114.1 105 114.3 104.6C114.5 104.2 114.5 103.8 114.4 103.5C114.3 103.3 114.2 103.1 114.1 102.9C114.7 102.8 115.1 102.6 115.3 102.1C115.3 102 115.4 101.9 115.4 101.9C116 102.3 116.1 102.3 116 102.6C115.2 104.2 115.2 107.8 116.3 109.2L122.2 110.6C122.9 108.4 122.9 106.2 122.3 104.3Z" fill="#C05E46"/>
    <path d="M122.8 104.1C121.8 100.8 118.7 97.7 115.1 96.4C113.7 95.9 112.7 95.9 112.1 96.3C111.8 96.5 111.5 96.9 111.5 97.6C110.8 97.7 110.2 98 109.9 98.6C109.7 98.9 109.6 99.3 109.7 99.7C109.6 99.7 109.5 99.8 109.4 99.8C108.9 100.1 108.5 100.5 108.4 101.1C108.3 101.3 108.3 101.5 108.3 101.8C107.8 102 107.3 102.5 107.1 103C106.9 103.5 106.9 104.2 107.2 104.7C107 104.8 106.9 104.9 106.8 105.1C106.4 105.6 106.3 106.2 106.5 106.8C106.9 107.9 108.1 108.8 109 109.1C109.1 109.1 109.1 109.1 109.2 109.2C109.4 109.2 109.5 109.3 109.7 109.3C109.8 109.3 109.9 109.3 110.1 109.3C110.6 109.3 111.1 109.1 111.5 108.7C111.8 108.4 112 108 112 107.6C112.9 107.6 113.4 107 113.6 106.7C113.7 106.6 113.7 106.5 113.8 106.4C114 106 114 105.6 114 105.3C114.4 105.2 114.8 104.8 115.1 104.4C115.4 103.9 115.4 103.3 115.2 102.8V102.7C115.4 102.6 115.5 102.5 115.6 102.4C115 104.3 115.1 107.5 116.2 109C116.4 109.2 116.7 109.3 117 109.1C117.2 108.9 117.3 108.6 117.1 108.3C116.1 107 116.1 103.7 116.8 102.2C117.1 101.6 116.8 101.4 116.3 101C116.2 101 116.2 100.9 116.1 100.9C116.1 100.9 116 100.8 115.9 100.8C115.8 100.7 115.7 100.7 115.5 100.6C115.4 100.6 115.4 100.5 115.3 100.5C115.3 100.5 115.2 100.5 115.2 100.4C115.1 100.4 115.1 100.3 115 100.3C114.2 99.7 113.5 99.2 113.1 98.7C113 98.6 113 98.5 112.9 98.4C112.8 98.3 112.8 98.2 112.8 98.2C112.7 98.1 112.7 97.9 112.6 97.8C112.6 97.7 112.6 97.7 112.6 97.6C112.6 97.5 112.6 97.5 112.6 97.4C112.6 97.1 112.7 97 112.8 96.9C112.9 96.8 113.4 96.6 114.8 97.1C118.1 98.3 121 101 121.8 104.1C122.4 106 122.4 108 122 109.9C121.9 110.2 122.1 110.5 122.4 110.5H122.5C122.7 110.5 123 110.3 123 110.1C123.5 108.4 123.4 106.2 122.8 104.1ZM114 103.1C114.1 103.2 114.1 103.3 114.2 103.4C114.3 103.7 114.2 103.9 114.1 104.1C114 104.3 113.7 104.5 113.5 104.5C113.4 104.3 113.2 104.1 113 103.8C112.7 103.5 112.3 103.1 111.8 102.8C111.3 102.5 110.6 102 109.9 101.8C109.8 101.8 109.8 101.8 109.7 101.7C109.6 101.7 109.5 101.7 109.4 101.7C109.4 101.4 109.5 100.9 109.9 100.7C110 100.7 110.1 100.6 110.2 100.6C110.4 100.6 110.6 100.6 110.8 100.6H110.9C111 100.6 111.1 100.6 111.2 100.7C112 100.9 112.9 101.5 113.5 102.3C113.6 102.4 113.6 102.5 113.7 102.5C113.8 102.8 113.9 103 114 103.1ZM112.7 106.4C112.5 106.7 112.1 106.9 111.7 106.9C111.6 106.7 111.5 106.5 111.3 106.3C110.7 105.6 109.9 105 109.1 104.8C109 104.8 108.9 104.8 108.8 104.7C108.6 104.6 108.4 104.6 108.2 104.6C108 104.3 108 103.9 108.1 103.6C108.2 103.3 108.4 103 108.8 102.9H108.9C109 102.9 109.2 102.9 109.3 102.9H109.4H109.5C110.1 103.1 110.7 103.5 111.1 103.8C111.4 104 111.8 104.3 112.1 104.6L112.2 104.7C112.4 104.9 112.6 105.2 112.7 105.5C112.9 105.8 112.9 106.1 112.7 106.4ZM109.5 108.4C108.6 108.1 107.7 107.3 107.5 106.7C107.4 106.4 107.4 106.1 107.6 105.9C107.7 105.8 107.8 105.7 107.9 105.7C108.1 105.6 108.4 105.6 108.7 105.7L108.8 105.5V105.7H108.9H109C109.5 105.9 110.1 106.2 110.5 106.7C110.6 106.8 110.6 106.9 110.7 106.9C110.9 107.1 111 107.3 111 107.5C111.1 107.8 111 108 110.8 108.1C110.4 108.6 109.9 108.5 109.5 108.4ZM114.6 101.7C114.7 101.8 114.8 101.9 114.9 101.9C114.8 102 114.7 102.1 114.6 102.1C114.5 102 114.5 101.9 114.4 101.9C113.6 101 112.5 100.2 111.5 99.9C111.3 99.8 111 99.8 110.8 99.8C110.8 99.5 110.9 99.3 111 99.1C111.2 98.9 111.4 98.8 111.7 98.8C112 99.7 113 100.7 114.6 101.7Z" fill="#0A1640"/>
    <path d="M182.6 166.2C181.1 160.2 179.8 154.4 179.1 148.7C177.9 139.8 178 130.9 179.9 121.4C180.2 119.9 180.5 118.4 180.7 117.1C183.2 110.1 183.4 103.9 180.7 99.1001C179.4 96.2001 176.9 94.1001 172.9 92.4001C170.5 91.4001 168 90.6001 165.4 90.1001C161.9 89.4001 158.2 89.2001 154.6 89.6001C153.7 89.7001 152.7 89.8001 151.8 90.0001C150.1 90.3001 148.6 90.8001 147 91.4001C140.4 94.2001 135.4 99.7001 133.9 107.1C133 111.3 132.6 115.9 132.5 120.5C132.4 124.4 132.6 128.4 132.8 132.3C133 134.9 133.2 137.4 133.4 139.9C133.5 141 133.6 142.2 133.7 143.3C133.8 144.5 133.9 145.6 134 146.7C134.3 149.5 134.6 152.3 134.8 155.2C135.1 159 135.3 162.8 135.3 166.6C135.3 168.6 135.4 170.8 135.3 173.2L182.6 166.2Z" fill="#D811AD"/>
    <path opacity="0.25" d="M180.6 116.9C179.6 124 176.8 132 179 148.6C179.7 154.4 181 160.2 182.5 166.1L137.4 172.6C141.4 168.9 147 167.5 152.3 165.9C174.6 159.3 165.1 150.4 174.6 129.2C175 128.3 176.5 128.9 177 128.1C177.6 127.2 177.2 125.2 177.7 124.3C179.4 121.7 179.9 119.4 180.6 116.9Z" fill="#0A1640"/>
    <path d="M167.1 128.3C164.4 127.6 160.5 125.9 158.2 124.1C155.5 129.2 153.4 133.3 151.9 136.3C146.1 135.6 135.5 132.8 124.8 130.4C124.3 128.8 123.3 127 121.5 125.2C120.9 124.6 116.9 120.7 115.9 122.4C115.2 123.5 118.4 126.2 117.4 127C116.8 127.5 115.5 126.9 114.7 126.4C110.4 124.2 107.7 120.8 106.7 122.6C106.3 123.3 107.1 124.3 108.1 125.2C107.4 124.8 106.7 124.3 106.1 123.8C105.3 123.3 104.6 123.3 104.2 123.7C103.5 124.4 104.4 125.6 105.7 126.7C105.2 126.3 104.5 126 103.9 125.9C103.1 125.9 102.8 126.6 103.2 127.2C104 128.6 106.8 130.7 108.3 131.6C108.3 131.6 108.4 131.6 108.4 131.7C107.7 131.3 106.9 130.8 106.1 130.7C105.5 130.6 104.7 130.8 104.7 131.6C104.7 132.9 110.2 135.5 111.3 136C114.4 137.3 118 138.2 121.1 137.1C129.8 141.9 149.6 150.9 158.5 149.2C163.6 148.2 169.3 137.3 173.1 129.2C171.1 129.3 169.3 128.9 167.1 128.3Z" fill="#C05E46"/>
    <path d="M146.1 87.0002C149 92.1002 143 98.6002 148.3 100.9C150.9 102 154.1 100.9 156.3 99.6002C161.6 96.5002 165.2 89.9002 165.2 89.9002C165.2 89.9002 165.1 89.9002 165.1 89.8002C160.5 87.5002 160.9 86.0002 160.2 80.7002C159.7 76.9002 155 79.2002 152.4 80.3002C150 81.3002 144.7 82.6002 145.7 86.0002C145.8 86.4002 146.1 87.0002 146.1 87.0002Z" fill="#C05E46"/>
    <path d="M175.6 123.5L171.8 122.4C161.5 119.5 160.5 118.1 160.1 118.7C160 118.9 160 119.1 160.2 119.2C163.4 121.4 167.7 123 171.5 123.7C172.8 124 174.2 124.1 175.5 124.2C176 124.3 176 123.6 175.6 123.5Z" fill="#FF8CDB"/>
    <path d="M157.9 102.1C157.9 102.1 155.7 103 154 103.4C151.5 104 148.7 104.2 146.4 103C144.6 102.1 143.6 100.7 143.4 100.5C143.1 100.2 142.6 100.5 142.8 100.9C144.9 105.7 151.7 107.5 158.4 102.8C158.6 102.5 158.3 101.9 157.9 102.1Z" fill="#FF8CDB"/>
    <path opacity="0.25" d="M145.8 86.2001C145.9 86.5001 146 86.7001 146.1 87.0001C146.1 87.1001 146.2 87.2001 146.2 87.3001C146.3 87.4001 146.3 87.6001 146.4 87.7001C146.8 88.8001 147 90.0001 146.9 91.2001C146.9 91.5001 146.9 91.8001 146.8 92.1001C146.8 92.4001 146.7 92.6001 146.7 92.9001C147.5 92.9001 148.3 92.7001 149 92.6001C152.4 91.8001 156.2 88.9001 156.3 85.6001C156.3 85.5001 154.9 85.7001 154.7 85.7001C150.8 86.0001 147.9 86.1001 145.8 86.2001Z" fill="#0A1640"/>
    <path d="M183.1 166.1C181.4 159.4 180.2 153.9 179.6 148.6C178.4 139.1 178.6 130.2 180.4 121.5C180.7 120 181 118.6 181.2 117.2C183.7 110.2 183.8 104.1 181.5 99.5001C181.4 99.3001 181.3 99.1001 181.2 98.9001V98.8001C179.8 95.8001 177.3 93.6001 173.1 91.8001C170.7 90.8001 168.3 90.0001 165.8 89.5001C165.7 89.5001 165.7 89.4001 165.6 89.4001L165.5 89.3001L165.3 89.2001L164.9 89.0001C164.6 88.8001 164.4 88.7001 164.1 88.5001C163.6 88.2001 163.1 87.8001 162.7 87.4001C161.9 86.6001 161.6 85.5001 161.4 84.2001C161.2 83.0001 161.1 81.7001 160.9 80.5001C160.8 79.8001 160.5 79.0001 159.8 78.6001C159.1 78.2001 158.3 78.1001 157.7 78.2001C156.3 78.3001 155.1 78.8001 153.9 79.3001L152 80.0001L150.2 80.7001C149 81.2001 147.8 81.6001 146.7 82.5001C146.2 82.9001 145.6 83.4001 145.3 84.1001C145 84.8001 145 85.5001 145.1 86.2001C145.1 86.4001 145.2 86.4001 145.2 86.5001L145.3 86.7001L145.4 86.9001L145.5 87.0001V87.1001C146.1 88.2001 146.3 89.5001 146.3 90.8001C139.4 93.8001 134.6 99.6001 133.1 106.7C132.3 110.7 131.8 115.1 131.7 120.2C131.6 123.5 131.7 127.2 132 131.3C129.7 130.8 127.4 130.2 125.1 129.7C124.5 128 123.4 126.3 121.8 124.6C121.4 124.2 118.2 121 116.4 121.2C116 121.3 115.6 121.5 115.4 121.8C114.9 122.6 115.6 123.7 116.2 124.7C116.4 125.1 117.1 126.2 117 126.3C116.7 126.6 115.5 126 114.9 125.7H114.8C113.2 124.9 111.8 123.9 110.7 123.1C109 121.9 107.9 121.1 107 121.4C106.6 121.5 106.3 121.7 106.1 122.1C105.9 122.4 105.9 122.7 105.9 122.9C105 122.4 104.1 122.6 103.7 123.1C103.4 123.4 103.3 123.8 103.3 124.1C103.3 124.4 103.4 124.8 103.7 125.2C103.2 125.2 102.8 125.4 102.6 125.8C102.3 126.2 102.3 126.8 102.6 127.3C103 128 103.8 128.9 105.2 130C104.9 130.1 104.7 130.2 104.4 130.3C104.1 130.5 103.9 130.9 104 131.4C104.1 133.3 110.8 136.2 110.9 136.3C114.8 138 118.1 138.4 120.9 137.5C123.6 138.9 127.9 141.1 132.9 143.3C133 143.9 133 144.5 133.1 145.1L133.2 146.5C133.5 149 133.7 152 134 155C134.3 159.2 134.5 162.9 134.5 166.4C134.5 167 134.5 167.7 134.5 168.4C134.5 169.9 134.5 171.4 134.5 173C134.5 173.2 134.6 173.3 134.7 173.4C134.8 173.5 134.9 173.5 135.1 173.5C135.1 173.5 135.1 173.5 135.2 173.5L182.5 166.6C182.6 166.6 182.8 166.5 182.9 166.4C183.1 166.4 183.1 166.2 183.1 166.1ZM146.3 86.2001V86.1001V86.0001C146.2 85.5001 146.2 85.0001 146.4 84.5001C146.6 84.0001 147 83.6001 147.5 83.3001C148.4 82.6001 149.6 82.1001 150.7 81.6001L152.5 80.9001L154.3 80.2001C155.4 79.7001 156.6 79.3001 157.7 79.2001C158.3 79.2001 158.8 79.2001 159.2 79.4001C159.6 79.6001 159.8 80.1001 159.9 80.6001C160.1 81.8001 160.2 83.1001 160.4 84.3001C160.5 84.9001 160.6 85.6001 160.9 86.2001C161.1 86.9001 161.5 87.5001 162 88.0001C162.3 88.4001 162.7 88.7001 163.1 88.9001C163.2 89.0001 163.4 89.1001 163.6 89.2001C163.9 89.4001 164.2 89.5001 164.4 89.7001L164.8 89.9001H164.9L164.8 90.1001L164.6 90.4001C164.4 90.7001 164.2 91.0001 164 91.3001C163.6 91.9001 163.1 92.5001 162.7 93.1001C161.8 94.3001 160.7 95.4001 159.6 96.4001C158.5 97.4001 157.3 98.3001 156 99.1001C154.7 99.8001 153.3 100.3 151.8 100.5C151.1 100.6 150.4 100.6 149.7 100.4C149 100.2 148.3 99.9001 147.8 99.5001C147.3 99.1001 147 98.5001 146.8 97.8001C146.7 97.1001 146.7 96.4001 146.8 95.7001C147 94.3001 147.4 92.8001 147.5 91.3001C147.5 91.2001 147.5 91.2001 147.5 91.1001C147.5 90.8001 147.6 90.4001 147.6 90.1001C147.6 88.9001 147.4 87.6001 146.8 86.4001V86.3001V86.2001L146.7 86.0001L146.3 86.2001ZM132.9 120.4C133 115.4 133.4 111 134.3 107.1C135.7 100.5 140 95.1001 146.3 92.2001C146.1 93.4001 145.8 94.7001 145.7 96.0001C145.6 96.8001 145.5 97.6001 145.7 98.5001C145.8 99.3001 146.3 100.2 147 100.7C148.4 101.8 150.1 102 151.7 101.8C153.3 101.6 154.8 101 156.2 100.3C157.6 99.5001 158.8 98.6001 160 97.5001C161.1 96.4001 162.2 95.3001 163.1 94.0001C163.6 93.4001 164 92.8001 164.5 92.1001C164.7 91.8001 164.9 91.4001 165.1 91.1001L165.4 90.6001C166.4 90.8001 167.3 91.0001 168.3 91.3001C168.4 91.4001 168.5 91.5001 168.6 91.5001C174.1 92.9001 178 95.5001 180.1 99.2001L180.2 99.3001C180.3 99.5001 180.4 99.7001 180.5 99.9001C182.7 104.3 182.6 110.1 180.1 116.8C179.8 117.6 179.5 118.4 179.2 119.2C178 122.1 177.1 124 176.6 127.4V127.5C176.5 128.1 176.5 128.1 175.8 128.3C175.2 128.4 174.6 128.5 174.1 128.6C173.7 128.6 173.3 128.7 172.9 128.7C171.1 128.7 169.3 128.3 167.3 127.7C164.8 127 161.2 125.5 159 123.9C158.7 123.7 158.4 123.5 158.1 123.2C157.6 122.8 157.2 122.3 157 121.9C156.8 121.5 156.9 121.3 157 121.1C158.8 117.6 160 114 161 110.9C161.7 108.8 162.3 106.8 163.1 105.1C163.2 104.8 163.1 104.5 162.8 104.4C162.5 104.3 162.2 104.4 162.1 104.7C161.3 106.5 160.7 108.5 160 110.6C159 113.7 157.8 117.2 156.1 120.7C155.8 121.2 155.8 121.8 156.1 122.4C156.4 123 156.9 123.6 157.6 124.2C155.1 129 153.1 132.8 151.7 135.6C147.6 135 141.3 133.6 134.1 131.9C133.8 131.8 133.5 131.8 133.2 131.7C132.9 127.5 132.8 123.8 132.9 120.4ZM133 142.4C128.7 140.5 124.6 138.5 121.4 136.8C121.3 136.8 121.2 136.7 121.1 136.7C121 136.7 121 136.7 120.9 136.7C118.3 137.6 115.2 137.3 111.4 135.6C109 134.6 105.2 132.4 105.1 131.7C105.1 131.6 105.1 131.5 105.2 131.5C105.3 131.4 105.6 131.3 105.9 131.4C106.6 131.5 107.3 131.9 108.1 132.3C108.1 132.3 108.1 132.3 108.2 132.3C110 133.4 111.4 133.6 111.5 133.6C111.5 133.6 111.5 133.6 111.6 133.6C111.9 133.6 112.1 133.4 112.1 133.2C112.2 132.9 112 132.6 111.7 132.6C111.7 132.6 110.3 132.4 108.7 131.4L108.6 131.3C105.9 129.4 104.2 128 103.7 127.1C103.6 126.9 103.6 126.7 103.6 126.6C103.7 126.5 103.8 126.5 103.9 126.5C104.3 126.5 104.7 126.7 105.3 127.1C105.5 127.2 109.2 130.6 112.7 131.5C112.8 131.5 112.8 131.5 112.8 131.5C113 131.5 113.3 131.3 113.3 131.1C113.4 130.8 113.2 130.5 112.9 130.5C109.9 129.8 106.6 126.9 106.1 126.4C106.1 126.4 106.1 126.3 106 126.3C104.7 125.1 104.4 124.5 104.4 124.3C104.4 124.2 104.4 124.1 104.5 124C104.7 123.8 105.2 123.8 105.7 124.1C106.3 124.5 106.9 124.9 107.7 125.5C108.3 126 111.7 129 115 129.8H115.1C115.3 129.8 115.5 129.6 115.6 129.4C115.7 129.1 115.5 128.8 115.2 128.7C112.2 128 108.9 125.1 108.4 124.6C108.3 124.6 108.3 124.5 108.3 124.5C106.8 123.2 106.9 122.7 107 122.5C107.1 122.3 107.2 122.3 107.2 122.3C107.7 122.2 108.9 123.1 110 123.9C111.2 124.7 112.6 125.7 114.2 126.6H114.3C115.2 127.1 116.6 127.8 117.5 127C118.4 126.2 117.6 125 116.9 124C116.6 123.5 115.9 122.5 116.1 122.2C116.2 122.1 116.2 122.1 116.3 122.1C117.3 122 119.5 123.8 120.8 125.2C122.4 126.9 123.5 128.5 124 130.1C124.1 130.3 124.2 130.4 124.4 130.5C126.9 131.1 129.5 131.7 131.9 132.3C132.3 132.4 132.6 132.5 133 132.6C133.2 132.6 133.4 132.7 133.5 132.7C140.4 134.3 146.3 135.7 150.5 136.4H150.6L156.3 137.6H156.4C156.6 137.6 156.9 137.4 156.9 137.2C157 136.9 156.8 136.6 156.5 136.6L152.3 135.7C153.7 132.9 155.6 129.2 158 124.6C160.5 126.4 164.4 127.9 166.6 128.5C168.6 129 170.3 129.4 172 129.5C168.7 136.5 163 147.6 158.2 148.5C152.8 149.5 142.8 146.4 133.8 142.5C133.8 142.7 133.4 142.5 133 142.4ZM135.8 172.5C135.8 171.1 135.8 169.8 135.8 168.5C135.8 167.8 135.8 167.2 135.8 166.5C135.8 163.1 135.6 159.3 135.3 155.1C135.1 152.2 134.8 149.2 134.5 146.6L134.4 145.2C134.4 144.8 134.3 144.4 134.3 144C141.7 147.1 150.3 150 156.2 150C157.1 150 158 149.9 158.8 149.8C163.9 148.9 169.2 139.2 173.6 129.8C174.4 129.8 175.2 129.6 176.1 129.4C177.4 129.1 177.6 128.6 177.7 127.7V127.6C178 125.4 178.5 123.8 179.1 122.2C177.5 130.7 177.3 139.4 178.5 148.7C179.2 153.9 180.3 159.3 181.9 165.7L135.8 172.5Z" fill="#0A1640"/>
    <path d="M164.5 79.8001L161.8 82.0001L155.7 85.5001C152.8 87.8001 149.8 88.6001 146.5 88.5001C142.1 88.2001 139.3 84.7001 138.3 80.0001C138 78.6001 137.8 77.2001 137.8 75.7001C137.8 70.9001 139.3 65.8001 142.5 62.1001C145.4 58.7001 149.7 56.6001 154.1 57.5001C162.8 59.3001 164.9 67.4001 162.8 74.8001L164.5 79.8001Z" fill="#C05E46"/>
    <path d="M146.8 79.5001C146 79.4001 145.2 79.4001 144.4 79.2001C143.6 79.0001 142.4 78.4001 142.3 79.6001C142.2 80.7001 143.1 81.6001 144 81.9001C146.7 82.7001 149.3 79.7001 146.8 79.5001Z" fill="white"/>
    <g opacity="0.25">
      <path d="M148.6 78.3002C149 75.4002 154.4 75.6002 154.4 78.6002C154.4 80.8002 150.9 81.3002 149.4 80.0002C148.7 79.6002 148.5 78.9002 148.6 78.3002Z" fill="#0A1640"/>
      <path d="M141.8 77.8002C141.8 79.5002 139.8 80.2002 138.2 79.9002C137.9 78.5002 137.7 77.1002 137.7 75.6002C139.5 75.1002 141.8 75.8002 141.8 77.8002Z" fill="#0A1640"/>
    </g>
    <path d="M144.2 68.7001C144.4 66.6001 139.8 67.3001 140.4 68.9001C140.8 70.1001 144.1 70.1001 144.2 68.7001Z" fill="#0A1640"/>
    <path d="M152.6 70.7001C153.6 69.3001 149.4 67.3001 149 69.3001C148.7 70.7001 151.9 71.7001 152.6 70.7001Z" fill="#0A1640"/>
    <path d="M146 77.6H146.1C146.4 77.6 146.6 77.4 146.6 77.2C146.7 76.9 146.5 76.6 146.2 76.6C144.9 76.3 144.6 76.0001 144.5 75.9001C144.5 75.9001 144.4 75.8 144.5 75.6C144.8 74.9 146.1 72.7 146.1 72.7C146.3 72.4 146.2 72.1 145.9 72C145.6 71.8 145.3 71.9 145.2 72.2C145.1 72.3 143.8 74.4 143.5 75.2C143.3 75.7 143.4 76.2001 143.5 76.4001C143.8 77.0001 144.6 77.4 146 77.6Z" fill="#0A1640"/>
    <path d="M159.8 76.3001C159.6 76.1001 159.3 76.0001 159.1 76.2001L157.8 77.2001C157.6 77.4001 157.5 77.7001 157.7 77.9001C157.8 78.0001 158 78.1001 158.1 78.1001C158.2 78.1001 158.3 78.1001 158.4 78.0001L159.7 77.0001C159.9 76.9001 160 76.5001 159.8 76.3001Z" fill="#0A1640"/>
    <path d="M140.5 72.5001C140.5 73.1001 141 73.7001 141.6 73.7001C142.2 73.7001 142.8 73.2001 142.8 72.6001C142.8 72.0001 142.3 71.4001 141.7 71.4001C141 71.4001 140.5 71.9001 140.5 72.5001Z" fill="#0A1640"/>
    <path d="M148.9 73.4C148.9 74 149.4 74.6 150 74.6C150.6 74.6 151.2 74.1 151.2 73.5C151.2 72.9 150.7 72.3 150.1 72.3C149.4 72.3 148.9 72.7 148.9 73.4Z" fill="#0A1640"/>
    <path d="M172.8 68.6001C172.2 67.5001 171.4 66.8001 170.5 66.0001C169.9 65.4001 169.3 64.9001 168.8 64.3001C167.7 62.9001 167.3 61.0001 166.9 59.3001C166.7 58.5001 166.5 57.7001 166.3 56.9001C165.2 53.3001 161.5 50.8001 157.6 51.0001C155.9 51.1001 154.8 51.7001 153.8 52.3001C152.4 53.1001 151 53.9001 148 53.7001C147.6 53.7001 147.2 53.6001 146.9 53.6001C146.1 53.5001 145.3 53.3001 144.4 53.6001C144.3 53.6001 144.2 53.6001 144.2 53.7001C142.2 52.9001 139.3 53.4001 137.2 55.6001C135.4 57.6001 135.9 59.8001 135.4 62.2001C134.7 65.6001 131.4 66.5001 131.8 72.0001C132 75.2001 134.4 78.0001 137.4 77.8001C138 83.5001 140.9 88.8001 146.5 89.1001C146.7 89.1001 146.8 89.1001 147 89.1001C150.4 89.1001 153.3 88.1001 156.1 86.0001C156.3 85.8001 156.4 85.5001 156.2 85.2001C156 85.0001 155.7 84.9001 155.5 85.1001C152.8 87.2001 150.1 88.0001 146.6 88.0001C137.5 87.4001 136.2 72.3001 141.9 63.9001C144 66.5001 147.2 66.8001 150.5 67.1001C154.2 67.4001 154.9 70.2001 155.3 72.4001C155.4 72.8001 155.5 73.2001 155.6 73.6001C156.1 75.1001 157.5 75.1001 158.7 75.1001C160.2 75.1001 161.1 75.2001 161.4 76.4001C161.6 77.3001 160.8 78.2001 160.1 78.9001L159.8 79.2001C158.6 80.5001 158.2 82.4001 158.8 84.3001C159.5 86.5001 161.2 88.1001 163.2 88.5001C163.5 88.6001 163.9 88.6001 164.2 88.6001C165.9 88.6001 167.7 87.8001 168.5 86.2001C168.9 85.4001 169.1 84.5001 169.3 83.7001C169.6 82.5001 169.9 81.4001 170.6 80.5001C170.9 80.1001 171.2 79.8001 171.4 79.4001C172.4 78.1001 173.4 76.8001 173.8 75.1001C174.2 72.9001 173.8 70.7001 172.8 68.6001Z" fill="#0A1640"/>
    <path d="M134.9 71.9001L133.9 69.6001C133.8 69.3001 133.3 69.4001 133.3 69.7001C132.9 71.5001 133.9 73.8001 135.4 74.7001C135.7 74.9001 136.1 74.6001 135.9 74.3001C135.9 74.2001 134.9 71.9001 134.9 71.9001Z" fill="#332FBA"/>
    <path d="M166.4 65.9001C163.2 61.3001 164.6 60.5001 163.8 60.4001C163.6 60.4001 163.5 60.5001 163.5 60.7001C163.4 62.8001 164.4 64.7001 165.5 66.5001C166.4 67.9001 167.8 69.9001 168.1 71.6001C168.7 74.5001 166.2 77.4001 165.5 82.9001C165.4 83.3001 166.1 83.4001 166.2 83.0001C166.2 83.0001 166.6 81.2001 168.2 77.4001C170.3 72.2001 169.8 70.8001 166.4 65.9001Z" fill="#332FBA"/>
    <path d="M140.9 63.2001C141.2 63.7001 141.8 63.5001 141.7 62.9001C140.8 60.2001 140.4 58.6001 142 56.3001C143.3 54.4001 144.2 54.4001 144 53.8001C143.7 52.7001 136.9 57.4001 140.9 63.2001Z" fill="#332FBA"/>
    <path d="M103.1 110.1C102.5 109.5 101.8 109.9 101.4 110.5C100.9 111.2 100.6 112.2 100.4 113V112.9C100.7 111.1 101.4 107.4 100.9 105.7C100.7 104.9 99.9 104.6 99.4 105.2C98.9 105.7 98.7 106.5 98.6 107.1C98.7 105.2 98.5 103.7 97.5 103.7C96.9 103.7 96.3 104.2 96.1 105.2C96 106 95.8 106.9 95.6 107.7C95.7 106.2 95.6 104.9 94.7 104.6C92.7 104 93.1 108.6 91.5 113.5C91.2 114.4 90.7 115.9 89.9 116C88.5 116.1 88.9 111.7 87.6 111.3C85.6 110.8 85.5 116.7 85.5 117.7C85.5 120.8 86.2 123.1 87.2 124.7C83.9 129.5 76.3 143.5 73.6 149.7C73.1 150.8 72.4 152.3 71.7 153.9C73.3 156.4 74.8 159 76.2 161.6L78.6 164.8C85.2 161.4 87.7 149.3 91.5 137.5C93.4 131.6 94.2 128.9 94.5 126.7C94.6 126.6 94.7 126.6 94.9 126.5C98.1 124.9 100.1 121.6 101.4 118.4C101.9 117.2 104 111.1 103.1 110.1Z" fill="#FF8CDB"/>
    <path d="M103.5 109.7C103.2 109.4 102.8 109.2 102.4 109.2C102.1 109.2 101.8 109.4 101.5 109.6C101.7 107.7 101.7 106.3 101.5 105.5C101.3 104.9 100.9 104.5 100.4 104.3C100 104.2 99.5 104.3 99.1 104.7C99 104.2 98.8 103.8 98.6 103.6C98.3 103.3 98 103.1 97.6 103.1C96.9 103.1 96 103.6 95.7 104.6C95.5 104.3 95.3 104.1 94.9 104C94.5 103.9 94 103.9 93.7 104.1C92.8 104.6 92.6 106 92.2 108.2C91.9 109.7 91.6 111.5 91 113.2V113.3C90.8 113.9 90.3 115.3 89.9 115.3C89.6 115.3 89.3 114 89.2 113.5C88.9 112.3 88.7 111 87.7 110.7C87.3 110.6 86.8 110.7 86.5 111C85 112.2 84.9 117.1 84.9 117.6C84.9 120.4 85.5 122.8 86.5 124.6C83.1 129.7 75.7 143.3 73.1 149.4C72.9 149.8 72.8 150.2 72.6 150.6C72.2 151.5 71.7 152.5 71.3 153.6C71.2 153.8 71.3 153.9 71.3 154.1C72.7 156.3 74 158.7 75.8 161.8L78.2 165C78.3 165.1 78.5 165.2 78.6 165.2C78.7 165.2 78.8 165.2 78.8 165.1C84.5 162.1 87.3 152.9 90.2 143.1C90.8 141.2 91.3 139.3 91.9 137.4C93.6 132 94.5 129.1 94.9 126.8C94.9 126.8 95 126.8 95 126.7C97.8 125.3 100 122.5 101.7 118.3C101.9 118.5 104.8 111.1 103.5 109.7ZM100.9 118.2C99.3 122.1 97.2 124.8 94.7 126C94.6 126.1 94.5 126.1 94.4 126.2C94.2 126.3 94.1 126.4 94.1 126.6C93.8 128.9 92.9 131.7 91.1 137.3C90.5 139.2 89.9 141.1 89.4 143C86.6 152.3 84 161.1 78.9 164.1L76.8 161.3C75.1 158.3 73.7 156 72.4 153.8C72.8 152.8 73.2 151.9 73.6 151.1C73.8 150.7 74 150.2 74.2 149.9C76.9 143.8 84.5 129.8 87.7 125C87.8 124.8 87.8 124.6 87.7 124.4C86.6 122.8 86.1 120.5 86 117.7C86 115.7 86.3 112.5 87.2 111.9C87.3 111.8 87.4 111.8 87.5 111.8C87.8 111.9 88.1 113.1 88.2 113.8C88.5 115.1 88.8 116.6 90 116.5C91.2 116.4 91.7 114.8 92.1 113.8V113.7C92.7 111.8 93 110 93.3 108.5C93.6 106.9 93.8 105.4 94.3 105.1C94.3 105.1 94.4 105 94.6 105.1C94.8 105.1 95.2 105.5 95.1 107.6C95.1 107.7 94.8 112.9 93 116C92.8 116.3 92.9 116.6 93.2 116.7C93.3 116.8 93.4 116.8 93.5 116.8C93.7 116.8 93.9 116.7 94 116.5C95.9 113.3 96.3 108.2 96.3 107.7C96.5 106.7 96.7 105.9 96.8 105.2C96.9 104.5 97.3 104.1 97.7 104.1C97.8 104.1 97.9 104.1 98 104.2C98.2 104.4 98.5 105 98.3 106.9V107C98.3 107.7 97.9 112.4 96.2 115.3C96 115.6 96.1 115.9 96.4 116C96.5 116.1 96.6 116.1 96.7 116.1C96.9 116.1 97.1 116 97.2 115.8C99.2 112.5 99.5 107.2 99.5 106.9C99.5 106.9 99.5 106.9 99.5 106.8C99.6 106.1 99.8 105.6 100.1 105.2C100.2 105.1 100.3 105 100.4 105C100.5 105 100.6 105.2 100.7 105.4C101 106.5 100.8 108.8 100.2 112.3C99.7 114.4 98.8 115.6 98.8 115.6C98.6 115.8 98.7 116.2 98.9 116.3C99 116.4 99.1 116.4 99.2 116.4C99.4 116.4 99.5 116.3 99.6 116.2C99.6 116.1 100.6 114.9 101.1 112.7C101.3 111.8 101.6 111 102 110.3C102.2 110.1 102.4 109.9 102.6 109.9C102.7 109.9 102.7 109.9 102.9 110C103.2 111 101.9 115.6 100.9 118.2Z" fill="#0A1640"/>
    <path d="M70.9 117C69.7 114.3 66.8 112.6 64.8 110.2C64.6 110 64.5 109.8 64.3 109.6C64.2 109.5 64.2 109.4 64.1 109.4C63.1 107.9 62.3 106.1 62.3 104.4C62.3 104.3 62.3 104.1 62.3 104C62.3 103.9 62.3 103.8 62.3 103.7C62.3 103.6 62.3 103.4 62.3 103.3C62.2 101.2 60.4 100.1 58.1 100C56.8 99.9001 55.4 100.1 54.1 100.6C52.8 101.1 51.5 101.5 50.3 102.2C45.1 105.4 45.8 107.1 43.2 114.2C42.6 115.8 44.2 117.1 46.2 118.3C44.5 118.1 42.4 118.7 39.9 120.3C34 124.1 32.1 127.4 30.6 160.8C30.4 165.3 28.8 177.5 33 179.4C34.7 180.1 36.8 179.2 38.2 178C39.4 177 40.4 175.7 41.3 173.8C41.6 173.2 48 145.1 50.2 134.2C50.7 131.6 51 129.1 51 126.5C51 123.5 50.3 121.2 49 119.8C50.5 120.5 52 121.1 52.8 121.6C62.2 127 73.3 122.2 70.9 117Z" fill="#FF8CDB"/>
    <path d="M91.8 166.1C90.8 167.8 88.9 169.3 87.6 170.2C73.6 180.5 52.2 174 52 165.4C51.9 162.8 52.6 160.5 52 157.9C50.6 151.8 45.3 145 41.2 138C40.4 136.7 39.7 135.3 39 134C37.8 131.6 36.9 129.2 36.4 126.8C35.5 122.6 36.1 117.6 40.2 116.2C48.8 113.3 58.8 125.7 65.8 121.1C68.8 119.1 68.2 116.2 67.2 113.3C66.9 112.5 66.4 111.7 66.4 111.7C66.4 111.7 68 112.6 68.3 112.8C74.4 116.1 80 121.3 83.2 126.7C88.3 135 82.6 145.7 85.8 153.9C86.4 155.3 87.2 156.6 88.3 157.9C89.8 159.5 91.7 160.9 92.3 163C92.7 164.1 92.4 165.1 91.8 166.1Z" fill="#FFCE00"/>
    <path opacity="0.5" d="M91.8 166.1C90.8 167.8 88.9 169.3 87.6 170.2C73.6 180.5 52.2 174 52 165.4C51.9 162.8 52.6 160.5 52 157.9C50.1 149.8 39.6 137.2 39.1 133.9C39.1 134.1 45.1 135.9 45.9 136.3C62.1 144.3 57.5 158.8 65.3 163.3C71.3 166.7 78.8 167 85.6 166.7C86.4 166.6 91.4 166.7 91.8 166.1Z" fill="#E38921"/>
    <path d="M65.7 124.1C62.4 125.1 57.2 123.6 57.3 123.7C56.8 123.6 56.6 124.3 57 124.5C65.1 128.3 71.4 124.7 71.7 118.5C71.7 118.1 71.1 118 71 118.4C70.8 118.6 69.9 123 65.7 124.1Z" fill="#E38921"/>
    <path d="M41.2 143.2C41.8 143.6 42.5 143.9 43.1 144.3C45.5 145.7 48.6 145.1 51 143.6C51.9 143.1 52.1 142.6 51.8 141.6C49.8 133.7 57.5 121.1 49.2 115.4C42.8 111 35.9 116.6 34.2 122.9C33.3 125.9 32.9 128.2 32 131.1C31.2 133.7 28.6 136.1 27.4 136.9C26.7 137.3 26.4 138 27 138.7C27.8 139.7 28.7 140.6 29.9 141.1C36.2 144 37.7 141 41.2 143.2Z" fill="#E38921"/>
    <path opacity="0.5" d="M55.7 108.6C58.2 110.3 61.9 110.8 64.9 110.2C61.9 106.6 62.4 103.5 62.4 103.1C59.7 103.7 56.2 103.8 55.6 103.7C51.5 103.3 52.7 106.5 55.7 108.6Z" fill="#D811AD"/>
    <path d="M92.8 162.9C92.2 161.1 90.9 159.8 89.6 158.5C89.3 158.2 88.9 157.9 88.6 157.5C87.5 156.4 86.7 155.1 86.2 153.7C84.8 150.1 85.1 146 85.5 141.7C85.9 136.5 86.4 131.1 83.5 126.4C80.2 120.9 74.5 115.7 68.4 112.3C68.1 112.1 66.9 111.4 66.6 111.2C66.6 111.2 66.6 111.2 66.5 111.2C66 110.7 65.6 110.3 65.2 109.8C65.2 109.8 65.2 109.8 65.2 109.7C65 109.5 64.9 109.3 64.8 109.1C64.8 109 64.7 109 64.7 108.9V108.8C63.6 107.2 63 105.6 62.9 104.1C62.9 104 62.9 103.8 62.9 103.7C62.9 103.6 62.9 103.5 62.9 103.4C62.9 103.2 62.9 103.1 62.9 102.9C62.8 100.7 61 99.3001 58.2 99.1001C56.8 99.0001 55.4 99.2001 54 99.7001C52.7 100.2 51.4 100.6 50.2 101.4C46 103.9 45.5 105.7 44.3 109.5C44 110.6 43.6 111.8 43 113.3C42.5 113.4 42.1 113.5 41.6 113.7C38 115 34.9 118.6 33.7 122.6C33.3 123.9 33 125.2 32.7 126.3C32.3 127.8 32 129.2 31.5 130.8C30.8 133.2 28.3 135.6 27.1 136.3C26.6 136.6 26.2 137.1 26.1 137.6C26.1 137.9 26.1 138.4 26.5 139C27.3 140 28.3 141 29.6 141.6C30.2 141.9 30.7 142.1 31.3 142.3C30.9 147.2 30.5 153.2 30.2 160.7C30.2 161.3 30.1 162.1 30.1 163.1C29.7 169.1 29 178.1 33 179.8C33.5 180 34 180.1 34.5 180.1C36.1 180.1 37.7 179.2 38.8 178.3C40.1 177.2 41 175.9 42 174C42.3 173.3 45.2 160.9 47.7 149.5C49.5 152.5 50.9 155.3 51.5 158.1C51.9 159.7 51.8 161.2 51.6 162.8C51.5 163.7 51.5 164.6 51.5 165.6C51.6 168.5 54 171.4 58.1 173.4C61.6 175.1 66.1 176.1 70.7 176.1C76.6 176.1 82.8 174.5 87.9 170.7C89.3 169.7 91.2 168.2 92.2 166.5C93 165.1 93.2 164 92.8 162.9ZM45.2 109.9C46.4 106.2 46.8 104.8 50.7 102.4C51.8 101.7 53.1 101.3 54.4 100.8C55.4 100.4 56.5 100.2 57.6 100.2C57.8 100.2 58 100.2 58.1 100.2C59 100.3 61.7 100.6 61.8 103C61.8 103.1 61.8 103.2 61.8 103.4C61.8 103.5 61.8 103.6 61.8 103.8C61.8 103.9 61.8 104.1 61.8 104.3C61.9 106.5 62.9 108.4 63.7 109.6V109.7C63.7 109.8 63.8 109.8 63.8 109.9C64 110.1 64.1 110.3 64.3 110.6C64.7 111.1 65.2 111.6 65.7 112.1C65.8 112.3 66.2 112.9 66.4 113.5C67.6 116.7 67.8 119 65.2 120.7C61.9 122.9 57.6 120.8 53.2 118.7C52.9 118.5 52.6 118.4 52.3 118.3C51.7 117.1 50.7 116 49.4 115.1C47.7 113.9 45.8 113.3 44 113.4C44.6 111.9 44.9 110.8 45.2 109.9ZM30.1 140.6C29 140.1 28.2 139.3 27.4 138.3C27.3 138.1 27.2 138 27.2 137.8C27.2 137.6 27.4 137.4 27.7 137.3C28.9 136.6 31.7 134.1 32.6 131.2C33.1 129.5 33.5 128.1 33.8 126.6C34.1 125.4 34.4 124.3 34.8 122.9C35.1 122 35.4 121.1 35.9 120.2C37 118.2 38.5 116.5 40.3 115.5C40.9 115.2 41.4 114.9 42 114.7C42.2 114.6 42.5 114.6 42.7 114.5C43.1 114.4 43.5 114.3 43.8 114.3C45.6 114.1 47.4 114.6 49 115.7C49.6 116.1 50.2 116.6 50.6 117.2C51 117.7 51.4 118.3 51.7 118.9C51.9 119.4 52.1 119.8 52.2 120.3C52.3 120.7 52.4 121.2 52.5 121.6C52.9 124.5 52.4 127.8 51.8 131.1C51.2 134.8 50.5 138.5 51.3 141.6C51.5 142.4 51.4 142.6 50.7 143C50.2 143.3 49.5 143.6 48.9 143.8C48.5 143.9 48.1 144 47.7 144.1C47.1 144.2 46.4 144.3 45.8 144.3C45.3 144.3 44.9 144.2 44.4 144.1C44 144 43.7 143.8 43.3 143.6C43 143.5 42.8 143.3 42.5 143.2C42.1 143 41.8 142.8 41.4 142.6C39.7 141.5 38.3 141.6 36.9 141.7C35.7 141.8 34.4 141.9 32.4 141.3C32.1 141.2 31.7 141.1 31.4 141C31 141 30.6 140.8 30.1 140.6ZM41 173.4C40.1 175.2 39.2 176.4 38 177.4C36.7 178.5 34.7 179.3 33.3 178.7C30 177.2 30.7 168 31 163C31.1 162.1 31.1 161.3 31.1 160.6C31.4 153.2 31.8 147.2 32.2 142.4C34.2 142.9 35.6 142.8 36.8 142.7C38.2 142.6 39.2 142.5 40.7 143.4C41.1 143.6 41.5 143.8 41.8 144C42.1 144.1 42.3 144.3 42.6 144.4C43.4 144.8 44.2 145.1 45 145.2C45.3 145.2 45.6 145.3 45.9 145.3C46 145.3 46.2 145.3 46.3 145.3C46.6 145.3 46.9 145.3 47.3 145.2C47.2 145.6 47.1 146 47 146.4C46.9 146.9 46.8 147.4 46.7 147.9C44.3 159.8 41.3 172.7 41 173.4ZM91.4 165.8C90.5 167.4 88.6 168.8 87.4 169.7C78.5 176.3 66.2 175.9 58.6 172.2C54.8 170.4 52.7 167.9 52.6 165.3C52.6 164.4 52.6 163.5 52.7 162.6C52.8 161 52.9 159.4 52.5 157.6C51.8 154.4 50.1 151.2 48 147.8C48.2 146.9 48.4 145.9 48.6 145C49.6 144.7 50.5 144.3 51.2 143.9C52.3 143.2 52.6 142.6 52.3 141.3C51.6 138.4 52.2 134.9 52.8 131.2C53.3 128.1 53.9 125 53.6 122.1C53.6 121.7 53.5 121.2 53.4 120.8C53.3 120.3 53.2 119.9 53 119.4C57.7 121.7 62.1 123.8 65.9 121.3C68.9 119.3 68.7 116.5 67.7 113.7C67.6 113.4 67.5 113.2 67.4 112.9C67.6 113 67.7 113.1 67.8 113.1C68.4 113.4 69 113.8 69.6 114.2C74.9 117.4 79.6 122 82.5 126.8C85.2 131.2 84.7 136.4 84.3 141.5C83.9 145.7 83.6 150.1 85.1 154C85.7 155.6 86.6 156.9 87.7 158.1C88 158.4 88.3 158.8 88.7 159.1C89.9 160.3 91.1 161.5 91.6 163C91.7 163.2 91.7 163.5 91.7 163.8C91.9 164.5 91.7 165.2 91.4 165.8Z" fill="#0A1640"/>
    <path d="M36.7999 138.5C38.4999 138.1 39.9999 139 41.7999 140.2C42.2999 140.5 42.6999 140.8 43.1999 141.1C43.3999 141.2 43.4999 141.3 43.6999 141.3C44.0999 141.5 44.5999 141.6 44.9999 141.6C45.2999 141.6 45.4999 141.6 45.7999 141.5C47.1999 141.1 47.8999 139.8 47.9999 139.7C48.0999 139.4 47.9999 139.1 47.7999 139C47.4999 138.9 47.1999 139 47.0999 139.2C47.0999 139.2 46.4999 140.2 45.5999 140.5C45.0999 140.7 44.4999 140.6 43.8999 140.2C43.4999 140 43.0999 139.7 42.6999 139.5C42.5999 139.5 42.5999 139.4 42.4999 139.4C41.8999 139.1 41.3999 138.7 40.7999 138.4C39.4999 137.7 38.1999 137.3 36.6999 137.6C35.4999 137.9 34.0999 138 32.9999 137.8C32.5999 137.8 32.2999 137.7 31.9999 137.6C31.4999 137.4 31.0999 137.2 30.7999 136.8C30.5999 136.6 30.2999 136.5 30.0999 136.7C29.8999 136.9 29.7999 137.2 29.9999 137.5C30.4999 138.1 31.1999 138.5 31.8999 138.7C32.1999 138.8 32.5999 138.9 32.8999 138.9C34.3999 138.9 36.0999 138.6 36.7999 138.5Z" fill="#0A1640"/>
    <path d="M63.2 104.7C47.9 109.9 32 84.8002 47.7 76.8002C51.7 74.7002 56.4 75.7002 60.1 78.2002C64 80.9002 66.3 84.5002 67.9 88.9002C70 94.8002 69.2 102.6 63.2 104.7Z" fill="#FF8CDB"/>
    <path d="M63.7 97.8002C64.6 97.3002 65.2 96.2002 64.8 95.2002C64.4 94.1002 63.4 95.0002 62.7 95.4002C62 95.8002 61.2 96.0002 60.5 96.3002C58.1 97.1002 61.5 99.3002 63.7 97.8002Z" fill="white"/>
    <g opacity="0.5">
      <path d="M53 97.4002C53.6 99.5002 57.1 99.1002 58.2 97.5002C58.7 96.8002 58.7 96.1002 58.5 95.6002C57.3 92.8002 52.2 94.4002 53 97.4002Z" fill="#D811AD"/>
      <path d="M70.3 91.4003C69.2 88.7003 64 90.3003 64.8 93.2003C65.4 95.3003 68.9 94.9003 70 93.3003C70.5 92.6003 70.5 92.0003 70.3 91.4003Z" fill="#D811AD"/>
    </g>
    <path d="M74.2 88.9001C73.5 87.5001 72.6 86.2001 71.4 85.0001C69.8 83.4001 68 81.6001 67.1 79.5001C65.7 76.2001 64.6 72.0001 61.3 70.1001C58.4 68.4001 54.6 67.9001 51.5 69.3001C51 69.5001 50.6 69.8001 50.3 70.1001C43.1 70.2001 34.6 75.4001 35.1 87.7001C35.1 87.8001 35.1 87.8001 35.1 87.9001C35.3 91.1001 36.5 94.5001 35.2 97.7001C34.4 99.8001 33.1 101.7 32.5 104C30.8 110.1 35.1 113.1 32.5 117C31.5 118.5 30.1 119.6 29.3 121.3C27.7 125 28.7 129.2 31.6 131.9C38.7 138.6 51.5 132.6 50.6 122.5C50.4 120.7 49.1 119 49.8 117.2C50.3 115.8 51.8 115.3 52.7 114.3C55.2 111.6 55.3 108 53.8 105C55.4 105.6 57.2 105.9 58.9 105.9C60.1 105.9 61.2 105.8 62.4 105.4C62.7 106.7 63.3 108 64.1 109.2C64.1 109.3 64.2 109.4 64.3 109.4C71.6 107.9 75.6 101.8 75.7 95.5001C76.4 99.6001 75.7 104.4 71.4 107.6C71.2 107.8 71.1 108.1 71.3 108.3C71.4 108.4 71.6 108.5 71.7 108.5C71.8 108.5 71.9 108.5 72 108.4C79.5 103.1 77.2 93.2001 74.2 88.9001ZM62.4 104.4C59.1 105.3 55.9 104.8 52.9 103.4C52.3 102.6 51.5 101.8 50.6 101.2C49.5 100.4 47.7 99.7001 46.5 98.6001C46.4 98.5001 46.3 98.4001 46.2 98.2001C45.9 97.8001 45.7 97.2001 45.7 96.6001C45.7 95.0001 46.9 94.8001 48.1 94.2001C51.5 92.4001 50.7 89.1001 50.9 87.2001C51 84.9001 53 83.5001 55 83.0001C57.3 82.4001 60.2 82.5001 61.5 80.2001C61.5 80.2001 61.5 80.1001 61.6 80.1001C64.1 82.3001 65.9 85.1001 67.4 89.1001C68.8 93.0001 68.8 97.3001 67.4 100.3C66.5 102.2 65 103.6 63.1 104.2C62.8 104.3 62.6 104.3 62.4 104.4Z" fill="#0A1640"/>
    <path d="M63.9 84.3002C64 82.5002 59.4 83.2002 60.1 85.1002C60.6 86.4002 63.8 85.6002 63.9 84.3002Z" fill="#0A1640"/>
    <path d="M55.7 86.9002C54.8 85.0002 51.2 88.0002 52.6 89.2002C53.5 90.0002 56.3 88.2002 55.7 86.9002Z" fill="#0A1640"/>
    <path d="M60 88.7002C59.8 88.5002 59.5 88.5002 59.2 88.7002C59 88.9002 59 89.3002 59.2 89.5002C59.2 89.5002 61.1 91.2002 61.5 91.9002C61.6 92.1002 61.6 92.2002 61.6 92.2002C61.6 92.3002 61.4 92.7002 60.2 93.3002C59.9 93.4002 59.8 93.7002 60 94.0002C60.1 94.2002 60.3 94.3002 60.5 94.3002C60.6 94.3002 60.7 94.3002 60.7 94.2002C61.9 93.6002 62.6 93.0002 62.7 92.3002C62.8 92.0002 62.8 91.6002 62.4 91.1002C61.9 90.4002 60.1 88.7002 60 88.7002Z" fill="#0A1640"/>
    <path d="M49.3 96.9002L47.8 96.3002C47.5 96.2002 47.2 96.3002 47.1 96.6002C47 96.9002 47.1 97.2002 47.4 97.3002L48.9 97.9002C49 97.9002 49 97.9002 49.1 97.9002C49.3 97.9002 49.5 97.8002 49.6 97.6002C49.7 97.3002 49.6 97.0002 49.3 96.9002Z" fill="#0A1640"/>
    <path d="M63.3 87.0001C62.7 87.2001 62.4 87.8001 62.6 88.4001C62.8 89.0001 63.4 89.3001 64 89.1001C64.6 88.9001 64.9 88.3001 64.7 87.7001C64.5 87.2001 63.9 86.9001 63.3 87.0001Z" fill="#0A1640"/>
    <path d="M55.4 90.1002C54.8 90.3002 54.5 90.9002 54.7 91.5002C54.9 92.1002 55.5 92.4002 56.1 92.2002C56.7 92.0002 57 91.4002 56.8 90.8002C56.7 90.2002 56 89.9002 55.4 90.1002Z" fill="#0A1640"/>
    <path d="M50.6 108C49.4 108.4 48.3 109.1 47.4 109.8C38.4 116.9 52.5 121.8 38.5 129.5C38.1 129.7 38.4 130.3 38.9 130.1C42.5 128.7 45.9 126.2 46.6 122.7C47.3 118.4 43.3 114.9 48.2 110.5C50.1 108.7 51.5 108.7 51.1 108.1C51 108 50.8 107.9 50.6 108Z" fill="#332FBA"/>
    <path d="M56 70.4002C55.1 70.2002 52 70.0002 52.2 70.9002C52.3 71.1002 52.4 71.1002 52.5 71.1002C60.2 70.9002 61.2 78.2002 61.3 78.3002C61.4 78.7002 61.9 78.6002 61.9 78.3002C62.3 74.8002 59.7 71.3002 56 70.4002Z" fill="#332FBA"/>
    <path d="M85.3 90C85.1 90 85 89.9001 84.9 89.8001C84.8 89.6001 84.8 89.3 85 89.1C85 89.1 86.6 87.5 85.4 82.6C85.4 82.4 85.2 82.3001 85 82.3001L81 82.8001C80.8 82.8001 80.6 82.8001 80.4 82.8001C78.4 82.8001 76.6 81.3001 76.3 79.3001L74.6 67.6C74.3 65.4 75.8 63.3 78.1 63L113.9 57.8C114.1 57.8 114.3 57.8 114.5 57.8C116.5 57.8 118.3 59.3 118.6 61.3L120.3 73C120.6 75.2001 119.1 77.3 116.8 77.6L92.3 81.1C92.1 81.1 91.9 81.3 91.8 81.5C90.7 85.6 88.5 88.5001 85.4 89.9001C85.4 90 85.3 90 85.3 90Z" fill="#6B7FFF"/>
    <path opacity="0.25" d="M118.1 61.4001L119.8 73.1001C120.1 75.1001 118.7 76.9001 116.8 77.1001L92.3 80.6001C91.9 80.7001 91.5 81.0001 91.4 81.4001C90.6 84.3001 88.9 87.8001 85.3 89.4001C85.3 89.4001 87.2 87.8001 85.8 82.3001C85.7 81.8001 85.2 81.5001 84.8 81.6001L84 81.9001C83.7 80.6001 84.4 79.2001 85.5 78.4001C86.7 77.5001 88.3 77.3001 89.8 77.1001C95.8 76.3001 101.9 75.8001 107.8 74.4001C110.1 73.9001 112.5 73.1001 113.7 71.1001C114.9 69.0001 114.4 66.4001 113.9 64.1001C113.5 62.2001 113.2 60.1001 113.8 58.4001H113.9C116 58.1001 117.8 59.5001 118.1 61.4001Z" fill="#0A1640"/>
    <path d="M120.8 72.9001L119.1 61.2001C118.8 58.9001 116.8 57.2001 114.5 57.2001C114.3 57.2001 114.1 57.2001 113.8 57.2001L78 62.5001C76.8 62.7001 75.7 63.3001 75 64.3001C74.3 65.3001 73.9 66.5001 74.1 67.7001L75.8 79.4001C76.1 81.7001 78.1 83.4001 80.4 83.4001C80.6 83.4001 80.8 83.4001 81.1 83.4001L84.8 82.9001C85.9 87.1001 84.7 88.6001 84.6 88.8001C84.2 89.1001 84.1 89.7001 84.4 90.2001C84.6 90.5001 85 90.7001 85.3 90.7001C85.5 90.7001 85.6 90.7001 85.8 90.6001C89 89.1001 91.3 86.1001 92.5 81.9001L117 78.4001C119.4 77.8001 121.2 75.4001 120.8 72.9001ZM116.7 77.1001L92.2 80.6001C91.8 80.7001 91.4 81.0001 91.3 81.4001C90.5 84.3001 88.8 87.8001 85.2 89.4001C85.2 89.4001 87.1 87.8001 85.7 82.3001C85.6 81.9001 85.2 81.6001 84.8 81.6001H84.7L80.8 82.2001C80.6 82.2001 80.5 82.2001 80.3 82.2001C78.6 82.2001 77 80.9001 76.8 79.1001L75.1 67.4001C74.8 65.4001 76.2 63.6001 78.1 63.4001L113.9 58.2001C114.1 58.2001 114.2 58.2001 114.4 58.2001C116.1 58.2001 117.7 59.5001 117.9 61.3001L119.6 73.0001C120 75.0001 118.7 76.8001 116.7 77.1001Z" fill="#0A1640"/>
    <path d="M112.8 63.1001C113.1 63.1001 113.3 62.8001 113.3 62.5001C113.3 62.2001 113 62.0001 112.7 62.0001L80.6 66.7001C80.3 66.7001 80.1 67.0001 80.1 67.3001C80.1 67.6001 80.4 67.8001 80.6 67.8001H80.7L112.8 63.1001Z" fill="#0A1640"/>
    <path d="M113.3 66.8001C113.6 66.8001 113.8 66.5001 113.8 66.2001C113.8 65.9001 113.5 65.7001 113.2 65.7001L81.1 70.4001C80.8 70.4001 80.6 70.7001 80.6 71.0001C80.6 71.3001 80.9 71.5001 81.1 71.5001H81.2L113.3 66.8001Z" fill="#0A1640"/>
    <path d="M113.9 70.5C114.2 70.5 114.4 70.2 114.4 69.9C114.4 69.6 114.1 69.4 113.8 69.4L81.7 74.1C81.4 74.1 81.2 74.4 81.2 74.7C81.2 75 81.5 75.2 81.7 75.2H81.8L113.9 70.5Z" fill="#0A1640"/>
    <path d="M114.2 73.1001L82.1 77.8001C81.8 77.8001 81.6 78.1001 81.6 78.4001C81.6 78.7001 81.9 78.9001 82.1 78.9001H82.2L114.3 74.2001C114.6 74.2001 114.8 73.9001 114.8 73.6001C114.8 73.3001 114.5 73.1001 114.2 73.1001Z" fill="#0A1640"/>
    <path d="M195.9 146.2L197.8 159.5C198.2 161.9 196.5 164.2 194 164.5L30.7 188.3C28.3 188.7 26 187 25.7 184.5L23.8 171.2L195.9 146.2Z" fill="white"/>
    <path d="M195.9 146.2L197.8 159.5C198.2 161.9 196.5 164.2 194 164.5L130.5 173.7L127.9 156L195.9 146.2Z" fill="#FFCE00"/>
    <path d="M111.1 161.5L113 164.2C113.1 164.3 113.2 164.4 113.4 164.4H116.7C117.1 164.4 117.3 164.8 117 165.1L115 167.7C114.9 167.8 114.9 168 114.9 168.1L115.9 171.2C116 171.5 115.7 171.9 115.3 171.7L112.2 170.6C112.1 170.6 111.9 170.6 111.8 170.7L109.2 172.6C108.9 172.8 108.5 172.6 108.5 172.2L108.6 168.9C108.6 168.8 108.5 168.6 108.4 168.5L105.8 166.6C105.5 166.4 105.6 165.9 105.9 165.8L109 164.9C109.1 164.9 109.2 164.8 109.3 164.6L110.3 161.5C110.4 161.3 110.9 161.2 111.1 161.5Z" fill="#D811AD"/>
    <path d="M198.3 159.5L196.3 145.7L195.8 145.8L127.9 155.7L23.7 170.7L23.2 170.8L25.2 184.6C25.4 185.9 26.1 187.1 27.2 187.9C28.1 188.6 29.1 188.9 30.2 188.9C30.4 188.9 30.7 188.9 30.9 188.8L194.2 165.1C195.5 164.9 196.7 164.2 197.5 163.1C198.2 162.1 198.5 160.8 198.3 159.5ZM30.6 187.7C29.6 187.8 28.5 187.6 27.7 187C26.9 186.4 26.3 185.5 26.2 184.4L24.3 171.6L127.4 156.6L129.8 173.2L30.6 187.7ZM196.5 162.5C195.9 163.3 195 163.9 193.9 164L130.9 173.1L128.5 156.5L195.4 146.8L197.2 159.6C197.4 160.6 197.1 161.7 196.5 162.5Z" fill="#0A1640"/>
    <path d="M37.5 175.8C38.3 175.6 38.7 175.6 39 175.6C39 175 38.9 174.3 38.8 173.7C37.1 173.8 35.4 174.1 33.7 174.3C33.7 175.1 33.9 176.1 34 176.2C34.2 176.2 35.1 176 35.5 176.1C36.3 180.5 36.5 182.3 36.5 182.5C37.1 182.3 37.9 182.3 38.4 182.1C37.6 177 37.5 176.1 37.5 175.8Z" fill="#0A1640"/>
    <path d="M44.7 178.6C44.6 177.8 44.5 177 44.4 176.1C44.4 175.7 44.3 175.3 44.2 174.9C44.1 174.7 44 174.4 43.9 174.2C43.8 173.9 43.6 173.7 43.3 173.5C42.3 172.9 40.8 173.1 39.8 173.8C39.7 173.9 39.6 174 39.6 174.1C39.2 174.7 39.2 175.5 39.3 176.2C39.4 177.5 39.7 178.7 39.9 179.9C40 180.4 40.1 180.8 40.4 181.2C40.8 181.8 41.4 181.8 42.1 181.8C42.6 181.8 43 181.7 43.4 181.5C43.9 181.3 44.3 181 44.5 180.6C44.7 180.1 44.8 179.5 44.7 178.9V178.6ZM43.1 179.7C42.7 180.3 41.7 180.4 41.3 179.8C41.1 179.3 41 178.7 40.8 178.1C40.7 177.4 40.6 176.8 40.6 176.1C40.6 175.8 40.8 175.4 41 175.2C41.2 175 41.6 174.8 41.9 174.9C42.3 175 42.6 175.4 42.7 175.8C42.8 176.1 42.8 176.5 42.8 176.5L42.9 177.3L43 177.9C43 177.9 43 178.2 43.1 178.5C43.2 179.3 43.3 179.3 43.1 179.7Z" fill="#0A1640"/>
    <path d="M50 174.9C49.8 174.3 49.5 173.7 49 173.2C48.6 172.8 48.1 172.4 47.6 172.4C46.7 172.6 45.6 172.6 44.7 172.9C44.7 172.9 44.7 172.9 44.7 173C45.2 175.8 45.4 178.7 46.1 181.2C47.1 181.1 48.2 180.9 49.2 180.7C49.7 179.9 50.2 178.9 50.3 177.9C50.3 177.2 50.2 176.4 50.1 175.6C50.2 175.4 50.1 175.1 50 174.9ZM48.6 177.7C48.5 177.9 48.4 178 48.3 178.1C48.2 178.1 48.2 178.2 48.1 178.2C47.8 178.3 47.5 178.4 47.3 178.2C47.1 177.1 47 176 46.8 175.1C47.1 175 47.4 175 47.7 175C48.3 175.1 48.5 175.7 48.7 176.2C48.9 176.7 48.8 177.3 48.6 177.7Z" fill="#0A1640"/>
    <path d="M54.5 175.7C54.2 174.9 53.1 172.2 52.9 171.6C51.9 171.8 51.7 171.8 51.4 171.9C50.8 175.9 50.8 180.2 50.8 180.5C51.9 180.3 52.3 180.3 52.5 180.3C52.7 179.7 52.6 178.8 52.7 178.2C53.1 178.1 53 178.1 53.4 178.1C53.7 178.5 54 179.5 54.2 180C54.7 180 55.3 180 55.8 179.8L54.5 175.7ZM52.6 176.7C52.6 174.2 52.4 172.5 53.5 176.6C53.1 176.7 52.8 176.7 52.6 176.7Z" fill="#0A1640"/>
    <path d="M60.1 170.7C59.7 170.8 59.1 170.9 58.9 171C58.7 171.7 58.5 173.1 58.3 173.7C57.9 173.1 57.3 171.9 57 171.2C56.8 171.1 56.6 171.2 56.4 171.2C56.1 171.3 55.7 171.4 55.4 171.4C55.9 172.7 57 174 57.5 175.3C57.1 176.8 56.8 178.3 56.5 179.7C56.6 179.7 56.7 179.7 56.8 179.7C57.2 179.6 57.6 179.5 57.9 179.5C58 179.5 58.1 179.5 58.2 179.5C58.7 176.6 60 173.7 60.5 170.7C60.5 170.6 60.3 170.6 60.1 170.7Z" fill="#0A1640"/>
    <path d="M61.6 170.3C61.6 170.5 61.3 172.8 61.3 173.3C61.3 173.4 62.5 173.1 62.6 173.1C62.8 171.9 62.8 171.6 63 170.1C62.6 170.1 61.6 170.3 61.6 170.3Z" fill="#0A1640"/>
    <path d="M67.2 172.9C66.9 172.9 66.5 172.9 66.3 172.5C66.3 172.4 66.2 172.3 66.3 172.2C66.3 171.3 67.9 171.4 67.8 172.3C68.4 172.4 69 172.2 69.6 172.1C69.7 170.9 69.1 170.2 68.2 169.9C67.4 169.7 66.3 169.7 65.5 170.2C64.1 171.1 63.6 173.3 65.3 174.5C65.6 174.7 65.8 174.8 66.2 174.8C66.9 174.8 67.8 174.8 68.1 175.6C68.5 176.7 66.7 176.9 66.5 175.9C66 176 65.2 176 64.7 176.2C64.8 177.7 66.5 178.4 67.9 178.2C68.9 178.1 69.8 177.5 70 176.5C70.3 175.6 70.1 174.6 69.4 174C68.8 173.2 68 172.8 67.2 172.9Z" fill="#0A1640"/>
    <path d="M76.5 170.2C77.3 170.1 77.7 170 78 170C78 169.4 77.9 168.7 77.8 168.1C76.1 168.2 74.4 168.5 72.7 168.7C72.7 169.5 72.9 170.5 73 170.6C73.2 170.6 74.1 170.4 74.5 170.5C75.3 174.9 75.5 176.7 75.5 176.9C76.1 176.7 76.9 176.7 77.4 176.5C76.6 171.3 76.5 170.4 76.5 170.2Z" fill="#0A1640"/>
    <path d="M83.7 173C83.6 172.2 83.5 171.4 83.4 170.5C83.4 170.1 83.3 169.7 83.2 169.3C83.1 169.1 83 168.8 82.9 168.6C82.8 168.3 82.6 168.1 82.3 167.9C81.3 167.3 79.8 167.5 78.8 168.2C78.7 168.3 78.6 168.4 78.6 168.5C78.2 169.1 78.2 169.9 78.3 170.6C78.4 171.9 78.7 173.1 78.9 174.3C79 174.8 79.1 175.2 79.4 175.6C79.8 176.2 80.4 176.2 81.1 176.2C81.6 176.2 82 176.1 82.4 175.9C82.9 175.7 83.3 175.4 83.5 175C83.7 174.5 83.8 173.9 83.7 173.3V173ZM82.1 174C81.7 174.6 80.7 174.7 80.3 174.1C80.1 173.6 80 173 79.8 172.4C79.7 171.7 79.6 171.1 79.6 170.4C79.6 170.1 79.8 169.7 80 169.5C80.2 169.3 80.6 169.1 80.9 169.2C81.3 169.3 81.6 169.7 81.7 170.1C81.8 170.4 81.8 170.8 81.8 170.8L81.9 171.6L82 172.2C82 172.2 82 172.5 82.1 172.8C82.2 173.6 82.4 173.6 82.1 174Z" fill="#0A1640"/>
    <path d="M89.3 168.9C88.8 166.2 85.5 166.4 83.6 167.2C84.1 169.8 84.4 173.1 84.9 175.4C85.4 175.4 86.5 175.2 86.9 175.1C86.5 172.8 86.5 172.5 86.4 172.1C88 172.1 89.3 170.8 89.3 169.2C89.3 169.1 89.3 169 89.3 168.9ZM87.5 169.9C87.2 170.3 86.5 170.4 86 170.5C85.8 170 85.8 169.3 85.6 168.7C86.1 168.5 86.7 168.5 87.1 168.8C87.6 168.9 87.7 169.5 87.5 169.9Z" fill="#0A1640"/>
    <path d="M91.7 166H91.4C90.7 166.1 90.4 166.1 90.1 166.2C90 166.2 89.7 166.2 89.6 166.2C89.7 168.9 90.5 171.8 90.7 174.7C91 174.6 92.6 174.6 92.9 174.3C92.3 171.6 92.1 168.8 91.7 166Z" fill="#0A1640"/>
    <path d="M96.5 170.4C96.5 170.8 96.6 171.2 96.5 171.6C96.4 171.9 96.1 172.1 95.7 172.1C95.2 172 95 171.6 94.9 171.1C94.6 170 94.4 167.8 94.5 167.7C94.5 167.7 94.5 167.6 94.5 167.5C94.6 167.3 94.9 167.3 95.1 167.2C96 167 96 168 96.2 168.7C96.8 168.7 97.4 168.7 98 168.5C98.4 166.2 95.9 164.5 93.8 165.5C93.6 165.6 93.4 165.7 93.2 165.9C92.9 166.2 92.8 166.6 92.7 167C92.6 167.3 92.6 167.5 92.7 167.8C93 170.4 93.2 171.6 93.5 172.8C93.8 174.1 95.3 174.3 96.4 174C98.1 173.7 99 171.8 98.2 170.2C97.7 170.1 97 170.4 96.5 170.4Z" fill="#0A1640"/>
    <path d="M117.4 164.4C117.2 164.1 116.9 163.9 116.5 163.9H113.3L111.5 161.2C111.3 160.9 110.9 160.7 110.6 160.8C110.2 160.9 109.9 161.1 109.8 161.5L108.8 164.6L105.7 165.5C105.3 165.6 105.1 165.9 105 166.3C104.9 166.7 105.1 167 105.4 167.2L108 169.1L107.9 172.3C107.9 172.7 108.1 173 108.4 173.2C108.5 173.3 108.7 173.3 108.8 173.3C109 173.3 109.2 173.2 109.4 173.1L112 171.2L115 172.3C115.3 172.4 115.7 172.3 116 172.1C116.3 171.8 116.4 171.5 116.2 171.1L115.2 168L117.2 165.4C117.5 165.1 117.6 164.8 117.4 164.4ZM114.5 167.4C114.3 167.7 114.3 168 114.3 168.3L115.2 171.2L112.3 170.2C112 170.1 111.7 170.1 111.4 170.3L108.9 172.1L109 169C109 168.7 108.9 168.4 108.6 168.2L106.1 166.4L109 165.5C109.3 165.4 109.5 165.2 109.6 164.9L110.5 162L112.2 164.5C112.4 164.8 112.7 164.9 113 164.9H116.1L114.5 167.4Z" fill="#0A1640"/>
    <path d="M191.3 152.6C191.3 152.3 191 152.1 190.7 152.1L134.6 160.2C134.3 160.2 134.1 160.5 134.1 160.8C134.1 161.1 134.4 161.3 134.6 161.3H134.7L190.8 153.2C191.1 153.2 191.3 152.9 191.3 152.6Z" fill="#0A1640"/>
    <path d="M191.6 158.7L135.5 166.8C135.2 166.8 135 167.1 135 167.4C135 167.7 135.3 167.9 135.5 167.9H135.6L191.7 159.8C192 159.8 192.2 159.5 192.2 159.2C192.2 158.8 191.9 158.7 191.6 158.7Z" fill="#0A1640"/>
    <path d="M23.9 41.9001C23.6 40.9001 23.2 39.9001 22.8 38.9001C22.6 38.4001 22.4 37.9001 22.2 37.5001C22 37.2001 21.9 36.9001 21.6 36.7001C21.4 36.4001 21 36.2001 20.7 36.0001C19.2 35.6001 17.4 36.3001 16.4 37.4001C16.3 37.5001 16.2 37.7001 16.2 37.8001C15.9 38.7001 16.1 39.7001 16.4 40.6001C16.9 42.2001 17.6 43.7001 18.3 45.1001C18.5 45.7001 18.8 46.2001 19.3 46.6001C20 47.2001 20.8 47.1001 21.6 46.9001C22.2 46.7001 22.7 46.5001 23.2 46.1001C23.7 45.7001 24.2 45.2001 24.4 44.6001C24.5 43.9001 24.4 43.1001 24.2 42.4001L23.9 41.9001ZM22.2 43.7001C21.9 44.6001 20.6 45.0001 19.9 44.4001C19.5 43.8001 19.2 43.1001 18.8 42.5001C18.4 41.7001 18.1 40.9001 18 40.1001C18 39.6001 18.1 39.2001 18.3 38.8001C18.5 38.4001 18.9 38.1001 19.4 38.2001C19.9 38.2001 20.4 38.6001 20.6 39.1001C20.7 39.4001 21 39.9001 21 39.9001L21.4 40.9001L21.7 41.6001C21.7 41.6001 21.8 42.0001 22 42.4001C22.3 43.1001 22.4 43.1001 22.2 43.7001Z" fill="#0A1640"/>
    <path d="M30.4 35.6001C29.2 32.2001 25.1 33.1001 22.8 34.5001C23.9 37.8001 25 42.0001 26 44.8001C26.7 44.7001 28 44.3001 28.5 44.0001C27.6 41.1001 27.5 40.8001 27.3 40.3001C29.3 40.0001 30.8 38.0001 30.5 36.1001C30.5 35.9001 30.4 35.7001 30.4 35.6001ZM28.3 37.2001C28 37.8001 27.1 38.0001 26.5 38.2001C26.1 37.7001 26 36.7001 25.7 36.0001C26.3 35.6001 27 35.5001 27.6 35.8001C28.2 35.9001 28.5 36.6001 28.3 37.2001Z" fill="#0A1640"/>
    <path d="M33.4 31.5L33 31.6C32.1 31.8 31.6999 31.9 31.2999 32C31.1999 32 30.8 32.1 30.7 32.1C31.2 35.6 32.6 39.2 33.2 42.9C33.6 42.7 35.7 42.5 35.9 42.1C34.9 38.7 34.2 35 33.4 31.5Z" fill="#0A1640"/>
    <path d="M42.8 39.3C42.7 38.7 42.6 38.2 42.5 37.6C42.3 36.7 42.2 35.8 42 35L41.1 30C40.8 30 40.5 30 40.1 30.1C39.7 30.2 39.4 30.3 39 30.4C39.1 30.9 39.1 31.3 39.2 31.8C39.3 32.5 39.5 33.2 39.7 34C39.8 34.4 39.8 34.8 39.7 34.9C39.7 34.9 38.1 32.8 37.9 32.6C37.4 31.8 37.2 31.7 36.8 31C36.8 30.9 35.8 31 35.5 31.1C35.3 31.1 35 31.2 34.8 31.3C34.9 32.6 35.2 34 35.4 35.4C35.8 37.3 36.1 39 36.5 40.9L36.7 42C37.2 41.9 37.7 41.9 38.2 41.8C38.4 41.8 38.6 41.7 38.9 41.6C38.8 41.2 38.7 40.8 38.6 40.3C38.3 38.6 37.9 36.4 38 36.4C38 36.4 38.2 36.6 38.3 36.8L38.5 37.2C39.2 38.4 40.2 39.7 41.2 41.1C41.6 41 42.2 41 42.6 40.9C43 40.8 43 40.8 43.1 40.7L43 40.5C43 40.1 42.9 39.7 42.8 39.3Z" fill="#0A1640"/>
    <path d="M45.4 29.4H45C44.1 29.5 43.6999 29.5 43.2999 29.6C43.1999 29.6 42.8 29.6 42.7 29.7C42.8 33.2 43.8 36.9 44 40.7C44.4 40.5 46.4999 40.6 46.7999 40.2C46.1999 36.7 45.9 33 45.4 29.4Z" fill="#0A1640"/>
    <path d="M53.5999 31.4001C53.4999 31.1001 53.4 30.8001 53.3 30.5001C53.1 30.2001 52.9 29.8001 52.5999 29.6001C51.2999 28.8001 49.3999 28.9001 48.0999 29.7001C47.9999 29.8001 47.9 29.9001 47.8 30.0001C47.2 30.8001 47.1 31.8001 47.2 32.7001C47.2 34.3001 47.5 36.0001 47.7 37.6001C47.8 38.2001 47.9 38.8001 48.2 39.3001C48.6 40.1001 49.5 40.2001 50.3 40.2001C50.9 40.2001 51.4999 40.1001 52.0999 39.9001C52.6999 39.7001 53.2999 39.3001 53.5999 38.8001C53.9 38.2001 54 37.4001 54 36.7001V36.2001C54 35.1001 53.8 34.1001 53.8 33.0001C53.7 32.4001 53.5999 31.9001 53.5999 31.4001ZM51.8 37.4001C51.2 38.2001 49.9 38.2001 49.4 37.4001C49.1 36.7001 49.1 36.0001 48.9 35.2001C48.8 34.3001 48.7 33.4001 48.8 32.6001C48.9 32.2001 49.1 31.8001 49.4 31.5001C49.7 31.2001 50.1999 31.0001 50.5999 31.2001C51.0999 31.4001 51.4 31.9001 51.5 32.5001C51.5 32.9001 51.5999 33.4001 51.5999 33.4001L51.7 34.5001L51.8 35.2001C51.8 35.2001 51.8 35.6001 51.8 36.0001C52 36.9001 52.1 36.8001 51.8 37.4001Z" fill="#0A1640"/>
    <path d="M61.4 38C61.4 37.4 61.4 36.9 61.4 36.3C61.4 35.4 61.4 34.5 61.4 33.6V28.6C61.1 28.5 60.8 28.5 60.4 28.5C60 28.5 59.6 28.5 59.3 28.6C59.3 29.1 59.3 29.6 59.3 30C59.3 30.7 59.4 31.4 59.4 32.3C59.4 32.7 59.4 33.1 59.3 33.2C59.3 33.2 58.1 30.9 58 30.6C57.6 29.7 57.5 29.6 57.2 28.9C57.2 28.8 56.2 28.8 55.9 28.8C55.7 28.8 55.4 28.8 55.2 28.9C55.1 30.2 55.1 31.7 55.1 33.1C55.1 35.1 55.2 36.8 55.2 38.7V39.8C55.7 39.8 56.2 39.9 56.7 39.9C56.9 39.9 57.2 39.9 57.4 39.8C57.4 39.4 57.4 39 57.4 38.5C57.4 36.8 57.4 34.5 57.5 34.5C57.5 34.5 57.6 34.7 57.7 35L57.9 35.5C58.4 36.8 59.1 38.3 59.8 39.8C60.2 39.8 60.8 39.9 61.2 39.9C61.6 39.9 61.7 39.8 61.7 39.8V39.5C61.5 38.8 61.4 38.4 61.4 38Z" fill="#0A1640"/>
    <path d="M62.9 28.7C62.6 31.5 62.6 34.3 62.4 37C63 37 63.9 37.1 64.4 37C64.4 34.3 64.6 31.4 64.8 28.7C64.3 28.5 63.5 28.7 62.9 28.7Z" fill="#0A1640"/>
    <path d="M62.6 37.8001C62.6 38.4001 62.3 39.6001 62.5 39.6001H63.7C63.9 39.6001 64 39.6001 64.3 39.6001H64.4C64.4 39.0001 64.5 38.3001 64.5 37.7001C63.9 37.8001 63.1 37.6001 62.6 37.8001Z" fill="#0A1640"/>
    <path d="M5.29996 23.4C5.69996 25.2 6.69996 27.2 7.59996 30.5C5.19996 27.9 3.89996 25.1 3.29996 24.5C2.99996 24.6 1.49996 25.3 1.39996 25.7C3.39996 28.7 5.59996 31.6 8.09996 34.1C8.49996 34 8.99996 33.7 9.39996 33.5C9.79996 33.3 10.1 33.1 10.2 33C9.29996 29.3 8.49996 26 7.29996 22.4C6.59996 22.6 5.99996 23.2 5.29996 23.4Z" fill="#0A1640"/>
    <path d="M17.5999 28.6C17.6999 27.9 17.5999 27.1 17.2999 26.4L17.0999 25.9C16.6999 24.9 16.2999 24 15.8999 22.9C15.6999 22.4 15.4999 21.9 15.2999 21.5C15.0999 21.2 14.8999 20.9 14.6999 20.7C14.3999 20.4 14.0999 20.2 13.6999 20.1C12.1999 19.7 10.3999 20.5 9.39995 21.6C9.29995 21.7 9.19995 21.9 9.19995 22C8.89995 23 9.19995 24 9.49995 24.8C10.0999 26.3 10.7999 27.8 11.4999 29.3C11.7999 29.9 12.0999 30.4 12.4999 30.7C13.1999 31.3 13.9999 31.2 14.7999 30.9C15.3999 30.7 15.8999 30.4 16.3999 30C16.9999 29.7 17.3999 29.2 17.5999 28.6ZM15.4999 27.8C15.1999 28.7 13.9999 29.2 13.2999 28.6C12.7999 28.1 12.4999 27.3 12.1999 26.7C11.7999 25.9 11.4999 25.1 11.2999 24.3C11.1999 23.8 11.2999 23.4 11.4999 23C11.6999 22.6 12.0999 22.3 12.4999 22.3C12.9999 22.3 13.4999 22.7 13.7999 23.2C13.9999 23.5 14.1999 24 14.1999 24L14.6999 25L14.9999 25.7C14.9999 25.7 15.0999 26.1 15.2999 26.5C15.4999 27.2 15.6999 27.2 15.4999 27.8Z" fill="#0A1640"/>
    <path d="M19.4 28.9C19.8 28.6 21.8 28.2 22 27.8C20.6 24.5 19.6 21 18.4 17.6V17.5L18 17.7C17.1 18 16.7 18.1 16.4 18.2C16.3 18.2 15.9 18.3 15.8 18.4C16.6 21.9 18.4 25.3 19.4 28.9Z" fill="#0A1640"/>
    <path d="M22.2 25.8C22.9 27.4 24.8 27.4 26.2 26.8C28.4 26.1 29.0999 23.5 27.9 21.6C27.3 21.6 26.4999 22 25.9 22.1C25.9 22.6 26.2 23.1 26.1 23.6C26 24.1 25.6 24.4 25.2 24.4C24.6 24.4 24.1999 23.8 23.9 23.3C23.4 22 22.7 19.1 22.7 19V18.8C22.8 18.6 23.1 18.5 23.4 18.3C24.5999 17.9 24.7 19.2 25 20C25.8 19.9 26.5 19.8 27.2 19.4C27.4 16.3 23.7999 14.7 21.2999 16.3C20.9999 16.5 20.8 16.6 20.6 16.9C20.3 17.4 20.2 17.9 20.2 18.4C20.2 18.7 20.1999 19.1 20.2999 19.5C21.2999 22.8 21.7 24.4 22.2 25.8Z" fill="#0A1640"/>
    <path d="M36.6 22C35.2 22.3 33.9 22.4 32.6 22.7C32.5 22.2 32.2 21.4 32.2 20.8C32.4 20.6 33.4 20.5 34 20.2C33.8 19.5 33.8 18.7 33.5 18.1C32.9 18.2 32.2 18.4 31.6 18.4C31.3 17.9 31.3 17.2 31.2 16.6C32.5 16.2 33.9 16.1 35.2 15.6C35.1 14.9 35 14.1 34.7 13.4C34.7 13.3 30.7 14.2 28.4 14.8C28.9 18.3 29.8 21.7 30.6 25.3C32.6 25.1 34.8 24.4 36.9 24C36.9 23.4 36.8 22.7 36.6 22Z" fill="#0A1640"/>
    <path d="M42.8 17.8C42.3 19.7 41.7 21.7 41.3 23.4C41.4 23.4 41.6 23.4 41.7 23.4C42.2 23.4 42.7 23.2 43.2 23.2C43.3 23.2 43.5 23.2 43.6 23.2C44.5 19.4 46.3 15.8 47 12C46.9 12 46.7 12 46.4 12C45.9 12.1 45.1 12.2 44.8 12.3C44.5 13.2 44.2 15 43.9 15.8C43.4 15.1 42.6 13.4 42.3 12.5C42.1 12.4 41.8 12.4 41.6 12.5C41.1 12.5 40.7 12.7 40.3 12.7C40.9 14.4 42.2 16 42.8 17.8Z" fill="#0A1640"/>
    <path d="M53.9 14.2C53.8 13.9 53.8 13.5 53.6 13.2C53.5 12.8 53.2 12.5 52.9 12.3C51.7 11.4 49.7 11.5 48.4 12.2C48.3 12.3 48.2 12.4 48.1 12.5C47.5 13.3 47.4 14.3 47.4 15.2C47.4 16.8 47.6 18.5 47.7 20.1C47.7 20.7 47.8 21.3 48.2 21.8C48.6 22.6 49.4 22.8 50.3 22.8C50.9 22.8 51.5 22.8 52.1 22.6C52.7 22.4 53.3 22.1 53.7 21.6C54 21 54.2 20.2 54.2 19.5V19C54.2 17.9 54.1 16.9 54.1 15.8C54 15.2 53.9 14.7 53.9 14.2ZM51.9 20.1C51.3 20.8 50 20.8 49.5 20C49.3 19.3 49.2 18.5 49.1 17.8C49 16.9 49 16 49.1 15.2C49.2 14.8 49.4 14.4 49.8 14.1C50.1 13.8 50.6 13.7 51 13.8C51.5 14 51.8 14.5 51.9 15.1C51.9 15.5 52 16 52 16L52.1 17.1V17.8C52.1 17.8 52.1 18.2 52.1 18.6C52.1 19.6 52.2 19.6 51.9 20.1Z" fill="#0A1640"/>
    <path d="M59.7 12.1C59.6 14.5 59.5 17.2 59.3 19.7C59.1 20.6 57.6 20.7 57.4 19.7C57.3 17.1 57.3 14.5 57.5 12C56.9 11.8 55.9 11.9 55.3 11.8C55.3 14.5 55.1 17.4 55 20.1C55 22 57.1 22.9 58.9 22.7C60.4 22.6 61.3 21.6 61.5 20.2C61.9 17.5 62 14.8 62 12.1C61.5 11.9 60.3 12.1 59.7 12.1Z" fill="#0A1640"/>
    <path d="M67.8 18.5001C68.9 18.6001 69.6 18.1001 70.1 17.4001C71.7 15.4001 70.4 12.5001 68 12.1001C66.5 11.7001 65.1 11.8001 63.9 11.8001C63.9 12.9001 62.7 22.7001 62.6 22.6001C62.8 22.6001 64.6 23.0001 65.3 22.8001C65.4 22.0001 65.5 19.9001 65.7 19.0001V19.1001C66.4 20.3001 67.1 22.3001 67.3 23.3001C68.2 23.5001 69.1 23.5001 69.9 23.6001C69.6 21.8001 68.5 20.2001 67.8 18.5001ZM67.3 16.4001C66.8 16.4001 66.2 16.3001 65.7 16.2001C65.7 15.7001 65.8 14.8001 65.9 14.3001C66.7 14.1001 67.4 14.1001 67.8 14.6001C68.3 15.1001 68.1 16.4001 67.3 16.4001Z" fill="#0A1640"/>
    <path d="M141.5 4.80004L137.6 4.30004C137.4 4.30004 137.1 4.10004 137 3.90004L135.2 0.400043C134.9 -0.199957 134.1 -0.0999569 133.8 0.400043L132.1 4.00004C132 4.20004 131.8 4.40004 131.5 4.40004L127.6 5.00004C127 5.10004 126.7 5.90004 127.2 6.30004L130.1 9.00004C130.3 9.20004 130.4 9.40004 130.3 9.70004L129.7 13.6C129.6 14.2 130.3 14.7 130.8 14.4L134.2 12.5C134.4 12.4 134.7 12.4 134.9 12.5L138.4 14.3C139 14.6 139.6 14.1 139.5 13.5L138.8 9.60004C138.8 9.40004 138.8 9.10004 139 8.90004L141.8 6.10004C142.3 5.60004 142.1 4.90004 141.5 4.80004Z" fill="#E38921"/>
    <path d="M111.4 26.1L108.2 24.8C108 24.7 107.8 24.5 107.8 24.3L107.1 20.9C107 20.4 106.3 20.2 105.9 20.6L103.6 23.2C103.5 23.4 103.2 23.5 103 23.4L99.7 23C99.1 22.9 98.8 23.5 99.1 24L100.9 27C101 27.2 101 27.4 100.9 27.6L99.5 30.7C99.3 31.2 99.7 31.8 100.3 31.6L103.7 30.8C103.9 30.8 104.1 30.8 104.3 31L106.9 33.3C107.3 33.7 108 33.4 108 32.9L108.3 29.5C108.3 29.3 108.4 29.1 108.6 29L111.6 27.3C112 27 111.9 26.3 111.4 26.1Z" fill="#E38921"/>
    <path d="M173.3 16.9001C173.1 16.8001 173 16.6001 173 16.4001L172.9 13.4001C172.9 12.9001 172.3 12.7001 171.9 13.0001L169.5 14.9001C169.3 15.0001 169.2 15.1001 169 15.0001L166.1 14.1001C165.6 14.0001 165.2 14.4001 165.4 14.9001L166.5 17.7001C166.6 17.9001 166.5 18.1001 166.4 18.2001L164.7 20.7001C164.4 21.1001 164.7 21.6001 165.2 21.6001L168.2 21.5001C168.4 21.5001 168.6 21.6001 168.7 21.7001L170.5 24.1001C170.8 24.5001 171.4 24.4001 171.5 23.9001L172.3 21.0001C172.4 20.8001 172.5 20.7001 172.7 20.6001L175.5 19.6001C176 19.4001 176 18.8001 175.6 18.6001L173.3 16.9001Z" fill="#E38921"/>
    <path d="M204.7 185.7C205.1 185.2 204.7 184.5 204 184.5L200.1 184.7C199.8 184.7 199.6 184.6 199.5 184.4L197.1 181.2C196.7 180.7 195.9 180.8 195.8 181.5L194.7 185.3C194.6 185.5 194.4 185.7 194.2 185.8L190.5 187.1C189.9 187.3 189.8 188.1 190.3 188.5L193.6 190.7C193.8 190.8 193.9 191.1 193.9 191.3L194 195.2C194 195.8 194.7 196.2 195.2 195.8L198.3 193.4C198.5 193.2 198.8 193.2 199 193.3L202.8 194.5C203.4 194.7 204 194.1 203.7 193.5L202.3 189.8C202.2 189.6 202.2 189.3 202.4 189.1L204.7 185.7Z" fill="#E38921"/>
    <path d="M125.9 197.2L122.5 196.4C122.3 196.3 122.1 196.2 122 196L120.8 192.8C120.6 192.3 119.9 192.2 119.6 192.7L117.8 195.6C117.7 195.8 117.5 195.9 117.3 195.9L113.8 196.1C113.2 196.1 113 196.8 113.3 197.2L115.5 199.8C115.6 200 115.7 200.2 115.6 200.4L114.7 203.7C114.6 204.2 115.1 204.7 115.6 204.5L118.8 203.2C119 203.1 119.2 203.1 119.4 203.3L122.3 205.2C122.8 205.5 123.4 205.1 123.3 204.6L123 201.2C123 201 123.1 200.8 123.2 200.6L125.9 198.4C126.6 198 126.5 197.3 125.9 197.2Z" fill="#E38921"/>
    <path d="M166.7 207.1L163.9 205.9C163.7 205.8 163.6 205.7 163.6 205.5L163 202.5C162.9 202 162.3 201.9 162 202.2L160 204.5C159.9 204.6 159.7 204.7 159.5 204.7L156.5 204.3C156 204.2 155.7 204.8 155.9 205.2L157.4 207.8C157.5 208 157.5 208.2 157.4 208.3L156.1 211C155.9 211.4 156.3 211.9 156.8 211.8L159.8 211.2C160 211.2 160.2 211.2 160.3 211.3L162.5 213.4C162.9 213.7 163.4 213.5 163.5 213L163.8 210C163.8 209.8 163.9 209.6 164.1 209.5L166.7 208C167.2 207.9 167.1 207.3 166.7 207.1Z" fill="#E38921"/>
  </g>
  <defs>
    <clipPath id="clip0_65_346">
      <rect width="220.1" height="213.6" fill="white"/>
    </clipPath>
  </defs>
</svg>