<svg xmlns="http://www.w3.org/2000/svg" width="217" height="204" viewBox="0 0 217 204" fill="none">
  <g clip-path="url(#clip0_65_510)">
    <path d="M174.2 57.3V150.7C174.2 151.5 174.2 152.2 174.1 152.9C173.2 162.1 166.6 169.7 157.9 172.1C156 172.6 154 172.9 152 172.9C150 172.9 147.9 172.6 146.1 172.1C142.1 171 138.6 168.9 135.9 166C132.6 162.5 130.4 158 129.9 152.9C129.8 152.2 129.8 151.4 129.8 150.7V57.3C129.8 51.2 132.3 45.6 136.3 41.6C140.3 37.6 145.9 35.1 152 35.1C158 35.1 163.5 37.5 167.5 41.4C167.6 41.5 167.7 41.6 167.8 41.7C169 42.9 170.1 44.3 171 45.8C172.3 47.9 173.2 50.2 173.7 52.7C174.1 54.3 174.2 55.8 174.2 57.3Z" fill="#00D4FC"/>
    <path d="M174.2 66.9V106.6C174.2 107.2 174.2 107.8 174.1 108.3H129.9C129.8 107.7 129.8 107.2 129.8 106.6V66.9H174.2Z" fill="#FF8CDB"/>
    <g opacity="0.25">
      <path d="M173.8 52.7999C169.2 56.7999 166 61.4999 163.6 66.8999H174.2V57.3999C174.2 55.7999 174.1 54.2999 173.8 52.7999Z" fill="#332FBA"/>
      <path d="M157.3 108.3C156.9 118.5 156.6 128.6 154.8 137.9C153.2 146.1 150.3 154.5 144.3 160.3C141.8 162.7 138.9 164.6 135.8 166C139.8 170.3 145.6 173 152 173C163.5 173 173 164.2 174.1 153C174.2 152.3 174.2 151.5 174.2 150.8V106.6C174.2 107.2 174.2 107.8 174.1 108.3H157.3Z" fill="#332FBA"/>
    </g>
    <path opacity="0.5" d="M174.2 66.9V106.6C174.2 107.2 174.2 107.8 174.1 108.3H157.3C157.8 93.6 158.4 78.8 163.6 66.9H174.2Z" fill="#D811AD"/>
    <path d="M176.9 190.9H127.1C123.6 190.9 120.8 193.7 120.8 197.2C120.8 198.9 121.5 200.5 122.6 201.7C123.7 202.8 125.3 203.5 127.1 203.5H176.9C180.4 203.5 183.2 200.7 183.2 197.2C183.2 195.5 182.5 193.9 181.4 192.7C180.2 191.6 178.7 190.9 176.9 190.9Z" fill="#332FBA"/>
    <path d="M128.7 115.4H175.4C177.4 115.4 179 113.8 179 111.8C179 109.8 177.4 108.2 175.4 108.2H128.7C126.7 108.2 125.1 109.8 125.1 111.8C125.1 113.8 126.7 115.4 128.7 115.4Z" fill="#332FBA"/>
    <path d="M180.3 124.1H123.6C121.6 124.1 120 125.7 120 127.7C120 129.7 121.6 131.3 123.6 131.3H180.3C182.3 131.3 183.9 129.7 183.9 127.7C183.9 125.7 182.3 124.1 180.3 124.1Z" fill="#332FBA"/>
    <path d="M175.3 164.5C177.3 164.5 178.9 162.9 178.9 160.9C178.9 158.9 177.3 157.3 175.3 157.3H128.6C126.6 157.3 125 158.9 125 160.9C125 162.9 126.6 164.5 128.6 164.5H175.3Z" fill="#332FBA"/>
    <path d="M180.3 141.6H123.6C121.6 141.6 120 143.2 120 145.2C120 147.2 121.6 148.8 123.6 148.8H180.3C182.3 148.8 183.9 147.2 183.9 145.2C183.9 143.2 182.3 141.6 180.3 141.6Z" fill="#332FBA"/>
    <path d="M146.1 172.1V190.8H158V172.1C156.1 172.6 154.1 172.9 152.1 172.9C150.1 172.9 147.9 172.6 146.1 172.1Z" fill="#D811AD"/>
    <path d="M136.2 69.9999C135 69.9999 134 70.9999 134 72.1999C134 73.3999 135 74.3999 136.2 74.3999C137.4 74.3999 138.4 73.3999 138.4 72.1999C138.4 70.9999 137.4 69.9999 136.2 69.9999Z" fill="#D811AD"/>
    <path d="M141.9 72.1999C141.9 73.3999 142.9 74.3999 144.1 74.3999C145.3 74.3999 146.3 73.3999 146.3 72.1999C146.3 70.9999 145.3 69.9999 144.1 69.9999C142.9 69.9999 141.9 70.9999 141.9 72.1999Z" fill="#D811AD"/>
    <path d="M152 74.3999C153.2 74.3999 154.2 73.3999 154.2 72.1999C154.2 70.9999 153.2 69.9999 152 69.9999C150.8 69.9999 149.8 70.9999 149.8 72.1999C149.8 73.3999 150.8 74.3999 152 74.3999Z" fill="#D811AD"/>
    <path d="M136.2 77.7C135 77.7 134 78.7 134 79.9C134 81.1 135 82.1 136.2 82.1C137.4 82.1 138.4 81.1 138.4 79.9C138.4 78.6 137.4 77.7 136.2 77.7Z" fill="#D811AD"/>
    <path d="M144.1 77.7C142.9 77.7 141.9 78.7 141.9 79.9C141.9 81.1 142.9 82.1 144.1 82.1C145.3 82.1 146.3 81.1 146.3 79.9C146.3 78.6 145.3 77.7 144.1 77.7Z" fill="#D811AD"/>
    <path d="M152 82.1C153.2 82.1 154.2 81.1 154.2 79.9C154.2 78.7 153.2 77.7 152 77.7C150.8 77.7 149.8 78.7 149.8 79.9C149.8 81.1 150.8 82.1 152 82.1Z" fill="#D811AD"/>
    <path d="M136.2 85.2999C135 85.2999 134 86.2999 134 87.4999C134 88.6999 135 89.6999 136.2 89.6999C137.4 89.6999 138.4 88.6999 138.4 87.4999C138.4 86.2999 137.4 85.2999 136.2 85.2999Z" fill="#D811AD"/>
    <path d="M144.1 85.2999C142.9 85.2999 141.9 86.2999 141.9 87.4999C141.9 88.6999 142.9 89.6999 144.1 89.6999C145.3 89.6999 146.3 88.6999 146.3 87.4999C146.3 86.2999 145.3 85.2999 144.1 85.2999Z" fill="#D811AD"/>
    <path d="M152 89.7999C153.215 89.7999 154.2 88.8149 154.2 87.5999C154.2 86.3849 153.215 85.3999 152 85.3999C150.785 85.3999 149.8 86.3849 149.8 87.5999C149.8 88.8149 150.785 89.7999 152 89.7999Z" fill="#D811AD"/>
    <path d="M159.9 69.9999C158.7 69.9999 157.7 70.9999 157.7 72.1999C157.7 73.3999 158.7 74.3999 159.9 74.3999C161.1 74.3999 162.1 73.3999 162.1 72.1999C162.1 70.9999 161.1 69.9999 159.9 69.9999Z" fill="#D811AD"/>
    <path d="M159.9 77.7C158.7 77.7 157.7 78.7 157.7 79.9C157.7 81.1 158.7 82.1 159.9 82.1C161.1 82.1 162.1 81.1 162.1 79.9C162.1 78.6 161.1 77.7 159.9 77.7Z" fill="#D811AD"/>
    <path d="M159.9 85.2999C158.7 85.2999 157.7 86.2999 157.7 87.4999C157.7 88.6999 158.7 89.6999 159.9 89.6999C161.1 89.6999 162.1 88.6999 162.1 87.4999C162.1 86.2999 161.1 85.2999 159.9 85.2999Z" fill="#D811AD"/>
    <path d="M165.6 72.1999C165.6 73.3999 166.6 74.3999 167.8 74.3999C169 74.3999 170 73.3999 170 72.1999C170 70.9999 169 69.9999 167.8 69.9999C166.6 69.9999 165.6 70.9999 165.6 72.1999Z" fill="#D811AD"/>
    <path d="M136.2 92.9999C135 92.9999 134 93.9999 134 95.1999C134 96.3999 135 97.3999 136.2 97.3999C137.4 97.3999 138.4 96.3999 138.4 95.1999C138.4 93.9999 137.4 92.9999 136.2 92.9999Z" fill="#D811AD"/>
    <path d="M144.1 92.9999C142.9 92.9999 141.9 93.9999 141.9 95.1999C141.9 96.3999 142.9 97.3999 144.1 97.3999C145.3 97.3999 146.3 96.3999 146.3 95.1999C146.3 93.9999 145.3 92.9999 144.1 92.9999Z" fill="#D811AD"/>
    <path d="M152 97.5C153.215 97.5 154.2 96.515 154.2 95.3C154.2 94.085 153.215 93.1 152 93.1C150.785 93.1 149.8 94.085 149.8 95.3C149.8 96.515 150.785 97.5 152 97.5Z" fill="#D811AD"/>
    <path d="M159.9 92.9999C158.7 92.9999 157.7 93.9999 157.7 95.1999C157.7 96.3999 158.7 97.3999 159.9 97.3999C161.1 97.3999 162.1 96.3999 162.1 95.1999C162.1 93.9999 161.1 92.9999 159.9 92.9999Z" fill="#D811AD"/>
    <path d="M167.8 92.9999C166.6 92.9999 165.6 93.9999 165.6 95.1999C165.6 96.3999 166.6 97.3999 167.8 97.3999C169 97.3999 170 96.3999 170 95.1999C170 93.9999 169 92.9999 167.8 92.9999Z" fill="#D811AD"/>
    <path d="M136.2 100.7C135 100.7 134 101.7 134 102.9C134 104.1 135 105.1 136.2 105.1C137.4 105.1 138.4 104.1 138.4 102.9C138.4 101.7 137.4 100.7 136.2 100.7Z" fill="#D811AD"/>
    <path d="M144.1 100.7C142.9 100.7 141.9 101.7 141.9 102.9C141.9 104.1 142.9 105.1 144.1 105.1C145.3 105.1 146.3 104.1 146.3 102.9C146.3 101.7 145.3 100.7 144.1 100.7Z" fill="#D811AD"/>
    <path d="M152 105.2C153.2 105.2 154.2 104.2 154.2 103C154.2 101.8 153.2 100.8 152 100.8C150.8 100.8 149.8 101.8 149.8 103C149.8 104.2 150.8 105.2 152 105.2Z" fill="#D811AD"/>
    <path d="M159.9 100.7C158.7 100.7 157.7 101.7 157.7 102.9C157.7 104.1 158.7 105.1 159.9 105.1C161.1 105.1 162.1 104.1 162.1 102.9C162.1 101.7 161.1 100.7 159.9 100.7Z" fill="#D811AD"/>
    <path d="M167.8 100.7C166.6 100.7 165.6 101.7 165.6 102.9C165.6 104.1 166.6 105.1 167.8 105.1C169 105.1 170 104.1 170 102.9C170 101.7 169 100.7 167.8 100.7Z" fill="#D811AD"/>
    <path d="M167.8 77.7C166.6 77.7 165.6 78.7 165.6 79.9C165.6 81.1 166.6 82.1 167.8 82.1C169 82.1 170 81.1 170 79.9C170 78.6 169 77.7 167.8 77.7Z" fill="#D811AD"/>
    <path d="M167.8 85.2999C166.6 85.2999 165.6 86.2999 165.6 87.4999C165.6 88.6999 166.6 89.6999 167.8 89.6999C169 89.6999 170 88.6999 170 87.4999C170 86.2999 169 85.2999 167.8 85.2999Z" fill="#D811AD"/>
    <path d="M168.4 56.7C167.2 55.4 164.4 54.6 161.5 55.7C159.6 56.4 158.5 58.3 159.9 59.8C163.2 63.3 171.6 60.1 168.4 56.7Z" fill="#D811AD"/>
    <path d="M142.5 55.5999C139.6 54.5999 136.8 55.3999 135.6 56.5999C132.4 59.9999 140.8 63.1999 144.2 59.5999C145.6 58.1999 144.4 56.2999 142.5 55.5999Z" fill="#D811AD"/>
    <path d="M152 49.7C149.1 49.7 146.1 50.8999 146.1 53.0999C146.1 56.0999 149 58.3 152 58.4C155 58.3 157.9 56.0999 157.9 53.0999C157.9 50.8999 154.9 49.7 152 49.7Z" fill="white"/>
    <g opacity="0.25">
      <path d="M120.8 197.2C120.8 198.9 121.5 200.5 122.6 201.7C123.7 202.8 125.3 203.5 127.1 203.5H176.9C180.4 203.5 183.2 200.7 183.2 197.2H120.8Z" fill="#0A1640"/>
      <path d="M157.9 177.1V172.1C156 172.6 154 172.9 152 172.9C150 172.9 147.9 172.6 146.1 172.1V183.4C149.6 182.6 153 181.2 155.8 179.1C156.5 178.5 157.3 177.8 157.9 177.1Z" fill="#0A1640"/>
    </g>
    <path d="M180.3 149.3C182.5 149.3 184.4 147.5 184.4 145.2C184.4 143.1 182.7 141.3 180.6 141.1V131.7C182.7 131.5 184.4 129.8 184.4 127.6C184.4 125.3 182.6 123.5 180.3 123.5H179.5L176.1 115.8C177.9 115.4 179.3 113.8 179.3 111.8C179.3 109.6 177.5 107.7 175.2 107.7H174.6V57.3C174.6 55.7 174.4 54.2 174.1 52.7C173.6 50.2 172.6 47.8 171.3 45.6C170.4 44.1 169.3 42.6 168 41.4C167.9 41.3 167.9 41.3 167.8 41.2L167.7 41.1C163.4 36.9 157.8 34.6 151.8 34.6C145.7 34.6 140 37 135.7 41.3C131.4 45.6 129 51.3 129 57.4V66.9V106.6V107.8H128.4C126.1 107.8 124.3 109.6 124.3 111.9C124.3 113.8 125.7 115.5 127.5 115.9L124.1 123.6H123.3C121.1 123.6 119.2 125.4 119.2 127.7C119.2 129.8 120.9 131.6 123 131.8V141.2C120.9 141.3 119.2 143.1 119.2 145.3C119.2 147.5 121 149.4 123.3 149.4H124.1L127.5 157.1C125.7 157.5 124.3 159.2 124.3 161.1C124.3 163.3 126.1 165.2 128.4 165.2H134.1C134.5 165.6 134.8 166.1 135.2 166.5C138 169.5 141.4 171.6 145.3 172.7V190.5H126.9C123.1 190.5 120.1 193.6 120.1 197.3C120.1 199.1 120.8 200.8 122.1 202.1C123.4 203.4 125.1 204.1 126.9 204.1H176.7C180.5 204.1 183.5 201 183.5 197.3C183.5 195.5 182.8 193.8 181.5 192.5C180.2 191.2 178.5 190.5 176.7 190.5H158.3V172.7C162.8 171.4 166.6 168.8 169.5 165.2H175.2C177.4 165.2 179.3 163.4 179.3 161.1C179.3 159.2 177.9 157.5 176.1 157.1L179.5 149.4H180.3V149.3ZM129.2 141.1H124.4V131.7H129.2V141.1ZM130.3 131.7H173.7V141.1H130.3V131.7ZM174.8 131.7H179.6V141.1H174.8V131.7ZM178.4 123.5H174.7V115.8H175L178.4 123.5ZM130.3 115.9H173.7V123.6H130.3V115.9ZM130.3 106.5V67.4H173.7V106.5C173.7 106.9 173.7 107.3 173.6 107.7H130.3C130.3 107.3 130.3 106.9 130.3 106.5ZM136.6 42C140.7 37.9 146.2 35.6 152 35.6C157.7 35.6 163.1 37.8 167.1 41.8L167.4 42.1C168.6 43.3 169.7 44.7 170.5 46.1C171.8 48.2 172.7 50.5 173.2 52.9C173.5 54.3 173.7 55.8 173.7 57.3V66.3H130.3V57.3C130.3 51.5 132.6 46.1 136.6 42ZM125.6 111.8C125.6 110.1 126.9 108.8 128.6 108.8H129.2H129.8H130.2H173.6H174H174.6H175.2C176.9 108.8 178.2 110.2 178.2 111.8C178.2 113.3 177.1 114.6 175.6 114.8C175.5 114.8 175.3 114.8 175.2 114.8H174.6H174.5H173.6H130.2H129.3H129.2H128.6C128.5 114.8 128.3 114.8 128.2 114.8C126.8 114.6 125.6 113.3 125.6 111.8ZM128.9 115.9H129.2V123.6H125.5L128.9 115.9ZM120.6 127.6C120.6 125.9 122 124.6 123.6 124.6H123.9H125.1H129.2H130.3H173.7H174.8H178.9H180.1H180.4C182.1 124.6 183.4 125.9 183.4 127.6C183.4 129.2 182.2 130.4 180.7 130.6C180.6 130.6 180.5 130.6 180.4 130.6H179.6H174.8H173.7H130.3H129.2H124.4H123.6C123.5 130.6 123.4 130.6 123.3 130.6C121.8 130.5 120.6 129.2 120.6 127.6ZM125.6 149.3H129.3V150.7C129.3 151.4 129.3 152.2 129.4 153C129.5 154.3 129.8 155.6 130.1 156.9H128.9L125.6 149.3ZM173.7 150.7C173.7 151.4 173.7 152.1 173.6 152.9C173.5 154.3 173.2 155.6 172.8 156.9H131.2C130.8 155.6 130.5 154.2 130.4 152.9C130.3 152.2 130.3 151.4 130.3 150.7V149.3H173.7V150.7ZM176.9 191.4C178.4 191.4 179.9 192 181 193.1C182.1 194.2 182.7 195.7 182.7 197.2C182.7 200.4 180.1 203 176.9 203H127.1C125.6 203 124.1 202.4 123 201.3C121.9 200.2 121.3 198.7 121.3 197.2C121.3 194 123.9 191.4 127.1 191.4H145.5H146.6H157.4H158.5H176.9ZM157.4 190.3H146.6V172.8C148.4 173.2 150.2 173.5 152 173.5C153.8 173.5 155.7 173.3 157.4 172.9V190.3ZM158.5 171.4C158.1 171.5 157.8 171.6 157.4 171.7C155.7 172.1 153.9 172.4 152 172.4C150.1 172.4 148.3 172.2 146.6 171.7C146.2 171.6 145.9 171.5 145.5 171.4C142 170.3 138.8 168.3 136.2 165.6C136 165.4 135.9 165.3 135.7 165.1H145.9H147.1H157H158.1H168.3C165.7 168 162.3 170.2 158.5 171.4ZM178.4 161C178.4 162.7 177 164 175.4 164H170.6H169.3H157.7H156.4H147.8H146.5H134.9H133.6H128.7C127 164 125.7 162.6 125.7 161C125.7 159.5 126.8 158.2 128.3 158C128.4 158 128.6 158 128.7 158H129.4H130.4H131.5H172.4H173.5H174.5H175.2C175.3 158 175.5 158 175.6 158C177.2 158.2 178.4 159.5 178.4 161ZM175.1 156.9H173.9C174.3 155.6 174.5 154.3 174.6 153C174.7 152.2 174.7 151.4 174.7 150.7V149.3H178.4L175.1 156.9ZM178.9 148.2H174.8H173.7H130.3H129.2H125.1H124H123.7C122 148.2 120.7 146.9 120.7 145.2C120.7 143.6 121.9 142.4 123.4 142.2C123.5 142.2 123.6 142.2 123.7 142.2H124.5H129.3H130.4H173.8H174.9H179.7H180.5C180.6 142.2 180.7 142.2 180.8 142.2C182.3 142.4 183.5 143.6 183.5 145.2C183.5 146.9 182.1 148.2 180.5 148.2H180H178.9Z" fill="#0A1640"/>
    <path d="M141.3 52.9C142.9 52.9 144.1 51.7 144.1 50C144.1 48.4 142.8 47.2 141.2 47.2C139.6 47.2 138.4 48.4999 138.3 50.0999C138.4 51.4999 139.7 52.9 141.3 52.9Z" fill="#0A1640"/>
    <path d="M162.7 52.9C166.7 52.8 166.5 47.1 162.8 47.2C160.9 47.2 159.9 48.8 159.9 50.1C159.8 51.5 161.2 52.9 162.7 52.9Z" fill="#0A1640"/>
    <path d="M194.1 29C190.9 20.5 185 13.1 177.6 8C170.2 2.8 161.1 0 152.1 0C143 0 134 2.8 126.6 8C119.2 13.1 113.3 20.5 110.1 29C106.9 37.4 106.3 46.8 108.4 55.6C110.5 64.3 115.4 72.3 122.1 78.2C122.4 78.4 122.8 78.4 123 78.2C123.3 77.9 123.2 77.5 123 77.3C121.4 75.8 120 74.2 118.6 72.5C117.3 70.8 116.1 69 115 67.1C112.9 63.4 111.3 59.3 110.4 55.1C108.5 46.7 109.2 37.8 112.4 29.9C115.6 22 121.1 15 128.1 10.2C135.1 5.4 143.6 2.8 152.1 2.8C160.6 2.8 169.1 5.3 176.1 10.2C183.1 15 188.7 21.9 191.8 29.9C195 37.8 195.6 46.7 193.7 55.1C192.8 59.3 191.2 63.3 189.1 67.1C188 69 186.8 70.7 185.5 72.4C184.2 74.1 182.7 75.7 181.1 77.2C180.8 77.5 180.8 77.9 181.1 78.2C181.4 78.5 181.8 78.5 182.1 78.3C188.8 72.4 193.6 64.4 195.8 55.6C197.8 46.8 197.3 37.4 194.1 29Z" fill="#E38921"/>
    <path d="M118.4 41.6L118.8 39.4C118.9 39 118.9 38.7 119 38.3L119.3 37.2C119.5 36.5 119.7 35.8 119.9 35L120.7 32.9C120.9 32.2 121.3 31.5 121.6 30.9C121.9 30.2 122.2 29.5 122.6 28.9C123.4 27.6 124.1 26.3 125.1 25.2L125.8 24.3L126.1 23.9L126.5 23.5L128 21.9C128.5 21.3 129.1 20.9 129.6 20.4C130.2 19.9 130.7 19.4 131.3 19L133.1 17.7C133.7 17.3 134.4 16.9 135 16.5L136 15.9C136.3 15.7 136.7 15.6 137 15.4L139 14.4L141.1 13.6C141.4 13.5 141.8 13.3 142.1 13.2L143.2 12.9C143.9 12.7 144.6 12.5 145.4 12.4L147.6 12.1C148 12 148.3 12 148.7 11.9L149.8 11.8L152 11.7L154.2 11.8L155.3 11.9C155.7 11.9 156 12 156.4 12.1L158.6 12.4C159.3 12.6 160 12.8 160.8 12.9L161.9 13.2C162.3 13.3 162.6 13.4 162.9 13.6L165 14.4L167 15.4C167.3 15.6 167.7 15.7 168 15.9L169 16.5C169.6 16.9 170.3 17.3 170.9 17.7L172.7 19C173.3 19.4 173.9 19.9 174.4 20.4C174.9 20.9 175.5 21.4 176 21.9L177.5 23.5L177.9 23.9L178.2 24.3L178.9 25.2C179.9 26.3 180.6 27.6 181.4 28.9C181.8 29.5 182.1 30.2 182.4 30.9C182.7 31.6 183.1 32.2 183.3 32.9L184.1 35C184.3 35.7 184.5 36.4 184.7 37.2L185 38.3C185.1 38.7 185.1 39 185.2 39.4L185.6 41.6C185.7 42.3 185.7 43.1 185.8 43.8C185.8 44.5 185.9 45.3 185.9 46C185.9 52 184.2 58 181.1 63.2C180.9 63.5 181 63.9 181.3 64.2C181.6 64.4 182.1 64.3 182.3 64C185.8 58.7 187.7 52.5 188 46.1C188 45.3 188 44.5 188 43.7C188 42.9 188 42.1 187.9 41.3L187.6 38.9C187.5 38.5 187.5 38.1 187.4 37.7L187.1 36.5C186.9 35.7 186.7 34.9 186.5 34.2L185.7 31.9C185.5 31.1 185.1 30.4 184.8 29.7C184.4 29 184.1 28.2 183.7 27.5C182.9 26.1 182.1 24.7 181.1 23.5L180.4 22.5L180 22L179.6 21.6L178 19.8C177.5 19.2 176.8 18.7 176.3 18.1C175.7 17.6 175.1 17 174.5 16.5L172.6 15.1C171.9 14.7 171.2 14.3 170.6 13.8L169.6 13.2C169.2 13 168.9 12.8 168.5 12.7L166.3 11.7L164 10.9C163.6 10.8 163.2 10.6 162.9 10.5L161.7 10.2C160.9 10 160.1 9.80003 159.4 9.60003L157 9.20002C156.6 9.10002 156.2 9.10002 155.8 9.00002L154.6 8.90002L152 9.00002L149.6 9.10003L148.4 9.20002C148 9.20002 147.6 9.30002 147.2 9.40002L144.8 9.80002C144 10 143.2 10.2 142.5 10.4L141.3 10.7C140.9 10.8 140.5 11 140.2 11.1L137.9 11.9L135.7 12.9C135.3 13.1 135 13.2 134.6 13.4L133.6 14C132.9 14.4 132.2 14.8 131.6 15.3L129.7 16.7C129 17.2 128.5 17.7 127.9 18.3C127.3 18.9 126.7 19.4 126.2 20L124.6 21.8L124.2 22.2L123.8 22.7L123.1 23.7C122.1 25 121.3 26.4 120.5 27.7C120.1 28.4 119.8 29.1 119.5 29.9C119.2 30.6 118.8 31.3 118.6 32.1L117.8 34.4C117.6 35.2 117.4 35.9 117.2 36.7L116.9 37.9C116.8 38.3 116.8 38.7 116.7 39.1L116.4 41.5C116.3 42.3 116.3 43.1 116.3 43.9C116.3 44.7 116.2 45.5 116.3 46.3C116.6 52.6 118.5 58.9 122 64.2C122.2 64.5 122.6 64.6 122.9 64.4C123.2 64.2 123.3 63.8 123.1 63.5C120 58.3 118.3 52.3 118.3 46.3C118.3 45.5 118.3 44.8 118.4 44.1C118.3 43.1 118.4 42.4 118.4 41.6Z" fill="#E38921"/>
    <path d="M171.8 25.7001C169.3 23.0001 166.2 20.9 162.8 19.5C159.4 18.1 155.7 17.3 152 17.3C148.3 17.3 144.6 18 141.2 19.5C137.8 21 134.7 23.1001 132.2 25.7001C129.7 28.3001 127.7 31.5001 126.4 34.9001C125.1 38.3001 124.5 42 124.7 45.6C124.7 45.9 125 46.2001 125.3 46.2001C125.7 46.2001 126 45.9 126 45.6C126.2 38.7 129.1 32.2 133.9 27.5C138.7 22.8 145.3 20.1001 151.9 20.2001C158.6 20.2001 165.2 22.9001 169.9 27.6C174.7 32.3 177.6 38.9001 177.8 45.7001C177.8 46.1 178.1 46.4001 178.5 46.4001C178.9 46.4001 179.2 46.1 179.2 45.7001C179.4 42.1 178.8 38.4 177.5 35C176.4 31.5 174.4 28.3001 171.8 25.7001Z" fill="#E38921"/>
    <path d="M112.8 81.4C108.9 90.2 100.5 92.2 93.3 92.1C91.2 92.1 89.4 93.8 89.4 95.9V134.1C89.4 134.7 89.3 135.2 89.2 135.7C88.5 138.4 86.1 140.3 83.2 140.3H36.3C32.8 140.3 30.1 137.5 30.1 134.1V64.1C30.1 61.3 31.9 59 34.4 58.2C35 58 35.7 57.9 36.4 57.9H83.2C86.7 57.9 89.4 60.7 89.4 64.1V75.4C89.4 76.7 90 77.9 91.1 78.6C99.3 83.9 112.8 81.4 112.8 81.4Z" fill="#6B7FFF"/>
    <path d="M58.9 110.7C59.2 110.7 59.5 110.7 59.8 110.7C60.3 110.7 60.9 110.7 61.4 110.6C66.7 110 71.6 107.6 75.5 103.8C79.9 99.3 82.3 93.4 82.3 87.2C82.2 74.3 71.7 63.8 58.7 63.9C52.4 63.9 46.6 66.4 42.2 70.9C37.8 75.4 35.4 81.3 35.4 87.5C35.4 100.3 46 110.8 58.9 110.7ZM60.2 78.4H68.3C68.9 80.7 69.3 83.2 69.4 85.8H60.3L60.2 78.4ZM60.2 88.7H69.3C69.2 91.3 68.9 93.8 68.3 96.1H60.2V88.7ZM60.3 107.6V98.9H67.5C67.1 100 66.6 101.1 66.1 102.1C64.5 105.1 62.5 107 60.3 107.6ZM73.4 101.8C71.5 103.7 69.2 105.3 66.8 106.3C67.4 105.5 68 104.6 68.6 103.5C69.3 102.1 70 100.6 70.5 99H75.8C75.1 99.9 74.3 100.9 73.4 101.8ZM77.4 96H71.3C71.8 93.7 72.1 91.1 72.2 88.6H79.3C79.2 91.2 78.5 93.7 77.4 96ZM79.3 85.7H72.2C72.1 83.1 71.8 80.6 71.2 78.3H77.3C78.4 80.6 79.1 83.1 79.3 85.7ZM75.6 75.5H70.3C69.8 73.9 69.1 72.4 68.4 71C67.8 70 67.2 69.1 66.6 68.3C70.3 69.7 73.4 72.3 75.6 75.5ZM65.9 72.4C66.4 73.4 66.9 74.4 67.3 75.6H60.1V66.9C62.3 67.5 64.3 69.3 65.9 72.4ZM57.5 107.7C55.4 107.1 53.3 105.2 51.7 102.2C51.2 101.2 50.7 100.2 50.3 99H57.5V107.7ZM57.4 96.1H49.3C48.7 93.8 48.3 91.3 48.2 88.7H57.3L57.4 96.1ZM57.4 85.9H48.3C48.4 83.3 48.7 80.8 49.3 78.5H57.4V85.9ZM57.3 66.9V75.6H50.1C51.8 71 54.3 67.7 57.3 66.9ZM44.2 72.8C46.1 70.9 48.4 69.4 50.8 68.3C49.3 70.2 48 72.7 47.1 75.6H41.8C42.5 74.6 43.3 73.7 44.2 72.8ZM40.2 78.5H46.3C45.8 80.8 45.5 83.3 45.4 85.9H38.3C38.4 83.3 39.1 80.8 40.2 78.5ZM38.3 88.8H45.4C45.5 91.4 45.8 93.9 46.4 96.2H40.3C39.2 94 38.5 91.5 38.3 88.8ZM47.2 99.1C47.7 100.7 48.4 102.3 49.1 103.6C49.7 104.6 50.3 105.5 50.9 106.3C47.2 104.8 44.1 102.3 41.9 99.1H47.2Z" fill="white"/>
    <path d="M47.7 122.4V115.9C47.3 115.8 46.9 115.8 46.4 115.8C45.9 115.8 45.4 115.8 44.9 115.9C44.9 116.6 44.9 117.1 44.9 117.7C44.9 118.7 45 119.6 45 120.6C45 121.1 44.9 121.7 44.9 121.7C44.8 121.7 43.4 118.7 43.2 118.3C42.7 117.2 42.5 117 42.1 116C42.1 115.9 40.8 115.8 40.4 115.8C40.1 115.8 39.8 115.8 39.5 115.9C39.4 117.6 39.3 119.5 39.3 121.3C39.3 123.8 39.4 126 39.4 128.6V130C40 130 40.7 130.1 41.3 130.1C41.6 130.1 41.9 130.1 42.2 130C42.2 129.5 42.2 128.9 42.2 128.3C42.2 126 42.3 123.2 42.3 123.2C42.4 123.2 42.5 123.5 42.6 123.8L42.8 124.4C43.4 126.1 44.4 128 45.2 130C45.7 130 46.5 130.1 47.1 130.1C47.6 130.1 47.7 130 47.8 130V129.6C47.8 129.1 47.8 128.5 47.8 128C47.8 127.3 47.8 126.5 47.8 125.8C47.7 124.7 47.7 123.5 47.7 122.4Z" fill="white"/>
    <path d="M57.6 127.4C55.8 127.5 54.1 127.3 52.3 127.3C52.2 126.7 52.2 125.6 52.3 124.8C52.6 124.6 53.9 124.8 54.7 124.6C54.7 123.6 54.8 122.7 54.7 121.8C53.9 121.8 53 121.8 52.2 121.7C52 121 52.2 120.1 52.2 119.3H52.3C54.1 119.1 55.9 119.4 57.6 119.1C57.6 118.2 57.7 117.2 57.6 116.2C57.6 116.1 52.4 116.2 49.2 116.3C48.9 120.9 49.2 125.4 49.2 130.1C51.8 130.3 54.7 130.1 57.5 130.1C57.7 129.3 57.7 128.3 57.6 127.4Z" fill="white"/>
    <path d="M65.9 116C65.4 116 64.9 116 64.5 116.1C64.3 118.5 64.4 122.4 64.1 124.7C63.8 123.9 63.2 120.9 63 120.8C63 120.8 63 120.8 63 120.9C62.7 122.1 62.4 123.3 62.1 124.5C61.5 122.2 61.9 118.5 61.7 116.1C61.2 116.1 60.7 116 60.1 116C59.6 116 59.2 116 58.8 116.1C58.9 120.8 59.6 125.4 60.3 130C60.6 130 60.8 130.1 61.1 130.1C61.5 130.1 61.7 130.1 62.1 130C62.5 129.3 62.7 127.1 63.2 126.6C63.7 127.3 63.9 129.4 64.4 130H64.6H65.3C65.6 130 65.8 130 66 130C66.4 125.3 66.9 120.7 67.3 116C66.9 116 66.4 116 65.9 116Z" fill="white"/>
    <path d="M76.4 116.5C75.1 115.9 73.2 115.7 71.9 116.3C69.3 117.4 68.1 121 70.6 123.4C71 123.7 71.4 124 72 124.1C73.1 124.3 74.7 124.5 74.9 125.8C75.2 127.7 72.3 127.6 72.2 125.9C71.3 125.9 70.1 125.8 69.1 125.9V126V126.1C68.9 128.7 71.5 130.2 73.9 130.2C75.6 130.3 77.2 129.5 77.8 127.9C78.4 126.5 78.4 124.8 77.5 123.6C76.7 122.4 75.4 121.6 74 121.5C73.4 121.4 72.9 121.3 72.7 120.6C72.7 120.4 72.6 120.2 72.7 120.1C72.9 118.6 75.5 119.1 75.2 120.6C76.1 120.9 77.3 120.8 78.2 120.6C78.5 118.5 77.7 117.2 76.4 116.5Z" fill="white"/>
    <path opacity="0.25" d="M89.1 135.7C88.4 138.4 86 140.3 83.1 140.3H36.3C32.8 140.3 30.1 137.5 30.1 134.1V64.1001C30.1 61.3001 31.9 59.0001 34.4 58.2001C36.5 60.5001 37.8 63.7001 37.8 67.1001V119C37.8 125.8 43.1 131.4 49.7 131.4H79.6C83.2 131.4 86.7 133 89.1 135.7Z" fill="#0A1640"/>
    <path d="M83.1 140.9H36.3C32.6 140.9 29.5 137.9 29.5 134.1V64.1C29.5 61.2 31.4 58.6 34.1 57.7C34.8 57.5 35.5 57.4 36.3 57.4H83.1C86.8 57.4 89.9 60.4 89.9 64.2V75.5C89.9 76.6 90.4 77.6 91.3 78.2C99.3 83.4 112.5 81 112.7 80.9C112.9 80.9 113.1 80.9 113.2 81.1C113.3 81.3 113.4 81.5 113.3 81.6C110 89 103.1 92.8 93.3 92.6C92.4 92.6 91.6 92.9 90.9 93.5C90.3 94.1 89.9 94.9 89.9 95.8V134C89.9 134.6 89.8 135.2 89.7 135.7C88.8 138.8 86.1 140.9 83.1 140.9ZM36.3 58.3C35.7 58.3 35.1 58.4 34.5 58.6C32.2 59.4 30.6 61.6 30.6 64V134C30.6 137.1 33.2 139.7 36.3 139.7H83.1C85.7 139.7 88 138 88.6 135.5C88.7 135 88.8 134.5 88.8 134V95.8C88.8 94.6 89.3 93.5 90.1 92.7C90.9 91.9 92.1 91.4 93.3 91.5C102.4 91.7 108.7 88.5 111.9 82C108.6 82.5 97.9 83.6 90.8 78.9C89.6 78.1 88.9 76.8 88.9 75.3V64.1C88.9 61 86.3 58.4 83.2 58.4H36.3V58.3Z" fill="#0A1640"/>
    <path d="M24.1 43.8H95C96.4 43.8 97.6 42.7 97.6 41.2V11C97.6 9.60002 96.5 8.40002 95 8.40002H24.1C22.7 8.40002 21.5 9.50002 21.5 11V41.2C21.5 42.7 22.7 43.8 24.1 43.8Z" fill="#D811AD"/>
    <path d="M90.4 14.6V37.7001C90.4 38.7001 89.6 39.5 88.6 39.5H30.4C29.9 39.5 29.4 39.3001 29.1 38.9001C28.8 38.6001 28.7 38.2001 28.7 37.7001V14.6C28.7 13.6 29.5 12.8 30.5 12.8H88.7C89.6 12.8 90.4 13.6 90.4 14.6Z" fill="#FFCE00"/>
    <path opacity="0.5" d="M90.4 14.6001V37.7001C90.4 38.7001 89.6 39.5001 88.6 39.5001H30.4C29.9 39.5001 29.4 39.3001 29.1 38.9001C33.8 34.9001 41.4 34.3001 47.1 34.4001C54 34.5001 60.9 34.6001 67.8 34.6001C72.6 34.6001 80.5 35.6001 83.7 30.9001C86.7 26.5001 85.1 20.6001 86.1 15.7001C86.3 14.7001 86.7 13.7001 87.3 12.9001H88.6C89.6 12.8001 90.4 13.6001 90.4 14.6001Z" fill="#E38921"/>
    <path opacity="0.75" d="M33.6 16.2001C34.5 20.8001 34.5 28.7001 33.6 33.3001C33.5 34.0001 32.5 34.0001 32.4 33.3001C31.6 28.8001 31.6 20.8001 32.4 16.2001C32.5 15.9001 32.8 15.7001 33.1 15.7001C33.4 15.7001 33.6 15.9001 33.6 16.2001Z" fill="white"/>
    <path d="M94.9 7.90002H24.1C22.4 7.90002 21 9.30002 21 11V41.2C21 42.9 22.4 44.3 24.1 44.3H95C96.7 44.3 98.1 42.9 98.1 41.2V11C98 9.30002 96.7 7.90002 94.9 7.90002ZM97 41.2C97 42.3 96.1 43.2 95 43.2H24.1C23 43.2 22.1 42.3 22.1 41.2V11C22.1 9.90002 23 9.00002 24.1 9.00002H95C96.1 9.00002 97 9.90002 97 11V41.2Z" fill="#0A1640"/>
    <path d="M88.6 12.3H30.4C29.1 12.3 28.1 13.3 28.1 14.6V37.7001C28.1 38.3001 28.3 38.8001 28.7 39.2001C29.1 39.7001 29.8 40 30.4 40H88.6C89.9 40 90.9 39 90.9 37.7001V14.6C90.9 13.3 89.9 12.3 88.6 12.3ZM89.8 37.7001C89.8 38.4001 89.2 38.9001 88.6 38.9001H30.4C30 38.9001 29.7 38.8 29.5 38.5C29.3 38.3 29.2 38 29.2 37.7001V14.6C29.2 13.9 29.8 13.4 30.4 13.4H88.6C89.3 13.4 89.8 14 89.8 14.6V37.7001Z" fill="#0A1640"/>
    <path d="M45.8 21.8001C45.7 21.4001 45.4 21.1001 45.1 20.8001C43.8 19.8001 41.7 19.8001 40.2 20.5001C40 20.6001 39.9 20.7001 39.8 20.8001C39.1 21.6001 38.9 22.7001 38.9 23.7001C38.8 25.5001 38.9 27.3001 39 29.1001C39 29.8001 39.1 30.4001 39.4 31.0001C39.8 31.9001 40.7 32.1001 41.7 32.2001C42.4 32.3001 43 32.2001 43.6 32.0001C44.3 31.8001 45 31.5001 45.4 31.0001C45.8 30.3001 46 29.5001 46 28.7001L46.1 28.1001C46.2 26.9001 46.1 25.8001 46.2 24.6001C46.2 24.0001 46.2 23.5001 46.2 22.9001C46.1 22.5001 46 22.1001 45.8 21.8001ZM44 26.7001C44 26.8001 44 27.1001 44 27.6001C43.9 28.6001 44.1 28.6001 43.7 29.2001C43 30.0001 41.6 29.9001 41.1 29.0001C40.9 28.3001 40.9 27.4001 40.8 26.6001C40.7 25.6001 40.8 24.7001 41 23.8001C41.1 23.3001 41.4 22.9001 41.8 22.6001C42.2 22.3001 42.7 22.2001 43.1 22.4001C43.6 22.7001 43.9 23.2001 44 23.8001C44 24.2001 44.1 24.8001 44.1 24.8001V26.0001V26.7001H44Z" fill="#0A1640"/>
    <path d="M54.2 25.3001V19.8001C53.9 19.7001 53.5 19.7001 53.1 19.7001C52.7 19.7001 52.3 19.7001 51.9 19.8001C51.9 20.4001 51.9 20.8001 51.9 21.3001C51.9 22.1001 52 22.9001 52 23.8001C52 24.2001 51.9 24.7001 51.9 24.7001C51.8 24.7001 50.6 22.2001 50.5 21.9001C50.1 20.9001 49.9 20.8001 49.6 20.0001C49.6 19.9001 48.5 19.8001 48.2 19.8001C47.9 19.8001 47.7 19.8001 47.4 19.9001C47.3 21.3001 47.2 22.9001 47.2 24.5001C47.2 26.6001 47.3 28.5001 47.3 30.7001V31.9001C47.8 31.9001 48.4 32.0001 48.9 32.0001C49.2 32.0001 49.4 32.0001 49.7 31.9001C49.7 31.5001 49.7 31.0001 49.7 30.5001C49.7 28.6001 49.8 26.2001 49.8 26.2001C49.9 26.2001 49.9 26.5001 50 26.7001L50.2 27.2001C50.7 28.6001 51.5 30.2001 52.3 31.9001C52.8 31.9001 53.4 32.0001 53.9 32.0001C54.3 32.0001 54.4 31.9001 54.5 31.9001V31.6001C54.5 31.1001 54.5 30.7001 54.5 30.2001C54.5 29.6001 54.5 29.0001 54.5 28.3001C54.3 27.3001 54.3 26.3001 54.2 25.3001Z" fill="#0A1640"/>
    <path d="M63.8 19.8C62.3 19.9 62 19.8 61.7 19.9C60.1 25.4 59.2 31.3 59.1 31.8C60.7 31.8 61.3 31.9 61.5 31.8C61.5 31.8 61.5 31.8 61.6 31.8C62 31 62 29.7 62.4 29C62.9 29 62.9 28.9 63.5 29C63.8 29.7 64 31 64.3 31.8C65 32 65.9 32 66.6 31.9L65.3 25.9C64.9 24.7 64 20.7 63.8 19.8ZM62.2 27C62.7 23.5 62.8 21.1 63.5 27C63 27 62.6 27 62.2 27Z" fill="#0A1640"/>
    <path d="M68.2 19.8001C68 19.8001 67.6 19.7001 67.5 19.8001C67.1 23.6001 67.7 27.8001 67.4 31.9001C67.9 31.8001 70.1 32.1001 70.5 31.7001C70.3 27.8001 70.5 23.8001 70.5 19.9001V19.8001H70.1C69.1 19.9001 68.6 19.8001 68.2 19.8001Z" fill="#0A1640"/>
    <path d="M76.7 26.6C77.9 26.5 78.6 25.9 79 25.1C80.4 22.7 78.7 19.8 76 19.6C74.3 19.4 72.8 19.7 71.5 19.8C71.7 20.9 71.8 31.7 71.6 31.7C71.8 31.6 73.8 31.8 74.6 31.5C74.5 30.6 74.4 28.4 74.5 27.3V27.4C75.5 28.6 76.4 30.6 76.9 31.7C77.9 31.8 78.9 31.7 79.7 31.7C79 29.9 77.6 28.3 76.7 26.6ZM75.8 24.4C75.3 24.5 74.6 24.5 74.1 24.4C74 23.9 74.1 22.9 74 22.3C74.8 22 75.6 21.9 76.1 22.4C76.7 22.9 76.7 24.2 75.8 24.4Z" fill="#0A1640"/>
    <path d="M39.5 191.8C39.3 191.7 39.3 191.7 39.3 191.6C39.3 190.8 39.2 189.9 38.7 189.1C37 186.1 33.7 187.8 31.9 189.7C33.8 192.8 35.4 195.9 37.3 199C37.4 199 37.5 198.9 37.6 198.9C39.6 197.8 42.9 196.7 41.9 193.9C41.5 192.5 40.5 192.2 39.5 191.8ZM35 190.6C35.2 190.3 35.7 190.1 36.1 189.9C36.4 189.8 36.7 189.8 37.1 190C37.4 190.2 37.4 190.6 37.4 190.9C37.4 191.6 36.6 192 36.1 192.2C35.5 191.7 35.2 191 35 190.6ZM38.2 196C37.6 195.7 37.2 194.7 37 194.1C37.4 193.9 37.7 193.7 38.1 193.6C38.4 193.5 38.7 193.6 38.9 193.7C39.2 193.9 39.5 194.3 39.4 194.7C39.4 195.4 38.7 195.7 38.2 196Z" fill="#0A1640"/>
    <path d="M46.1 189.2C47.1 188.7 47.4 188 47.5 187.1C47.8 184.6 45.3 182.7 43 183.6C41.5 184 40.3 184.8 39.3 185.4C39.9 186.3 43.9 195.3 43.7 195.4C43.9 195.3 45.6 194.7 46.1 194.2C45.7 193.5 44.8 191.6 44.5 190.7C45.8 191.3 47.3 192.7 48.1 193.4C49 193.1 49.8 192.6 50.5 192.3C49.3 191.1 47.5 190.2 46.1 189.2ZM44.5 187.6C44.1 187.9 43.5 188.1 43.1 188.2C42.8 187.8 42.5 186.9 42.3 186.5C42.9 185.9 43.5 185.6 44.1 185.8C44.8 186 45.2 187.1 44.5 187.6Z" fill="#0A1640"/>
    <path d="M56.3 186.8C56 185.8 55.7 184.8 55.4 183.7C55.3 183.2 55.1 182.7 54.9 182.2C54.8 181.9 54.6 181.6 54.4 181.4C54.2 181.1 53.9 180.9 53.5 180.7C52.1 180.2 50.2 180.8 49.1 181.9C49 182 48.9 182.1 48.8 182.3C48.4 183.2 48.6 184.2 48.9 185.1C49.3 186.7 50 188.2 50.5 189.7C50.7 190.3 51 190.8 51.4 191.2C52 191.9 52.9 191.8 53.7 191.6C54.3 191.5 54.8 191.2 55.3 190.9C55.9 190.5 56.3 190.1 56.5 189.5C56.7 188.8 56.6 188 56.4 187.3L56.3 186.8ZM54.5 188.5C54.1 189.4 52.8 189.7 52.2 189.1C51.8 188.5 51.6 187.8 51.2 187.1C50.9 186.3 50.6 185.4 50.5 184.6C50.5 184.1 50.6 183.7 50.9 183.3C51.1 183 51.5 182.7 52 182.7C52.5 182.8 53 183.2 53.2 183.7C53.3 184 53.5 184.5 53.5 184.5L53.9 185.5L54.1 186.2C54.1 186.2 54.2 186.6 54.3 187C54.6 187.9 54.7 187.9 54.5 188.5Z" fill="#0A1640"/>
    <path d="M62 183.3C61.5 182.3 59.8 179 59.4 178.3C58.1 178.8 57.8 178.7 57.6 178.8C57.4 184 58 189.5 58 190C59.4 189.6 60 189.6 60.1 189.5C60.3 188.7 60 187.5 60.1 186.8C60.6 186.7 60.5 186.6 61 186.6C61.4 187.1 61.9 188.3 62.3 188.9C63 188.9 63.8 188.7 64.3 188.4L62 183.3ZM59.6 184.9C59.2 181.7 58.8 179.5 60.7 184.6C60.3 184.8 59.9 184.9 59.6 184.9Z" fill="#0A1640"/>
    <path d="M70.2 179.8C69.9 179 69.4 178.3 68.9 177.7C68.4 177.2 67.7 176.8 67 176.7C65.8 177 64.4 177 63.3 177.5V177.6C64 181.2 64.4 184.9 65.5 188.1C66.8 187.9 68.2 187.6 69.5 187.3C70.1 186.2 70.7 185 70.9 183.7C70.9 182.7 70.7 181.7 70.6 180.8C70.4 180.4 70.3 180.1 70.2 179.8ZM68.4 183.5C68.3 183.7 68.2 183.9 68 184.1C67.9 184.2 67.9 184.2 67.7 184.2C67.3 184.3 66.9 184.5 66.6 184.3C66.3 182.9 66.1 181.4 65.8 180.3V180.2C66.2 180.1 66.6 180 66.9 180C67.6 180.1 68 180.9 68.2 181.5C68.8 182.3 68.7 182.9 68.4 183.5Z" fill="#0A1640"/>
    <path d="M76.2 182C76.1 182.5 76.3 183.1 76.2 183.6C76 184 75.6 184.3 75.2 184.3C74.6 184.2 74.3 183.6 74.2 183C73.9 181.6 73.7 178.7 73.8 178.6C73.8 178.6 73.8 178.4 73.9 178.4C74.1 178.2 74.4 178.1 74.6 178.1C75.8 177.9 75.7 179.2 75.9 180C76.7 180.1 77.4 180.1 78.2 179.8C78.9 176.8 75.6 174.5 72.9 175.8C72.6 175.9 72.4 176 72.1 176.2C71.8 176.6 71.5 177.1 71.4 177.6C71.3 177.9 71.3 178.3 71.3 178.7C71.6 182.1 71.8 183.7 72.1 185.1C72.5 186.8 74.4 187.1 75.9 186.8C78.2 186.5 79.4 184 78.4 181.9C77.7 181.7 76.8 182 76.2 182Z" fill="#0A1640"/>
    <path d="M84.9 180.4C84.6 179.4 83.6 175.7 83.4 174.9C82 175.1 81.8 175 81.5 175.1C80.2 180.2 79.7 185.7 79.6 186.1C81 186 81.6 186.1 81.8 186C82.1 185.3 82.1 184 82.4 183.4C82.9 183.4 82.8 183.3 83.4 183.4C83.7 184 84 185.3 84.2 185.9C84.9 186 85.7 186 86.3 185.9L84.9 180.4ZM82.2 181.5C82.5 178.3 82.5 176.1 83.4 181.5C83 181.5 82.5 181.5 82.2 181.5Z" fill="#0A1640"/>
    <path d="M92.4 175.5C91.4 175 90 174.8 88.9 175.2C86.9 176 85.8 178.8 87.7 180.7C88 181 88.3 181.2 88.7 181.3C89.6 181.5 90.8 181.7 90.9 182.7C91.1 184.2 88.8 184.1 88.8 182.7C88.1 182.7 87.1 182.6 86.4 182.6C86.2 184.6 88.2 185.8 90 185.9C91.3 186 92.5 185.5 93.1 184.2C93.6 183.1 93.7 181.8 92.9 180.8C92.3 179.9 91.4 179.2 90.2 179.1C89.8 179 89.4 178.9 89.2 178.4C89.2 178.3 89.2 178.1 89.2 178C89.4 176.8 91.4 177.3 91.1 178.4C91.8 178.6 92.7 178.6 93.4 178.5C94 177.1 93.4 176 92.4 175.5Z" fill="#0A1640"/>
    <path d="M102 176.1C99.9 175.6 97.6 175.4 95.5 175.2C95.3 176.2 95.2 177.5 95.3 177.6C95.5 177.7 96.7 177.7 97.1 178C96.6 183.8 96.2 186.1 96.2 186.3C97 186.3 98 186.5 98.8 186.5C99.5 179.7 99.6 178.6 99.7 178.3C100.7 178.4 101.2 178.4 101.6 178.5C101.9 177.8 102 176.8 102 176.1Z" fill="#0A1640"/>
    <path d="M101.8 185.2C101.7 185.8 101.3 187 101.4 187L102.6 187.2C102.8 187.2 102.9 187.3 103.2 187.3H103.3C103.4 186.7 103.6 186 103.7 185.5C103.1 185.5 102.3 185.1 101.8 185.2Z" fill="#0A1640"/>
    <path d="M103.5 176.3C102.7 179.1 102.4 181.8 101.8 184.4C102.4 184.5 103.2 184.7 103.8 184.7C104.2 182.1 104.8 179.2 105.3 176.6C104.8 176.3 104 176.3 103.5 176.3Z" fill="#0A1640"/>
    <path d="M43 176.8C42.6 176.1 41.7 174.2 41.4 173.3C42.6 174 44.2 175.3 44.9 176.1C45.8 175.8 46.6 175.3 47.3 175.1C46.1 173.8 44.3 172.9 42.9 171.8H43C43.9 171.4 44.3 170.6 44.3 169.8C44.6 167.3 42.1 165.4 39.8 166.3C38.3 166.7 37.1 167.5 36.1 168.1C36.7 169 40.6 178.1 40.5 178.1C40.7 177.9 42.4 177.3 43 176.8ZM39.9 170.9C39.6 170.5 39.3 169.6 39.1 169.2C39.7 168.6 40.3 168.3 40.9 168.5C41.6 168.7 42 169.9 41.4 170.3C41 170.5 40.4 170.7 39.9 170.9Z" fill="#0A1640"/>
    <path d="M53.9 172.9C53.9 172.3 53.6 171.5 53.4 170.9C52.1 171.4 50.8 171.7 49.5 172.1C49.3 171.6 49 170.9 48.9 170.2C49.1 170 50.1 169.8 50.6 169.4C50.3 168.7 50.2 168 49.9 167.3C49.3 167.5 48.7 167.7 48.1 167.9C47.8 167.4 47.7 166.7 47.5 166.2C48.8 165.7 50.2 165.4 51.3 164.7C51.1 164 50.9 163.3 50.6 162.6C50.6 162.5 46.7 163.8 44.5 164.7C45.4 168.2 46.7 171.4 47.8 174.8C49.8 174.4 51.9 173.6 53.9 172.9Z" fill="#0A1640"/>
    <path d="M56.8 169.5C57.3 169.4 57.2 169.3 57.7 169.3C58.1 169.8 58.6 171 59 171.6C59.7 171.6 60.5 171.4 61 171.2L58.5 166.2C58 165.2 56.3 161.9 55.9 161.1C54.6 161.6 54.3 161.5 54.1 161.6C53.9 166.8 54.4 172.3 54.4 172.8C55.8 172.4 56.4 172.4 56.5 172.3C56.9 171.4 56.7 170.2 56.8 169.5ZM56.2 167.7C55.8 164.5 55.4 162.3 57.3 167.4C57 167.6 56.6 167.7 56.2 167.7Z" fill="#0A1640"/>
    <path d="M62 170.9C63.3 170.7 64.7 170.4 66 170.1C66.6 169 67.2 167.8 67.4 166.5C67.4 165.5 67.2 164.5 67.1 163.6C67 163.3 67 163 66.8 162.7C66.5 161.9 66 161.2 65.5 160.6C65 160.1 64.3 159.7 63.6 159.6C62.4 159.9 61 159.9 59.9 160.4V160.5C60.6 164 61 167.8 62 170.9ZM62.6 163.1C63 163 63.4 162.9 63.8 162.9C64.5 163 64.9 163.8 65.1 164.4C65.4 165.1 65.3 165.8 65.1 166.4C65 166.6 64.9 166.8 64.7 167C64.6 167.1 64.6 167.1 64.4 167.1C64 167.2 63.6 167.4 63.3 167.2C63.1 165.8 62.9 164.3 62.6 163.1Z" fill="#0A1640"/>
    <path d="M69.4 164.3C68.9 166.2 68.3 168.2 68 169.9C68.1 169.9 68.2 169.9 68.4 169.9C68.9 169.8 69.4 169.7 69.9 169.7C70 169.7 70.2 169.7 70.3 169.7C71.1 165.9 72.9 162.3 73.6 158.4C73.5 158.4 73.3 158.4 73 158.4C72.5 158.5 71.7 158.6 71.4 158.7C71.1 159.6 70.9 161.4 70.5 162.2C70 161.5 69.2 159.8 68.9 158.9C68.7 158.8 68.4 158.8 68.2 158.9C67.8 159 67.3 159.1 66.9 159.1C67.5 160.8 68.8 162.5 69.4 164.3Z" fill="#0A1640"/>
    <path d="M80.5 160.5C80.8 166.3 80.7 168.6 80.7 168.8C81.4 168.7 82.5 168.8 83.3 168.7C83.1 161.9 83.1 160.7 83.1 160.4C84.1 160.3 84.6 160.3 85 160.4C85.1 159.6 85.1 158.7 85 158C82.9 157.8 80.5 157.9 78.4 157.9C78.3 158.9 78.4 160.2 78.5 160.4C78.9 160.4 80 160.2 80.5 160.5Z" fill="#0A1640"/>
    <path d="M87.7 169.1C88.3 169.2 88.9 169.2 89.5 169C90.1 168.9 90.8 168.6 91.2 168.1C91.6 167.5 91.8 166.8 91.9 166L92 165.5C92.1 164.4 92.1 163.4 92.3 162.3C92.3 161.8 92.4 161.3 92.4 160.8C92.4 160.5 92.3 160.1 92.2 159.8C92.1 159.4 91.9 159.1 91.6 158.8C90.5 157.8 88.5 157.7 87.1 158.3C87 158.4 86.8 158.5 86.7 158.6C86 159.3 85.8 160.3 85.7 161.2C85.5 162.8 85.5 164.5 85.5 166.1C85.5 166.7 85.5 167.3 85.8 167.9C86 168.7 86.8 169 87.7 169.1ZM87.4 161.4C87.5 161 87.8 160.6 88.2 160.4C88.5 160.2 89 160.1 89.4 160.3C89.9 160.6 90.1 161.1 90.1 161.7C90.1 162.1 90.1 162.6 90.1 162.6V163.7V164.4C90.1 164.4 90.1 164.8 90 165.2C89.9 166.1 90 166.1 89.6 166.6C88.9 167.3 87.6 167.1 87.3 166.3C87.1 165.6 87.2 164.8 87.1 164.1C87.1 163.1 87.2 162.2 87.4 161.4Z" fill="#0A1640"/>
    <path d="M5.4 99.5C5.2 99.1 4.7 99.1 4.5 99.4C4.2 99.8 4.1 100.2 3.9 100.6C2.7 103.6 0.900004 105 0.200004 105.7C3.71039e-06 105.9 -0.199996 106.5 0.100004 106.8C0.800004 107.7 2.4 108.8 3.7 112.3C3.8 112.6 3.9 112.9 4.1 113.2C4.3 113.6 4.8 113.6 5.1 113.2C5.7 112.3 5.8 110.9 7.9 108.4C9.1 107 10.3 106.5 9.3 105.6C6.8 103.6 5.9 100.4 5.4 99.5Z" fill="#E38921"/>
    <path d="M22.5 151.3C19.6 148.8 18.5 145 18 144C17.8 143.6 17.2 143.5 16.9 143.9C16.6 144.3 16.4 144.8 16.2 145.3C14.8 148.8 12.8 150.4 12 151.2C11.8 151.4 11.6 152.1 11.9 152.5C12.8 153.5 14.5 154.7 16.1 158.9C16.2 159.3 16.4 159.6 16.6 160C16.9 160.5 17.4 160.5 17.8 160C18.5 159 18.6 157.3 21 154.5C22.3 152.8 23.7 152.3 22.5 151.3Z" fill="#E38921"/>
    <path d="M18.6 62.7C18.4 62.3 17.8 62.2 17.5 62.6C17.2 63 17 63.5 16.8 64C15.4 67.5 13.4 69.1 12.6 69.9C12.4 70.1 12.2 70.8 12.5 71.2C12.7 71.4 12.9 71.6 13.1 71.8C15.9 74.5 16.6 77.5 17.2 78.6C17.5 79.1 18 79.1 18.4 78.6C18.6 78.3 18.8 77.9 18.9 77.5C21 71.8 24.9 71.4 23.2 69.9C20.1 67.4 19.1 63.7 18.6 62.7Z" fill="#E38921"/>
    <path d="M215.9 148.4C213.3 146.2 212.4 143 212 142.1C211.8 141.7 211.3 141.7 211.1 142C210.8 142.4 210.7 142.8 210.5 143.2C209.3 146.3 207.5 147.6 206.8 148.3C206.6 148.5 206.4 149.1 206.7 149.4C207.4 150.3 209 151.3 210.3 154.9C210.4 155.2 210.5 155.5 210.7 155.8C210.9 156.2 211.4 156.2 211.7 155.8C212.3 154.9 212.4 153.5 214.4 151C215.7 149.8 216.9 149.3 215.9 148.4Z" fill="#E38921"/>
    <path d="M199.4 179.6C196.4 177.1 195.4 173.4 194.9 172.4C194.7 172 194.1 171.9 193.8 172.3C193.5 172.7 193.3 173.2 193.1 173.7C191.7 177.2 189.7 178.8 188.9 179.6C188.7 179.8 188.5 180.5 188.8 180.9C189.7 181.9 191.4 183.1 193 187.2C193.1 187.6 193.3 187.9 193.5 188.3C193.8 188.8 194.3 188.8 194.7 188.3C195.4 187.3 195.5 185.6 197.9 182.8C199.2 181.1 200.6 180.6 199.4 179.6Z" fill="#E38921"/>
    <path d="M197 106.4C196.8 106 196.2 105.9 195.9 106.3C195.6 106.7 195.4 107.2 195.2 107.7C193.8 111.2 191.8 112.8 191 113.6C190.8 113.8 190.6 114.5 190.9 114.9C191.1 115.1 191.3 115.3 191.5 115.5C194.3 118.2 195 121.2 195.6 122.3C195.9 122.8 196.4 122.8 196.8 122.3C197 122 197.2 121.6 197.3 121.2C199.4 115.5 203.3 115.1 201.5 113.6C198.5 111.2 197.5 107.4 197 106.4Z" fill="#E38921"/>
  </g>
  <defs>
    <clipPath id="clip0_65_510">
      <rect width="216.3" height="204" fill="white"/>
    </clipPath>
  </defs>
</svg>