<svg width="15" height="20" viewBox="0 0 15 20" fill="none" xmlns="http://www.w3.org/2000/svg">
<path d="M14.1501 14.2655L14.8551 10.1855C14.8965 9.94636 14.8851 9.70108 14.8218 9.4668C14.7584 9.23252 14.6447 9.0149 14.4885 8.82917C14.3323 8.64344 14.1374 8.49408 13.9174 8.39153C13.6975 8.28899 13.4578 8.23573 13.2151 8.2355H8.03409C7.91317 8.23552 7.7937 8.20922 7.68398 8.15843C7.57425 8.10764 7.4769 8.03356 7.39868 7.94136C7.32046 7.84915 7.26325 7.74103 7.23103 7.62449C7.19881 7.50795 7.19234 7.38579 7.21208 7.2665L7.87508 3.2215C7.98268 2.56473 7.95202 1.89274 7.78508 1.2485C7.71365 0.982298 7.57609 0.738477 7.38517 0.539693C7.19425 0.340909 6.95618 0.193614 6.69308 0.111497L6.54809 0.0644963C6.22025 -0.0408138 5.86452 -0.0164782 5.55408 0.132496C5.21408 0.296496 4.96609 0.595497 4.87409 0.950496L4.39808 2.7845C4.24655 3.36812 4.02634 3.93172 3.74209 4.4635C3.32709 5.2405 2.68508 5.8635 2.01708 6.4385L0.578085 7.6785C0.378454 7.85101 0.222538 8.06836 0.123113 8.31275C0.0236879 8.55715 -0.0164169 8.82162 0.00608477 9.0845L0.818085 18.4775C0.853874 18.8929 1.04413 19.2798 1.35127 19.5618C1.65842 19.8437 2.06014 20.0003 2.47708 20.0005H7.12508C10.6071 20.0005 13.5781 17.5745 14.1501 14.2655Z" fill="#0A1640"/>
</svg>
