<svg width="25" height="20" viewBox="0 0 25 20" fill="none" xmlns="http://www.w3.org/2000/svg">
<path fill-rule="evenodd" clip-rule="evenodd" d="M6.89751 0.199428C10.8113 -0.0839544 14.7425 -0.0652991 18.6532 0.255215L21.0104 0.447679C21.8752 0.518738 22.69 0.867067 23.3239 1.43669C23.9578 2.00632 24.374 2.76417 24.5056 3.58847L24.6537 4.5215C25.1583 7.68442 25.1112 10.906 24.5143 14.0541C24.3716 14.8067 23.9585 15.4874 23.3472 15.9775C22.7358 16.4676 21.9648 16.736 21.1686 16.736H8.13999C7.83953 16.736 7.54487 16.8071 7.2807 16.9438L1.6039 19.8754C1.43802 19.9611 1.25184 20.0039 1.06358 19.9997C0.875309 19.9956 0.691384 19.9445 0.529774 19.8517C0.368164 19.7588 0.234396 19.6272 0.14154 19.4698C0.0486835 19.3123 -8.46314e-05 19.1345 1.1025e-07 18.9535V7.07514C0.00037367 5.3414 0.682393 3.6718 1.90947 2.40069C3.13655 1.12959 4.8181 0.350818 6.61737 0.220348L6.89751 0.199428ZM6.8946 7.09885C6.4134 7.09885 5.95191 7.28252 5.61165 7.60946C5.27139 7.9364 5.08024 8.37982 5.08024 8.84219C5.08024 9.30455 5.27139 9.74797 5.61165 10.0749C5.95191 10.4018 6.4134 10.5855 6.8946 10.5855C7.37581 10.5855 7.8373 10.4018 8.17756 10.0749C8.51782 9.74797 8.70897 9.30455 8.70897 8.84219C8.70897 8.37982 8.51782 7.9364 8.17756 7.60946C7.8373 7.28252 7.37581 7.09885 6.8946 7.09885ZM12.7006 7.09885C12.2194 7.09885 11.7579 7.28252 11.4176 7.60946C11.0774 7.9364 10.8862 8.37982 10.8862 8.84219C10.8862 9.30455 11.0774 9.74797 11.4176 10.0749C11.7579 10.4018 12.2194 10.5855 12.7006 10.5855C13.1818 10.5855 13.6433 10.4018 13.9835 10.0749C14.3238 9.74797 14.515 9.30455 14.515 8.84219C14.515 8.37982 14.3238 7.9364 13.9835 7.60946C13.6433 7.28252 13.1818 7.09885 12.7006 7.09885ZM16.6922 8.84219C16.6922 8.37982 16.8834 7.9364 17.2236 7.60946C17.5639 7.28252 18.0254 7.09885 18.5066 7.09885C18.9878 7.09885 19.4493 7.28252 19.7895 7.60946C20.1298 7.9364 20.3209 8.37982 20.3209 8.84219C20.3209 9.30455 20.1298 9.74797 19.7895 10.0749C19.4493 10.4018 18.9878 10.5855 18.5066 10.5855C18.0254 10.5855 17.5639 10.4018 17.2236 10.0749C16.8834 9.74797 16.6922 9.30455 16.6922 8.84219Z" fill="#0A1640"/>
</svg>
