<svg width="50" height="50" viewBox="0 0 50 50" fill="none" xmlns="http://www.w3.org/2000/svg">
<path d="M45.3125 40.625C45.3125 41.0394 45.1479 41.4368 44.8549 41.7299C44.5618 42.0229 44.1644 42.1875 43.75 42.1875H6.25C5.8356 42.1875 5.43817 42.0229 5.14515 41.7299C4.85212 41.4368 4.6875 41.0394 4.6875 40.625C4.6875 40.2106 4.85212 39.8132 5.14515 39.5201C5.43817 39.2271 5.8356 39.0625 6.25 39.0625H43.75C44.1644 39.0625 44.5618 39.2271 44.8549 39.5201C45.1479 39.8132 45.3125 40.2106 45.3125 40.625ZM45.3125 10.9375V32.8125C45.3125 33.6413 44.9833 34.4362 44.3972 35.0222C43.8112 35.6083 43.0163 35.9375 42.1875 35.9375H7.8125C6.9837 35.9375 6.18884 35.6083 5.60279 35.0222C5.01674 34.4362 4.6875 33.6413 4.6875 32.8125V10.9375C4.6875 10.1087 5.01674 9.31384 5.60279 8.72779C6.18884 8.14174 6.9837 7.8125 7.8125 7.8125H42.1875C43.0163 7.8125 43.8112 8.14174 44.3972 8.72779C44.9833 9.31384 45.3125 10.1087 45.3125 10.9375ZM32.0312 21.875C32.0312 21.612 31.9647 21.3533 31.8381 21.1229C31.7114 20.8924 31.5286 20.6977 31.3066 20.5566L22.7129 15.0879C22.4767 14.9378 22.2045 14.8539 21.9248 14.845C21.6451 14.8361 21.3681 14.9025 21.1228 15.0372C20.8775 15.1719 20.6729 15.37 20.5304 15.6109C20.3878 15.8517 20.3126 16.1264 20.3125 16.4062V27.3438C20.3126 27.6236 20.3878 27.8983 20.5304 28.1391C20.6729 28.38 20.8775 28.5781 21.1228 28.7128C21.3681 28.8475 21.6451 28.9139 21.9248 28.905C22.2045 28.8961 22.4767 28.8122 22.7129 28.6621L31.3066 23.1934C31.5286 23.0523 31.7114 22.8576 31.8381 22.6271C31.9647 22.3967 32.0312 22.138 32.0312 21.875Z" fill="white"/>
</svg>
