<svg width="4" height="20" viewBox="0 0 4 20" fill="none" xmlns="http://www.w3.org/2000/svg">
<path d="M4.76837e-07 10C4.76837e-07 11.1046 0.895431 12 2 12C3.10457 12 4 11.1046 4 10C4 8.89543 3.10457 8 2 8C0.895431 8 4.76837e-07 8.89543 4.76837e-07 10Z" fill="white"/>
<path d="M0 2C0 3.10457 0.895431 4 2 4C3.10457 4 4 3.10457 4 2C4 0.89543 3.10457 0 2 0C0.895431 0 0 0.89543 0 2Z" fill="white"/>
<path d="M7.15256e-07 18C7.15256e-07 19.1046 0.895431 20 2 20C3.10457 20 4 19.1046 4 18C4 16.8954 3.10457 16 2 16C0.895431 16 7.15256e-07 16.8954 7.15256e-07 18Z" fill="white"/>
</svg>
