<svg xmlns="http://www.w3.org/2000/svg" width="100" height="100" viewBox="0 0 100 100" fill="none">
  <g clip-path="url(#clip0_37_147)">
    <path d="M68.327 30.1926C72.8635 28.5875 78.3697 23.2402 79.0141 20.8624C79.3923 19.4705 76.4324 17.7348 75.6063 16.9893C73.7164 15.2894 74.2676 14.2684 74.6262 11.919C75.0367 9.24792 72.9534 6.61212 70.3616 5.79778C67.7698 4.98344 64.8802 5.69825 62.5477 7.09379C60.2152 8.48934 58.326 10.5026 56.4752 12.4831C54.8499 11.7244 51.9286 7.84708 48.3718 11.0405C45.9134 13.2433 46.1738 17.3447 46.9234 20.5519C48.6646 27.9521 51.0088 31.6136 54.6486 32.2282C59.2469 33.0045 64.0677 31.7005 68.327 30.1926Z" fill="#3098C5"/>
    <path d="M73.2334 7.67744C73.8933 17.8598 64.7909 25.7959 60.4439 29.3323L63.8248 31.5624C63.8248 31.5624 65.7691 31.3638 68.32 30.1935C72.695 28.195 78.8446 23.3145 79.0071 20.8633C79.2502 17.2951 75.7437 18.4996 74.5899 15.8469C73.9858 14.4434 76.1334 11.3822 73.2334 7.67744ZM56.483 12.4892C56.483 12.4892 54.4878 10.9074 53.0725 10.2488C52.5703 11.551 52.2685 12.9335 52.2082 14.3282C52.0952 16.7803 52.927 20.1384 54.2073 22.5583C54.4089 22.9327 54.9711 22.8001 54.9825 22.3783C55.1412 16.8168 56.483 12.4892 56.483 12.4892Z" fill="black"/>
    <path d="M46.3229 32.0112C46.3229 32.0112 24.9321 37.0187 17.4647 56.9151C9.99722 76.8116 19.7118 87.1138 29.0216 90.1517C38.3314 93.1896 60.6835 91.9025 74.6857 86.7231C88.6879 81.5438 91.4244 74.059 89.9093 67.3454C87.7016 57.5437 77.6611 52.5925 77.6611 52.5925C77.6611 52.5925 76.5133 40.2916 65.9512 33.5202C56.5766 27.5057 46.3229 32.0112 46.3229 32.0112Z" fill="#4B93D8"/>
    <path d="M59.1099 62.3561C53.7395 57.1074 48.1521 57.0069 46.135 55.1336C45.035 54.1137 44.3294 53.031 44.3681 51.5759C44.4097 50.0294 46.0523 48.7613 47.3969 48.3357C48.9649 47.8334 52.8142 47.5183 56.4088 50.1633C57.2621 50.7864 57.1224 51.9387 57.2253 52.9418C57.4353 55.0948 60.786 56.7961 63.0662 54.6924C65.3525 52.5809 62.9312 48.8099 61.071 47.0643C59.6659 45.7458 54.8311 43.0581 49.2562 43.2294C47.6883 43.2762 41.3402 43.1298 38.5808 50.3722C37.7868 52.4532 37.9885 57.2204 43.9033 60.5382C45.1395 61.233 51.3867 63.4728 53.2582 65.1959C56.4994 68.1789 54.9231 71.3515 52.7606 72.0114C46.8643 73.8058 43.0513 70.9917 42.1994 69.2965C41.5914 68.0896 41.895 66.6648 41.1643 65.5502C40.4154 64.4027 39.1324 64.071 37.89 64.6381C33.8158 66.5013 35.7336 70.9372 37.9236 73.2375C40.2678 75.7009 42.9375 77.031 45.8217 77.585C56.585 79.6514 60.9076 73.7499 61.2975 69.7712C61.586 66.856 61.2126 64.408 59.1099 62.3561Z" fill="#BFDFED"/>
    <path d="M53.6419 38.6933C47.1458 58.4556 48.5478 82.2221 48.5478 82.2221" stroke="#BFDFED" stroke-width="5" stroke-miterlimit="10"/>
    <path d="M59.4929 26.038C65.5939 27.2099 67.545 32.3141 67.2986 33.8019C66.9995 35.5484 59.6898 29.7969 50.0773 31.3855C46.7165 31.9414 47.4421 29.7638 48.8591 28.3835C50.7296 26.5617 54.0579 25.0009 59.4929 26.038Z" fill="#6D4C41"/>
    <path d="M59.4929 26.038C65.5939 27.2099 67.545 32.3141 67.2986 33.8019C66.9995 35.5484 59.6898 29.7969 50.0773 31.3855C46.7165 31.9414 47.4421 29.7638 48.8591 28.3835C50.7296 26.5617 54.0579 25.0009 59.4929 26.038Z" fill="#104F6A"/>
    <path d="M72.09 43.326C72.7645 42.7311 75.3464 43.2944 76.6365 48.0181C77.2682 50.3291 77.6542 52.5933 77.6542 52.5933C77.6542 52.5933 74.4131 50.353 73.2208 48.6439C71.7184 46.4827 70.9692 44.3054 72.09 43.326Z" fill="#104F6A"/>
  </g>
  <defs>
    <clipPath id="clip0_37_147">
      <rect width="89.6442" height="89" fill="white" transform="translate(0 11.0067) rotate(-7.05269)"/>
    </clipPath>
  </defs>
</svg>