<svg xmlns="http://www.w3.org/2000/svg" width="175" height="159" viewBox="0 0 175 159" fill="none">
  <path d="M122.795 101.919V102.208L123.045 102.352L142.022 113.311L136.555 122.781L111.864 108.547V80H122.795V101.919ZM64.7671 95.4749L64.8542 94.9H64.2727H0.5V0.5H142.682V53.106V53.421L142.966 53.557C161.574 62.4616 174.5 81.3715 174.5 103.35C174.5 133.84 149.826 158.5 119.318 158.5C88.81 158.5 64.1364 133.84 64.1364 103.35C64.1364 100.677 64.3723 98.0787 64.7671 95.4749ZM69.0455 80H69.3544L69.4926 79.7237C70.9179 76.8748 72.4172 74.1946 74.2283 71.5975L75.091 70.3605L73.6601 70.8371C73.0337 71.0458 72.3999 71.05 71.5909 71.05C58.6622 71.05 48.2273 60.6206 48.2273 47.7C48.2273 34.7794 58.6622 24.35 71.5909 24.35C84.5196 24.35 94.9546 34.7794 94.9546 47.7C94.9546 49.6358 94.6444 51.5801 94.1753 53.3772L93.9002 54.4313L94.8788 53.9526C102.293 50.3264 110.571 48.2 119.318 48.2C121.993 48.2 124.593 48.4358 127.198 48.8304L127.773 48.9174V48.336V31.8V31.3H127.273C123.186 31.3 119.266 29.6774 116.377 26.7893C113.487 23.9013 111.864 19.9842 111.864 15.9V15.4H111.364H31.8182H31.3182V15.9C31.3182 24.4481 24.4628 31.3 15.9091 31.3H15.4091V31.8V63.6V64.1H15.9091C19.9959 64.1 23.9153 65.7226 26.8051 68.6107C29.6948 71.4987 31.3182 75.4158 31.3182 79.5V80H31.8182H69.0455ZM159.591 103.35C159.591 81.1316 141.549 63.1 119.318 63.1C97.0878 63.1 79.0455 81.1316 79.0455 103.35C79.0455 125.568 97.0878 143.6 119.318 143.6C141.549 143.6 159.591 125.568 159.591 103.35Z" fill="#4B93D8" stroke="#0167A4"/>
</svg>