<svg width="57" height="40" viewBox="0 0 57 40" fill="none" xmlns="http://www.w3.org/2000/svg">
<path d="M31.4474 3.14474C31.4474 1.40795 30.0394 0 28.3026 0C26.5658 0 25.1579 1.40795 25.1579 3.14474L25.1579 36.6886C25.1579 38.4254 26.5658 39.8333 28.3026 39.8333C30.0394 39.8333 31.4474 38.4254 31.4474 36.6886L31.4474 3.14474Z" fill="#4B93D8"/>
<path d="M18.8684 7.33772C18.8684 5.60093 17.4605 4.19298 15.7237 4.19298C13.9869 4.19298 12.5789 5.60093 12.5789 7.33772L12.5789 32.4956C12.5789 34.2324 13.9869 35.6404 15.7237 35.6404C17.4605 35.6404 18.8684 34.2324 18.8684 32.4956V7.33772Z" fill="#4B93D8"/>
<path d="M44.0263 7.33772C44.0263 5.60093 42.6184 4.19298 40.8816 4.19298C39.1448 4.19298 37.7368 5.60093 37.7368 7.33772V32.4956C37.7368 34.2324 39.1448 35.6404 40.8816 35.6404C42.6184 35.6404 44.0263 34.2324 44.0263 32.4956V7.33772Z" fill="#4B93D8"/>
<path d="M6.28947 15.7237C6.28947 13.9869 4.88153 12.5789 3.14474 12.5789C1.40795 12.5789 0 13.9869 0 15.7237V24.1096C0 25.8464 1.40795 27.2544 3.14474 27.2544C4.88153 27.2544 6.28947 25.8464 6.28947 24.1096V15.7237Z" fill="#4B93D8"/>
<path d="M56.6053 15.7237C56.6053 13.9869 55.1973 12.5789 53.4605 12.5789C51.7237 12.5789 50.3158 13.9869 50.3158 15.7237V24.1096C50.3158 25.8464 51.7237 27.2544 53.4605 27.2544C55.1973 27.2544 56.6053 25.8464 56.6053 24.1096V15.7237Z" fill="#4B93D8"/>
</svg>
