<svg width="24" height="24" viewBox="0 0 24 24" fill="none" xmlns="http://www.w3.org/2000/svg">
<path d="M14.5864 6.42589C13.1821 5.61556 12.0912 4.98612 11.2052 4.57779C10.316 4.16792 9.54407 3.93646 8.79348 4.01531C7.60223 4.14044 6.51776 4.76506 5.81103 5.7372C5.36463 6.35124 5.17877 7.13935 5.0892 8.11506C4.99999 9.08685 5 10.3464 5 11.9662V12.0338C5 13.6536 4.99999 14.9131 5.0892 15.8849C5.17877 16.8606 5.36463 17.6488 5.81103 18.2628C6.51775 19.2349 7.60223 19.8596 8.79348 19.9847C9.54407 20.0635 10.316 19.8321 11.2052 19.4222C12.0912 19.0139 13.182 18.3845 14.5864 17.5741L14.6434 17.5412C16.0477 16.731 17.1386 16.1015 17.9355 15.5388C18.7347 14.9745 19.3238 14.4207 19.6327 13.7274C20.1224 12.628 20.1224 11.372 19.6327 10.2726C19.3238 9.57925 18.7347 9.02546 17.9355 8.46116C17.1386 7.89848 16.0477 7.26903 14.6434 6.45876L14.5864 6.42589Z" fill="white"/>
</svg>
