<svg width="30" height="28" viewBox="0 0 30 28" fill="none" xmlns="http://www.w3.org/2000/svg">
<path d="M30 14C30 14.4456 29.8104 14.8729 29.4728 15.1879C29.1352 15.503 28.6774 15.68 28.2 15.68H16.8V26.32C16.8 26.7656 16.6104 27.1929 16.2728 27.5079C15.9352 27.823 15.4774 28 15 28C14.5226 28 14.0648 27.823 13.7272 27.5079C13.3896 27.1929 13.2 26.7656 13.2 26.32V15.68H1.8C1.32261 15.68 0.864773 15.503 0.527208 15.1879C0.189642 14.8729 0 14.4456 0 14C0 13.5544 0.189642 13.1271 0.527208 12.8121C0.864773 12.497 1.32261 12.32 1.8 12.32H13.2V1.68C13.2 1.23444 13.3896 0.807122 13.7272 0.492061C14.0648 0.177 14.5226 0 15 0C15.4774 0 15.9352 0.177 16.2728 0.492061C16.6104 0.807122 16.8 1.23444 16.8 1.68V12.32H28.2C28.6774 12.32 29.1352 12.497 29.4728 12.8121C29.8104 13.1271 30 13.5544 30 14Z" fill="#4B93D8"/>
</svg>
