<svg width="1477" height="1558" viewBox="0 0 1477 1558" fill="none" xmlns="http://www.w3.org/2000/svg">
<path d="M488.098 374.169C573.534 281.355 615.901 235.381 667.208 210.687C713.164 188.569 764.026 178.616 814.929 181.78C871.76 185.312 928.331 211.926 1042.45 265.69C1118.09 301.325 1174.71 328.002 1217.93 352.829C1261.13 377.644 1290.79 400.528 1312.58 428.502C1351.54 478.534 1373.53 539.691 1375.34 603.08C1376.35 638.522 1368.05 675.051 1350.54 721.693C1333.02 768.357 1306.35 824.979 1270.71 900.619L1144.88 1167.73C1118.33 1224.08 1105.16 1252 1088.38 1274.98C1042.1 1338.32 972.706 1380.87 895.256 1393.37C867.171 1397.91 836.31 1396.97 774.048 1395.07C734.487 1393.86 714.881 1393.26 696.168 1390.28C644.846 1382.12 596.552 1360.67 556.077 1328.08C541.32 1316.2 527.723 1302.06 500.295 1273.52L407.954 1177.46C362.367 1130.03 339.783 1106.52 323.113 1079.52C308.303 1055.54 296.971 1029.57 289.456 1002.4C280.998 971.819 279.119 939.274 275.349 873.6L272.455 823.19C268.152 748.226 266.033 711.076 272.575 675.737C278.384 644.361 289.195 614.121 304.595 586.174C321.939 554.697 347.13 527.31 397.984 472.065L488.098 374.169Z" stroke="#3098C5" stroke-width="4"/>
<path d="M436.74 349.556C518.9 253.829 559.644 206.411 610.062 179.949C655.221 156.249 705.708 144.534 756.689 145.928C813.609 147.483 871.07 172.116 986.989 221.882C1063.82 254.868 1121.33 279.561 1165.39 302.872C1209.43 326.171 1239.87 348.01 1262.61 375.211C1303.29 423.859 1327.38 484.216 1331.4 547.502C1333.64 582.888 1326.62 619.684 1310.74 666.906C1294.85 714.15 1270.16 771.665 1237.17 848.497L1120.69 1119.82C1096.12 1177.05 1083.93 1205.42 1067.96 1228.96C1023.9 1293.88 956.031 1338.81 879.062 1354C851.152 1359.51 820.277 1359.65 757.986 1359.91C718.407 1360.07 698.792 1360.15 679.987 1357.83C628.413 1351.45 579.402 1331.7 537.82 1300.53C522.658 1289.16 508.579 1275.51 480.176 1247.94L384.553 1155.14C337.346 1109.33 313.959 1086.62 296.36 1060.22C280.726 1036.76 268.499 1011.2 260.045 984.31C250.529 954.04 247.52 921.58 241.471 856.076L236.828 805.797C229.922 731.028 226.514 693.974 231.825 658.43C236.54 626.871 246.294 596.273 260.713 567.808C276.953 535.747 301.178 507.502 350.081 450.523L436.74 349.556Z" stroke="#3098C5" stroke-opacity="0.31" stroke-width="4"/>
</svg>
