<svg xmlns="http://www.w3.org/2000/svg" width="182" height="182" viewBox="0 0 182 182" fill="none">
  <path d="M81.8889 173C122.145 173 154.778 140.367 154.778 100.111C154.778 59.8557 122.145 27.2224 81.8889 27.2224C41.6333 27.2224 9 59.8557 9 100.111C9 140.367 41.6333 173 81.8889 173Z" fill="transparent" stroke="#4B93D8" stroke-width="18" stroke-linecap="round" stroke-linejoin="round"/>
  <path d="M81.8889 118.333C91.9526 118.333 100.111 110.175 100.111 100.111C100.111 90.0475 91.9526 81.8889 81.8889 81.8889C71.8252 81.8889 63.6667 90.0475 63.6667 100.111C63.6667 110.175 71.8252 118.333 81.8889 118.333Z" fill="#0167A4" stroke="#4B93D8" stroke-width="18" stroke-linecap="round" stroke-linejoin="round"/>
  <path d="M81.8889 9C93.8536 9 105.702 11.3567 116.756 15.9354C127.81 20.5142 137.854 27.2254 146.314 35.6859C154.775 44.1461 161.486 54.1902 166.065 65.2443C170.643 76.2983 173 88.1464 173 100.111H136.585C136.585 92.9284 135.17 85.8158 132.421 79.1797C129.673 72.5441 125.644 66.5143 120.565 61.4354C115.486 56.3564 109.456 52.3274 102.82 49.5786C96.1842 46.8298 89.0716 45.4153 81.8889 45.4153V9Z" fill="#0167A4" stroke="#4B93D8" stroke-width="18" stroke-linecap="round" stroke-linejoin="round"/>
</svg>