<svg width="136" height="6" viewBox="0 0 136 6" fill="none" xmlns="http://www.w3.org/2000/svg">
<path d="M0.333333 3C0.333333 4.47276 1.52724 5.66667 3 5.66667C4.47276 5.66667 5.66667 4.47276 5.66667 3C5.66667 1.52724 4.47276 0.333333 3 0.333333C1.52724 0.333333 0.333333 1.52724 0.333333 3ZM130.333 3C130.333 4.47276 131.527 5.66667 133 5.66667C134.473 5.66667 135.667 4.47276 135.667 3C135.667 1.52724 134.473 0.333333 133 0.333333C131.527 0.333333 130.333 1.52724 130.333 3ZM3 3.5H133V2.5H3V3.5Z" fill="white"/>
</svg>
