<svg width="1725" height="1627" viewBox="0 0 1725 1627" fill="none" xmlns="http://www.w3.org/2000/svg">
<rect width="1725" height="1627" fill="none"/>
<path d="M878.834 47.6305C969.518 -40.7352 1014.86 -84.918 1068.19 -106.985C1115.27 -126.467 1166.54 -133.636 1217.16 -127.816C1274.5 -121.223 1330.22 -91.172 1441.66 -31.0699L2037.96 290.512C2185.84 370.264 2259.78 410.14 2300.74 469.381C2336.77 521.491 2355.38 583.67 2353.9 647.007C2352.22 719.011 2312.35 792.951 2232.59 940.833L1716.48 1897.83C1662.42 1998.08 1635.39 2048.21 1595.98 2083.33C1561.15 2114.36 1519.56 2136.85 1474.51 2149C1423.55 2162.75 1366.81 2157.92 1253.31 2148.26L994.481 2126.24C922.45 2120.11 886.435 2117.04 853.167 2106.12C823.671 2096.44 795.856 2082.23 770.718 2064.01C742.365 2043.47 718.768 2016.09 671.574 1961.33L353.802 1592.61C310.912 1542.84 289.468 1517.96 274.162 1489.87C260.585 1464.94 250.613 1438.22 244.544 1410.5C237.702 1379.25 237.603 1346.4 237.404 1280.7L236.184 877.777C235.957 802.787 235.844 765.293 244.365 730.072C251.92 698.849 264.44 669.042 281.447 641.79C300.632 611.049 327.486 584.882 381.194 532.547L878.834 47.6305Z" fill="#104F6A"/>
<path d="M974.416 1582.04L974.318 1582.03L974.218 1582.03L483.001 1576.84C401.98 1575.98 341.333 1575.34 293.124 1570.95C244.938 1566.57 209.346 1558.46 178.408 1542.75C123.758 1515.01 78.9895 1471.1 50.2035 1416.99C33.9078 1386.36 25.1133 1350.93 19.8037 1302.84C14.4914 1254.72 12.6819 1194.1 10.2664 1113.11L4.13006 907.358C1.37564 815.002 0.0303861 769.232 11.2273 727.215C21.1568 689.953 38.2239 654.973 61.4819 624.215C87.7084 589.53 124.611 562.422 199.1 507.754L670.123 162.064C735.228 114.282 783.962 78.5175 825.025 53.1655C866.067 27.8262 899.306 12.9811 933.386 6.95201C993.59 -3.69876 1055.61 4.42586 1111.04 30.2239C1142.42 44.8274 1170.71 67.7328 1203.84 102.788C1236.99 137.861 1274.87 184.972 1325.47 247.91L1470.99 428.909C1496.16 460.211 1508.63 475.725 1518.84 492.567C1527.92 507.549 1535.66 523.302 1541.97 539.644C1549.07 558.016 1553.74 577.364 1563.15 616.409L1658.84 1013.37C1685.8 1125.23 1705.98 1208.99 1715.76 1275.25C1725.54 1341.5 1724.85 1390 1710.28 1431.39C1684.66 1504.13 1631.83 1564.11 1562.91 1598.72C1523.69 1618.41 1475.67 1625.21 1408.71 1623.88C1341.74 1622.56 1256.1 1613.11 1141.74 1600.5L974.416 1582.04Z" stroke="#3098C5" stroke-width="4"/>
<path d="M860.383 -20.909C948.063 -112.498 991.541 -157.864 1043.64 -181.572C1089.7 -202.538 1140.35 -211.424 1190.81 -207.393C1247.86 -202.835 1304.19 -174.978 1417.81 -118.707L2024.91 181.963C2100.23 219.261 2156.6 247.183 2199.53 272.995C2242.44 298.796 2271.76 322.402 2293.04 350.997C2330.61 401.485 2351.23 462.57 2351.94 525.497C2352.35 561.137 2343.33 597.685 2324.84 644.213C2306.34 690.763 2278.42 747.139 2241.12 822.45L1758.57 1796.8C1707.95 1899.01 1682.84 1949.65 1644.99 1985.81C1611.49 2017.83 1570.98 2041.59 1526.68 2055.2C1476.64 2070.58 1420.19 2067.78 1306.27 2062.06L1046.83 2049.05C974.539 2045.42 938.714 2043.61 905.364 2033.93C875.747 2025.33 847.644 2012.19 822.059 1994.97C793.249 1975.58 768.892 1949.25 719.76 1896.09L389.37 1538.64C344.72 1490.33 322.6 1466.38 306.461 1439.06C292.123 1414.79 281.301 1388.61 274.32 1361.3C266.461 1330.55 265.22 1297.98 262.735 1232.24L247.518 829.605C244.682 754.572 243.29 717.387 250.522 682.184C256.944 650.927 268.345 620.904 284.288 593.263C302.244 562.132 327.967 535.244 379.892 481.004L860.383 -20.909Z" stroke="#3098C5" stroke-opacity="0.31" stroke-width="4"/>
</svg>
