<svg xmlns="http://www.w3.org/2000/svg" width="26" height="26" viewBox="0 0 26 26" fill="none">
  <g clip-path="url(#clip0_65_325)">
    <path d="M25.5623 14.5492H12.5255C11.8269 14.4953 11.1353 14.7188 10.6002 15.1711C10.0651 15.6234 9.72973 16.2683 9.66658 16.9661L9.6655 16.9758C9.72956 17.6828 10.0717 18.3354 10.6167 18.7902C11.1617 19.2451 11.8651 19.4649 12.5721 19.4014L12.5623 19.4025H25.5623C25.6442 19.4101 25.7267 19.4012 25.805 19.3765C25.8834 19.3517 25.956 19.3116 26.0187 19.2584C26.0814 19.2053 26.1328 19.1401 26.1699 19.0668C26.2071 18.9935 26.2292 18.9135 26.2351 18.8316V15.1222C26.2138 14.9637 26.1358 14.8183 26.0155 14.7129C25.8952 14.6075 25.7407 14.5493 25.5807 14.5492H25.5612H25.5623ZM12.5255 18.4903C12.2191 18.4903 11.9196 18.3995 11.6648 18.2292C11.4101 18.059 11.2115 17.8171 11.0943 17.534C10.977 17.2509 10.9463 16.9394 11.0061 16.6389C11.0659 16.3384 11.2134 16.0624 11.4301 15.8457C11.6467 15.6291 11.9228 15.4815 12.2233 15.4218C12.5238 15.362 12.8353 15.3927 13.1183 15.5099C13.4014 15.6272 13.6434 15.8257 13.8136 16.0805C13.9838 16.3353 14.0747 16.6348 14.0747 16.9412V16.9455C14.0747 17.7992 13.3824 18.4903 12.5298 18.4903H12.5255ZM3.56958 0V6.93767H5.05158V3.97367C5.20108 4.0105 5.37441 4.03433 5.55208 4.04083H5.55641C6.09192 4.0394 6.60511 3.82612 6.98387 3.44755C7.36263 3.06899 7.5762 2.55592 7.57791 2.02042C7.57433 1.84454 7.55033 1.66968 7.50641 1.49933L7.50966 1.51558H15.626C15.5869 1.67974 15.5644 1.84742 15.5588 2.01608V2.02042C15.5603 2.55592 15.7735 3.06911 16.1521 3.44787C16.5307 3.82664 17.0437 4.0402 17.5792 4.04192C17.7612 4.03542 17.9357 4.01158 18.1025 3.97042L18.0852 3.97367V6.93767H19.6029V0H3.56958ZM20.241 6.09483H22.1271C21.9858 5.68439 21.7382 5.31875 21.4095 5.03518C21.0809 4.75162 20.6829 4.56028 20.2562 4.48067L20.241 4.4785V6.09483Z" fill="white"/>
    <path d="M12.4269 13.741H25.3598V9.80092C25.3044 9.21644 25.0216 8.67712 24.5724 8.29919C24.1231 7.92125 23.5433 7.73498 22.958 7.7805H22.9656H2.42558C2.4081 7.76141 2.38418 7.74946 2.35842 7.74692C2.21601 7.68 2.09409 7.57621 2.00532 7.44629C1.91655 7.31637 1.86416 7.16507 1.85358 7.00808V7.00592C1.87083 6.81106 1.9472 6.62613 2.07247 6.47588C2.19774 6.32564 2.36592 6.21726 2.5545 6.16525L2.561 6.16417V4.44708C1.14508 4.51425 0 6.53467 0 9.061V23.9807C0.0558905 24.5644 0.338554 25.103 0.787248 25.4806C1.23594 25.8582 1.81485 26.0447 2.39958 26H2.392H22.932C23.5142 26.043 24.0902 25.8566 24.5369 25.4807C24.9836 25.1049 25.2657 24.5692 25.3229 23.9882L25.324 23.9796V20.0395H12.4627C10.3751 20.0395 8.6905 18.6247 8.6905 16.9076C8.6905 15.1569 10.374 13.7421 12.428 13.7421L12.4269 13.741Z" fill="white"/>
  </g>
  <defs>
    <clipPath id="clip0_65_325">
      <rect width="26" height="26" fill="white"/>
    </clipPath>
  </defs>
</svg>